<?xml version="1.0" encoding="UTF-8"?>
<svg width="506px" height="399px" viewBox="0 0 506 399" version="1.1" xmlns="http://www.w3.org/2000/svg" xmlns:xlink="http://www.w3.org/1999/xlink">
    <!-- Generator: Sketch 61.2 (89653) - https://sketch.com -->
    <title>LogoMarca-Abradee-c-assinatura-1</title>
    <desc>Created with Sketch.</desc>
    <g id="Page-1" stroke="none" stroke-width="1" fill="none" fill-rule="evenodd">
        <g id="LogoMarca-Abradee-c-assinatura-1">
            <path d="M241.07,59.52 C236.18,61.52 232.21,58.45 232.21,52.69 C232.21,46.93 236.21,39.8 241.07,36.69 C245.93,33.58 249.92,36.54 249.92,43.37 C249.92,50.2 245.96,57.47 241.07,59.52 Z" id="Path" fill="#FFFFFF"></path>
            <path d="M242.29,89.5 C237.14,90.26 232.97,85.94 232.97,79.86 C232.97,73.78 237.14,67.33 242.29,65.45 C247.44,63.57 251.6,67.78 251.6,75.01 C251.6,82.24 247.4,88.73 242.29,89.5 Z" id="Path" fill="#FFFFFF"></path>
            <path d="M242.23,119.42 C237.1,118.83 232.91,113.42 232.91,107.33 C232.91,101.24 237.1,95.91 242.23,95.33 C247.36,94.75 251.55,100.18 251.55,107.4 C251.55,114.62 247.38,120.02 242.23,119.42 Z" id="Path" fill="#FFFFFF"></path>
            <path d="M219.05,69.41 C213.63,71.41 209.25,68.97 209.25,63.91 C209.25,58.85 213.63,52.25 219.05,49.1 C224.47,45.95 228.86,48.23 228.86,54.42 C228.86,60.61 224.48,67.32 219.05,69.41 Z" id="Path" fill="#FFFFFF"></path>
            <path d="M219.08,92.91 C213.93,93.61 209.76,90.26 209.76,85.45 C209.76,80.64 213.93,75.35 219.08,73.61 C224.23,71.87 228.4,75.12 228.4,80.99 C228.4,86.86 224.23,92.2 219.08,92.91 Z" id="Path" fill="#FFFFFF"></path>
            <path d="M219.1,116.91 C213.95,116.37 209.78,112.03 209.78,107.21 C209.78,102.39 213.95,98.11 219.1,97.62 C224.25,97.13 228.42,101.45 228.42,107.31 C228.42,113.17 224.29,117.47 219.1,116.91 Z" id="Path" fill="#FFFFFF"></path>
            <path d="M195.88,77.43 C190.73,79.21 186.56,77.66 186.56,74.01 C186.56,70.36 190.73,65.24 195.88,62.51 C201.03,59.78 205.2,61.15 205.2,65.77 C205.2,70.39 201.02,75.62 195.88,77.43 Z" id="Path" fill="#FFFFFF"></path>
            <path d="M195.88,96.02 C190.73,96.65 186.56,94.2 186.56,90.55 C186.56,86.9 190.73,82.68 195.88,81.09 C201.03,79.5 205.2,81.86 205.2,86.48 C205.2,91.1 201.02,95.37 195.88,96.02 Z" id="Path" fill="#FFFFFF"></path>
            <path d="M195.89,114.62 C190.75,114.13 186.57,110.76 186.57,107.11 C186.57,103.46 190.75,100.11 195.89,99.7 C201.03,99.29 205.2,102.6 205.2,107.21 C205.2,111.82 201.04,115.14 195.89,114.62 Z" id="Path" fill="#FFFFFF"></path>
            <path d="M173.99,85.12 C169.48,86.7 165.83,85.83 165.83,83.22 C165.83,80.61 169.48,76.55 173.99,74.14 C178.5,71.73 182.16,72.42 182.16,75.9 C182.16,79.38 178.5,83.52 173.99,85.12 Z" id="Path" fill="#FFFFFF"></path>
            <path d="M173.97,98.84 C169.46,99.4 165.81,97.73 165.81,95.12 C165.81,92.51 169.46,89.26 173.97,87.84 C178.48,86.42 182.14,88.03 182.14,91.5 C182.14,94.97 178.48,98.26 173.97,98.84 Z" id="Path" fill="#FFFFFF"></path>
            <path d="M173.97,112.5 C169.46,112.06 165.81,109.58 165.81,106.96 C165.81,104.34 169.46,101.91 173.97,101.51 C178.48,101.11 182.14,103.58 182.14,107.05 C182.14,110.52 178.48,112.96 173.97,112.5 Z" id="Path" fill="#FFFFFF"></path>
            <path d="M241.07,155.88 C236.18,153.81 232.21,156.83 232.21,162.59 C232.21,168.35 236.21,175.53 241.07,178.66 C245.93,181.79 249.92,178.92 249.92,172.09 C249.92,165.26 245.96,157.99 241.07,155.88 Z" id="Path" fill="#FFFFFF"></path>
            <path d="M242.29,125.9 C237.14,125.08 232.97,129.35 232.97,135.44 C232.97,141.53 237.14,148.01 242.29,149.96 C247.44,151.91 251.6,147.74 251.6,140.52 C251.6,133.3 247.4,126.74 242.29,125.9 Z" id="Path" fill="#FFFFFF"></path>
            <path d="M219.05,145.72 C213.63,143.61 209.25,146.03 209.25,151.09 C209.25,156.15 213.63,162.81 219.05,166.02 C224.47,169.23 228.86,167.02 228.86,160.82 C228.86,154.62 224.48,147.87 219.05,145.72 Z" id="Path" fill="#FFFFFF"></path>
            <path d="M219.08,122.2 C213.93,121.44 209.76,124.73 209.76,129.54 C209.76,134.35 213.93,139.69 219.08,141.49 C224.23,143.29 228.4,140.09 228.4,134.23 C228.4,128.37 224.23,122.99 219.08,122.2 Z" id="Path" fill="#FFFFFF"></path>
            <path d="M195.88,137.41 C190.73,135.57 186.56,137.06 186.56,140.72 C186.56,144.38 190.73,149.54 195.88,152.33 C201.03,155.12 205.2,153.8 205.2,149.18 C205.2,144.56 201.02,139.28 195.88,137.41 Z" id="Path" fill="#FFFFFF"></path>
            <path d="M195.88,118.82 C190.73,118.12 186.56,120.52 186.56,124.18 C186.56,127.84 190.73,132.1 195.88,133.75 C201.03,135.4 205.2,133.09 205.2,128.48 C205.2,123.87 201.02,119.53 195.88,118.82 Z" id="Path" fill="#FFFFFF"></path>
            <path d="M173.99,129.45 C169.48,127.81 165.83,128.64 165.83,131.25 C165.83,133.86 169.48,137.96 173.99,140.44 C178.5,142.92 182.16,142.25 182.16,138.77 C182.16,135.29 178.5,131.11 173.99,129.45 Z" id="Path" fill="#FFFFFF"></path>
            <path d="M173.97,115.73 C169.46,115.12 165.81,116.73 165.81,119.35 C165.81,121.97 169.46,125.26 173.97,126.72 C178.48,128.18 182.14,126.64 182.14,123.17 C182.14,119.7 178.48,116.36 173.97,115.73 Z" id="Path" fill="#FFFFFF"></path>
            <path d="M0,395.1 L3.42,382.99 L5.29,382.99 L8.72,395.1 L7.42,395.1 L6.42,391.31 L2.42,391.31 L1.42,395.1 L0,395.1 Z M2.65,390.2 L6.03,390.2 L4.42,383.96 L4.29,383.96 L2.65,390.2 Z" id="Shape" fill="#B1A683"></path>
            <path d="M15.95,386.08 C15.723865,384.834947 14.6250615,383.939783 13.36,383.97 C12.8268522,383.895688 12.2881579,384.061202 11.8887137,384.422052 C11.4892695,384.782903 11.2700575,385.302068 11.29,385.84 C11.29,388.49 17.55,387.84 17.55,391.71 C17.55,393.48 16.64,395.27 13.81,395.27 C11.37,395.27 10.41,393.56 9.81,392.12 L10.93,391.68 C11.2269602,393.069274 12.4302625,394.078894 13.85,394.13 C14.4744924,394.218682 15.1063013,394.027347 15.5766705,393.607099 C16.0470396,393.186851 16.3080552,392.580499 16.29,391.95 C16.29,388.86 10.04,389.77 10.04,385.95 C10.0406195,385.084696 10.4005687,384.258512 11.0338471,383.668842 C11.6671255,383.079173 12.5168496,382.778985 13.38,382.84 C15.1688095,382.818167 16.7156155,384.082586 17.05,385.84 L15.95,386.08 Z" id="Path" fill="#B1A683"></path>
            <path d="M26.48,385.81 C26.1419176,384.054789 24.5973858,382.792229 22.81,382.81 C21.9459254,382.749109 21.0952527,383.049024 20.4604267,383.63837 C19.8256007,384.227716 19.4633921,385.053789 19.46,385.92 C19.46,389.75 25.72,388.84 25.72,391.92 C25.7431114,392.55257 25.4862949,393.163182 25.0180058,393.589074 C24.5497167,394.014967 23.9175458,394.212858 23.29,394.13 C21.8713183,394.08149 20.6695254,393.069671 20.38,391.68 L19.25,392.12 C19.84,393.56 20.8,395.27 23.25,395.27 C26.08,395.27 26.99,393.48 26.99,391.71 C26.99,387.82 20.71,388.49 20.74,385.84 C20.74,384.64 21.52,383.97 22.82,383.97 C24.083613,383.944002 25.1800256,384.837219 25.41,386.08 L26.48,385.81 Z" id="Path" fill="#B1A683"></path>
            <path d="M33.01,382.83 C35.73,382.83 37.36,385.01 37.36,389.05 C37.36,393.09 35.73,395.27 33.01,395.27 C30.29,395.27 28.66,393.09 28.66,389.05 C28.66,385.01 30.28,382.83 33.01,382.83 Z M33.01,394.13 C35.01,394.13 36.12,392.49 36.12,389.05 C36.12,385.61 34.97,383.97 33.01,383.97 C31.05,383.97 29.89,385.61 29.89,389.05 C29.89,392.49 31.05,394.13 33.01,394.13 Z" id="Shape" fill="#B1A683"></path>
            <path d="M45.86,391.25 C45.52,392.72 44.86,394.13 43.15,394.13 C41.44,394.13 40.04,392.55 40.04,389.05 C40.04,385.55 41.3,383.97 42.9,383.97 C44.5,383.97 45.28,384.97 45.68,386.72 L46.82,386.35 C46.32,384.13 45.12,382.83 43.06,382.83 C40.38,382.83 38.8,385.11 38.8,389.05 C38.8,393.29 40.56,395.27 43.06,395.27 C45.33,395.27 46.47,393.73 46.97,391.48 L45.86,391.25 Z" id="Path" fill="#B1A683"></path>
            <rect id="Rectangle" fill="#B1A683" fill-rule="nonzero" x="49.51" y="382.99" width="1.23" height="12.11"></rect>
            <path d="M53.07,395.1 L56.49,382.99 L58.29,382.99 L61.71,395.1 L60.41,395.1 L59.41,391.31 L55.41,391.31 L54.41,395.1 L53.07,395.1 Z M55.72,390.17 L59.1,390.17 L57.5,383.93 L57.29,383.93 L55.72,390.17 Z" id="Shape" fill="#B1A683"></path>
            <path d="M69.82,391.25 C69.48,392.72 68.82,394.13 67.11,394.13 C65.4,394.13 64,392.55 64,389.05 C64,385.55 65.26,383.97 66.86,383.97 C68.46,383.97 69.23,384.97 69.64,386.72 L70.78,386.35 C70.28,384.13 69.08,382.83 67.02,382.83 C64.33,382.83 62.76,385.11 62.76,389.05 C62.76,393.29 64.52,395.27 67.02,395.27 C69.3,395.27 70.44,393.73 70.93,391.48 L69.82,391.25 Z M66.82,395.1 L67.56,395.1 L66.83,396.1 L66.83,396.1 C66.9806008,396.044176 67.13943,396.013762 67.3,396.01 C67.6660079,396.001994 68.0176673,396.152322 68.2647867,396.422429 C68.5119061,396.692536 68.6304445,397.056145 68.59,397.42 C68.59,398.35 67.88,398.85 66.72,398.85 C66.2157987,398.849564 65.7188814,398.729618 65.27,398.5 L65.54,397.76 C65.8356855,397.960487 66.1828527,398.071581 66.54,398.08 C67.09,398.08 67.4,397.81 67.4,397.36 C67.4054981,397.190379 67.3412248,397.025918 67.22217,396.904973 C67.1031151,396.784029 66.939687,396.717174 66.77,396.72 C66.5270277,396.715498 66.2856141,396.7597 66.06,396.85 L65.8,396.54 L66.82,395.1 Z" id="Shape" fill="#B1A683"></path>
            <path d="M71.9,395.1 L75.29,382.99 L77.12,382.99 L80.55,395.1 L79.29,395.1 L78.29,391.31 L74.29,391.31 L73.29,395.1 L71.9,395.1 Z M78.9,380.26 C78.83,381.08 78.24,382.05 77.41,382.05 C76.9931489,382.021462 76.5857112,381.912812 76.21,381.73 C75.8451583,381.55765 75.4521807,381.45263 75.05,381.42 C74.73,381.42 74.42,381.83 74.4,382.2 L73.63,382.2 C73.72,381.2 74.26,380.37 75.28,380.37 C75.6743638,380.39218 76.0595236,380.497843 76.41,380.68 C76.717289,380.855421 77.0579572,380.964435 77.41,381 C77.8043203,380.974611 78.1154216,380.654868 78.13,380.26 L78.9,380.26 L74.55,390.2 L77.93,390.2 L76.29,383.93 L76.13,383.93 L74.55,390.2 L78.9,380.26 Z" id="Shape" fill="#B1A683"></path>
            <path d="M86.08,382.83 C88.81,382.83 90.42,385.01 90.42,389.05 C90.42,393.09 88.81,395.27 86.08,395.27 C83.35,395.27 81.73,393.09 81.73,389.05 C81.73,385.01 83.35,382.83 86.08,382.83 Z M86.08,394.13 C88.08,394.13 89.19,392.49 89.19,389.05 C89.19,385.61 88.04,383.97 86.08,383.97 C84.12,383.97 82.97,385.61 82.97,389.05 C82.97,392.49 84.12,394.13 86.08,394.13 Z" id="Shape" fill="#B1A683"></path>
            <path d="M97.59,382.99 L101.69,382.99 C102.510895,382.936111 103.316439,383.231 103.908526,383.802145 C104.500613,384.37329 104.824306,385.167697 104.8,385.99 C104.899072,387.241897 104.118755,388.39577 102.92,388.77 L102.92,388.77 C104.2398,389.15868 105.126043,390.395299 105.07,391.77 C105.07,393.58 104.07,395.02 101.07,395.02 L97.59,395.02 L97.59,382.99 Z M98.82,388.19 L100.98,388.19 C102.84,388.19 103.57,387.19 103.57,386.13 C103.57,384.77 102.89,384.13 101.47,384.13 L98.82,384.13 L98.82,393.96 L101.13,393.96 C102.95,393.96 103.85,393.29 103.85,391.78 C103.85,390.27 102.71,389.33 100.95,389.33 L98.82,389.33 L98.82,388.2 L98.82,388.19 Z" id="Shape" fill="#B1A683"></path>
            <path d="M107.74,395.1 L107.74,382.99 L111.29,382.99 C113.69,382.99 115,384.17 115,386.18 C115.079287,387.614404 114.165784,388.916455 112.79,389.33 L115.14,395.1 L113.8,395.1 L111.55,389.6 L108.95,389.6 L108.95,395.1 L107.74,395.1 Z M108.98,388.46 L111.21,388.46 C112.91,388.46 113.8,387.77 113.8,386.25 C113.8,384.73 112.8,384.13 111.2,384.13 L108.98,384.13 L108.98,388.46 Z" id="Shape" fill="#B1A683"></path>
            <path d="M116.85,395.1 L120.29,382.99 L122.13,382.99 L125.55,395.1 L124.25,395.1 L123.2,391.31 L119.2,391.31 L118.15,395.1 L116.85,395.1 Z M119.5,390.17 L122.88,390.17 L121.29,383.93 L121.12,383.93 L119.5,390.17 Z" id="Shape" fill="#B1A683"></path>
            <path d="M132.8,386.08 C132.570026,384.837219 131.473613,383.944002 130.21,383.97 C129.67527,383.892423 129.133715,384.056455 128.7319,384.417702 C128.330086,384.778949 128.109558,385.300059 128.13,385.84 C128.13,388.49 134.39,387.84 134.39,391.71 C134.39,393.48 133.48,395.27 130.64,395.27 C128.21,395.27 127.25,393.56 126.64,392.12 L127.76,391.68 C128.21,392.96 129.04,394.13 130.67,394.13 C131.296962,394.221547 131.932383,394.031883 132.406587,393.611653 C132.880791,393.191424 133.14549,392.583421 133.13,391.95 C133.13,388.86 126.87,389.77 126.87,385.95 C126.87062,385.084696 127.230569,384.258512 127.863847,383.668842 C128.497126,383.079173 129.34685,382.778985 130.21,382.84 C131.997386,382.822229 133.541918,384.084789 133.88,385.84 L132.8,386.08 Z" id="Path" fill="#B1A683"></path>
            <rect id="Rectangle" fill="#B1A683" fill-rule="nonzero" x="137.25" y="382.99" width="1.23" height="12.11"></rect>
            <polygon id="Path" fill="#B1A683" points="148.61 395.1 148.61 393.96 143.34 393.96 143.34 382.99 142.1 382.99 142.1 395.1"></polygon>
            <polygon id="Path" fill="#B1A683" points="157.34 382.99 157.34 384.13 151.91 384.13 151.91 388.19 155.78 388.19 155.78 389.33 151.91 389.33 151.91 393.96 157.65 393.96 157.65 395.1 150.67 395.1 150.67 382.99"></polygon>
            <rect id="Rectangle" fill="#B1A683" fill-rule="nonzero" x="160.36" y="382.99" width="1.23" height="12.11"></rect>
            <path d="M165.1,395.1 L165.1,382.99 L168.67,382.99 C171.08,382.99 172.39,384.17 172.39,386.18 C172.468077,387.617209 171.549764,388.920221 170.17,389.33 L172.52,395.1 L171.18,395.1 L168.94,389.6 L166.29,389.6 L166.29,395.1 L165.1,395.1 Z M166.33,388.46 L168.56,388.46 C170.26,388.46 171.15,387.77 171.15,386.25 C171.15,384.73 170.15,384.13 168.55,384.13 L166.29,384.13 L166.33,388.46 Z" id="Shape" fill="#B1A683"></path>
            <path d="M175.5,395.1 L176.5,391.31 L180.5,391.31 L181.5,395.1 L182.8,395.1 L179.38,382.99 L177.55,382.99 L174.12,395.1 L175.5,395.1 Z M178.5,383.93 L178.67,383.93 L180.27,390.17 L176.9,390.17 L178.5,383.93 Z" id="Shape" fill="#B1A683"></path>
            <path d="M189.49,382.99 L192.49,382.99 C195.49,382.99 197.49,385.07 197.49,389.05 C197.49,392.6 195.74,395.05 192.41,395.05 L189.49,395.05 L189.49,382.99 Z M190.72,393.99 L192.39,393.99 C194.95,393.99 196.27,392.33 196.27,389.08 C196.27,385.54 194.73,384.16 192.45,384.16 L190.72,384.16 L190.72,393.99 Z" id="Shape" fill="#B1A683"></path>
            <polygon id="Path" fill="#B1A683" points="206.56 382.99 206.56 384.13 201.12 384.13 201.12 388.19 204.99 388.19 204.99 389.33 201.12 389.33 201.12 393.96 206.87 393.96 206.87 395.1 199.89 395.1 199.89 382.99"></polygon>
            <path d="M213.88,395.1 L216.81,395.1 C220.14,395.1 221.89,392.6 221.89,389.1 C221.89,385.1 219.89,383.04 216.89,383.04 L213.89,383.04 L213.89,395.1 L213.88,395.1 Z M215.11,384.1 L216.84,384.1 C219.12,384.1 220.66,385.48 220.66,389.02 C220.66,392.27 219.34,393.93 216.78,393.93 L215.11,393.93 L215.11,384.1 Z" id="Shape" fill="#B1A683"></path>
            <rect id="Rectangle" fill="#B1A683" fill-rule="nonzero" x="224.56" y="382.99" width="1.24" height="12.11"></rect>
            <path d="M234.66,386.08 C234.430026,384.837219 233.333613,383.944002 232.07,383.97 C230.77,383.97 230,384.64 229.99,385.84 C229.99,388.49 236.24,387.84 236.24,391.71 C236.24,393.48 235.33,395.27 232.5,395.27 C230.06,395.27 229.11,393.56 228.5,392.12 L229.63,391.68 C230.08,392.96 230.91,394.13 232.54,394.13 C233.165383,394.218307 233.797962,394.027168 234.269804,393.607325 C234.741645,393.187483 235.005017,392.581408 234.99,391.95 C234.99,388.86 228.73,389.77 228.73,385.95 C228.733392,385.083789 229.095601,384.257716 229.730427,383.66837 C230.365253,383.079024 231.215925,382.779109 232.08,382.84 C233.865055,382.823041 235.406275,384.086336 235.74,385.84 L234.66,386.08 Z" id="Path" fill="#B1A683"></path>
            <polygon id="Path" fill="#B1A683" points="245.4 384.13 245.4 382.99 237.5 382.99 237.5 384.13 240.83 384.13 240.83 395.1 242.06 395.1 242.06 384.13"></polygon>
            <path d="M247.29,395.1 L247.29,382.99 L250.86,382.99 C253.26,382.99 254.57,384.17 254.57,386.18 C254.655586,387.619357 253.734311,388.926571 252.35,389.33 L254.71,395.1 L253.37,395.1 L251.12,389.6 L248.52,389.6 L248.52,395.1 L247.29,395.1 Z M248.52,388.46 L250.75,388.46 C252.45,388.46 253.34,387.77 253.34,386.25 C253.34,384.73 252.34,384.13 250.74,384.13 L248.52,384.13 L248.52,388.46 Z" id="Shape" fill="#B1A683"></path>
            <rect id="Rectangle" fill="#B1A683" fill-rule="nonzero" x="257.95" y="382.99" width="1.23" height="12.11"></rect>
            <path d="M262.81,382.99 L266.91,382.99 C267.730895,382.936111 268.536439,383.231 269.128526,383.802145 C269.720613,384.37329 270.044306,385.167697 270.02,385.99 C270.119072,387.241897 269.338755,388.39577 268.14,388.77 L268.14,388.77 C269.451849,389.166155 270.328511,390.40089 270.27,391.77 C270.27,393.58 269.27,395.02 266.27,395.02 L262.82,395.02 L262.82,382.99 L262.81,382.99 Z M264.04,388.19 L266.2,388.19 C268.06,388.19 268.79,387.19 268.79,386.13 C268.79,384.77 268.11,384.13 266.69,384.13 L264.04,384.13 L264.04,393.96 L266.35,393.96 C268.17,393.96 269.06,393.29 269.06,391.78 C269.06,390.27 267.92,389.33 266.17,389.33 L264.04,389.33 L264.04,388.2 L264.04,388.19 Z" id="Shape" fill="#B1A683"></path>
            <path d="M274.29,382.99 L274.29,391.55 C274.376322,392.958533 275.543825,394.056675 276.955,394.056675 C278.366175,394.056675 279.533678,392.958533 279.62,391.55 L279.62,382.99 L280.85,382.99 L280.85,391.45 C280.744852,393.524515 279.032178,395.152579 276.955,395.152579 C274.877822,395.152579 273.165148,393.524515 273.06,391.45 L273.06,382.99 L274.29,382.99 Z" id="Path" fill="#B1A683"></path>
            <rect id="Rectangle" fill="#B1A683" fill-rule="nonzero" x="284.49" y="382.99" width="1.23" height="12.11"></rect>
            <path d="M289.22,395.1 L292.15,395.1 C295.47,395.1 297.23,392.6 297.23,389.1 C297.23,385.1 295.23,383.04 292.23,383.04 L289.23,383.04 L289.23,395.1 L289.22,395.1 Z M290.45,384.1 L292.18,384.1 C294.46,384.1 296,385.48 296,389.02 C296,392.27 294.68,393.93 292.11,393.93 L290.45,393.93 L290.45,384.1 Z" id="Shape" fill="#B1A683"></path>
            <path d="M303.09,382.83 C305.81,382.83 307.43,385.01 307.43,389.05 C307.43,393.09 305.81,395.27 303.09,395.27 C300.37,395.27 298.74,393.09 298.74,389.05 C298.74,385.01 300.36,382.83 303.09,382.83 Z M303.09,394.13 C305.04,394.13 306.2,392.49 306.2,389.05 C306.2,385.61 305.04,383.97 303.09,383.97 C301.14,383.97 299.97,385.61 299.97,389.05 C299.97,392.49 301.13,394.13 303.09,394.13 Z" id="Shape" fill="#B1A683"></path>
            <path d="M311.01,395.1 L311.01,389.6 L313.61,389.6 L315.86,395.1 L317.2,395.1 L314.85,389.33 C316.230328,388.922763 317.146765,387.61653 317.06,386.18 C317.06,384.18 315.76,382.99 313.35,382.99 L309.77,382.99 L309.77,395.1 L311.01,395.1 Z M311.01,384.1 L313.23,384.1 C314.82,384.1 315.83,384.59 315.83,386.22 C315.83,387.85 314.94,388.43 313.24,388.43 L311.01,388.43 L311.01,384.1 Z" id="Shape" fill="#B1A683"></path>
            <polygon id="Path" fill="#B1A683" points="326.85 382.99 326.85 384.13 321.41 384.13 321.41 388.19 325.27 388.19 325.27 389.33 321.41 389.33 321.41 393.96 327.15 393.96 327.15 395.1 320.17 395.1 320.17 382.99"></polygon>
            <path d="M334.83,386.08 C334.603865,384.834947 333.505062,383.939783 332.24,383.97 C331.70527,383.892423 331.163715,384.056455 330.7619,384.417702 C330.360086,384.778949 330.139558,385.300059 330.16,385.84 C330.16,388.49 336.42,387.84 336.42,391.71 C336.42,393.48 335.51,395.27 332.67,395.27 C330.24,395.27 329.28,393.56 328.67,392.12 L329.79,391.68 C330.24,392.96 331.07,394.13 332.7,394.13 C333.326962,394.221547 333.962383,394.031883 334.436587,393.611653 C334.910791,393.191424 335.17549,392.583421 335.16,391.95 C335.16,388.86 328.9,389.77 328.9,385.95 C328.90062,385.084696 329.260569,384.258512 329.893847,383.668842 C330.527126,383.079173 331.37685,382.778985 332.24,382.84 C334.02881,382.818167 335.575615,384.082586 335.91,385.84 L334.83,386.08 Z" id="Path" fill="#B1A683"></path>
            <path d="M343.58,382.99 L346.58,382.99 C349.58,382.99 351.58,385.07 351.58,389.05 C351.58,392.6 349.82,395.05 346.49,395.05 L343.56,395.05 L343.56,382.99 L343.58,382.99 Z M344.81,393.99 L346.48,393.99 C349.04,393.99 350.36,392.33 350.36,389.08 C350.36,385.54 348.82,384.16 346.54,384.16 L344.81,384.16 L344.81,393.99 Z" id="Shape" fill="#B1A683"></path>
            <polygon id="Path" fill="#B1A683" points="360.65 382.99 360.65 384.13 355.21 384.13 355.21 388.19 359.08 388.19 359.08 389.33 355.21 389.33 355.21 393.96 360.96 393.96 360.96 395.1 353.98 395.1 353.98 382.99"></polygon>
            <polygon id="Path" fill="#B1A683" points="368.1 382.99 368.1 395.1 375.08 395.1 375.08 393.96 369.33 393.96 369.33 389.33 373.2 389.33 373.2 388.19 369.33 388.19 369.33 384.13 374.77 384.13 374.77 382.99"></polygon>
            <polygon id="Path" fill="#B1A683" points="378.62 395.1 378.62 384.3 378.65 384.3 384.3 395.1 385.31 395.1 385.31 382.99 384.2 382.99 384.2 392.31 384.14 392.31 379.29 382.99 377.51 382.99 377.51 395.1"></polygon>
            <polygon id="Path" fill="#B1A683" points="395.31 382.99 395.31 384.13 389.87 384.13 389.87 388.19 393.74 388.19 393.74 389.33 389.87 389.33 389.87 393.96 395.62 393.96 395.62 395.1 388.64 395.1 388.64 382.99"></polygon>
            <path d="M397.93,395.1 L397.93,382.99 L401.51,382.99 C403.91,382.99 405.22,384.17 405.22,386.18 C405.301812,387.61828 404.382028,388.923379 403,389.33 L405.36,395.1 L404.02,395.1 L401.77,389.6 L399.16,389.6 L399.16,395.1 L397.93,395.1 Z M399.16,388.46 L401.4,388.46 C403.1,388.46 403.99,387.77 403.99,386.25 C403.99,384.73 402.99,384.13 401.38,384.13 L399.16,384.13 L399.16,388.46 Z" id="Shape" fill="#B1A683"></path>
            <path d="M415.72,389.28 L415.72,395.1 L414.72,395.1 L414.72,394 L414.72,394 C414.01719,394.875229 412.929638,395.349866 411.81,395.27 C409.28,395.27 407.46,393.27 407.46,389.05 C407.46,384.83 409.28,382.83 411.81,382.83 C413.69,382.83 415.13,383.83 415.81,386.38 L414.64,386.63 C414.08,384.7 413.16,383.97 411.86,383.97 C410.23,383.97 408.69,385.17 408.69,389.05 C408.69,392.93 410.23,394.13 411.86,394.13 C412.58624,394.188385 413.301414,393.924467 413.815635,393.40832 C414.329857,392.892172 414.5911,392.176016 414.53,391.45 L414.53,390.45 L412.02,390.45 L412.02,389.31 L415.72,389.28 Z" id="Path" fill="#B1A683"></path>
            <rect id="Rectangle" fill="#B1A683" fill-rule="nonzero" x="418.89" y="382.99" width="1.23" height="12.11"></rect>
            <path d="M422.45,395.1 L425.87,382.99 L427.7,382.99 L431.12,395.1 L429.83,395.1 L428.78,391.31 L424.78,391.31 L423.73,395.1 L422.45,395.1 Z M425.1,390.17 L428.47,390.17 L426.87,383.93 L426.7,383.93 L425.1,390.17 Z" id="Shape" fill="#B1A683"></path>
            <polygon id="Path" fill="#B1A683" points="444.53 382.99 444.53 384.13 439.09 384.13 439.09 388.19 442.95 388.19 442.95 389.33 439.09 389.33 439.09 393.96 444.83 393.96 444.83 395.1 437.85 395.1 437.85 382.99"></polygon>
            <polygon id="Path" fill="#B1A683" points="447.27 395.1 447.27 382.99 448.5 382.99 448.5 393.96 453.77 393.96 453.77 395.1"></polygon>
            <path d="M462.51,382.99 L462.51,384.13 L457.07,384.13 L457.07,388.2 L460.94,388.2 L460.94,389.34 L457.07,389.34 L457.07,393.97 L462.82,393.97 L462.82,395.11 L455.82,395.11 L455.82,382.99 L462.51,382.99 Z M461.37,379.99 L459.37,382.38 L458.37,382.38 L459.74,379.99 L461.37,379.99 Z" id="Shape" fill="#B1A683"></path>
            <polygon id="Path" fill="#B1A683" points="468.49 384.13 468.49 395.1 467.25 395.1 467.25 384.13 463.93 384.13 463.93 382.99 471.82 382.99 471.82 384.13"></polygon>
            <path d="M473.7,395.1 L473.7,382.99 L477.29,382.99 C479.69,382.99 481,384.17 481,386.18 C481.081812,387.61828 480.162028,388.923379 478.78,389.33 L481.14,395.1 L479.79,395.1 L477.54,389.6 L474.93,389.6 L474.93,395.1 L473.7,395.1 Z M474.93,388.46 L477.17,388.46 C478.86,388.46 479.76,387.77 479.76,386.25 C479.76,384.73 478.76,384.13 477.15,384.13 L474.93,384.13 L474.93,388.46 Z" id="Shape" fill="#B1A683"></path>
            <rect id="Rectangle" fill="#B1A683" fill-rule="nonzero" x="484.38" y="382.99" width="1.23" height="12.11"></rect>
            <path d="M496.38,391.48 C495.89,393.73 494.75,395.27 492.47,395.27 C489.97,395.27 488.21,393.27 488.21,389.05 C488.21,385.11 489.79,382.83 492.47,382.83 C494.53,382.83 495.74,384.13 496.23,386.35 L495.09,386.72 C494.69,385.01 493.98,383.97 492.32,383.97 C490.66,383.97 489.45,385.58 489.45,389.05 C489.45,392.52 490.71,394.13 492.56,394.13 C494.41,394.13 494.93,392.72 495.27,391.25 L496.38,391.48 Z" id="Path" fill="#B1A683"></path>
            <path d="M497.35,395.1 L500.78,382.99 L502.61,382.99 L506.03,395.1 L504.74,395.1 L503.69,391.31 L499.69,391.31 L498.69,395.1 L497.35,395.1 Z M500,390.17 L503.38,390.17 L501.78,383.93 L501.61,383.93 L500,390.17 Z" id="Shape" fill="#B1A683"></path>
            <path d="M47.01,273.2 L31.01,273.2 L4.61,358.95 L19.14,358.95 L26.75,333.63 L52.12,333.63 C52.61,335.22 59.73,358.95 59.73,358.95 L74.29,358.95 L47.91,273.2 L47.01,273.2 Z M48.48,321.15 L30.39,321.15 C31.09,318.64 37.69,295.07 39.44,288.8 C41.19,295.07 47.77,318.63 48.48,321.14 L48.48,321.15 Z" id="Shape" fill="#ADA68D"></path>
            <path d="M131.88,314.03 C138.88,310.1 142.63,303.98 142.63,295.57 C142.63,282.38 132.33,273.19 117.57,273.19 L85.34,273.19 L85.34,358.95 L112.86,358.95 C139.12,358.95 144.64,345.8 144.64,334.76 C144.710729,325.975698 139.754493,317.923756 131.88,314.03 L131.88,314.03 Z M112.41,307.91 L99.18,307.91 L99.18,285.7 L116,285.7 C125,285.7 128.79,288.95 128.79,296.58 C128.79,302.05 124.48,307.91 112.41,307.91 L112.41,307.91 Z M113.53,346.43 L99.18,346.43 L99.18,320.43 L112.18,320.43 C123.84,320.43 130.800014,325.61 130.800014,334.32 C130.81,342.81 125.64,346.43 113.53,346.43 Z" id="Shape" fill="#ADA68D"></path>
            <path d="M214.94,296.92 C214.94,281.83 204.21,273.19 185.5,273.19 L157.08,273.19 L157.08,358.95 L170.93,358.95 L170.93,322.2 L185.8,322.2 L202.15,358.95 L217.29,358.95 C217.29,358.95 200.56,321.31 199.63,319.26 C209.63,315.1 214.97,307.42 214.97,296.92 L214.94,296.92 Z M201.09,297.36 C201.09,305.9 196.02,309.7 184.71,309.7 L170.93,309.7 L170.93,285.7 L184.59,285.7 C196.29,285.7 201.09,289.07 201.09,297.36 L201.09,297.36 Z" id="Shape" fill="#ADA68D"></path>
            <path d="M264.79,273.2 L248.74,273.2 L222.38,358.96 L236.93,358.96 C236.93,358.96 244.05,335.23 244.52,333.64 L269.9,333.64 C270.37,335.23 277.51,358.96 277.51,358.96 L292.05,358.96 L265.67,273.2 L264.79,273.2 Z M266.23,321.15 L248.18,321.15 C248.88,318.64 255.47,295.08 257.18,288.8 C258.98,295.07 265.55,318.63 266.23,321.14 L266.23,321.15 Z" id="Shape" fill="#ADA68D"></path>
            <path d="M324.34,273.2 L300.17,273.2 L300.17,358.96 L323.9,358.96 C348.19,358.96 363.29,342.51 363.29,316.07 C363.29,289.2 348.72,273.2 324.34,273.2 Z M349.42,316.07 C349.42,336.23 340.77,346.44 323.66,346.44 L314.01,346.44 L314.01,285.7 L324.12,285.7 C340.92,285.7 349.42,295.91 349.42,316.06 L349.42,316.07 Z" id="Shape" fill="#ADA68D"></path>
            <polygon id="Path" fill="#ADA68D" points="389.59 320.42 417.71 320.42 417.71 307.91 389.59 307.91 389.59 285.7 429.12 285.7 429.12 273.2 375.75 273.2 375.75 358.96 431.36 358.96 431.36 346.43 389.59 346.43"></polygon>
            <polygon id="Path" fill="#ADA68D" points="458.02 346.43 458.02 320.43 486.11 320.43 486.11 307.91 458.02 307.91 458.02 285.7 497.54 285.7 497.54 273.2 444.16 273.2 444.16 358.96 499.78 358.96 499.78 346.43"></polygon>
            <path d="M271.2,209.41 C266.981725,213.63208 261.258233,216.00434 255.29,216.00434 C249.321767,216.00434 243.598275,213.63208 239.38,209.41 L153.88,123.92 C145.097446,115.127466 145.097446,100.882534 153.88,92.09 L239.38,6.59 C248.169104,-2.19140769 262.410896,-2.19140769 271.2,6.59 L356.7,92.09 C365.488071,100.88025 365.488071,115.12975 356.7,123.92 L271.2,209.41 Z" id="Path" fill="#E4610F"></path>
            <path d="M250.29,59.91 C245.41,61.91 241.47,58.85 241.47,53.1 C241.47,47.35 245.44,40.27 250.29,37.2 C255.14,34.13 259.11,37.04 259.11,43.85 C259.11,50.66 255.19,57.86 250.29,59.91 Z" id="Path" fill="#FFFFFF"></path>
            <path d="M251.51,89.77 C246.38,90.53 242.22,86.23 242.22,80.16 C242.22,74.09 246.38,67.69 251.51,65.82 C256.64,63.95 260.78,68.15 260.78,75.33 C260.78,82.51 256.63,89 251.51,89.77 Z" id="Path" fill="#FFFFFF"></path>
            <path d="M251.48,119.57 C246.37,118.98 242.2,113.57 242.2,107.57 C242.2,101.57 246.37,96.19 251.48,95.65 C256.59,95.11 260.76,100.49 260.76,107.65 C260.76,114.81 256.61,120.2 251.48,119.57 Z" id="Path" fill="#FFFFFF"></path>
            <path d="M228.4,69.76 C223,71.76 218.63,69.33 218.63,64.28 C218.63,59.23 223,52.67 228.4,49.53 C233.8,46.39 238.16,48.68 238.16,54.82 C238.16,60.96 233.79,67.68 228.4,69.76 Z" id="Path" fill="#FFFFFF"></path>
            <path d="M228.43,93.2 C223.29,93.89 219.15,90.55 219.15,85.76 C219.15,80.97 223.29,75.76 228.43,73.98 C233.57,72.2 237.7,75.49 237.7,81.32 C237.7,87.15 233.55,92.45 228.43,93.2 Z" id="Path" fill="#FFFFFF"></path>
            <path d="M228.44,117.07 C223.32,116.53 219.16,112.21 219.16,107.41 C219.16,102.61 223.32,98.35 228.44,97.86 C233.56,97.37 237.72,101.68 237.72,107.51 C237.72,113.34 233.56,117.63 228.44,117.07 Z" id="Path" fill="#FFFFFF"></path>
            <path d="M205.29,77.75 C200.17,79.52 196,77.97 196,74.35 C196,70.73 200.17,65.6 205.29,62.89 C210.41,60.18 214.57,61.54 214.57,66.14 C214.57,70.74 210.43,75.95 205.29,77.75 Z" id="Path" fill="#FFFFFF"></path>
            <path d="M205.29,96.27 C200.17,96.9 196,94.45 196,90.81 C196,87.17 200.17,82.97 205.29,81.4 C210.41,79.83 214.57,82.16 214.57,86.77 C214.57,91.38 210.43,95.61 205.29,96.27 Z" id="Path" fill="#FFFFFF"></path>
            <path d="M205.29,114.79 C200.17,114.3 196.01,110.94 196.01,107.3 C196.01,103.66 200.17,100.38 205.29,99.93 C210.41,99.48 214.57,102.82 214.57,107.4 C214.57,111.98 210.45,115.31 205.29,114.79 Z" id="Path" fill="#FFFFFF"></path>
            <path d="M183.51,85.41 C179.02,86.98 175.37,86.11 175.37,83.51 C175.37,80.91 179.02,76.88 183.51,74.51 C188,72.14 191.65,72.81 191.65,76.27 C191.65,79.73 188.01,83.81 183.51,85.41 Z" id="Path" fill="#FFFFFF"></path>
            <path d="M183.5,99.07 C179,99.64 175.36,97.97 175.36,95.37 C175.36,92.77 179,89.53 183.5,88.11 C188,86.69 191.63,88.3 191.63,91.76 C191.63,95.22 187.98,98.5 183.5,99.07 Z" id="Path" fill="#FFFFFF"></path>
            <path d="M183.5,112.68 C179,112.24 175.36,109.76 175.36,107.16 C175.36,104.56 179,102.16 183.5,101.73 C188,101.3 191.63,103.79 191.63,107.24 C191.63,110.69 187.98,113.14 183.5,112.68 Z" id="Path" fill="#FFFFFF"></path>
            <path d="M250.29,155.88 C245.41,153.82 241.47,156.83 241.47,162.57 C241.47,168.31 245.41,175.46 250.29,178.57 C255.17,181.68 259.11,178.83 259.11,172.01 C259.11,165.19 255.19,157.98 250.29,155.88 Z" id="Path" fill="#FFFFFF"></path>
            <path d="M251.51,126.03 C246.38,125.21 242.22,129.46 242.22,135.52 C242.22,141.58 246.38,148.05 251.51,149.99 C256.64,151.93 260.78,147.78 260.78,140.58 C260.78,133.38 256.63,126.86 251.51,126.03 Z" id="Path" fill="#FFFFFF"></path>
            <path d="M228.4,145.76 C223,143.66 218.63,146.08 218.63,151.12 C218.63,156.16 223,162.79 228.4,165.99 C233.8,169.19 238.16,166.99 238.16,160.81 C238.16,154.63 233.79,147.9 228.4,145.76 Z" id="Path" fill="#FFFFFF"></path>
            <path d="M228.43,122.35 C223.29,121.6 219.15,124.88 219.15,129.67 C219.15,134.46 223.29,139.78 228.43,141.57 C233.57,143.36 237.7,140.18 237.7,134.34 C237.7,128.5 233.55,123.13 228.43,122.35 Z" id="Path" fill="#FFFFFF"></path>
            <path d="M205.29,137.49 C200.17,135.65 196,137.14 196,140.78 C196,144.42 200.17,149.57 205.29,152.35 C210.41,155.13 214.57,153.81 214.57,149.22 C214.57,144.63 210.43,139.35 205.29,137.49 Z" id="Path" fill="#FFFFFF"></path>
            <path d="M205.29,118.97 C200.17,118.28 196,120.67 196,124.32 C196,127.97 200.17,132.19 205.29,133.83 C210.41,135.47 214.57,133.18 214.57,128.59 C214.57,124 210.43,119.68 205.29,118.97 Z" id="Path" fill="#FFFFFF"></path>
            <path d="M183.51,129.56 C179.02,127.93 175.37,128.74 175.37,131.35 C175.37,133.96 179.02,138.03 183.51,140.5 C188,142.97 191.65,142.31 191.65,138.84 C191.65,135.37 188.01,131.2 183.51,129.56 Z" id="Path" fill="#FFFFFF"></path>
            <path d="M183.5,115.89 C179,115.29 175.36,116.89 175.36,119.5 C175.36,122.11 179,125.39 183.5,126.85 C188,128.31 191.63,126.77 191.63,123.31 C191.63,119.85 187.98,116.52 183.5,115.89 Z" id="Path" fill="#FFFFFF"></path>
        </g>
    </g>
</svg>