<?xml version="1.0" encoding="UTF-8"?>
<svg width="350px" height="208px" viewBox="0 0 350 208" version="1.1" xmlns="http://www.w3.org/2000/svg" xmlns:xlink="http://www.w3.org/1999/xlink">
    <!-- Generator: Sketch 61.2 (89653) - https://sketch.com -->
    <title>logos senai ist</title>
    <desc>Created with Sketch.</desc>
    <g id="Page-1" stroke="none" stroke-width="1" fill="none" fill-rule="evenodd">
        <g id="logos-senai-ist">
            <g id="Camada_2" transform="translate(0.000000, 137.000000)" fill-rule="nonzero">
                <polygon id="Caminho_177" fill="#E2001A" points="122 69.59 337.44 69.54 341 48.86 153.2 48.53 148.43 49.03 143.49 50.86 139.15 56.1 135.71 62.98 132.71 66.42 129.86 67.62"></polygon>
                <polygon id="Caminho_178" fill="#8F161A" points="10.83 15.69 16.89 15.69 12.21 38.17 6.16 38.17"></polygon>
                <polygon id="Caminho_179" fill="#8F161A" points="21.36 15.69 28.87 15.69 33.47 31.28 33.54 31.28 36.7 15.69 42.37 15.69 37.6 38.17 30.13 38.17 25.43 22.62 25.36 22.62 22.24 38.17 16.56 38.17"></polygon>
                <path d="M60,20.78 C58.432501,20.066318 56.7214152,19.7241009 55,19.78 C52.61,19.78 50.68,20.14 50.68,21.94 C50.68,25.13 59.41,23.94 59.41,30.76 C59.41,36.99 53.64,38.59 48.41,38.59 C46.0351431,38.5443254 43.6785986,38.1639118 41.41,37.46 L42.83,32.86 C44.543246,33.7380191 46.4450222,34.1842843 48.37,34.16 C50.24,34.16 53.17,33.8 53.17,31.48 C53.17,27.87 44.44,29.22 44.44,22.88 C44.44,17.09 49.54,15.34 54.44,15.34 C56.7794617,15.2301014 59.1183092,15.5695567 61.33,16.34 L60,20.78 Z" id="Caminho_180" fill="#8F161A"></path>
                <polygon id="Caminho_181" fill="#8F161A" points="69 20.13 63.4 20.13 64.4 15.7 81.7 15.7 80.7 20.13 75.1 20.13 71.26 38.13 65.2 38.13"></polygon>
                <polygon id="Caminho_182" fill="#8F161A" points="84.22 15.69 90.22 15.69 85.55 38.17 79.49 38.17"></polygon>
                <polygon id="Caminho_183" fill="#8F161A" points="97.68 20.13 92.08 20.13 93.08 15.7 110.37 15.7 109.37 20.13 103.76 20.13 99.93 38.13 93.83 38.13"></polygon>
                <path d="M129.89,26.16 C128.42,33.31 126.68,38.56 118.49,38.56 C113.43,38.56 109.49,36.75 109.49,31.47 C109.509025,30.0425711 109.679989,28.6212254 110,27.23 L112.55,15.7 L118.64,15.7 L115.93,28.42 C115.728675,29.2245218 115.591577,30.0437652 115.52,30.87 C115.3751,32.5108765 116.580366,33.9616592 118.22,34.12 L118.7,34.12 C122.58,34.12 123.18,29.48 123.95,25.88 L126.18,15.68 L132.18,15.68 L129.89,26.16 Z" id="Caminho_184" fill="#8F161A"></path>
                <polygon id="Caminho_185" fill="#8F161A" points="138.84 20.13 133.25 20.13 134.25 15.7 151.54 15.7 150.54 20.13 144.94 20.13 141.1 38.13 135 38.13"></polygon>
                <path d="M163.14,19.75 C158.5,19.75 156.57,25.13 156.57,28.93 C156.57,31.76 157.63,34.11 160.76,34.11 C165.39,34.11 167.33,28.73 167.33,24.97 C167.33,22.13 166.27,19.75 163.14,19.75 M160.37,38.56 C153.06,38.56 150.37,34.03 150.37,29.41 C150.37,20.88 154.85,15.3 163.52,15.3 C170.83,15.3 173.52,19.83 173.52,24.48 C173.52,32.98 169.05,38.56 160.38,38.56" id="Caminho_186" fill="#8F161A"></path>
                <path d="M5.59,56.85 L8,56.85 C9.12862161,56.9454408 10.2485128,56.5853472 11.11,55.85 C12.2503443,54.59828 12.8598767,52.9525426 12.81,51.26 C12.8904984,50.2095441 12.5807305,49.1663026 11.94,48.33 C11.2097856,47.5281916 10.1366024,47.1294742 9.06,47.26 L7.21,47.26 L5.59,56.85 Z M5.92,46.18 L9.21,46.18 C10.9787977,45.9816012 12.6900183,46.8807842 13.53,48.45 C14.0116008,49.3753344 14.2523413,50.4070791 14.23,51.45 C14.2711335,53.3392391 13.5918361,55.1733422 12.33,56.58 C11.2881294,57.6531035 9.82057331,58.203437 8.33,58.08 L3.94,58.08 L5.92,46.18 Z" id="Caminho_187" fill="#8F161A"></path>
                <polygon id="Caminho_188" fill="#8F161A" points="17.43 46.23 24.79 46.23 24.61 47.4 18.67 47.4 18 51.23 23.08 51.23 22.89 52.4 17.8 52.4 17.07 56.73 23.47 56.73 23.26 58 15.43 58"></polygon>
                <polygon id="Caminho_189" fill="#8F161A" points="35.87 47.39 34.07 58.02 32.64 58.02 34.41 47.39 31 47.39 31.19 46.18 39.5 46.18 39.32 47.39"></polygon>
                <polygon id="Caminho_190" fill="#8F161A" points="41.16 46.23 48.53 46.23 48.34 47.4 42.4 47.4 41.74 51.31 46.82 51.31 46.64 52.48 41.55 52.48 40.81 56.81 47.22 56.81 47 58.03 39.16 58.03"></polygon>
                <path d="M57.53,50.16 C57.4,49.33 57.12,47.09 54.74,47.09 C51.46,47.09 50.82,52.04 50.82,53.32 C50.82,55.9 52.11,57.01 53.65,57.01 C55.65,57.01 56.48,55.11 56.85,54.22 L58.05,54.69 C57.5263184,56.7202546 55.7162112,58.1544479 53.62,58.2 C50.22,58.2 49.31,55.2 49.31,53.07 C49.31,50.07 51.05,45.88 54.76,45.88 C56.9350707,45.8458499 58.7386929,47.5561812 58.82,49.73 L58.82,49.8 L57.53,50.16 Z" id="Caminho_191" fill="#8F161A"></path>
                <polygon id="Caminho_192" fill="#8F161A" points="66.83 58.02 62.18 47.9 60.49 58.02 59.32 58.02 61.32 46.18 62.93 46.18 67.23 55.62 68.8 46.23 70 46.23 68 58.07"></polygon>
                <path d="M76.63,47.14 C73.43,47.14 72.69,51.45 72.69,53.24 C72.69,56.07 74.23,57.06 75.69,57.06 C79.02,57.06 79.69,52.38 79.69,50.76 C79.69,48.08 78.03,47.14 76.69,47.14 M75.69,58.25 C72.77,58.25 71.19,55.89 71.19,52.94 C71.19,49.99 72.89,45.94 76.71,45.94 C77.9095997,45.94 79.0597772,46.417892 79.9061435,47.2680116 C80.7525099,48.1181313 81.2253197,49.2704121 81.22,50.47 C81.230216,50.6565269 81.230216,50.8434731 81.22,51.03 C81.22,54.03 79.63,58.22 75.71,58.22" id="Caminho_193" fill="#8F161A"></path>
                <polygon id="Caminho_194" fill="#8F161A" points="82.34 58.02 84.34 46.18 85.79 46.18 84 56.76 89.87 56.76 89.66 58.02"></polygon>
                <path d="M97.06,47.14 C93.87,47.14 93.12,51.45 93.12,53.24 C93.12,56.07 94.66,57.06 96.12,57.06 C99.45,57.06 100.12,52.38 100.12,50.76 C100.12,48.08 98.47,47.14 97.12,47.14 M96.12,58.25 C93.21,58.25 91.62,55.89 91.62,52.94 C91.62,49.99 93.32,45.94 97.15,45.94 C98.3478658,45.9426442 99.4954708,46.4217194 100.339673,47.2715498 C101.183876,48.1213802 101.655315,49.2721431 101.65,50.47 C101.660216,50.6565269 101.660216,50.8434731 101.65,51.03 C101.65,54.03 100.07,58.22 96.15,58.22" id="Caminho_195" fill="#8F161A"></path>
                <path d="M112.59,52.1 L111.59,58.16 L110.79,58.16 L110.6,56.72 C109.936418,57.7898226 108.736012,58.4054152 107.48,58.32 C104.73,58.32 102.99,56.05 102.99,52.99 C102.99,49.93 104.76,45.89 108.51,45.89 C110.569262,45.8521244 112.381755,47.2415642 112.88,49.24 L111.6,49.69 C111.340678,48.1788712 110.042998,47.0659739 108.51,47.04 C105.67,47.04 104.51,50.55 104.51,53.14 C104.51,56.14 106.21,57.14 107.62,57.14 C108.823148,57.122096 109.908766,56.4139149 110.41,55.32 C110.72072,54.6606903 110.920085,53.9544654 111,53.23 L107.9,53.23 L108.08,52.1 L112.59,52.1 Z" id="Caminho_196" fill="#8F161A"></path>
                <polygon id="Caminho_197" fill="#8F161A" points="115.77 58.02 114.34 58.02 116.34 46.18 117.79 46.18"></polygon>
                <path d="M124.69,53.37 L123.75,47.93 L121.09,53.37 L124.69,53.37 Z M120.55,54.56 L118.85,58.02 L117.52,58.02 L123.3,46.23 L125,46.23 L127,58.02 L125.44,58.02 L124.87,54.56 L120.55,54.56 Z" id="Caminho_198" fill="#8F161A"></path>
                <path d="M213.31,9.42 C210.722576,8.24092279 207.902775,7.65987283 205.06,7.72 C201.06,7.72 197.88,8.29 197.88,11.31 C197.88,16.62 212.4,14.64 212.4,26 C212.4,36.34 202.81,39 194.13,39 C190.19795,38.9013801 186.2995,38.2482719 182.55,37.06 L184.93,29.41 C187.776519,30.8720087 190.940489,31.6071767 194.14,31.55 C197.25,31.55 202.14,30.99 202.14,27.11 C202.14,21.11 187.63,23.36 187.63,12.8 C187.63,3.17 196.09,0.26 204.29,0.26 C208.181099,0.0734691268 212.07176,0.637037868 215.75,1.92 L213.31,9.42 Z" id="Caminho_199" fill="#E2001A"></path>
                <polygon id="Caminho_200" fill="#E2001A" points="223.65 0.96 250 0.96 248.56 8.03 232.06 8.03 230.35 15.74 245.94 15.74 244.39 22.81 228.85 22.81 227 31.28 244.08 31.28 242.63 38.35 215.63 38.35"></polygon>
                <polygon id="Caminho_201" fill="#E2001A" points="256.24 0.96 268.72 0.96 276.37 26.89 276.47 26.89 281.72 0.96 291.16 0.96 283.22 38.35 270.8 38.35 263 12.47 262.9 12.47 257.7 38.35 248.27 38.35"></polygon>
                <path d="M314.26,8.67 L314.16,8.67 L306.23,23.3 L315.86,23.3 L314.26,8.67 Z M309.26,0.96 L321.79,0.96 L327.91,38.35 L317.85,38.35 L316.85,30.35 L302.32,30.35 L297.87,38.35 L287,38.35 L309.26,0.96 Z" id="Caminho_202" fill="#E2001A"></path>
                <polygon id="Caminho_203" fill="#E2001A" points="339.93 0.96 350 0.96 342.23 38.35 332.16 38.35"></polygon>
                <path d="M341.6,46.07 L152,46.07 C147.751011,46.3362776 143.844039,48.489698 141.35,51.94 L136.28,59.94 C133.478071,63.8907408 129.026307,66.3467593 124.19,66.61 L0.69,66.61 L0,70.11 L140.94,69.92 C145.540336,69.557515 149.685665,67.0048256 152.08,63.06 L156.74,54.81 C158.868298,51.3592241 162.501372,49.1163574 166.54,48.76 L341,48.76 L341.6,46.07 Z" id="Caminho_204" fill="#8F161A"></path>
                <polygon id="Caminho_205" fill="#FFFFFF" points="284.94 55.33 289.64 55.33 289.39 56.42 286 56.42 285.43 58.95 288.64 58.95 288.43 60.04 285.18 60.04 284.55 62.87 288.18 62.87 287.94 63.96 283 63.96"></polygon>
                <polygon id="Caminho_206" fill="#FFFFFF" points="291.75 55.33 293.39 55.33 295.83 62.58 295.83 62.58 297.37 55.33 298.54 55.33 296.68 63.99 295.09 63.99 292.65 56.8 292.65 56.8 291.14 63.99 290 63.99"></polygon>
                <polygon id="Caminho_207" fill="#FFFFFF" points="300.82 55.33 305.52 55.33 305.28 56.42 301.88 56.42 301.31 58.95 304.52 58.95 304.31 60.04 301.05 60.04 300.42 62.87 304.05 62.87 303.82 63.96 298.94 63.96"></polygon>
                <path d="M307.69,55.33 L309.39,55.33 C310.6,55.33 312.62,55.33 312.62,57.44 C312.591045,58.630431 311.700374,59.6228932 310.52,59.78 C311.17,60.18 311.36,61.47 311.52,62.15 L311.99,63.98 L310.68,63.98 L310.16,61.71 C309.84,60.32 309.59,60.14 308.98,60.14 L307.85,60.14 L307.07,63.99 L305.83,63.99 L307.69,55.33 Z M308.14,59.04 L309.14,59.04 C310.01,59.04 311.33,58.76 311.33,57.61 C311.33,56.7 310.82,56.42 309.87,56.42 L308.73,56.42 L308.14,59.04 Z" id="Caminho_208" fill="#FFFFFF"></path>
                <path d="M321.31,56.74 C320.587483,56.4004021 319.798337,56.2261751 319,56.23 C316.937399,56.1338575 315.187138,57.727446 315.09,59.79 C315.09,59.93 315.09,60.06 315.09,60.19 C315.043376,60.8915474 315.277458,61.582867 315.740715,62.1117675 C316.203972,62.640668 316.858425,62.9637902 317.56,63.01 C317.71965,63.0249744 317.88035,63.0249744 318.04,63.01 C318.376795,63.0078863 318.712267,62.9676297 319.04,62.89 L319.61,60.23 L317.78,60.23 L318.03,59.23 L321.03,59.23 L320.03,63.85 C319.2897,64.0263092 318.530997,64.1135937 317.77,64.11 C315.755326,64.332405 313.94011,62.8838088 313.71,60.87 C313.684986,60.6273095 313.684986,60.3826905 313.71,60.14 C313.691239,58.8324442 314.192864,57.5710284 315.104318,56.6333176 C316.015773,55.6956067 317.26244,55.1584339 318.57,55.14 L319,55.14 C319.90855,55.1198745 320.811248,55.290195 321.65,55.64 L321.31,56.74 Z" id="Caminho_209" fill="#FFFFFF"></path>
                <polygon id="Caminho_210" fill="#FFFFFF" points="324.22 55.33 325.47 55.33 323.61 63.99 322.36 63.99"></polygon>
                <path d="M330.59,55.33 L331.82,55.33 L333.73,63.99 L332.45,63.99 L331.99,61.81 L327.75,61.81 L326.36,63.99 L325,63.99 L330.59,55.33 Z M330.98,56.67 L328.37,60.78 L331.8,60.78 L330.98,56.67 Z" id="Caminho_211" fill="#FFFFFF"></path>
            </g>
            <g id="SENAI_PRINCIPAL_VERMELHO">
                <rect id="Retângulo_2" fill="#FFFFFF" fill-rule="nonzero" x="0" y="0" width="349.75" height="90.39"></rect>
                <path d="M260.78,25.48 L260.52,25.48 L246.25,52.23 L263.25,52.23 L260.78,25.48 Z M260.78,25.48 L260.52,25.48 L246.25,52.23 L263.25,52.23 L260.78,25.48 Z M349.78,13.17 L349.78,0 L0,0 L0,13.17 L18.79,13.17 L18.79,15.55 L0,15.55 L0,28.33 L18.79,28.33 L18.79,30.7 L0,30.7 L0,43.95 L18.79,43.95 L18.79,46.34 L0,46.34 L0,59.73 L18.79,59.73 L18.79,62.11 L0,62.11 L0,74.96 L18.79,74.96 L18.79,77.34 L0,77.34 L0,90.39 L349.75,90.39 L349.75,77.34 L331,77.34 L331,74.96 L349.79,74.96 L349.79,62.12 L331,62.12 L331,59.73 L349.79,59.73 L349.79,46.32 L331,46.32 L331,43.95 L349.79,43.95 L349.79,30.73 L331,30.73 L331,28.33 L349.79,28.33 L349.79,15.55 L331,15.55 L331,13.17 L349.78,13.17 Z M85.21,31.82 L67.58,31.82 C68.2710189,29.8560729 67.8464482,27.6720202 66.47,26.11 C64.7217134,24.5818434 62.4216165,23.84046 60.11,24.06 C56.05,24.06 51.96,26.73 51.29,29.92 C50.29,34.65 55.63,36.17 60.04,37.42 C70.13,40.19 85.41,41.26 81.76,58.66 C78.88,72.24 64.36,78.66 49.63,78.66 C34.9,78.66 22.63,74.28 26.1,56.78 L43.72,56.78 C42.38,62.86 46.08,66.15 52.4,66.15 C56.46,66.15 62.1,64.01 63.01,59.73 C64.85,50.94 51.43,52.9 38.89,46.73 C33.06,43.87 31.18,37.94 32.59,31.03 C36.44,15.76 50.59,11.56 63.91,11.56 C77,11.56 89.52,16.29 85.21,31.82 Z M139.21,51.19 L110.84,51.19 L108,64.87 L138.86,64.87 L136.22,77.36 L87.76,77.36 L101.26,12.89 L149.73,12.89 L147.09,25.4 L116.23,25.4 L113.43,38.69 L141.83,38.69 L139.21,51.19 Z M183.79,77.35 L172.55,27.99 L172.38,27.99 L162,77.35 L146.16,77.35 L159.66,12.88 L184.35,12.88 L195.6,60.88 L195.81,60.69 L205.86,12.83 L221.72,12.83 L208.22,77.3 L183.79,77.35 Z M266.55,77.35 L265,64.77 L239.17,64.77 L232.42,77.35 L214.73,77.35 L253.39,12.88 L274.86,12.88 L286.42,77.35 L266.55,77.35 Z M310.79,77.35 L293.18,77.35 L306.68,12.88 L324.33,12.88 L310.79,77.35 Z M260.51,25.48 L246.25,52.23 L263.25,52.23 L260.75,25.45 L260.51,25.48 Z" id="Caminho_212" fill="#ED2024"></path>
            </g>
        </g>
    </g>
</svg>