<?xml version="1.0" encoding="UTF-8"?>
<svg width="375px" height="54px" viewBox="0 0 375 54" version="1.1" xmlns="http://www.w3.org/2000/svg" xmlns:xlink="http://www.w3.org/1999/xlink">
    <!-- Generator: Sketch 62 (91390) - https://sketch.com -->
    <title>SENAI</title>
    <desc>Created with Sketch.</desc>
    <g id="Page-1" stroke="none" stroke-width="1" fill="none" fill-rule="evenodd">
        <g id="SENAI" fill-rule="nonzero">
            <rect id="Rectangle" fill="#77787B" x="118.05" y="0" width="2.76" height="52.94"></rect>
            <polygon id="Path" fill="#378FCD" points="208.37 11 232.96 11 233 11 233.68 7.83 234.39 4.49 235.1 1.14 234.39 1.14 233.68 1.14 232.96 1.14 196.39 1.14 185.59 51.97 224.3 51.97 226.39 42.11 201.76 42.11 204.05 31.34 226.71 31.34 228.8 21.49 206.14 21.49"></polygon>
            <g id="Group">
                <path d="M166.56,0.09 C155.94,0.09 144.67,3.39 141.56,15.43 C140.39,20.92 141.93,25.56 146.56,27.82 C156.56,32.68 167.31,31.19 165.84,38.1 C165.13,41.47 160.62,43.16 157.37,43.16 C152.31,43.16 149.37,40.56 150.43,35.77 L136.38,35.77 C133.66,49.57 143.38,53.03 155.17,53.03 C166.96,53.03 178.56,47.95 180.84,37.25 C183.75,23.52 171.55,22.68 163.49,20.5 C159.97,19.5 155.73,18.32 156.49,14.58 C157.03,12.05 160.29,9.94 163.49,9.94 C165.88,9.94 167.59,10.5 168.57,11.56 C169.55,12.62 169.93,14.09 169.45,16.06 L183.52,16.06 C186.96,3.81 176.99,0.06 166.52,0.06" id="Path" fill="#378FCD"></path>
                <polygon id="Path" fill="#378FCD" points="289.81 14.3 291.2 7.73 292.6 1.14 291.2 1.14 289.81 1.14 288.41 1.14 279.93 1.14 271.91 38.87 271.74 39.02 262.76 1.14 243.05 1.14 234.39 41.91 233.67 45.26 232.96 48.62 232.25 51.97 232.96 51.97 233.67 51.97 234.39 51.97 244.92 51.97 253.19 13.04 253.33 13.04 262.3 51.97 281.8 51.97 288.41 20.88"></polygon>
                <path d="M318.97,1.14 L317.87,1.14 L291.21,45.05 L289.82,47.36 L288.42,49.66 L287.02,51.96 L301.09,51.96 L306.51,42.04 L327.13,42.04 L328.4,51.96 L344.31,51.96 L335.05,1.14 L318.97,1.14 Z M318.97,32.14 L312.21,32.14 L319,19.55 L323.6,11.03 L323.82,11.03 L325.82,32.14 L318.97,32.14 Z" id="Shape" fill="#378FCD"></path>
                <polygon id="Path" fill="#378FCD" points="360.45 1.14 349.64 51.97 363.72 51.97 374.52 1.14"></polygon>
                <polygon id="Path" fill="#3E92CF" points="6.26 52.66 0 52.66 6.34 25.27 23.05 25.27 21.94 30.03 11.51 30.03 9.89 37.09 19.6 37.09 18.45 41.83 8.74 41.83"></polygon>
                <polygon id="Path" fill="#3E92CF" points="19.79 52.66 26.19 25.27 32.45 25.27 26.04 52.66"></polygon>
                <polygon id="Path" fill="#3E92CF" points="47.55 52.66 30.79 52.66 37.13 25.27 53.91 25.27 52.8 30.03 42.3 30.03 40.92 36.04 50.71 36.04 49.59 40.8 39.8 40.8 38.16 47.86 48.66 47.86"></polygon>
                <path d="M67.21,45.74 L78.51,25.27 L87.19,25.27 L80.85,52.65 L75.11,52.65 L78.11,39.65 C78.84,36.57 79.55,33.81 80.27,31.39 L80.16,31.39 L68.41,52.65 L62.64,52.65 L61.39,31.43 L61.31,31.43 C61.16,32.53 60.9,33.97 60.53,35.76 C60.16,37.55 58.88,43.17 56.69,52.65 L51.05,52.65 L57.39,25.27 L65.68,25.27 L67.07,45.74 L67.21,45.74 Z" id="Path" fill="#3E92CF"></path>
                <path d="M103.83,44.56 C103.922124,46.993947 102.797565,49.3142865 100.83,50.75 C98.83,52.27 96.06,53.03 92.6,53.03 C90.0575605,53.1486261 87.5316449,52.5638594 85.3,51.34 L85.3,46.21 C87.5572263,47.448872 90.0762581,48.1343228 92.65,48.21 C93.8961686,48.2771388 95.1371309,48.0040579 96.24,47.42 C97.0414381,46.9892433 97.5381561,46.1498285 97.53,45.24 C97.5419037,44.7518629 97.4463128,44.2670804 97.25,43.82 C97.0566174,43.3989742 96.7890159,43.0162025 96.46,42.69 C95.6637043,41.9889699 94.8145186,41.3504091 93.92,40.78 C92.3448653,39.8496161 90.982235,38.5994027 89.92,37.11 C89.1657116,35.9420099 88.7662518,34.5803733 88.77,33.19 C88.7459794,31.6546018 89.1888581,30.1481166 90.04,28.87 C90.9344199,27.5439176 92.1909003,26.5026355 93.66,25.87 C95.3681812,25.1383843 97.2120272,24.7771132 99.07,24.81 C101.892388,24.7762128 104.682391,25.4137319 107.21,26.67 L104.98,31.03 C103.123786,30.1745062 101.113128,29.7050124 99.07,29.65 C98.07169,29.6058119 97.0879696,29.9019858 96.28,30.49 C95.5735916,31.0101386 95.1664628,31.8430718 95.19,32.72 C95.178884,33.445193 95.4191554,34.1518736 95.87,34.72 C96.7512715,35.6164714 97.7626314,36.3749914 98.87,36.97 C100.334425,37.7918267 101.603509,38.9210386 102.59,40.28 C103.423824,41.526889 103.853298,43.0003715 103.82,44.5" id="Path" fill="#3E92CF"></path>
                <path d="M16.46,15.95 C16.5572623,17.7761076 15.7861216,19.5408333 14.38,20.71 C12.6855887,21.9359249 10.6171283,22.5334801 8.53,22.4 C7.60235541,22.4094903 6.67561151,22.3392317 5.76,22.19 C4.98515009,22.0537213 4.231875,21.81496 3.52,21.48 L3.52,18.95 C5.06538729,19.7499553 6.77984271,20.1682824 8.52,20.17 C9.87342949,20.2463666 11.2128346,19.8621688 12.32,19.08 C13.2471357,18.3665751 13.7723556,17.2490859 13.73,16.08 C13.7385049,15.3375344 13.4589267,14.6206673 12.95,14.08 C12.0915852,13.2685999 11.1134852,12.5940481 10.05,12.08 C8.8511799,11.4889964 7.79383508,10.6465313 6.95,9.61 C6.3668159,8.74970577 6.06621453,7.72905924 6.09,6.69 C6.05061515,4.98649499 6.78622758,3.35711347 8.09,2.26 C9.52477653,1.07240095 11.3492219,0.459501339 13.21,0.54 C14.1269758,0.533463205 15.0420696,0.623966991 15.94,0.81 C16.8647896,1.0418146 17.7604591,1.37727133 18.61,1.81 L17.61,3.99 C16.9200092,3.60553256 16.1841733,3.30985418 15.42,3.11 C14.7017663,2.8944688 13.9592688,2.77015927 13.21,2.74 C12.0614184,2.68209608 10.929984,3.03677771 10.02,3.74 C9.21316405,4.41595706 8.7660867,5.4283471 8.81,6.48 C8.80231872,6.94218181 8.88732532,7.40121744 9.06,7.83 C9.25966875,8.2118143 9.53132797,8.55138832 9.86,8.83 C10.5169317,9.35241504 11.2197989,9.81429922 11.96,10.21 C13.0046846,10.7762321 13.9896591,11.4462828 14.9,12.21 C15.3889411,12.6650196 15.7831571,13.2121643 16.06,13.82 C16.3259066,14.4528284 16.458663,15.1336305 16.45,15.82" id="Path" fill="#7C7C7B"></path>
                <path d="M21.52,22.08 L19.04,22.08 L22.5,6.16 L24.99,6.16 L21.52,22.08 Z M23.2,2.08 C23.1770377,1.59231038 23.3457186,1.11497943 23.67,0.75 C23.986166,0.407882736 24.4343057,0.218425332 24.9,0.23 C25.2635413,0.174121559 25.6318783,0.295507976 25.8909689,0.556576368 C26.1500595,0.817644759 26.2686414,1.18689418 26.21,1.55 C26.2358395,2.06454501 26.0559496,2.56823679 25.71,2.95 C25.4276885,3.29672171 25.0070397,3.50155939 24.56,3.51 C24.191972,3.52832124 23.8319018,3.39869599 23.56,3.15 C23.2945765,2.88737198 23.1559708,2.52262006 23.18,2.15" id="Shape" fill="#7C7C7B"></path>
                <path d="M36.74,17.56 C36.8049925,18.934921 36.1969355,20.2554865 35.11,21.1 C33.7578418,22.0253319 32.1352673,22.4723318 30.5,22.37 C28.935856,22.3947961 27.3877099,22.0522859 25.98,21.37 L25.98,19.07 C26.6828604,19.4813705 27.4357001,19.8006552 28.22,20.02 C28.9418033,20.2292847 29.688531,20.3402848 30.44,20.35 C31.4179884,20.412696 32.3899359,20.156551 33.21,19.62 C33.8330109,19.2058818 34.2081698,18.5080863 34.21,17.76 C34.2213496,17.2471237 34.0351867,16.7494959 33.69,16.37 C33.016522,15.7548414 32.2630448,15.2334621 31.45,14.82 C30.4185792,14.3071203 29.4952038,13.6010096 28.73,12.74 C28.1948721,12.0521677 27.9124269,11.2013015 27.93,10.33 C27.891115,9.07610353 28.4427406,7.87659549 29.42,7.09 C30.5502833,6.23515361 31.9444167,5.80346765 33.36,5.87 C35.0351704,5.88015092 36.6888055,6.24838307 38.21,6.95 L37.41,8.95 L36.58,8.59 C35.5568006,8.16335504 34.4585778,7.94575053 33.35,7.95 C32.5777068,7.90758316 31.8145283,8.13371013 31.19,8.59 C30.6853765,8.97821066 30.3957351,9.5834869 30.41,10.22 C30.3960586,10.7363043 30.5823967,11.2379838 30.93,11.62 C31.5820365,12.2132555 32.3121324,12.7145656 33.1,13.11 C33.9101445,13.5239412 34.6715294,14.027059 35.37,14.61 C35.7914169,14.9836231 36.1317575,15.4396796 36.37,15.95 C36.6042208,16.4573939 36.7204628,17.0112527 36.71,17.57" id="Path" fill="#7C7C7B"></path>
                <path d="M44.69,20.38 C45.4135902,20.3472724 46.1297324,20.21951 46.82,20 L46.82,21.87 C46.4204278,22.030837 46.004698,22.1481801 45.58,22.22 C45.1922985,22.3072219 44.7971933,22.3574472 44.4,22.37 C43.3785288,22.4393587 42.3673543,22.1295975 41.56,21.5 C40.856922,20.8374562 40.4896235,19.8934989 40.56,18.93 C40.5673549,18.1960549 40.6545344,17.4650879 40.82,16.75 L42.7,8 L40.21,8 L40.41,6.94 L43.15,5.81 L45,2.5 L46.45,2.5 L45.64,6.16 L49.7,6.16 L49.31,8 L45.31,8 L43.4,16.78 C43.2486606,17.4064784 43.1582401,18.0461202 43.13,18.69 C43.1011061,19.14731 43.2558838,19.5972454 43.56,19.94 C43.8827926,20.2449299 44.3166022,20.4039934 44.76,20.38" id="Path" fill="#7C7C7B"></path>
                <path d="M55.96,22.37 C54.3763128,22.4572832 52.8270978,21.8853767 51.68,20.79 C50.5899036,19.5965333 50.0274476,18.0137246 50.12,16.4 C50.110321,14.5960686 50.4817604,12.8104331 51.21,11.16 C51.8353043,9.63253273 52.8404064,8.29010193 54.13,7.26 C55.2689066,6.35970952 56.6782317,5.86996905 58.13,5.87 C59.3489259,5.7916855 60.5564188,6.14578901 61.54,6.87 C62.3131778,7.54811004 62.733227,8.54296349 62.68,9.57 C62.6950638,11.2902065 61.7449181,12.8737827 60.22,13.67 C58.0600647,14.7785769 55.6441747,15.2928163 53.22,15.16 L52.73,15.16 L52.67,16.32 C52.5956582,17.3977034 52.919468,18.4652083 53.58,19.32 C54.3093939,20.0854128 55.3464498,20.4789056 56.4,20.39 C57.0483944,20.3845207 57.6935002,20.2971626 58.32,20.13 C59.1657235,19.8728379 59.9858764,19.5380816 60.77,19.13 L60.77,21.25 C59.9811126,21.629033 59.1572353,21.9304515 58.31,22.15 C57.5383669,22.3202562 56.7501822,22.4041056 55.96,22.4001438 M58.02,7.95 C56.9151075,7.99039608 55.876214,8.48631386 55.15,9.32 C54.1825782,10.4001778 53.495731,11.7017532 53.15,13.11 L53.33,13.11 C55.0949597,13.195583 56.8577906,12.9023462 58.5,12.25 C59.5629208,11.8681804 60.2793002,10.8692291 60.3,9.74 C60.3117966,9.25565422 60.115154,8.78953851 59.76,8.46 C59.2823899,8.08056451 58.6777745,7.8981066 58.07,7.95" id="Shape" fill="#7C7C7B"></path>
                <path d="M73.93,22.08 L76.12,12.08 C76.267584,11.4223807 76.3579218,10.7532125 76.39,10.08 C76.4208567,9.51323393 76.2587021,8.95274277 75.93,8.49 C75.5200267,8.07277361 74.9414744,7.866411 74.36,7.93 C73.4795607,7.94571903 72.6289132,8.25153033 71.94,8.8 C71.0757886,9.46819807 70.3690986,10.3182745 69.87,11.29 C69.2191432,12.5153407 68.7508614,13.829225 68.48,15.19 L66.99,22.09 L64.5,22.09 L67.96,6.17 L70.02,6.17 L69.7,9.17 L69.84,9.17 C70.5270128,8.18112882 71.3999048,7.3354086 72.41,6.68 C73.2098715,6.19637131 74.1253139,5.93728383 75.06,5.93 C76.0108741,5.86703043 76.9441494,6.20838403 77.63,6.87 C78.2734817,7.60064892 78.6506237,8.52764277 78.7,9.5 L78.82,9.5 C79.524418,8.42636881 80.4437624,7.5104294 81.52,6.81 C82.3880528,6.24908236 83.3965855,5.94409654 84.43,5.93 C85.4933371,5.87076544 86.5376888,6.22964921 87.34,6.93 C88.0575126,7.71025414 88.4195705,8.75298089 88.34,9.81 C88.3183035,10.6817218 88.2111233,11.5492113 88.02,12.4 L85.89,22.16 L83.37,22.16 L85.56,12.16 C85.7184383,11.4628425 85.8187822,10.7537453 85.86,10.04 C85.8899313,9.50802865 85.7063579,8.9861041 85.35,8.59 C84.911391,8.19460388 84.3283188,7.99903929 83.74,8.05 C82.8802445,8.06796237 82.0491675,8.36252132 81.37,8.89 C80.5231234,9.53037689 79.8239647,10.3454936 79.32,11.28 C78.6890259,12.427947 78.2371455,13.6655597 77.98,14.95 L76.4,22.21 L73.93,22.08 Z" id="Path" fill="#7C7C7B"></path>
                <path d="M99.53,5.87 C100.391154,5.85804524 101.23544,6.10923777 101.95,6.59 C102.691839,7.10498364 103.268451,7.82401114 103.61,8.66 L103.78,8.66 L104.78,6.16 L106.66,6.16 L103.21,22.08 L101.21,22.08 L101.59,19.08 L101.48,19.08 C99.7133333,21.3 97.85,22.41 95.89,22.41 C94.6526092,22.4560552 93.4662067,21.9147591 92.69,20.95 C91.8401509,19.796532 91.4257069,18.3796295 91.52,16.95 C91.5022092,15.0327874 91.8588802,13.1305419 92.57,11.35 C93.1665349,9.76717443 94.1662033,8.36763857 95.47,7.29 C96.6147935,6.35026325 98.0489069,5.8345476 99.53,5.83 M96.71,20.35 C97.8005849,20.2893407 98.8254299,19.8091685 99.57,19.01 C100.57872,18.0197139 101.36603,16.8268211 101.88,15.51 C102.457836,14.1390238 102.760247,12.6677415 102.77,11.18 C102.812658,10.309019 102.515026,9.45557005 101.94,8.8 C101.375583,8.202982 100.580981,7.87858001 99.76,7.91 C98.6796239,7.9354524 97.6525012,8.38436967 96.9,9.16 C95.9483329,10.1096072 95.2354869,11.2714091 94.82,12.55 C94.3123658,13.9958042 94.0553388,15.5176748 94.06,17.05 C93.9956562,17.9331387 94.2433942,18.810839 94.76,19.53 C95.2479854,20.0905012 95.9681005,20.3933188 96.71,20.35" id="Shape" fill="#7C7C7B"></path>
            </g>
        </g>
    </g>
</svg>