<?xml version="1.0" encoding="UTF-8"?>
<svg width="168px" height="55px" viewBox="0 0 168 55" version="1.1" xmlns="http://www.w3.org/2000/svg" xmlns:xlink="http://www.w3.org/1999/xlink">
    <!-- Generator: Sketch 61.2 (89653) - https://sketch.com -->
    <title>Logo FIEC Azul PFI Curva</title>
    <desc>Created with Sketch.</desc>
    <g id="Page-1" stroke="none" stroke-width="1" fill="none" fill-rule="evenodd">
        <g id="Logo-FIEC-Azul-PFI-Curva" fill="#005CA9">
            <path d="M30.23,49.44 C30.5304532,49.4435155 30.8293449,49.4838155 31.12,49.56 C31.341222,49.6102751 31.5470467,49.7131875 31.72,49.86 C31.8718824,49.9948969 31.9856775,50.1673136 32.05,50.36 C32.1967056,50.8117205 32.1967056,51.2982795 32.05,51.75 C31.9900692,51.939202 31.8751948,52.1062921 31.72,52.23 C31.5753057,52.3421034 31.4174726,52.4361316 31.25,52.51 C31.0879246,52.5859121 30.9163931,52.6397259 30.74,52.67 L30.62,52.67 L29.19,52.67 L29.19,54.49 L27.78,54.49 L27.78,49.44 L30.23,49.44 Z M29.23,51.7 L29.89,51.7 C30.0060893,51.7164142 30.1239107,51.7164142 30.24,51.7 C30.3354907,51.6771829 30.4244519,51.6327023 30.5,51.57 C30.5682534,51.5087726 30.6227806,51.4337976 30.66,51.35 C30.6983942,51.268959 30.7155977,51.179501 30.71,51.09 C30.7125007,50.993228 30.6919341,50.8972503 30.65,50.81 C30.6016548,50.7298157 30.5325565,50.6641723 30.45,50.62 C30.3543685,50.5747655 30.2536459,50.5411913 30.15,50.52 C30.0271393,50.5047306 29.9028607,50.5047306 29.78,50.52 L29.23,50.52 L29.23,51.7 Z" id="Shape" fill-rule="nonzero"></path>
            <polygon id="Path" fill-rule="nonzero" points="36.62 49.44 36.62 50.44 34.2 50.44 34.2 51.44 36.46 51.44 36.46 52.44 34.2 52.44 34.2 53.44 36.62 53.44 36.62 54.44 32.78 54.44 32.78 49.44"></polygon>
            <polygon id="Path" fill-rule="nonzero" points="38.88 49.44 38.88 53.44 41.15 53.44 41.15 54.44 37.45 54.44 37.45 49.44"></polygon>
            <path d="M41.78,51.06 C41.8709352,50.7524953 41.9985177,50.4570412 42.16,50.18 C42.3486923,49.8864288 42.6303724,49.6646058 42.96,49.55 C43.3966102,49.3971547 43.8576221,49.3259691 44.32,49.34 L44.47,49.34 C44.7688318,49.3566479 45.0644334,49.4103937 45.35,49.5 C45.6346827,49.5982198 45.9040231,49.7362567 46.15,49.91 C46.4156301,50.1095221 46.6144014,50.3850121 46.72,50.7 C46.8583808,51.1155573 46.9226913,51.5521918 46.91,51.99 L46.91,52.2 C46.9144857,52.2732647 46.9144857,52.3467353 46.91,52.42 L46.91,52.53 C46.91,52.53 46.91,52.6 46.91,52.64 C46.9051826,52.679855 46.9051826,52.720145 46.91,52.76 L46.91,52.87 C46.8592562,53.096223 46.7714011,53.3124816 46.65,53.51 C46.5242385,53.7152567 46.3767199,53.9063603 46.21,54.08 C46.0139121,54.2721238 45.7734854,54.4129451 45.51,54.49 C45.1847179,54.5815161 44.8478691,54.6253065 44.51,54.62 C44.0598368,54.6325601 43.6106304,54.5717652 43.18,54.44 C42.8579992,54.3374326 42.5752573,54.1384661 42.37,53.87 C42.1333326,53.6390515 41.9342584,53.3724945 41.78,53.08 C41.6709273,52.7984405 41.6068108,52.5014797 41.59,52.2 L41.59,52.2 L41.59,52.2 L41.59,52.08 C41.6071415,51.7329987 41.671052,51.3899001 41.78,51.06 L41.78,51.06 Z M43.18,52.58 C43.2324446,52.7678198 43.3062604,52.9490041 43.4,53.12 C43.4881531,53.2826474 43.6196968,53.4176528 43.78,53.51 C43.9455885,53.5996695 44.1317447,53.6444849 44.32,53.64 C44.4824658,53.6453624 44.6437897,53.6110381 44.79,53.54 C44.9327675,53.4705386 45.0538052,53.3633338 45.14,53.23 C45.2389842,53.0698308 45.3099973,52.8939887 45.35,52.71 C45.4510315,52.2690464 45.4510315,51.8109536 45.35,51.37 C45.3099617,51.1797389 45.2390221,50.9973229 45.14,50.83 C45.0618673,50.6752053 44.9402187,50.5466053 44.79,50.46 C44.6227218,50.3758793 44.437162,50.3346438 44.25,50.34 C44.0680664,50.3352068 43.8882741,50.3801549 43.73,50.47 C43.5775485,50.5599014 43.4582756,50.6967145 43.39,50.86 C43.3026739,51.0316595 43.2355585,51.212871 43.19,51.4 C43.1390659,51.5928986 43.1088945,51.7906886 43.1,51.99 L43.1,51.99 C43.0884368,52.1875664 43.1018765,52.3858022 43.14,52.58 L43.18,52.58 Z" id="Shape" fill-rule="nonzero"></path>
            <polygon id="Path" fill-rule="nonzero" points="53.49 49.44 53.49 50.44 51.34 50.44 51.34 51.61 53.34 51.61 53.34 52.61 51.34 52.61 51.34 54.49 49.91 54.49 49.91 49.44"></polygon>
            <path d="M55.6999913,49.44 L55.6999913,52.44 C55.6837488,52.6062705 55.6837488,52.7737295 55.6999913,52.94 C55.7402109,53.0765698 55.7973195,53.2075836 55.87,53.33 C55.9492746,53.439407 56.0562818,53.5257031 56.18,53.58 C56.3238085,53.6340964 56.4763581,53.6612164 56.63,53.66 C56.806639,53.6633583 56.9825387,53.6362968 57.15,53.58 C57.2803505,53.5274253 57.3918552,53.4368278 57.47,53.32 C57.5429415,53.1918192 57.5968397,53.0537051 57.63,52.91 C57.6726944,52.7400437 57.6928672,52.5652134 57.69,52.39 L57.69,49.44 L59.12,49.44 L59.12,52.58 C59.124285,52.8670247 59.0733613,53.1521978 58.97,53.42 C58.8777026,53.6751809 58.7309737,53.9072173 58.54,54.1 C58.3229615,54.3049669 58.0583527,54.4527354 57.77,54.53 C57.3999706,54.638307 57.0154516,54.6889016 56.63,54.68 C56.291537,54.683668 55.954443,54.6364748 55.63,54.54 C55.3418779,54.4499859 55.0760583,54.3000363 54.85,54.1 C54.6474427,53.9182475 54.4841098,53.6970676 54.37,53.45 C54.257128,53.1984436 54.1991736,52.9257173 54.1999913,52.65 L54.1999913,49.44 L55.6999913,49.44 Z" id="Path" fill-rule="nonzero"></path>
            <polygon id="Path" fill-rule="nonzero" points="64.24 49.44 64.24 50.44 62.64 50.44 62.64 54.44 61.26 54.44 61.26 50.44 59.67 50.44 59.67 49.44"></polygon>
            <path d="M66.23,49.44 L66.23,52.44 C66.2090846,52.6060105 66.2090846,52.7739895 66.23,52.94 C66.2658563,53.0781133 66.3232247,53.2097232 66.4,53.33 C66.4792746,53.439407 66.5862818,53.5257031 66.71,53.58 C66.8535558,53.6350117 67.0062799,53.6621626 67.16,53.66 C67.336639,53.6633583 67.5125387,53.6362968 67.6799913,53.58 C67.8103505,53.5274253 67.9218552,53.4368278 68,53.32 C68.0729415,53.1918192 68.1268397,53.0537051 68.16,52.91 C68.1772436,52.7370955 68.1772436,52.5629045 68.16,52.39 L68.16,49.44 L69.6,49.44 L69.6,52.58 C69.604285,52.8670247 69.5533613,53.1521978 69.45,53.42 C69.3542083,53.6734539 69.2079154,53.9048008 69.02,54.1 C68.8029615,54.3049669 68.5383527,54.4527354 68.25,54.53 C67.8799706,54.638307 67.4954516,54.6889016 67.11,54.68 C66.7714881,54.6844366 66.4342789,54.6372273 66.11,54.54 C65.8218779,54.4499859 65.5560583,54.3000363 65.33,54.1 C65.1243023,53.9211246 64.9604361,53.6992225 64.85,53.45 C64.737128,53.1984436 64.6791736,52.9257173 64.6799913,52.65 L64.6799913,49.44 L66.23,49.44 Z" id="Path" fill-rule="nonzero"></path>
            <path d="M72.78,49.44 L72.92,49.44 C73.1482628,49.45068 73.375491,49.4774127 73.6,49.52 C73.8161642,49.5654143 74.0272227,49.632417 74.23,49.72 C74.412434,49.8029714 74.5657281,49.9388457 74.67,50.11 C74.7756524,50.31354 74.8272998,50.540789 74.82,50.77 C74.8372122,50.9410248 74.8236651,51.1137499 74.78,51.28 C74.7353191,51.4280557 74.6441542,51.5577904 74.52,51.65 C74.3998962,51.7476688 74.2648294,51.8253322 74.12,51.88 C73.972134,51.9430362 73.8179124,51.9899732 73.66,52.02 C73.8689633,52.011729 74.0762762,52.0601019 74.26,52.16 C74.4101396,52.2328777 74.5252275,52.3623516 74.58,52.52 C74.6496897,52.6809831 74.703284,52.8484653 74.74,53.02 C74.74,53.19 74.8,53.37 74.82,53.56 L74.82,53.56 L74.82,53.56 L74.82,53.56 C74.8249306,53.6365874 74.8249306,53.7134126 74.82,53.79 L74.82,54.02 C74.8143506,54.0932245 74.8143506,54.1667755 74.82,54.24 L74.88,54.43 L73.39,54.43 C73.39,54.43 73.39,54.35 73.39,54.3 L73.39,54.13 C73.39,54.07 73.39,54.01 73.39,53.94 C73.39,53.87 73.39,53.82 73.39,53.75 L73.39,53.59 C73.4010416,53.4602345 73.4010416,53.3297655 73.39,53.2 C73.3706235,53.0808564 73.3405006,52.9637117 73.3,52.85 C73.2687389,52.7465563 73.2012967,52.6578166 73.11,52.6 C73.0115484,52.5375086 72.8965462,52.5061444 72.78,52.51 L72.12,52.51 L72.12,54.44 L70.52,54.44 L70.52,49.44 L72.78,49.44 Z M71.96,51.59 L72.64,51.59 C72.7230052,51.6004577 72.8069948,51.6004577 72.89,51.59 L73.12,51.51 C73.1969701,51.4528156 73.253153,51.3720527 73.28,51.28 C73.3231006,51.196735 73.3437789,51.1036827 73.34,51.01 C73.3413132,50.9261317 73.3206261,50.8433834 73.28,50.77 C73.2400489,50.6961663 73.1814322,50.6341016 73.11,50.59 C73.0307552,50.547237 72.9468759,50.5136853 72.86,50.49 C72.7602928,50.479177 72.6597072,50.479177 72.56,50.49 L71.96,50.49 L71.96,51.59 Z" id="Shape" fill-rule="nonzero"></path>
            <path d="M75.64,51.06 C75.7304718,50.7506958 75.8616182,50.4547759 76.03,50.18 C76.2119158,49.8843947 76.4913254,49.6615744 76.82,49.55 C77.2566102,49.3971547 77.7176221,49.3259691 78.18,49.34 L78.34,49.34 C78.6354625,49.3574667 78.9276556,49.4112033 79.21,49.5 C79.4946827,49.5982198 79.7640231,49.7362567 80.01,49.91 C80.2756301,50.1095221 80.4744014,50.3850121 80.58,50.7 C80.7217752,51.1149504 80.7894728,51.5516003 80.78,51.99 L80.78,52.2 C80.7844857,52.2732647 80.7844857,52.3467353 80.78,52.42 L80.78,52.53 C80.78,52.53 80.78,52.6 80.78,52.64 C80.78,52.68 80.78,52.72 80.78,52.76 L80.78,52.87 C80.7292562,53.096223 80.6414011,53.3124816 80.52,53.51 C80.3942385,53.7152567 80.2467199,53.9063603 80.08,54.08 C79.8839121,54.2721238 79.6434854,54.4129451 79.38,54.49 C79.0547179,54.5815161 78.7178691,54.6253065 78.38,54.62 C77.9298748,54.6318545 77.4807814,54.5710749 77.05,54.44 C76.7279992,54.3374326 76.4452573,54.1384661 76.24,53.87 C76.0633553,53.6278473 75.9219472,53.3618653 75.82,53.08 C75.7109273,52.7984405 75.6468108,52.5014797 75.63,52.2 L75.63,52.2 L75.63,52.2 L75.63,52.08 C75.5881964,51.7410547 75.5915591,51.3980606 75.64,51.06 Z M77.04,52.58 C77.0924446,52.7678198 77.1662604,52.9490041 77.26,53.12 C77.3481531,53.2826474 77.4796968,53.4176528 77.64,53.51 C77.8055885,53.5996695 77.9917447,53.6444849 78.18,53.64 C78.3424658,53.6453624 78.5037897,53.6110381 78.65,53.54 C78.7927675,53.4705386 78.9138052,53.3633338 79,53.23 C79.1031717,53.0719838 79.1745056,52.8953474 79.21,52.71 C79.2656524,52.4741126 79.2925148,52.2323504 79.29,51.99 C79.2931854,51.7811946 79.2696613,51.5728388 79.22,51.37 C79.1799617,51.1797389 79.1090221,50.9973229 79.01,50.83 C78.9318673,50.6752053 78.8102187,50.5466053 78.66,50.46 C78.4958631,50.377098 78.3138389,50.335885 78.13,50.34 C77.9446976,50.3333586 77.7611977,50.378368 77.6,50.47 C77.4475485,50.5599014 77.3282756,50.6967145 77.26,50.86 C77.1726739,51.0316595 77.1055585,51.212871 77.06,51.4 C77.0090659,51.5928986 76.9788945,51.7906886 76.97,51.99 L76.97,51.99 C76.9730726,52.1885445 76.996529,52.3862485 77.04,52.58 Z" id="Shape" fill-rule="nonzero"></path>
            <path d="M86.01,49.44 C86.5011893,49.4360151 86.9901233,49.5068262 87.46,49.65 C87.8054234,49.7494893 88.1123675,49.9517934 88.34,50.23 C88.5311046,50.4807205 88.6797483,50.7611165 88.78,51.06 C88.8841621,51.3659797 88.9381919,51.6867817 88.94,52.01 L88.94,52.01 L88.94,52.01 L88.94,52.01 L88.94,52.01 L88.94,52.01 C88.94,52.01 88.94,52.01 88.94,52.01 L88.94,52.08 C88.9330865,52.4235254 88.8618571,52.7627128 88.73,53.08 C88.6104248,53.362629 88.4169946,53.6078708 88.17,53.79 C87.9433382,53.9736059 87.686062,54.1157849 87.41,54.21 C87.1411749,54.2936703 86.8615337,54.3374695 86.58,54.34 L83.88,54.34 L83.88,49.44 L86.01,49.44 Z M86.01,53.52 C86.2174588,53.5347163 86.4256309,53.5040024 86.62,53.43 C86.7864609,53.3632645 86.9340804,53.2568411 87.05,53.12 C87.1635137,52.9891276 87.254731,52.8404772 87.32,52.68 C87.3891316,52.5252087 87.4297821,52.3592191 87.44,52.19 L87.44,52.19 L87.44,52.07 L87.44,52.07 L87.44,51.98 L87.44,51.89 C87.44,51.89 87.44,51.89 87.44,51.83 C87.4095888,51.6677431 87.3592055,51.5098757 87.29,51.36 C87.2133343,51.2041476 87.1157683,51.0594809 87,50.93 C86.8823949,50.8018704 86.7393459,50.6996925 86.58,50.63 C86.4226133,50.5606247 86.2519629,50.5264946 86.08,50.53 L85.31,50.53 L85.31,53.53 L86.01,53.52 Z" id="Shape" fill-rule="nonzero"></path>
            <path d="M92.96,49.44 L94.96,54.51 L93.36,54.51 L93.02,53.57 L91.02,53.57 L90.69,54.51 L89.21,54.51 L91.21,49.44 L92.96,49.44 Z M92.03,50.44 L91.36,52.44 L92.63,52.44 L92.03,50.44 Z" id="Shape" fill-rule="nonzero"></path>
            <polygon id="Path" fill-rule="nonzero" points="99.25 49.44 99.25 54.51 97.78 54.51 97.78 49.44"></polygon>
            <polygon id="Path" fill-rule="nonzero" points="102.11 49.44 103.83 53.19 103.83 49.44 105.1 49.44 105.1 54.51 103.1 54.51 101.39 50.71 101.39 54.51 100.12 54.51 100.12 49.44"></polygon>
            <path d="M108.18,49.44 C108.671189,49.4360151 109.160123,49.5068262 109.63,49.65 C109.975423,49.7494893 110.282368,49.9517934 110.51,50.23 C110.701105,50.4807205 110.849748,50.7611165 110.95,51.06 C111.050087,51.3669953 111.104009,51.687157 111.11,52.01 L111.11,52.01 L111.11,52.01 L111.11,52.01 L111.11,52.01 L111.11,52.01 L111.11,52.08 C111.103086,52.4235254 111.031857,52.7627128 110.9,53.08 C110.780425,53.362629 110.586995,53.6078708 110.34,53.79 C110.113338,53.9736059 109.856062,54.1157849 109.58,54.21 C109.311175,54.2936703 109.031534,54.3374695 108.75,54.34 L106.04,54.34 L106.04,49.44 L108.18,49.44 Z M108.18,53.52 C108.387459,53.5347163 108.595631,53.5040024 108.79,53.43 C108.956461,53.3632645 109.10408,53.2568411 109.22,53.12 C109.333514,52.9891276 109.424731,52.8404772 109.49,52.68 C109.559132,52.5252087 109.599782,52.3592191 109.61,52.19 L109.61,52.19 L109.61,52.07 L109.61,52.07 L109.61,51.98 L109.61,51.89 C109.605321,51.8702736 109.605321,51.8497264 109.61,51.83 C109.579589,51.6677431 109.529206,51.5098757 109.46,51.36 C109.379709,51.206278 109.282435,51.0620436 109.17,50.93 C109.050597,50.8039188 108.907991,50.7020575 108.75,50.63 C108.592613,50.5606247 108.421963,50.5264946 108.25,50.53 L107.48,50.53 L107.48,53.53 L108.18,53.52 Z" id="Shape" fill-rule="nonzero"></path>
            <path d="M113.31,49.44 L113.31,52.36 C113.307726,52.5285906 113.327904,52.6967338 113.37,52.86 C113.401918,52.9994417 113.459571,53.1317046 113.54,53.25 C113.616516,53.3619906 113.724341,53.4489464 113.85,53.5 C113.990995,53.5644781 114.145051,53.5952894 114.3,53.59 C114.477644,53.5955856 114.654567,53.5649644 114.82,53.5 C114.951651,53.4541573 115.061937,53.3616588 115.13,53.24 C115.206306,53.1158952 115.263608,52.9810683 115.3,52.84 C115.316247,52.6670474 115.316247,52.4929526 115.3,52.32 L115.3,49.44 L116.78,49.44 L116.78,52.53 C116.784285,52.8170247 116.733361,53.1021978 116.63,53.37 C116.531142,53.6189363 116.385135,53.846436 116.2,54.04 C115.982094,54.2459727 115.718082,54.3968366 115.43,54.48 C115.058132,54.5782799 114.674598,54.6253807 114.29,54.62 C113.951604,54.6226302 113.614663,54.5754584 113.29,54.48 C113.006492,54.3911483 112.744362,54.2447642 112.52,54.05 C112.316292,53.8630631 112.150003,53.639082 112.03,53.39 C111.919672,53.137969 111.865094,52.8650778 111.87,52.59 L111.87,49.44 L113.31,49.44 Z M114.47,47.84 L116.01,47.84 L114.64,48.84 L113.7,48.84 L114.47,47.84 Z" id="Shape" fill-rule="nonzero"></path>
            <path d="M118.93,52.86 L118.93,52.92 C118.93,52.92 118.93,52.92 118.93,52.99 L118.93,52.99 C118.93,52.99 118.93,52.99 118.93,52.99 C118.93,52.99 118.93,52.99 118.93,52.99 C118.942843,53.0504392 118.966561,53.1080416 119,53.16 L119.14,53.32 C119.206318,53.3670017 119.280982,53.4009399 119.36,53.42 C119.463001,53.4317287 119.566999,53.4317287 119.67,53.42 C119.779727,53.4309609 119.890273,53.4309609 120,53.42 C120.084557,53.3988763 120.165461,53.3651667 120.24,53.32 C120.298218,53.2711518 120.348781,53.2138476 120.39,53.15 C120.420342,53.0975318 120.440686,53.0398898 120.45,52.98 L120.45,52.98 L120.45,52.98 L120.45,52.98 L120.45,52.98 L120.45,52.98 L120.45,52.98 C120.427377,52.923634 120.393329,52.8725622 120.35,52.83 C120.303997,52.7727141 120.250132,52.722215 120.19,52.68 C120.112208,52.6267534 120.028266,52.5831035 119.94,52.55 L119.62,52.47 L119.56,52.47 C119.240589,52.4070327 118.926369,52.3201206 118.62,52.21 C118.409843,52.1390995 118.211101,52.0380441 118.03,51.91 C117.89408,51.8054511 117.787329,51.6677071 117.72,51.51 C117.640639,51.329554 117.593266,51.1366799 117.58,50.94 L117.58,50.94 L117.58,50.94 L117.58,50.94 C117.575263,50.7142405 117.626814,50.4908541 117.73,50.29 C117.844665,50.0903128 118.010313,49.9246654 118.21,49.81 C118.424214,49.6793917 118.656799,49.5816384 118.9,49.52 C119.171892,49.4548129 119.450405,49.4212571 119.73,49.42 C120.068337,49.4274962 120.404354,49.4778989 120.73,49.57 C120.96212,49.6214726 121.174141,49.7396483 121.34,49.91 C121.473511,50.0541196 121.575664,50.2243752 121.64,50.41 C121.71288,50.6051111 121.750137,50.8117219 121.75,51.02 L120.31,51.02 C120.314226,50.8711732 120.251906,50.7282053 120.14,50.63 C120.080185,50.5743488 120.008313,50.5332794 119.93,50.51 C119.836986,50.4990738 119.743014,50.4990738 119.65,50.51 C119.563703,50.4986853 119.476297,50.4986853 119.39,50.51 C119.319299,50.5321376 119.254402,50.5697099 119.2,50.62 C119.15219,50.6567204 119.114366,50.7048593 119.09,50.76 C119.058469,50.8074989 119.041125,50.8629991 119.04,50.92 L119.04,50.92 L119.04,50.92 L119.04,50.92 C119.053155,50.9693121 119.073364,51.0164656 119.1,51.06 C119.164535,51.1784795 119.271825,51.2678878 119.4,51.31 C119.482469,51.3269754 119.567531,51.3269754 119.65,51.31 L119.81,51.31 L119.97,51.31 L120.14,51.31 L120.32,51.31 C120.51245,51.3502435 120.700145,51.4105739 120.88,51.49 C121.064434,51.5638623 121.241821,51.6542293 121.41,51.76 C121.569375,51.8592254 121.697598,52.0013111 121.78,52.17 C121.868325,52.3610798 121.912745,52.5695118 121.91,52.78 C121.913281,53.0484714 121.85871,53.3145012 121.75,53.56 C121.6336,53.7748934 121.465118,53.9571291 121.26,54.09 C121.034294,54.218937 120.792064,54.316502 120.54,54.38 C120.264398,54.4422344 119.982531,54.4724345 119.7,54.47 C119.363366,54.4755645 119.027376,54.4386056 118.7,54.36 C118.450223,54.3025533 118.215203,54.1935583 118.01,54.04 C117.823588,53.8907566 117.676057,53.698623 117.58,53.48 C117.474081,53.2402533 117.41632,52.9820253 117.41,52.72 L118.84,52.72 L118.93,52.86 Z" id="Path" fill-rule="nonzero"></path>
            <polygon id="Path" fill-rule="nonzero" points="126.92 49.44 126.92 50.44 125.33 50.44 125.33 54.44 123.95 54.44 123.95 50.44 122.35 50.44 122.35 49.44"></polygon>
            <path d="M129.62,49.44 L129.78,49.44 C130.008263,49.45068 130.235491,49.4774127 130.46,49.52 C130.676164,49.5654143 130.887223,49.632417 131.09,49.72 C131.272434,49.8029714 131.425728,49.9388457 131.53,50.11 C131.635652,50.31354 131.6873,50.540789 131.68,50.77 C131.683535,50.9507499 131.653003,51.1305491 131.59,51.3 C131.542026,51.4491059 131.447364,51.5788271 131.32,51.67 C131.204954,51.7695865 131.072821,51.847511 130.93,51.9 C130.782134,51.9630362 130.627912,52.0099732 130.47,52.04 C130.678963,52.031729 130.886276,52.0801019 131.07,52.18 C131.22014,52.2528777 131.335227,52.3823516 131.39,52.54 C131.456395,52.7013019 131.506641,52.8687871 131.54,53.04 C131.581334,53.2179267 131.611394,53.3982854 131.63,53.58 L131.63,53.58 L131.63,53.58 L131.63,53.58 C131.634931,53.6565874 131.634931,53.7334126 131.63,53.81 L131.63,54.04 C131.624351,54.1132245 131.624351,54.1867755 131.63,54.26 L131.69,54.45 L130.15,54.45 C130.144343,54.4068513 130.144343,54.3631487 130.15,54.32 L130.15,54.15 L130.15,53.96 C130.15,53.9 130.15,53.84 130.15,53.77 L130.15,53.61 C130.144496,53.4788111 130.127768,53.3483345 130.1,53.22 C130.080623,53.1008564 130.050501,52.9837117 130.01,52.87 C129.978739,52.7665563 129.911297,52.6778166 129.82,52.62 C129.721548,52.5575086 129.606546,52.5261444 129.49,52.53 L128.78,52.53 L128.78,54.46 L127.34,54.46 L127.34,49.44 L129.62,49.44 Z M128.78,51.59 L129.46,51.59 C129.543005,51.6004577 129.626995,51.6004577 129.71,51.59 L129.94,51.51 C130.007668,51.4687738 130.062947,51.4100397 130.1,51.34 C130.143101,51.256735 130.163779,51.1636827 130.16,51.07 C130.161313,50.9861317 130.140626,50.9033834 130.1,50.83 C130.060049,50.7561663 130.001432,50.6941016 129.93,50.65 C129.849949,50.6089848 129.766255,50.5755071 129.68,50.55 C129.580293,50.539177 129.479707,50.539177 129.38,50.55 L128.78,50.55 L128.78,51.59 Z" id="Shape" fill-rule="nonzero"></path>
            <polygon id="Path" fill-rule="nonzero" points="133.92 49.44 133.92 54.51 132.49 54.51 132.49 49.44"></polygon>
            <path d="M138.11,49.44 L140.11,54.51 L138.51,54.51 L138.17,53.57 L136.17,53.57 L135.84,54.51 L134.35,54.51 L136.35,49.44 L138.11,49.44 Z M137.18,50.44 L136.51,52.44 L137.78,52.44 L137.18,50.44 Z" id="Shape" fill-rule="nonzero"></path>
            <path d="M129.45,4.28 L129.45,0 L38.45,0 L38.45,4.28 L43.78,4.28 L43.78,5.18 L38.4,5.18 L38.4,9.4 L43.78,9.4 L43.78,10.28 L38.4,10.28 L38.4,14.51 L43.78,14.51 L43.78,15.4 L38.4,15.4 L38.4,19.63 L43.78,19.63 L43.78,20.52 L38.4,20.52 L38.4,24.75 L43.78,24.75 L43.78,25.64 L38.4,25.64 L38.4,29.88 L129.4,29.88 L129.4,25.63 L124.06,25.63 L124.06,24.74 L129.4,24.74 L129.4,20.51 L124.06,20.51 L124.06,19.62 L129.4,19.62 L129.4,15.39 L124.06,15.39 L124.06,14.49 L129.4,14.49 L129.4,10.28 L124.06,10.28 L124.06,9.39 L129.4,9.39 L129.4,5.14 L124.06,5.14 L124.06,4.28 L129.45,4.28 Z M64.45,17.74 L56.12,17.74 L54.03,25.65 L47.97,25.65 L53.67,4.28 L68.78,4.28 L67.64,8.68 L58.56,8.68 L57.23,13.58 L65.59,13.58 L64.45,17.74 Z M66.07,25.65 L71.78,4.28 L77.84,4.28 L72.14,25.64 L66.07,25.65 Z M94.87,12.85 L93.66,17.28 L84.12,17.28 L83.02,21.44 L93.23,21.44 L92.12,25.63 L75.86,25.63 L81.56,4.28 L97.78,4.28 L96.62,8.68 L86.45,8.68 L85.33,12.87 L94.87,12.85 Z M119.6,11.09 L113.28,11.03 C114.06,7.08 107.81,7.34 106.39,10.08 C105.96,10.9 102.6,16.68 104.22,21.08 C104.64,22.18 109.67,23.24 111.22,18.83 L117.55,18.78 C116.24,23.52 111.55,26.42 105.97,26.24 C103.97,26.18 94.8,26.84 97.72,15.17 C98.1624443,13.3182831 98.8840338,11.5446566 99.86,9.91 C100.75,8.46 103.86,3.97 111.51,3.91 C121.56,3.74 119.86,9.92 119.6,11.09 L119.6,11.09 Z" id="Shape"></path>
            <polygon id="Path" fill-rule="nonzero" points="1.21 35.51 4.63 35.51 4.48 36.18 1.88 36.18 1.51 37.96 3.96 37.96 3.78 38.63 1.37 38.63 0.78 41.28 0 41.28"></polygon>
            <path d="M5.04,39.38 C4.85,40.2 5.04,40.81 5.88,40.81 C6.39445294,40.8241568 6.85234269,40.4858959 6.99,39.99 L7.78,39.99 C7.69740824,40.3116894 7.51965951,40.6009667 7.27,40.82 C6.85922494,41.1804357 6.32612043,41.3700635 5.78,41.35 C4.53,41.35 4.1,40.58 4.36,39.35 C4.46441033,38.5827448 4.89917789,37.8995386 5.55,37.48 C5.89955813,37.2798819 6.29734709,37.1795699 6.7,37.19 C8.48,37.19 8.11,38.77 7.96,39.42 L5.04,39.38 Z M7.26,38.85 C7.34,38.47 7.44,37.68 6.52,37.68 C5.84864015,37.6882332 5.28374949,38.185167 5.19,38.85 L7.26,38.85 Z" id="Shape" fill-rule="nonzero"></path>
            <path d="M12.58,35.51 L13.32,35.51 L12.24,40.6 C12.24,40.69 12.17,41.03 12.14,41.23 L11.39,41.23 L11.51,40.6 C11.3966588,40.7712024 11.2462861,40.9147399 11.07,41.02 C10.7656248,41.1975196 10.4221249,41.2971346 10.07,41.31 C9.54,41.31 8.41,41.04 8.79,39.31 C8.90623356,38.128854 9.86510779,37.2081651 11.05,37.14 C11.9,37.14 12.05,37.64 12.14,37.81 L12.58,35.51 Z M11.78,38.08 C11.6133647,37.807096 11.3090771,37.6491746 10.99,37.67 C9.89,37.67 9.61,39 9.56,39.27 C9.41,39.97 9.41,40.79 10.33,40.79 C11.5,40.79 11.78,39.5 11.84,39.19 C11.9579287,38.825308 11.9365529,38.4298552 11.78,38.08 L11.78,38.08 Z" id="Shape" fill-rule="nonzero"></path>
            <path d="M14.29,39.38 C14.1,40.2 14.29,40.81 15.13,40.81 C15.6456013,40.8278351 16.1055212,40.4880745 16.24,39.99 L16.98,39.99 C16.8974082,40.3116894 16.7196595,40.6009667 16.47,40.82 C16.060285,41.182237 15.526436,41.3721296 14.98,41.35 C13.73,41.35 13.3,40.58 13.56,39.35 C13.6601688,38.562778 14.1078624,37.8618806 14.78,37.44 C15.1295581,37.2398819 15.5273471,37.1395699 15.93,37.15 C17.71,37.15 17.34,38.73 17.19,39.38 L14.29,39.38 Z M16.51,38.85 C16.59,38.47 16.69,37.68 15.77,37.68 C15.1002483,37.6923986 14.537676,38.1872931 14.44,38.85 L16.51,38.85 Z" id="Shape" fill-rule="nonzero"></path>
            <path d="M18.57,38.06 C18.62,37.79 18.67,37.51 18.7,37.25 L19.45,37.25 L19.3,38.02 C19.5258125,37.6013013 19.9462823,37.3234909 20.42,37.28 C20.5958844,37.256488 20.7741156,37.256488 20.95,37.28 L20.79,38.01 C20.7435739,38.003299 20.6964261,38.003299 20.65,38.01 L20.44,38.01 C19.56,38.01 19.24,38.53 19.1,39.22 L18.65,41.28 L17.89,41.28 L18.57,38.06 Z" id="Path" fill-rule="nonzero"></path>
            <path d="M23.36,41.28 C23.3505689,41.0814444 23.3707912,40.8825922 23.42,40.69 C23.1129842,41.1497442 22.592719,41.4211869 22.04,41.41 C21.13,41.41 20.74,40.9 20.88,40.24 C20.9763527,39.7165378 21.3082991,39.266566 21.78,39.02 C22.235975,38.8316642 22.7269533,38.7430154 23.22,38.76 L23.76,38.76 C23.86,38.27 23.91,38.06 23.76,37.88 C23.61,37.7 23.34,37.62 23.12,37.62 C22.6822888,37.5733708 22.2787159,37.8610238 22.18,38.29 L21.43,38.29 C21.514279,38.0082799 21.665206,37.751018 21.87,37.54 C22.2673432,37.2431732 22.7543768,37.0914163 23.25,37.11 C23.83,37.11 24.41,37.29 24.54,37.7 C24.5949108,37.8996261 24.5949108,38.1103739 24.54,38.31 L24.19,40.28 C24.1195254,40.6099392 24.0694306,40.9439042 24.04,41.28 L23.36,41.28 Z M23.27,39.28 C22.97,39.28 21.83,39.28 21.66,40.09 C21.6,40.35 21.66,40.78 22.33,40.78 C22.6923262,40.7831086 23.0384537,40.6300838 23.28,40.36 C23.4915451,40.0625189 23.6318285,39.7203643 23.69,39.36 C23.5524545,39.3217591 23.4119722,39.2950005 23.27,39.28 Z" id="Shape" fill-rule="nonzero"></path>
            <path d="M28.68,39.91 C28.4605498,40.7254818 27.7340234,41.3018323 26.89,41.33 L26.56,41.69 C26.6632,41.6825753 26.7668,41.6825753 26.87,41.69 C27.34,41.69 27.43,42.01 27.38,42.25 C27.38,42.31 27.22,42.96 26.26,42.96 C26.0131926,42.9721592 25.7677361,42.9168451 25.55,42.8 L25.78,42.48 C25.9372716,42.5611488 26.1132614,42.5991074 26.29,42.59 C26.56,42.59 26.74,42.48 26.78,42.27 C26.82,42.06 26.57,41.96 26.44,41.96 C26.3396943,41.9642049 26.241179,41.9879845 26.15,42.03 L26.05,41.89 L26.58,41.33 C25.37,41.19 25.23,40.26 25.43,39.33 C25.5209474,38.1312167 26.4985198,37.1924027 27.7,37.15 C28.128516,37.1182736 28.5446991,37.3019941 28.81,37.64 C28.977019,37.9046655 29.0310436,38.2252116 28.96,38.53 L28.18,38.53 C28.18,38.35 28.29,37.7 27.57,37.7 C26.57,37.7 26.29,38.89 26.22,39.2 C26.05,40.01 26.08,40.77 26.87,40.77 C27.3817027,40.77436 27.8234674,40.4125337 27.92,39.91 L28.68,39.91 Z" id="Path" fill-rule="nonzero"></path>
            <path d="M31.78,41.28 C31.7705689,41.0814444 31.7907912,40.8825922 31.84,40.69 C31.5329842,41.1497442 31.012719,41.4211869 30.46,41.41 C29.55,41.41 29.16,40.9 29.3,40.24 C29.4319392,39.7150333 29.8019841,39.2820807 30.3,39.07 C30.7523536,38.8812719 31.2401647,38.7925789 31.73,38.81 L32.27,38.81 C32.37,38.32 32.42,38.11 32.27,37.93 C32.12,37.75 31.85,37.67 31.64,37.67 C31.1986971,37.6179493 30.7890931,37.9068279 30.69,38.34 L29.95,38.34 C30.0254531,38.0567697 30.1736948,37.7982085 30.38,37.59 C30.778079,37.2946182 31.264592,37.1430236 31.76,37.16 C32.34,37.16 32.92,37.34 33.05,37.75 C33.1097701,37.948941 33.1097701,38.161059 33.05,38.36 L32.56,40.28 C32.4895254,40.6099392 32.4394306,40.9439042 32.41,41.28 L31.78,41.28 Z M31.69,39.28 C31.39,39.28 30.25,39.28 30.08,40.09 C30.02,40.35 30.08,40.78 30.75,40.78 C31.1123262,40.7831086 31.4584537,40.6300838 31.7,40.36 C31.9155324,40.0647321 32.0562218,39.7215871 32.11,39.36 C31.9562396,39.3184216 31.7988575,39.2916332 31.64,39.28 L31.69,39.28 Z M30.78,36.38 C30.8255385,36.1667313 30.9334408,35.9718108 31.09,35.82 C31.2317206,35.681116 31.4215859,35.602304 31.62,35.6 C31.8188788,35.6196111 32.014074,35.6667272 32.2,35.74 C32.2928715,35.7531313 32.3871285,35.7531313 32.48,35.74 C32.654413,35.7433233 32.8061119,35.6211214 32.84,35.45 L33.17,35.45 C33.1255135,35.8911759 32.76306,36.2323086 32.32,36.25 C32.1587656,36.2438044 31.9997909,36.20998 31.85,36.15 C31.7,36.15 31.52,36.04 31.48,36.04 C31.44,36.04 31.23,36.1 31.11,36.33 L30.78,36.38 Z" id="Shape" fill-rule="nonzero"></path>
            <path d="M36.31,37.15 C37.9,37.15 38,38.4 37.82,39.23 C37.6374365,40.4550484 36.5885615,41.3637903 35.35,41.37 C34.03,41.37 33.59,40.46 33.83,39.29 C34.0050596,38.0567841 35.0644427,37.1426391 36.31,37.15 L36.31,37.15 Z M35.48,40.81 C36.05,40.81 36.78,40.41 37.03,39.21 C37.24,38.21 36.9,37.7 36.2,37.7 C35.3506264,37.7536992 34.6736992,38.4306264 34.62,39.28 C34.44,40.06 34.63,40.81 35.48,40.81 Z" id="Shape" fill-rule="nonzero"></path>
            <path d="M44.78,35.51 L45.52,35.51 L44.44,40.6 C44.44,40.69 44.37,41.03 44.34,41.23 L43.59,41.23 L43.71,40.6 C43.5966588,40.7712024 43.4462861,40.9147399 43.27,41.02 C42.9362098,41.201944 42.5599775,41.2916875 42.18,41.28 C41.65,41.28 40.52,41.01 40.9,39.28 C41.0162336,38.098854 41.9751078,37.1781651 43.16,37.11 C44.01,37.11 44.16,37.61 44.25,37.78 L44.78,35.51 Z M43.96,38.08 C43.7933647,37.807096 43.4890771,37.6491746 43.17,37.67 C42.07,37.67 41.79,39 41.74,39.27 C41.59,39.97 41.59,40.79 42.51,40.79 C43.68,40.79 43.96,39.5 44.02,39.19 C44.1254407,38.8203987 44.0898016,38.4248047 43.92,38.08 L43.96,38.08 Z" id="Shape" fill-rule="nonzero"></path>
            <path d="M48.03,41.28 C48.0205689,41.0814444 48.0407912,40.8825922 48.09,40.69 C47.7829842,41.1497442 47.262719,41.4211869 46.71,41.41 C45.79,41.41 45.41,40.9 45.55,40.24 C45.6663013,39.7259869 46.0131156,39.2943138 46.49,39.07 C46.945975,38.8816642 47.4369533,38.7930154 47.93,38.81 L48.47,38.81 C48.57,38.32 48.62,38.11 48.47,37.93 C48.32,37.75 48.05,37.67 47.83,37.67 C47.3922888,37.6233708 46.9887159,37.9110238 46.89,38.34 L46.18,38.34 C46.2600096,38.056441 46.4115178,37.7981884 46.62,37.59 C47.0173432,37.2931732 47.5043768,37.1414163 48,37.16 C48.58,37.16 49.16,37.34 49.29,37.75 C49.3503649,37.9488531 49.3503649,38.1611469 49.29,38.36 L48.86,40.28 C48.7895254,40.6099392 48.7394306,40.9439042 48.71,41.28 L48.03,41.28 Z M47.94,39.28 C47.64,39.28 46.5,39.28 46.33,40.09 C46.27,40.35 46.33,40.78 47,40.78 C47.3796158,40.7979742 47.7470646,40.6436457 48,40.36 C48.2115451,40.0625189 48.3518285,39.7203643 48.41,39.36 C48.2561383,39.3188842 48.0988,39.2921032 47.94,39.28 Z" id="Shape" fill-rule="nonzero"></path>
            <path d="M50.69,40.05 C50.62,40.35 50.69,40.77 51.41,40.77 C51.6837264,40.7932202 51.954951,40.702812 52.16,40.52 C52.2651836,40.4202525 52.3382888,40.291448 52.37,40.15 C52.46,39.76 52.19,39.69 51.62,39.55 C50.83,39.36 50.17,39.2 50.35,38.36 C50.5818444,37.5780698 51.3390474,37.0732678 52.15,37.16 C52.65,37.16 53.32,37.3 53.46,37.78 C53.5110436,37.9665718 53.5110436,38.1634282 53.46,38.35 L52.68,38.35 C52.83,37.75 52.32,37.7 52.05,37.7 C51.94,37.7 51.24,37.7 51.11,38.27 C51.04,38.64 51.38,38.73 51.57,38.78 C52.62,39.04 52.84,39.11 53.03,39.33 C53.1928245,39.5397041 53.2483123,39.8134438 53.18,40.07 C53.0714536,40.4919738 52.7975039,40.8524339 52.42,41.07 C52.0391638,41.2618197 51.616164,41.3546733 51.19,41.34 C50.38,41.34 49.69,41 49.91,40.04 L50.69,40.05 Z" id="Path" fill-rule="nonzero"></path>
            <polygon id="Path" fill-rule="nonzero" points="57.39 35.51 58.19 35.51 56.97 41.28 56.18 41.28"></polygon>
            <path d="M59.15,37.71 L59.25,37.25 L59.99,37.25 L59.86,37.89 C60.1879327,37.4278954 60.7234822,37.1582481 61.29,37.17 C61.6485977,37.1199967 62.0079131,37.2564862 62.2428754,37.5319592 C62.4778377,37.8074323 62.5559413,38.1837788 62.45,38.53 L61.87,41.28 L61.11,41.28 L61.65,38.75 C61.7310196,38.5244495 61.7052705,38.2743147 61.58,38.07 C61.4125242,37.8903079 61.1755015,37.7918523 60.93,37.8 C60.2690159,37.8330173 59.7261288,38.3338201 59.64,38.99 L59.15,41.28 L58.41,41.28 L59.15,37.71 Z" id="Path" fill-rule="nonzero"></path>
            <path d="M67.2,35.51 L67.95,35.51 L66.87,40.6 C66.87,40.69 66.8,41.03 66.77,41.23 L66.02,41.23 L66.14,40.6 C66.0195869,40.7686763 65.8665701,40.911492 65.69,41.02 C65.3861252,41.1986836 65.0423249,41.2983857 64.69,41.31 C64.15,41.31 63.03,41.04 63.4,39.31 C63.5202451,38.1308056 64.4768948,37.2122526 65.66,37.14 C66.52,37.14 66.66,37.64 66.76,37.81 L67.2,35.51 Z M66.38,38.08 C66.2149847,37.8053656 65.9095596,37.6468539 65.59,37.67 C64.5,37.67 64.22,39 64.16,39.27 C64.01,39.97 64.02,40.79 64.93,40.79 C66.11,40.79 66.38,39.5 66.45,39.19 C66.5667367,38.8243194 66.5417511,38.4281183 66.38,38.08 Z" id="Shape" fill-rule="nonzero"></path>
            <path d="M69.6,37.28 L69.05,39.84 C68.97,40.23 68.95,40.73 69.71,40.73 C70.1172853,40.754829 70.5128816,40.5884567 70.78,40.28 C70.9608034,40.0675418 71.0755133,39.8068375 71.11,39.53 L71.55,37.28 L72.32,37.28 L71.63,40.52 C71.63,40.6 71.54,41.04 71.5,41.26 L70.72,41.26 L70.85,40.58 C70.5395669,41.0567626 69.9980578,41.3313305 69.43,41.3 C68.43,41.3 68.1,40.74 68.27,39.95 L68.84,37.28 L69.6,37.28 Z M72.05,35.39 L70.86,36.54 L70.34,36.54 L71.23,35.39 L72.05,35.39 Z" id="Shape" fill-rule="nonzero"></path>
            <path d="M73.6,40.05 C73.52,40.35 73.6,40.77 74.31,40.77 C74.5837264,40.7932202 74.854951,40.702812 75.06,40.52 C75.1689216,40.4232274 75.2427594,40.2931321 75.27,40.15 C75.36,39.76 75.09,39.69 74.52,39.55 C73.73,39.36 73.07,39.2 73.25,38.36 C73.4893124,37.5790584 74.2475041,37.0763898 75.06,37.16 C75.56,37.16 76.22,37.3 76.36,37.78 C76.4110436,37.9665718 76.4110436,38.1634282 76.36,38.35 L75.58,38.35 C75.73,37.75 75.22,37.7 74.95,37.7 C74.84,37.7 74.14,37.7 74.02,38.27 C73.94,38.64 74.28,38.73 74.48,38.78 C75.48,39.04 75.75,39.11 75.94,39.33 C76.0951934,39.5432271 76.1465752,39.8148167 76.08,40.07 C75.9718168,40.4892729 75.7022107,40.8487477 75.33,41.07 C74.9453132,41.2610405 74.51929,41.3538036 74.09,41.34 C73.28,41.34 72.6,41 72.81,40.04 L73.6,40.05 Z" id="Path" fill-rule="nonzero"></path>
            <path d="M77.11,37.28 L77.78,37.28 L77.96,36.44 L78.75,36.2 L78.56,37.28 L79.45,37.28 L79.33,37.82 L78.44,37.82 L77.93,40.21 C77.93,40.41 77.82,40.74 78.35,40.74 C78.4729131,40.754399 78.5970869,40.754399 78.72,40.74 L78.6,41.32 C78.3904986,41.3404651 78.1795014,41.3404651 77.97,41.32 C77.29,41.32 76.97,41.12 77.14,40.47 L77.7,37.81 L77,37.81 L77.11,37.28 Z" id="Path" fill-rule="nonzero"></path>
            <path d="M80.23,38.06 C80.29,37.79 80.33,37.51 80.37,37.25 L81.12,37.25 L80.97,38.02 C81.194432,37.6000412 81.6156647,37.3217268 82.09,37.28 C82.2625313,37.2564192 82.4374687,37.2564192 82.61,37.28 L82.45,38.01 C82.4068513,38.0043427 82.3631487,38.0043427 82.32,38.01 L82.1,38.01 C81.22,38.01 80.9,38.53 80.76,39.22 L80.31,41.28 L79.56,41.28 L80.23,38.06 Z" id="Path" fill-rule="nonzero"></path>
            <path d="M83.46,37.28 L84.2,37.28 L83.35,41.28 L82.61,41.28 L83.46,37.28 Z M83.78,35.52 L84.68,35.52 L84.5,36.34 L83.61,36.34 L83.78,35.52 Z" id="Shape" fill-rule="nonzero"></path>
            <path d="M87.23,41.28 C87.2160908,41.0813489 87.2363855,40.8817843 87.29,40.69 C86.9829842,41.1497442 86.462719,41.4211869 85.91,41.41 C84.99,41.41 84.6,40.9 84.75,40.24 C84.8663013,39.7259869 85.2131156,39.2943138 85.69,39.07 C86.145975,38.8816642 86.6369533,38.7930154 87.13,38.81 L87.67,38.81 C87.77,38.32 87.82,38.11 87.67,37.93 C87.5126893,37.7429671 87.2731786,37.6456659 87.03,37.67 C86.5922888,37.6233708 86.1887159,37.9110238 86.09,38.34 L85.38,38.34 C85.4560482,38.05477 85.6081264,37.7955457 85.82,37.59 C86.2173432,37.2931732 86.7043768,37.1414163 87.2,37.16 C87.78,37.16 88.36,37.34 88.48,37.75 C88.5397701,37.948941 88.5397701,38.161059 88.48,38.36 L88.06,40.28 C87.9895254,40.6099392 87.9394306,40.9439042 87.91,41.28 L87.23,41.28 Z M87.14,39.28 C86.83,39.28 85.7,39.28 85.52,40.09 C85.52,40.35 85.52,40.78 86.2,40.78 C86.5599535,40.785544 86.9039796,40.6318302 87.14,40.36 C87.359097,40.0657009 87.5032481,39.7224841 87.56,39.36 C87.4224545,39.3217591 87.2819722,39.2950005 87.14,39.28 Z" id="Shape" fill-rule="nonzero"></path>
            <path d="M89.89,40.05 C89.82,40.35 89.89,40.77 90.61,40.77 C90.8837264,40.7932202 91.154951,40.702812 91.36,40.52 C91.4617177,40.4175815 91.5342186,40.2898418 91.57,40.15 C91.65,39.76 91.38,39.69 90.82,39.55 C90.03,39.36 89.37,39.2 89.54,38.36 C89.7793124,37.5790584 90.5375041,37.0763898 91.35,37.16 C91.85,37.16 92.52,37.3 92.66,37.78 C92.7110436,37.9665718 92.7110436,38.1634282 92.66,38.35 L91.88,38.35 C92.03,37.75 91.52,37.7 91.25,37.7 C91.14,37.7 90.44,37.7 90.31,38.27 C90.24,38.64 90.57,38.73 90.77,38.78 C91.82,39.04 92.04,39.11 92.23,39.33 C92.3928245,39.5397041 92.4483123,39.8134438 92.38,40.07 C92.2714536,40.4919738 91.9975039,40.8524339 91.62,41.07 C91.2355934,41.2618373 90.8093664,41.3546448 90.38,41.34 C89.58,41.34 88.89,41 89.11,40.04 L89.89,40.05 Z" id="Path" fill-rule="nonzero"></path>
            <path d="M99.35,35.51 L100.1,35.51 L99.02,40.6 C99.02,40.69 98.95,41.03 98.92,41.23 L98.17,41.23 L98.29,40.6 C98.1711683,40.7665263 98.0218703,40.909038 97.85,41.02 C97.5216204,41.197223 97.1530889,41.2867728 96.78,41.28 C96.25,41.28 95.12,41.01 95.49,39.28 C95.6167626,38.0940631 96.5886856,37.1773148 97.78,37.12 C98.64,37.12 98.78,37.62 98.88,37.79 L99.35,35.51 Z M98.54,38.08 C98.3685177,37.8071647 98.0616217,37.6498805 97.74,37.67 C96.65,37.67 96.37,39 96.31,39.27 C96.16,39.97 96.17,40.79 97.08,40.79 C98.26,40.79 98.54,39.5 98.6,39.19 C98.7179287,38.825308 98.6965529,38.4298552 98.54,38.08 L98.54,38.08 Z" id="Shape" fill-rule="nonzero"></path>
            <path d="M102.78,37.15 C104.37,37.15 104.47,38.4 104.29,39.23 C104.103508,40.4528859 103.05698,41.3595942 101.82,41.37 C100.5,41.37 100.05,40.46 100.3,39.29 C100.47506,38.0567841 101.534443,37.1426391 102.78,37.15 L102.78,37.15 Z M101.95,40.81 C102.51,40.81 103.24,40.41 103.5,39.21 C103.71,38.21 103.36,37.7 102.66,37.7 C101.828218,37.7732589 101.176483,38.4462931 101.13,39.28 C100.95,40.06 101.14,40.81 101.99,40.81 L101.95,40.81 Z" id="Shape" fill-rule="nonzero"></path>
            <polygon id="Path" fill-rule="nonzero" points="108.39 35.51 111.98 35.51 111.84 36.18 109.04 36.18 108.67 37.96 111.33 37.96 111.19 38.63 108.52 38.63 108.12 40.54 110.98 40.54 110.83 41.23 107.17 41.23"></polygon>
            <path d="M112.78,40.05 C112.71,40.35 112.78,40.77 113.5,40.77 C113.773726,40.7932202 114.044951,40.702812 114.25,40.52 C114.355184,40.4202525 114.428289,40.291448 114.46,40.15 C114.54,39.76 114.28,39.69 113.71,39.55 C112.92,39.36 112.26,39.2 112.43,38.36 C112.669312,37.5790584 113.427504,37.0763898 114.24,37.16 C114.74,37.16 115.41,37.3 115.55,37.78 C115.601044,37.9665718 115.601044,38.1634282 115.55,38.35 L114.78,38.35 C114.93,37.75 114.42,37.7 114.15,37.7 C114.04,37.7 113.34,37.7 113.21,38.27 C113.14,38.64 113.48,38.73 113.67,38.78 C114.67,39.04 114.94,39.11 115.13,39.33 C115.292825,39.5397041 115.348312,39.8134438 115.28,40.07 C115.171454,40.4919738 114.897504,40.8524339 114.52,41.07 C114.138877,41.2610103 113.716086,41.3538181 113.29,41.34 C112.48,41.34 111.79,41 112.01,40.04 L112.78,40.05 Z" id="Path" fill-rule="nonzero"></path>
            <path d="M116.31,37.28 L117.02,37.28 L117.19,36.44 L117.99,36.2 L117.78,37.28 L118.67,37.28 L118.55,37.82 L117.66,37.82 L117.15,40.21 C117.15,40.41 117.04,40.74 117.57,40.74 C117.692913,40.754399 117.817087,40.754399 117.94,40.74 L117.78,41.28 C117.570475,41.2999697 117.359525,41.2999697 117.15,41.28 C116.47,41.28 116.15,41.08 116.32,40.43 L116.88,37.77 L116.17,37.77 L116.31,37.28 Z" id="Path" fill-rule="nonzero"></path>
            <path d="M121.14,41.28 C121.130569,41.0814444 121.150791,40.8825922 121.2,40.69 C120.892984,41.1497442 120.372719,41.4211869 119.82,41.41 C118.91,41.41 118.52,40.9 118.66,40.24 C118.779043,39.7273151 119.125003,39.2967053 119.6,39.07 C120.055975,38.8816642 120.546953,38.7930154 121.04,38.81 L121.58,38.81 C121.68,38.32 121.73,38.11 121.58,37.93 C121.43,37.75 121.16,37.67 120.94,37.67 C120.502289,37.6233708 120.098716,37.9110238 120,38.34 L119.25,38.34 C119.334279,38.0582799 119.485206,37.801018 119.69,37.59 C120.087343,37.2931732 120.574377,37.1414163 121.07,37.16 C121.65,37.16 122.23,37.34 122.36,37.75 C122.420365,37.9488531 122.420365,38.1611469 122.36,38.36 L121.93,40.26 C121.859525,40.5899392 121.809431,40.9239042 121.78,41.26 L121.14,41.28 Z M121.05,39.28 C120.75,39.28 119.61,39.28 119.44,40.09 C119.38,40.35 119.44,40.78 120.11,40.78 C120.489616,40.7979742 120.857065,40.6436457 121.11,40.36 C121.321545,40.0625189 121.461829,39.7203643 121.52,39.36 C121.366138,39.3188842 121.2088,39.2921032 121.05,39.28 L121.05,39.28 Z" id="Shape" fill-rule="nonzero"></path>
            <path d="M127.1,35.51 L127.84,35.51 L126.78,40.6 C126.78,40.69 126.71,41.03 126.68,41.23 L125.94,41.23 L126.05,40.6 C125.936659,40.7712024 125.786286,40.9147399 125.61,41.02 C125.305625,41.1975196 124.962125,41.2971346 124.61,41.31 C124.08,41.31 122.95,41.04 123.33,39.31 C123.446234,38.128854 124.405108,37.2081651 125.59,37.14 C126.45,37.14 126.59,37.64 126.68,37.81 L127.1,35.51 Z M126.28,38.08 C126.113365,37.807096 125.809077,37.6491746 125.49,37.67 C124.39,37.67 124.11,39 124.06,39.27 C123.91,39.97 123.92,40.79 124.83,40.79 C126,40.79 126.28,39.5 126.34,39.19 C126.457929,38.825308 126.436553,38.4298552 126.28,38.08 Z" id="Shape" fill-rule="nonzero"></path>
            <path d="M130.56,37.1499632 C132.16,37.1499632 132.25,38.4 132.08,39.23 C131.889007,40.454442 130.83921,41.3603152 129.6,41.37 C128.28,41.37 127.84,40.46 128.09,39.29 C128.260448,38.0583363 129.316616,37.1432756 130.56,37.1499632 L130.56,37.1499632 Z M129.78,40.81 C130.34,40.81 131.07,40.41 131.32,39.21 C131.54,38.21 131.19,37.7 130.49,37.7 C129.62505,37.734062 128.925672,38.4161714 128.87,39.28 C128.7,40.06 128.89,40.81 129.78,40.81 Z" id="Shape" fill-rule="nonzero"></path>
            <path d="M138.99,35.51 L139.78,35.51 L138.7,40.6 C138.7,40.69 138.63,41.03 138.6,41.23 L137.78,41.23 L137.89,40.6 C137.776659,40.7712024 137.626286,40.9147399 137.45,41.02 C137.145625,41.1975196 136.802125,41.2971346 136.45,41.31 C135.92,41.31 134.79,41.04 135.17,39.31 C135.286234,38.128854 136.245108,37.2081651 137.43,37.14 C138.29,37.14 138.43,37.64 138.52,37.81 L138.99,35.51 Z M138.17,38.08 C138.003365,37.807096 137.699077,37.6491746 137.38,37.67 C136.28,37.67 136,39 135.95,39.27 C135.8,39.97 135.81,40.79 136.72,40.79 C137.89,40.79 138.17,39.5 138.23,39.19 C138.347929,38.825308 138.326553,38.4298552 138.17,38.08 L138.17,38.08 Z" id="Shape" fill-rule="nonzero"></path>
            <path d="M142.45,37.15 C144.04,37.15 144.14,38.4 143.97,39.23 C143.779007,40.454442 142.72921,41.3603152 141.49,41.37 C140.17,41.37 139.73,40.46 139.97,39.29 C140.14506,38.0567841 141.204443,37.1426391 142.45,37.15 L142.45,37.15 Z M141.63,40.81 C142.19,40.81 142.92,40.41 143.17,39.21 C143.39,38.21 143.04,37.7 142.34,37.7 C141.498438,37.7632803 140.832555,38.4376999 140.78,39.28 C140.59,40.06 140.78,40.81 141.63,40.81 Z" id="Shape" fill-rule="nonzero"></path>
            <path d="M151.24,37.05 C151.24,36.85 151.32,36.05 150.24,36.05 C148.86,36.05 148.31,37.46 148.11,38.42 C147.91,39.38 147.94,40.66 149.25,40.66 C149.613259,40.6698474 149.968026,40.5492266 150.25,40.32 C150.434893,40.159636 150.573084,39.952349 150.65,39.72 L151.53,39.72 C151.124264,40.7280646 150.113808,41.358589 149.03,41.28 C147.03,41.28 147.03,39.5 147.24,38.39 C147.45,37.28 148.35,35.39 150.39,35.39 C151.2,35.39 152.27,35.71 152.09,37.01 L151.24,37.05 Z" id="Path" fill-rule="nonzero"></path>
            <path d="M153.04,39.38 C152.85,40.2 153.04,40.81 153.87,40.81 C154.385601,40.8278351 154.845521,40.4880745 154.98,39.99 L155.78,39.99 C155.692952,40.3121737 155.511924,40.6011225 155.26,40.82 C154.854439,41.1825401 154.323508,41.372671 153.78,41.35 C152.53,41.35 152.1,40.58 152.36,39.35 C152.46441,38.5827448 152.899178,37.8995386 153.55,37.48 C153.896052,37.2802179 154.290548,37.1798639 154.69,37.19 C156.48,37.19 156.1,38.77 155.95,39.42 L153.04,39.38 Z M155.25,38.85 C155.34,38.47 155.44,37.68 154.52,37.68 C153.84644,37.6875402 153.278294,38.1836079 153.18,38.85 L155.25,38.85 Z" id="Shape" fill-rule="nonzero"></path>
            <path d="M159.03,41.28 C159.012637,41.0819213 159.029551,40.8823319 159.08,40.69 C158.772984,41.1497442 158.252719,41.4211869 157.7,41.41 C156.79,41.41 156.4,40.9 156.54,40.24 C156.671939,39.7150333 157.041984,39.2820807 157.54,39.07 C157.992532,38.8818767 158.48021,38.7932079 158.97,38.81 L159.51,38.81 C159.62,38.32 159.66,38.11 159.51,37.93 C159.36,37.75 159.09,37.67 158.88,37.67 C158.421027,37.589489 157.980114,37.8849006 157.88,38.34 L157.14,38.34 C157.215453,38.0567697 157.363695,37.7982085 157.57,37.59 C157.968079,37.2946182 158.454592,37.1430236 158.95,37.16 C159.53,37.16 160.11,37.34 160.24,37.75 C160.29977,37.948941 160.29977,38.161059 160.24,38.36 L159.8,40.26 C159.8,40.33 159.68,40.86 159.65,41.26 L159.03,41.28 Z M158.93,39.28 C158.63,39.28 157.49,39.28 157.32,40.09 C157.26,40.35 157.32,40.78 157.99,40.78 C158.35287,40.7857659 158.700053,40.6322747 158.94,40.36 C159.155532,40.0647321 159.296222,39.7215871 159.35,39.36 C159.212541,39.3213889 159.072028,39.2946243 158.93,39.28 L158.93,39.28 Z" id="Shape" fill-rule="nonzero"></path>
            <path d="M161.72,38.06 C161.77,37.79 161.82,37.51 161.85,37.25 L162.61,37.25 L162.46,38.02 C162.681589,37.5974611 163.104407,37.3180993 163.58,37.28 C163.752531,37.2564192 163.927469,37.2564192 164.1,37.28 L163.94,38.01 C163.896851,38.0043427 163.853149,38.0043427 163.81,38.01 L163.59,38.01 C162.71,38.01 162.39,38.53 162.25,39.22 L161.78,41.28 L161.02,41.28 L161.72,38.06 Z" id="Path" fill-rule="nonzero"></path>
            <path d="M166.52,41.28 C166.486217,41.0847841 166.486217,40.8852159 166.52,40.69 C166.214284,41.1511903 165.693161,41.4230805 165.14,41.41 C164.23,41.41 163.84,40.9 163.98,40.24 C164.101222,39.7253113 164.45117,39.2943229 164.93,39.07 C165.382532,38.8818767 165.87021,38.7932079 166.36,38.81 L166.9,38.81 C167.01,38.32 167.05,38.11 166.9,37.93 C166.75,37.75 166.48,37.67 166.27,37.67 C165.811027,37.589489 165.370114,37.8849006 165.27,38.34 L164.53,38.34 C164.605453,38.0567697 164.753695,37.7982085 164.96,37.59 C165.361154,37.2931657 165.851307,37.1415354 166.35,37.16 C166.92,37.16 167.5,37.34 167.63,37.75 C167.68977,37.948941 167.68977,38.161059 167.63,38.36 L167.19,40.26 C167.19,40.33 167.07,40.86 167.04,41.26 L166.52,41.28 Z M166.42,39.28 C166.12,39.28 164.99,39.28 164.81,40.09 C164.76,40.35 164.81,40.78 165.49,40.78 C165.849394,40.7828418 166.19234,40.6296104 166.43,40.36 C166.645532,40.0647321 166.786222,39.7215871 166.84,39.36 C166.702541,39.3213889 166.562028,39.2946243 166.42,39.28 L166.42,39.28 Z M167.85,35.37 L166.65,36.52 L166.14,36.52 L167.02,35.37 L167.85,35.37 Z" id="Shape" fill-rule="nonzero"></path>
        </g>
    </g>
</svg>