<?xml version="1.0" encoding="UTF-8"?>
<svg width="496px" height="168px" viewBox="0 0 496 168" version="1.1" xmlns="http://www.w3.org/2000/svg" xmlns:xlink="http://www.w3.org/1999/xlink">
    <!-- Generator: Sketch 61 (89581) - https://sketch.com -->
    <title>Blocada_completa</title>
    <desc>Created with Sketch.</desc>
    <g id="Page-1" stroke="none" stroke-width="1" fill="none" fill-rule="evenodd">
        <g id="Blocada_completa">
            <path d="M68.8,167 C65.8,167 63.5,166.3 61.9,164.8 C60.3,163.3 59.5,161.2 59.5,158.4 L59.5,144.1 L65.1,144.1 L65.1,158.1 C65.1,159.7 65.4,160.8 66,161.6 C66.6,162.4 67.5,162.7 68.9,162.7 C70.2,162.7 71.1,162.3 71.8,161.6 C72.4,160.9 72.7,159.7 72.7,158.1 L72.7,144.1 L78.3,144.1 L78.3,158.4 C78.3,161.2 77.5,163.3 75.9,164.8 C74.2,166.3 71.9,167 68.8,167 L68.8,167 Z M97.5,148.4 L88.1,148.4 L88.1,152.6 L96.8,152.6 L96.8,156.9 L88.1,156.9 L88.1,166.5 L82.5,166.5 L82.5,144.1 L97.5,144.1 L97.5,148.4 L97.5,148.4 Z M121.1,166.6 L114.2,166.6 L108,158.4 L106,158.4 L106,166.6 L100.4,166.6 L100.4,144.2 L109.4,144.2 C110.6,144.2 111.7,144.3 112.6,144.4 C113.5,144.6 114.4,144.9 115.2,145.4 C116,145.9 116.6,146.6 117.1,147.4 C117.6,148.2 117.8,149.2 117.8,150.4 C117.8,152.1 117.4,153.5 116.6,154.6 C115.8,155.7 114.8,156.5 113.5,157.1 L121.1,166.6 L121.1,166.6 Z M112,151 C112,150.4 111.9,150 111.7,149.5 C111.5,149.1 111.1,148.8 110.6,148.6 C110.2,148.5 109.9,148.4 109.4,148.3 C109,148.3 108.4,148.2 107.8,148.2 L106,148.2 L106,154.2 L107.6,154.2 C108.4,154.2 109,154.2 109.6,154.1 C110.1,154 110.6,153.8 111,153.5 C111.4,153.2 111.6,152.9 111.8,152.5 C111.9,152.2 112,151.7 112,151 L112,151 Z M134.8,160 C134.8,161 134.6,161.9 134.3,162.7 C134,163.6 133.5,164.3 132.8,164.9 C132.1,165.6 131.2,166.1 130.1,166.4 C129.1,166.7 127.9,166.9 126.6,166.9 C125.6,166.9 124.7,166.9 123.8,166.8 C122.9,166.7 122.2,166.6 121.5,166.5 L121.5,162 L122,162 C122.4,162.2 122.9,162.3 123.4,162.5 C123.9,162.7 124.5,162.7 125.3,162.7 C126.3,162.7 127.1,162.6 127.6,162.3 C128.1,162 128.5,161.6 128.7,161.1 C128.9,160.6 129.1,160 129.1,159.4 C129.1,158.8 129.1,158 129.1,157.2 L129.1,148.2 L124,148.2 L124,144.1 L134.8,144.1 L134.8,160 L134.8,160 Z" id="Shape" fill="#005645" fill-rule="nonzero"></path>
            <path d="M314.5,103.2 C313.2,103.2 312,103 311.1,102.7 C310.1,102.4 309.3,101.8 308.6,101.2 C307.8,100.4 307.3,99.5 307,98.4 C306.7,97.3 306.5,96 306.5,94.4 L306.5,80.5 L309.5,80.5 L309.5,94.4 C309.5,95.4 309.6,96.3 309.7,97 C309.8,97.7 310.1,98.3 310.5,98.9 C310.9,99.5 311.4,100 312.1,100.3 C312.8,100.6 313.6,100.8 314.6,100.8 C315.5,100.8 316.4,100.6 317.1,100.3 C317.8,100 318.4,99.5 318.8,98.9 C319.2,98.3 319.4,97.7 319.6,97 C319.7,96.3 319.8,95.5 319.8,94.5 L319.8,80.5 L322.8,80.5 L322.8,94.4 C322.8,95.9 322.6,97.3 322.3,98.4 C322,99.5 321.4,100.4 320.6,101.2 C319.9,101.9 319.1,102.4 318.1,102.7 C317,103 315.9,103.2 314.5,103.2 L314.5,103.2 Z M339.8,102.7 L337,102.7 L337,93.2 C337,92.4 337,91.7 336.9,91 C336.8,90.3 336.7,89.8 336.5,89.4 C336.3,89 335.9,88.7 335.5,88.5 C335.1,88.3 334.5,88.2 333.8,88.2 C333.1,88.2 332.4,88.4 331.6,88.8 C330.9,89.2 330.1,89.7 329.4,90.3 L329.4,102.8 L326.6,102.8 L326.6,86 L329.4,86 L329.4,87.9 C330.2,87.2 331.1,86.6 331.9,86.2 C332.7,85.8 333.6,85.6 334.5,85.6 C336.2,85.6 337.4,86.1 338.4,87.2 C339.3,88.3 339.8,89.9 339.8,91.9 L339.8,102.7 L339.8,102.7 Z M346.7,102.7 L343.9,102.7 L343.9,85.9 L346.7,85.9 L346.7,102.7 L346.7,102.7 Z M346.9,83.1 L343.7,83.1 L343.7,80.2 L346.9,80.2 L346.9,83.1 L346.9,83.1 Z M364,85.9 L357.7,102.7 L355.2,102.7 L348.9,85.9 L351.9,85.9 L356.5,98.8 L361,85.9 L364,85.9 L364,85.9 Z M373.2,103.1 C370.5,103.1 368.5,102.3 367,100.8 C365.5,99.3 364.8,97.2 364.8,94.4 C364.8,91.7 365.5,89.5 366.9,87.9 C368.3,86.3 370.2,85.5 372.5,85.5 C373.5,85.5 374.5,85.6 375.3,86 C376.1,86.3 376.8,86.8 377.4,87.4 C378,88 378.5,88.8 378.8,89.8 C379.1,90.7 379.3,91.9 379.3,93.2 L379.3,94.7 L367.7,94.7 C367.7,96.7 368.2,98.1 369.2,99.2 C370.2,100.2 371.5,100.7 373.3,100.7 C373.9,100.7 374.5,100.6 375.1,100.5 C375.7,100.4 376.2,100.2 376.7,100 C377.2,99.8 377.6,99.5 378,99.3 C378.3,99.1 378.6,98.9 378.9,98.7 L379.1,98.7 L379.1,101.8 C378.8,101.9 378.4,102.1 377.9,102.3 C377.4,102.5 377,102.6 376.6,102.8 C376.1,102.9 375.6,103.1 375.1,103.1 C374.4,103 373.8,103.1 373.2,103.1 L373.2,103.1 Z M376.5,92.4 C376.5,91.6 376.4,91 376.2,90.4 C376,89.9 375.8,89.4 375.5,89 C375.2,88.6 374.7,88.3 374.2,88 C373.7,87.8 373,87.7 372.3,87.7 C371.5,87.7 370.9,87.8 370.4,88 C369.9,88.2 369.4,88.6 369,89 C368.6,89.4 368.3,89.9 368,90.5 C367.8,91 367.6,91.7 367.6,92.4 L376.5,92.4 L376.5,92.4 Z M391,89 L390.9,89 C390.7,88.9 390.5,88.9 390.2,88.9 C390,88.9 389.7,88.9 389.4,88.9 C388.6,88.9 387.9,89.1 387.1,89.4 C386.4,89.7 385.6,90.2 385,90.9 L385,102.8 L382.2,102.8 L382.2,86 L385,86 L385,88.5 C386,87.6 386.9,86.9 387.7,86.6 C388.5,86.2 389.2,86 389.9,86 C390.2,86 390.4,86 390.6,86 C390.7,86 390.9,86 391.1,86.1 L391.1,89 L391,89 Z M397.7,103.1 C396.6,103.1 395.5,103 394.6,102.6 C393.6,102.3 392.8,102 392.2,101.6 L392.2,98.4 L392.3,98.4 C392.5,98.6 392.8,98.8 393.2,99 C393.5,99.2 394,99.5 394.5,99.7 C395,99.9 395.5,100.1 396.1,100.3 C396.7,100.5 397.3,100.6 397.9,100.6 C398.4,100.6 398.8,100.5 399.3,100.4 C399.8,100.3 400.2,100.2 400.4,100 C400.7,99.8 401,99.5 401.2,99.3 C401.4,99 401.4,98.6 401.4,98.1 C401.4,97.4 401.2,96.9 400.9,96.6 C400.5,96.3 399.9,96 399,95.7 C398.6,95.6 398.2,95.5 397.6,95.4 C397,95.3 396.5,95.1 396,95 C394.7,94.6 393.8,94.1 393.2,93.3 C392.6,92.5 392.3,91.6 392.3,90.5 C392.3,89 392.9,87.8 394,86.8 C395.1,85.9 396.7,85.4 398.6,85.4 C399.5,85.4 400.5,85.5 401.4,85.7 C402.3,85.9 403.1,86.2 403.8,86.6 L403.8,89.6 L403.7,89.6 C403,89 402.2,88.6 401.3,88.3 C400.4,88 399.5,87.8 398.6,87.8 C397.7,87.8 396.9,88 396.2,88.4 C395.6,88.8 395.2,89.4 395.2,90.2 C395.2,90.9 395.4,91.4 395.8,91.8 C396.2,92.1 396.8,92.4 397.6,92.7 C398,92.8 398.5,92.9 399,93 C399.5,93.1 400.1,93.2 400.6,93.4 C401.8,93.7 402.8,94.2 403.4,94.9 C404,95.6 404.3,96.6 404.3,97.8 C404.3,98.5 404.2,99.2 403.9,99.8 C403.6,100.4 403.2,101 402.6,101.5 C402,102 401.3,102.4 400.6,102.6 C399.8,103 398.8,103.1 397.7,103.1 L397.7,103.1 Z M409.8,102.7 L407,102.7 L407,85.9 L409.8,85.9 L409.8,102.7 L409.8,102.7 Z M409.9,83.1 L406.7,83.1 L406.7,80.2 L409.9,80.2 L409.9,83.1 L409.9,83.1 Z M426.8,102.7 L424,102.7 L424,101 C423.6,101.4 423.2,101.7 422.9,101.9 C422.6,102.1 422.2,102.4 421.8,102.6 C421.4,102.8 421,102.9 420.6,103 C420.2,103.1 419.7,103.2 419.1,103.2 C418.2,103.2 417.3,103 416.6,102.6 C415.8,102.2 415.2,101.7 414.6,100.9 C414,100.2 413.6,99.3 413.3,98.2 C413,97.1 412.8,95.9 412.8,94.5 C412.8,93 413,91.8 413.4,90.7 C413.8,89.6 414.3,88.7 415,87.9 C415.6,87.2 416.3,86.6 417.2,86.2 C418.1,85.8 419,85.6 419.9,85.6 C420.7,85.6 421.5,85.7 422.1,85.9 C422.7,86.1 423.4,86.4 424.1,86.8 L424.1,79.5 L426.9,79.5 L426.9,102.7 L426.8,102.7 Z M424,98.6 L424,89 C423.3,88.7 422.7,88.4 422.1,88.3 C421.5,88.2 420.9,88.1 420.3,88.1 C418.9,88.1 417.7,88.6 416.9,89.7 C416.1,90.8 415.7,92.4 415.7,94.4 C415.7,96.4 416,97.9 416.6,98.9 C417.2,99.9 418.2,100.5 419.6,100.5 C420.3,100.5 421.1,100.3 421.8,100 C422.6,99.6 423.3,99.2 424,98.6 L424,98.6 Z M440.3,98.6 L440.3,93.9 C439.6,94 438.8,94 437.8,94.1 C436.8,94.2 435.9,94.4 435.3,94.5 C434.5,94.7 433.9,95.1 433.4,95.6 C432.9,96.1 432.7,96.7 432.7,97.6 C432.7,98.6 433,99.3 433.5,99.8 C434,100.3 434.8,100.5 435.9,100.5 C436.8,100.5 437.6,100.3 438.3,99.9 C438.9,99.6 439.6,99.1 440.3,98.6 L440.3,98.6 Z M440.3,100.9 C440.1,101.1 439.8,101.3 439.4,101.6 C439,101.9 438.6,102.1 438.3,102.3 C437.8,102.6 437.3,102.8 436.9,102.9 C436.4,103 435.8,103.1 434.9,103.1 C434.2,103.1 433.6,103 432.9,102.7 C432.3,102.4 431.7,102.1 431.3,101.6 C430.8,101.1 430.5,100.6 430.2,99.9 C429.9,99.2 429.8,98.5 429.8,97.8 C429.8,96.6 430,95.6 430.5,94.8 C431,94 431.8,93.3 432.8,92.9 C433.7,92.5 434.9,92.2 436.1,92 C437.4,91.8 438.8,91.7 440.2,91.6 L440.2,91.1 C440.2,90.4 440.1,89.9 439.9,89.5 C439.7,89.1 439.4,88.8 439.1,88.6 C438.7,88.4 438.3,88.2 437.8,88.1 C437.3,88 436.7,88 436.2,88 C435.5,88 434.8,88.1 433.9,88.3 C433,88.5 432.1,88.8 431.3,89.2 L431.1,89.2 L431.1,86.3 C431.6,86.2 432.4,86 433.3,85.8 C434.3,85.6 435.2,85.5 436.2,85.5 C437.3,85.5 438.3,85.6 439.1,85.8 C439.9,86 440.6,86.3 441.2,86.8 C441.8,87.3 442.3,87.9 442.6,88.6 C442.9,89.3 443.1,90.2 443.1,91.3 L443.1,102.8 L440.3,102.8 L440.3,100.9 L440.3,100.9 Z M459.9,102.7 L457.1,102.7 L457.1,101 C456.7,101.4 456.3,101.7 456,101.9 C455.7,102.1 455.3,102.4 454.9,102.6 C454.5,102.8 454.1,102.9 453.7,103 C453.3,103.1 452.8,103.2 452.2,103.2 C451.3,103.2 450.4,103 449.7,102.6 C448.9,102.2 448.3,101.7 447.7,100.9 C447.1,100.2 446.7,99.3 446.4,98.2 C446.1,97.1 445.9,95.9 445.9,94.5 C445.9,93 446.1,91.8 446.5,90.7 C446.9,89.6 447.4,88.7 448.1,87.9 C448.7,87.2 449.4,86.6 450.3,86.2 C451.2,85.8 452.1,85.6 453,85.6 C453.8,85.6 454.6,85.7 455.2,85.9 C455.8,86.1 456.5,86.4 457.2,86.8 L457.2,79.5 L460,79.5 L460,102.7 L459.9,102.7 Z M457.1,98.6 L457.1,89 C456.4,88.7 455.8,88.4 455.2,88.3 C454.6,88.2 454,88.1 453.4,88.1 C451.9,88.1 450.8,88.6 450,89.7 C449.2,90.8 448.8,92.4 448.8,94.4 C448.8,96.4 449.1,97.9 449.7,98.9 C450.3,99.9 451.3,100.5 452.7,100.5 C453.4,100.5 454.2,100.3 454.9,100 C455.7,99.6 456.4,99.2 457.1,98.6 L457.1,98.6 Z M471.3,103.1 C468.6,103.1 466.6,102.3 465.1,100.8 C463.6,99.3 462.9,97.2 462.9,94.4 C462.9,91.7 463.6,89.5 465,87.9 C466.4,86.3 468.3,85.5 470.6,85.5 C471.6,85.5 472.6,85.6 473.4,86 C474.2,86.3 474.9,86.8 475.5,87.4 C476.1,88 476.6,88.8 476.9,89.8 C477.2,90.7 477.4,91.9 477.4,93.2 L477.4,94.7 L465.8,94.7 C465.8,96.7 466.3,98.1 467.3,99.2 C468.3,100.2 469.6,100.7 471.4,100.7 C472,100.7 472.6,100.6 473.2,100.5 C473.8,100.4 474.3,100.2 474.8,100 C475.3,99.8 475.7,99.5 476.1,99.3 C476.4,99.1 476.7,98.9 477,98.7 L477.2,98.7 L477.2,101.8 C476.9,101.9 476.5,102.1 476,102.3 C475.5,102.5 475.1,102.6 474.7,102.8 C474.2,102.9 473.7,103.1 473.2,103.1 C472.5,103 472,103.1 471.3,103.1 L471.3,103.1 Z M474.6,92.4 C474.6,91.6 474.5,91 474.3,90.4 C474.1,89.9 473.9,89.4 473.6,89 C473.3,88.6 472.8,88.3 472.3,88 C471.8,87.8 471.1,87.7 470.4,87.7 C469.6,87.7 469,87.8 468.5,88 C468,88.2 467.5,88.6 467.1,89 C466.7,89.4 466.4,89.9 466.1,90.5 C465.9,91 465.7,91.7 465.7,92.4 L474.6,92.4 L474.6,92.4 Z" id="Shape" fill="#878787" fill-rule="nonzero"></path>
            <path d="M320.2,114.5 L309.8,114.5 L309.8,120.8 L319.8,120.8 L319.8,123.4 L309.8,123.4 L309.8,134.2 L306.8,134.2 L306.8,111.8 L320.2,111.8 L320.2,114.5 L320.2,114.5 Z M329.2,134.6 C326.5,134.6 324.5,133.8 323,132.3 C321.5,130.8 320.8,128.7 320.8,125.9 C320.8,123.2 321.5,121 322.9,119.4 C324.3,117.8 326.2,117 328.5,117 C329.5,117 330.5,117.1 331.3,117.5 C332.1,117.8 332.8,118.3 333.4,118.9 C334,119.5 334.5,120.3 334.8,121.3 C335.1,122.2 335.3,123.4 335.3,124.7 L335.3,126.2 L323.7,126.2 C323.7,128.2 324.2,129.6 325.2,130.7 C326.2,131.7 327.5,132.2 329.3,132.2 C329.9,132.2 330.5,132.1 331.1,132 C331.7,131.9 332.2,131.7 332.7,131.5 C333.2,131.3 333.6,131 334,130.8 C334.3,130.6 334.6,130.4 334.9,130.2 L335.1,130.2 L335.1,133.3 C334.8,133.4 334.4,133.6 333.9,133.8 C333.4,134 333,134.1 332.6,134.3 C332.1,134.4 331.6,134.6 331.1,134.6 C330.5,134.5 329.9,134.6 329.2,134.6 L329.2,134.6 Z M332.5,123.9 C332.5,123.1 332.4,122.5 332.2,121.9 C332,121.4 331.8,120.9 331.5,120.5 C331.2,120.1 330.7,119.8 330.2,119.5 C329.7,119.3 329,119.2 328.3,119.2 C327.5,119.2 326.9,119.3 326.4,119.5 C325.9,119.7 325.4,120.1 325,120.5 C324.6,120.9 324.3,121.4 324,122 C323.8,122.5 323.6,123.2 323.6,123.9 L332.5,123.9 L332.5,123.9 Z M351,134.2 L348.2,134.2 L348.2,132.5 C347.8,132.9 347.4,133.2 347.1,133.4 C346.8,133.6 346.4,133.9 346,134.1 C345.6,134.3 345.2,134.4 344.8,134.5 C344.4,134.6 343.9,134.7 343.3,134.7 C342.4,134.7 341.5,134.5 340.8,134.1 C340,133.7 339.4,133.2 338.8,132.4 C338.2,131.7 337.8,130.8 337.5,129.7 C337.2,128.6 337,127.4 337,126 C337,124.5 337.2,123.3 337.6,122.2 C338,121.1 338.5,120.2 339.2,119.4 C339.8,118.7 340.5,118.1 341.4,117.7 C342.3,117.3 343.2,117.1 344.1,117.1 C344.9,117.1 345.7,117.2 346.3,117.4 C346.9,117.6 347.6,117.9 348.3,118.3 L348.3,111 L351.1,111 L351.1,134.2 L351,134.2 Z M348.2,130.1 L348.2,120.4 C347.5,120.1 346.9,119.8 346.3,119.7 C345.7,119.6 345.1,119.5 344.5,119.5 C343.1,119.5 341.9,120 341.1,121.1 C340.3,122.2 339.9,123.8 339.9,125.8 C339.9,127.8 340.2,129.3 340.8,130.3 C341.4,131.3 342.4,131.9 343.8,131.9 C344.5,131.9 345.3,131.7 346,131.4 C346.9,131.1 347.6,130.7 348.2,130.1 L348.2,130.1 Z M362.4,134.6 C359.7,134.6 357.7,133.8 356.2,132.3 C354.7,130.8 354,128.7 354,125.9 C354,123.2 354.7,121 356.1,119.4 C357.5,117.8 359.4,117 361.7,117 C362.7,117 363.7,117.1 364.5,117.5 C365.3,117.8 366,118.3 366.6,118.9 C367.2,119.5 367.7,120.3 368,121.3 C368.3,122.2 368.5,123.4 368.5,124.7 L368.5,126.2 L356.9,126.2 C356.9,128.2 357.4,129.6 358.4,130.7 C359.4,131.7 360.7,132.2 362.5,132.2 C363.1,132.2 363.7,132.1 364.3,132 C364.9,131.9 365.4,131.7 365.9,131.5 C366.4,131.3 366.8,131 367.2,130.8 C367.5,130.6 367.8,130.4 368.1,130.2 L368.3,130.2 L368.3,133.3 C368,133.4 367.6,133.6 367.1,133.8 C366.6,134 366.2,134.1 365.8,134.3 C365.3,134.4 364.8,134.6 364.3,134.6 C363.6,134.5 363.1,134.6 362.4,134.6 L362.4,134.6 Z M365.7,123.9 C365.7,123.1 365.6,122.5 365.4,121.9 C365.2,121.4 365,120.9 364.7,120.5 C364.4,120.1 363.9,119.8 363.4,119.5 C362.9,119.3 362.2,119.2 361.5,119.2 C360.7,119.2 360.1,119.3 359.6,119.5 C359.1,119.7 358.6,120.1 358.2,120.5 C357.8,120.9 357.5,121.4 357.2,122 C357,122.5 356.8,123.2 356.8,123.9 L365.7,123.9 L365.7,123.9 Z M380.2,120.5 L380,120.5 C379.8,120.4 379.6,120.4 379.3,120.4 C379.1,120.4 378.8,120.4 378.5,120.4 C377.7,120.4 377,120.6 376.2,120.9 C375.5,121.2 374.7,121.7 374.1,122.4 L374.1,134.3 L371.3,134.3 L371.3,117.5 L374.1,117.5 L374.1,120 C375.1,119.1 376,118.4 376.8,118.1 C377.6,117.7 378.3,117.5 379,117.5 C379.3,117.5 379.5,117.5 379.7,117.5 C379.8,117.5 380,117.5 380.2,117.6 L380.2,120.5 L380.2,120.5 Z M391.2,130.1 L391.2,125.4 C390.5,125.5 389.7,125.5 388.7,125.6 C387.7,125.7 386.8,125.9 386.2,126 C385.4,126.2 384.8,126.6 384.3,127.1 C383.8,127.6 383.6,128.2 383.6,129.1 C383.6,130.1 383.9,130.8 384.4,131.3 C384.9,131.8 385.7,132 386.8,132 C387.7,132 388.5,131.8 389.2,131.4 C389.9,131.1 390.6,130.6 391.2,130.1 L391.2,130.1 Z M391.2,132.4 C391,132.6 390.7,132.8 390.3,133.1 C389.9,133.4 389.5,133.6 389.2,133.8 C388.7,134.1 388.2,134.3 387.7,134.4 C387.2,134.5 386.6,134.6 385.7,134.6 C385,134.6 384.4,134.5 383.7,134.2 C383.1,133.9 382.5,133.6 382.1,133.1 C381.6,132.6 381.3,132.1 381,131.4 C380.7,130.7 380.6,130 380.6,129.3 C380.6,128.1 380.8,127.1 381.3,126.3 C381.8,125.5 382.6,124.8 383.6,124.4 C384.5,124 385.7,123.7 386.9,123.5 C388.2,123.3 389.6,123.2 391,123.1 L391,122.6 C391,121.9 390.9,121.4 390.7,121 C390.5,120.6 390.2,120.3 389.9,120.1 C389.5,119.9 389.1,119.7 388.6,119.6 C388.1,119.5 387.5,119.5 387,119.5 C386.3,119.5 385.6,119.6 384.7,119.8 C383.8,120 382.9,120.3 382.1,120.7 L381.9,120.7 L381.9,117.8 C382.4,117.7 383.2,117.5 384.1,117.3 C385.1,117.1 386,117 387,117 C388.1,117 389.1,117.1 389.9,117.3 C390.7,117.5 391.4,117.8 392,118.3 C392.6,118.8 393.1,119.4 393.4,120.1 C393.7,120.8 393.9,121.7 393.9,122.8 L393.9,134.3 L391.1,134.3 L391.1,132.4 L391.2,132.4 Z M400.9,134.2 L398.1,134.2 L398.1,110.8 L400.9,110.8 L400.9,134.2 L400.9,134.2 Z M427.5,134.2 L424.7,134.2 L424.7,132.5 C424.3,132.9 423.9,133.2 423.6,133.4 C423.3,133.6 422.9,133.9 422.5,134.1 C422.1,134.3 421.7,134.4 421.3,134.5 C420.9,134.6 420.4,134.7 419.8,134.7 C418.9,134.7 418,134.5 417.3,134.1 C416.5,133.7 415.9,133.2 415.3,132.4 C414.7,131.7 414.3,130.8 414,129.7 C413.7,128.6 413.5,127.4 413.5,126 C413.5,124.5 413.7,123.3 414.1,122.2 C414.5,121.1 415,120.2 415.7,119.4 C416.3,118.7 417,118.1 417.9,117.7 C418.8,117.3 419.7,117.1 420.6,117.1 C421.4,117.1 422.2,117.2 422.8,117.4 C423.4,117.6 424.1,117.9 424.8,118.3 L424.8,111 L427.6,111 L427.6,134.2 L427.5,134.2 Z M424.7,130.1 L424.7,120.4 C424,120.1 423.4,119.8 422.8,119.7 C422.2,119.6 421.6,119.5 421,119.5 C419.6,119.5 418.4,120 417.6,121.1 C416.8,122.2 416.4,123.8 416.4,125.8 C416.4,127.8 416.7,129.3 417.3,130.3 C417.9,131.3 418.9,131.9 420.3,131.9 C421,131.9 421.8,131.7 422.5,131.4 C423.3,131.1 424.1,130.7 424.7,130.1 L424.7,130.1 Z M445.4,125.8 C445.4,128.6 444.7,130.8 443.4,132.3 C442,133.8 440.2,134.6 438,134.6 C435.7,134.6 433.8,133.8 432.5,132.2 C431.2,130.6 430.5,128.5 430.5,125.7 C430.5,122.9 431.2,120.7 432.6,119.2 C434,117.6 435.8,116.9 438,116.9 C440.3,116.9 442.1,117.7 443.4,119.2 C444.7,120.8 445.4,123 445.4,125.8 L445.4,125.8 Z M442.5,125.8 C442.5,123.6 442.1,122 441.3,121 C440.5,119.9 439.4,119.4 437.9,119.4 C436.4,119.4 435.3,119.9 434.5,121 C433.7,122.1 433.3,123.7 433.3,125.8 C433.3,127.9 433.7,129.5 434.5,130.6 C435.3,131.7 436.4,132.2 437.9,132.2 C439.4,132.2 440.5,131.7 441.3,130.6 C442.1,129.6 442.5,128 442.5,125.8 L442.5,125.8 Z" id="Shape" fill="#878787" fill-rule="nonzero"></path>
            <path d="M324.1,165.5 L320.2,165.5 L313.1,156.6 L309.7,156.6 L309.7,165.5 L306.7,165.5 L306.7,143.1 L312.5,143.1 C313.8,143.1 314.9,143.2 315.7,143.3 C316.6,143.4 317.4,143.8 318.2,144.3 C319,144.8 319.6,145.4 320.1,146.2 C320.6,147 320.8,148 320.8,149.1 C320.8,150.7 320.4,152.1 319.6,153.2 C318.8,154.3 317.6,155.1 316.2,155.6 L324.1,165.5 L324.1,165.5 Z M317.7,149.4 C317.7,148.7 317.6,148.2 317.4,147.7 C317.2,147.2 316.8,146.8 316.3,146.5 C315.9,146.2 315.4,146 314.8,145.9 C314.2,145.8 313.5,145.7 312.7,145.7 L309.8,145.7 L309.8,154.1 L312.4,154.1 C313.3,154.1 314,154 314.7,153.9 C315.4,153.8 316,153.4 316.4,153 C316.8,152.6 317.1,152.1 317.4,151.5 C317.6,150.9 317.7,150.2 317.7,149.4 L317.7,149.4 Z M328.5,165.5 L325.7,165.5 L325.7,148.7 L328.5,148.7 L328.5,165.5 L328.5,165.5 Z M328.7,145.9 L325.5,145.9 L325.5,143 L328.7,143 L328.7,145.9 L328.7,145.9 Z M346.5,157.1 C346.5,159.9 345.8,162.1 344.5,163.6 C343.1,165.1 341.3,165.9 339.1,165.9 C336.8,165.9 334.9,165.1 333.6,163.5 C332.3,161.9 331.6,159.8 331.6,157 C331.6,154.2 332.3,152 333.7,150.5 C335.1,148.9 336.9,148.2 339.1,148.2 C341.4,148.2 343.2,149 344.5,150.5 C345.8,152.1 346.5,154.3 346.5,157.1 L346.5,157.1 Z M343.6,157.1 C343.6,154.9 343.2,153.3 342.4,152.3 C341.6,151.2 340.5,150.7 339,150.7 C337.5,150.7 336.4,151.2 335.6,152.3 C334.8,153.4 334.4,155 334.4,157.1 C334.4,159.2 334.8,160.8 335.6,161.9 C336.4,163 337.5,163.5 339,163.5 C340.4,163.5 341.6,163 342.4,161.9 C343.2,160.9 343.6,159.3 343.6,157.1 L343.6,157.1 Z M371.9,165.5 L369.1,165.5 L369.1,163.8 C368.7,164.2 368.3,164.5 368,164.7 C367.7,164.9 367.3,165.2 366.9,165.4 C366.5,165.6 366.1,165.7 365.7,165.8 C365.3,165.9 364.8,166 364.2,166 C363.3,166 362.4,165.8 361.7,165.4 C360.9,165 360.3,164.5 359.7,163.7 C359.1,163 358.7,162.1 358.4,161 C358.1,159.9 357.9,158.7 357.9,157.3 C357.9,155.8 358.1,154.6 358.5,153.5 C358.9,152.4 359.4,151.5 360.1,150.7 C360.7,150 361.4,149.4 362.3,149 C363.2,148.6 364.1,148.4 365,148.4 C365.8,148.4 366.6,148.5 367.2,148.7 C367.8,148.9 368.5,149.2 369.2,149.6 L369.2,142.3 L372,142.3 L372,165.5 L371.9,165.5 Z M369.1,161.4 L369.1,151.7 C368.4,151.4 367.8,151.1 367.2,151 C366.6,150.9 366,150.8 365.4,150.8 C363.9,150.8 362.8,151.3 362,152.4 C361.2,153.5 360.8,155.1 360.8,157.1 C360.8,159.1 361.1,160.6 361.7,161.6 C362.3,162.6 363.3,163.2 364.7,163.2 C365.4,163.2 366.2,163 366.9,162.7 C367.7,162.4 368.4,162 369.1,161.4 L369.1,161.4 Z M383.3,165.9 C380.6,165.9 378.6,165.1 377.1,163.6 C375.6,162.1 374.9,160 374.9,157.2 C374.9,154.5 375.6,152.3 377,150.7 C378.4,149.1 380.3,148.3 382.6,148.3 C383.6,148.3 384.6,148.4 385.4,148.8 C386.2,149.1 386.9,149.6 387.5,150.2 C388.1,150.8 388.6,151.6 388.9,152.6 C389.2,153.5 389.4,154.7 389.4,156 L389.4,157.5 L377.8,157.5 C377.8,159.5 378.3,160.9 379.3,162 C380.3,163 381.6,163.5 383.4,163.5 C384,163.5 384.6,163.4 385.2,163.3 C385.8,163.2 386.3,163 386.8,162.8 C387.3,162.6 387.7,162.3 388.1,162.1 C388.4,161.9 388.7,161.7 389,161.5 L389.2,161.5 L389.2,164.6 C388.9,164.7 388.5,164.9 388,165.1 C387.5,165.3 387.1,165.4 386.7,165.6 C386.2,165.7 385.7,165.9 385.2,165.9 C384.5,165.8 383.9,165.9 383.3,165.9 L383.3,165.9 Z M386.6,155.2 C386.6,154.4 386.5,153.8 386.3,153.2 C386.1,152.7 385.9,152.2 385.6,151.8 C385.3,151.4 384.8,151.1 384.3,150.8 C383.8,150.6 383.1,150.5 382.4,150.5 C381.6,150.5 381,150.6 380.5,150.8 C380,151 379.5,151.4 379.1,151.8 C378.7,152.2 378.4,152.7 378.1,153.3 C377.9,153.8 377.7,154.5 377.7,155.2 L386.6,155.2 L386.6,155.2 Z M410.4,159.7 C410.4,161.7 409.8,163.2 408.6,164.2 C407.4,165.3 405.8,165.8 403.8,165.8 C403.3,165.8 402.7,165.8 401.9,165.7 C401.1,165.6 400.4,165.5 399.9,165.4 L399.9,162.6 L400.1,162.6 C400.5,162.7 401,162.9 401.6,163.1 C402.2,163.3 402.8,163.4 403.5,163.4 C404.4,163.4 405.2,163.3 405.7,163.1 C406.2,162.9 406.6,162.6 406.9,162.2 C407.2,161.8 407.3,161.3 407.4,160.7 C407.5,160.1 407.5,159.4 407.5,158.7 L407.5,145.7 L402.8,145.7 L402.8,143.3 L410.5,143.3 L410.5,159.7 L410.4,159.7 Z M423.9,161.4 L423.9,156.7 C423.2,156.8 422.4,156.8 421.4,156.9 C420.4,157 419.5,157.2 418.9,157.3 C418.1,157.5 417.5,157.9 417,158.4 C416.5,158.9 416.3,159.5 416.3,160.4 C416.3,161.4 416.6,162.1 417.1,162.6 C417.6,163.1 418.4,163.3 419.5,163.3 C420.4,163.3 421.2,163.1 421.9,162.7 C422.6,162.4 423.3,161.9 423.9,161.4 L423.9,161.4 Z M423.9,163.7 C423.7,163.9 423.4,164.1 423,164.4 C422.6,164.7 422.2,164.9 421.9,165.1 C421.4,165.4 420.9,165.6 420.4,165.7 C419.9,165.8 419.3,165.9 418.4,165.9 C417.7,165.9 417.1,165.8 416.4,165.5 C415.8,165.2 415.2,164.9 414.8,164.4 C414.3,163.9 414,163.4 413.7,162.7 C413.4,162 413.3,161.3 413.3,160.6 C413.3,159.4 413.5,158.4 414,157.6 C414.5,156.8 415.3,156.1 416.3,155.7 C417.2,155.3 418.4,155 419.6,154.8 C420.9,154.6 422.3,154.5 423.7,154.4 L423.7,153.9 C423.7,153.2 423.6,152.7 423.4,152.3 C423.2,151.9 422.9,151.6 422.6,151.4 C422.2,151.2 421.8,151 421.3,150.9 C420.8,150.8 420.2,150.8 419.7,150.8 C419,150.8 418.3,150.9 417.4,151.1 C416.5,151.3 415.6,151.6 414.8,152 L414.6,152 L414.6,149.1 C415.1,149 415.9,148.8 416.8,148.6 C417.8,148.4 418.7,148.3 419.7,148.3 C420.8,148.3 421.8,148.4 422.6,148.6 C423.4,148.8 424.1,149.1 424.7,149.6 C425.3,150.1 425.8,150.7 426.1,151.4 C426.4,152.1 426.6,153 426.6,154.1 L426.6,165.6 L423.8,165.6 L423.8,163.7 L423.9,163.7 Z M443.9,165.5 L441.1,165.5 L441.1,156 C441.1,155.2 441.1,154.5 441,153.8 C440.9,153.1 440.8,152.6 440.6,152.2 C440.4,151.8 440,151.5 439.6,151.3 C439.2,151.1 438.6,151 437.9,151 C437.2,151 436.5,151.2 435.7,151.6 C435,152 434.2,152.5 433.5,153.1 L433.5,165.6 L430.7,165.6 L430.7,148.8 L433.5,148.8 L433.5,150.7 C434.3,150 435.2,149.4 436,149 C436.8,148.6 437.7,148.4 438.6,148.4 C440.3,148.4 441.5,148.9 442.5,150 C443.4,151.1 443.9,152.7 443.9,154.7 L443.9,165.5 L443.9,165.5 Z M455.1,165.9 C452.4,165.9 450.4,165.1 448.9,163.6 C447.4,162.1 446.7,160 446.7,157.2 C446.7,154.5 447.4,152.3 448.8,150.7 C450.2,149.1 452.1,148.3 454.4,148.3 C455.4,148.3 456.4,148.4 457.2,148.8 C458,149.1 458.7,149.6 459.3,150.2 C459.9,150.8 460.4,151.6 460.7,152.6 C461,153.5 461.2,154.7 461.2,156 L461.2,157.5 L449.6,157.5 C449.6,159.5 450.1,160.9 451.1,162 C452.1,163 453.4,163.5 455.2,163.5 C455.8,163.5 456.4,163.4 457,163.3 C457.6,163.2 458.1,163 458.6,162.8 C459.1,162.6 459.5,162.3 459.9,162.1 C460.2,161.9 460.5,161.7 460.8,161.5 L461,161.5 L461,164.6 C460.7,164.7 460.3,164.9 459.8,165.1 C459.3,165.3 458.9,165.4 458.5,165.6 C458,165.7 457.5,165.9 457,165.9 C456.4,165.8 455.8,165.9 455.1,165.9 L455.1,165.9 Z M458.4,155.2 C458.4,154.4 458.3,153.8 458.1,153.2 C457.9,152.7 457.7,152.2 457.4,151.8 C457.1,151.4 456.6,151.1 456.1,150.8 C455.6,150.6 454.9,150.5 454.2,150.5 C453.4,150.5 452.8,150.6 452.3,150.8 C451.8,151 451.3,151.4 450.9,151.8 C450.5,152.2 450.2,152.7 449.9,153.3 C449.7,153.8 449.5,154.5 449.5,155.2 L458.4,155.2 L458.4,155.2 Z M466.9,165.5 L464.1,165.5 L464.1,148.7 L466.9,148.7 L466.9,165.5 L466.9,165.5 Z M467.1,145.9 L463.9,145.9 L463.9,143 L467.1,143 L467.1,145.9 L467.1,145.9 Z M479.9,151.8 L479.8,151.8 C479.6,151.7 479.4,151.7 479.1,151.7 C478.9,151.7 478.6,151.7 478.3,151.7 C477.5,151.7 476.8,151.9 476,152.2 C475.3,152.5 474.5,153 473.9,153.7 L473.9,165.6 L471.1,165.6 L471.1,148.8 L473.9,148.8 L473.9,151.3 C474.9,150.4 475.8,149.7 476.6,149.4 C477.4,149 478.1,148.8 478.8,148.8 C479.1,148.8 479.3,148.8 479.5,148.8 C479.6,148.8 479.8,148.8 480,148.9 L480,151.8 L479.9,151.8 Z M495.8,157.1 C495.8,159.9 495.1,162.1 493.8,163.6 C492.4,165.1 490.6,165.9 488.4,165.9 C486.1,165.9 484.2,165.1 482.9,163.5 C481.6,161.9 480.9,159.8 480.9,157 C480.9,154.2 481.6,152 483,150.5 C484.4,148.9 486.2,148.2 488.4,148.2 C490.7,148.2 492.5,149 493.8,150.5 C495.1,152.1 495.8,154.3 495.8,157.1 L495.8,157.1 Z M492.9,157.1 C492.9,154.9 492.5,153.3 491.7,152.3 C490.9,151.2 489.8,150.7 488.3,150.7 C486.8,150.7 485.7,151.2 484.9,152.3 C484.1,153.4 483.7,155 483.7,157.1 C483.7,159.2 484.1,160.8 484.9,161.9 C485.7,163 486.8,163.5 488.3,163.5 C489.8,163.5 490.9,163 491.7,161.9 C492.5,160.9 492.9,159.3 492.9,157.1 L492.9,157.1 Z" id="Shape" fill="#878787" fill-rule="nonzero"></path>
            <path d="M136.2,108.2 C135.6,108.3 135,108.5 134.4,108.5 C133.8,108.6 132.8,108.6 131.5,108.6 C130.3,108.6 129.3,108.5 128.5,108.2 C127.7,107.9 127,107.5 126.4,106.9 C125.8,106.4 125.4,105.7 125.1,105 C124.8,104.3 124.7,103.5 124.6,102.6 C121.4,102.5 118.9,101.4 117.1,99.3 C115.3,97.2 114.3,94.4 114.3,90.9 C114.3,87.3 115.3,84.4 117.2,82.3 C119.1,80.2 121.8,79.1 125.2,79.1 C128.6,79.1 131.3,80.1 133.2,82.2 C135.1,84.3 136.1,87.2 136.1,90.8 C136.1,93.5 135.5,95.7 134.4,97.6 C133.3,99.5 131.7,100.9 129.7,101.7 C129.7,102.8 130,103.6 130.4,104 C130.8,104.4 131.7,104.6 132.9,104.6 C133.4,104.6 133.8,104.5 134.3,104.4 C134.8,104.3 135.2,104.1 135.4,104 L136,104 L136,108.2 L136.2,108.2 Z M128.8,96.6 C129.3,95.9 129.7,95.2 129.9,94.3 C130.2,93.4 130.3,92.3 130.3,90.9 C130.3,89.6 130.2,88.4 129.9,87.5 C129.6,86.6 129.3,85.8 128.8,85.2 C128.3,84.6 127.8,84.1 127.2,83.9 C126.6,83.6 126,83.5 125.3,83.5 C124.6,83.5 124,83.6 123.4,83.9 C122.8,84.1 122.3,84.6 121.8,85.2 C121.3,85.8 121,86.6 120.7,87.5 C120.4,88.5 120.3,89.6 120.3,91 C120.3,92.4 120.4,93.5 120.7,94.4 C121,95.3 121.3,96.1 121.8,96.7 C122.3,97.3 122.8,97.8 123.4,98 C124,98.3 124.7,98.4 125.3,98.4 C126,98.4 126.6,98.3 127.2,98 C127.9,97.7 128.4,97.2 128.8,96.6 L128.8,96.6 Z" id="Shape" fill="#005645" fill-rule="nonzero"></path>
            <path d="M116.6,102.2 L109.7,102.2 L103.4,93.9 L101.4,93.9 L101.4,102.2 L95.8,102.2 L95.8,79.6 L104.9,79.6 C106.2,79.6 107.2,79.7 108.2,79.8 C109.1,80 110,80.3 110.8,80.8 C111.6,81.3 112.3,82 112.7,82.8 C113.2,83.6 113.4,84.6 113.4,85.8 C113.4,87.5 113,88.9 112.2,90 C111.4,91.1 110.4,91.9 109.1,92.6 L116.6,102.2 L116.6,102.2 Z M107.5,86.5 C107.5,85.9 107.4,85.4 107.2,85 C107,84.6 106.6,84.3 106.1,84.1 C105.7,83.9 105.4,83.9 104.9,83.8 C104.5,83.8 103.9,83.7 103.3,83.7 L101.4,83.7 L101.4,89.8 L103,89.8 C103.8,89.8 104.5,89.8 105,89.7 C105.6,89.6 106,89.4 106.4,89.1 C106.8,88.8 107,88.5 107.2,88.1 C107.4,87.7 107.5,87.2 107.5,86.5 L107.5,86.5 Z" id="Shape" fill="#005645" fill-rule="nonzero"></path>
            <path d="M74,102.2 L81.6,79.6 L87.8,79.6 L95.4,102.2 L89.6,102.2 L88.2,97.6 L81.1,97.6 L79.7,102.2 L74,102.2 L74,102.2 Z M86.9,93.5 L84.6,86.1 L82.3,93.5 L86.9,93.5 L86.9,93.5 Z" id="Shape" fill="#005645" fill-rule="nonzero"></path>
            <path d="M76.7,86.8 C76.7,87.8 76.5,88.8 76.2,89.8 C75.9,90.7 75.4,91.5 74.8,92.2 C74.4,92.6 74,93 73.5,93.3 C73,93.6 72.5,93.9 72,94.1 C71.4,94.3 70.8,94.5 70.2,94.6 C69.5,94.7 68.8,94.8 68,94.8 L65,94.8 L65,102.2 L59.3,102.2 L59.3,79.6 L68.1,79.6 C69.4,79.6 70.5,79.7 71.5,80 C72.4,80.2 73.3,80.6 74.1,81.1 C74.9,81.7 75.6,82.4 76.1,83.4 C76.5,84.3 76.7,85.5 76.7,86.8 L76.7,86.8 Z M70.9,86.9 C70.9,86.3 70.8,85.7 70.4,85.3 C70.1,84.8 69.7,84.5 69.3,84.4 C68.8,84.2 68.3,84 67.8,84 C67.3,84 66.6,83.9 65.8,83.9 L65,83.9 L65,90.7 L65.4,90.7 C65.9,90.7 66.4,90.7 66.9,90.7 C67.4,90.7 67.8,90.7 68.1,90.6 C68.4,90.5 68.7,90.5 69.1,90.3 C69.4,90.2 69.7,90 69.9,89.8 C70.3,89.4 70.5,89 70.7,88.6 C70.9,88.1 70.9,87.6 70.9,86.9 L70.9,86.9 Z" id="Shape" fill="#005645" fill-rule="nonzero"></path>
            <polygon id="Path" fill="#005645" fill-rule="nonzero" points="158.4 102.2 158.4 79.6 173.7 79.6 173.7 83.9 164.1 83.9 164.1 87.9 171.7 87.9 171.7 92.2 164.1 92.2 164.1 97.9 173.7 97.9 173.7 102.2"></polygon>
            <path d="M146.8,102.7 C143.8,102.7 141.4,102 139.8,100.5 C138.2,99 137.4,96.9 137.4,94.1 L137.4,79.7 L143.1,79.7 L143.1,93.8 C143.1,95.4 143.4,96.5 144,97.3 C144.6,98.1 145.6,98.5 146.9,98.5 C148.2,98.5 149.2,98.1 149.8,97.4 C150.4,96.7 150.7,95.5 150.7,93.9 L150.7,79.8 L156.4,79.8 L156.4,94 C156.4,96.8 155.6,98.9 154,100.4 C152.3,101.9 149.9,102.7 146.8,102.7 L146.8,102.7 Z" id="Path" fill="#005645" fill-rule="nonzero"></path>
            <path d="M63.7,135.1 L63.7,116.9 L57.1,116.9 L57.1,112.6 L76,112.6 L76,116.9 L69.4,116.9 L69.4,135.1 L63.7,135.1 L63.7,135.1 Z M77.1,135.1 L77.1,112.6 L92.3,112.6 L92.3,116.9 L82.7,116.9 L82.7,120.8 L91.5,120.8 L91.5,125.1 L82.7,125.1 L82.7,130.8 L92.3,130.8 L92.3,135.1 L77.1,135.1 L77.1,135.1 Z M104,135.6 C100.6,135.6 98,134.6 96,132.5 C94,130.5 93,127.6 93,123.9 C93,120.3 94,117.5 96,115.4 C98,113.3 100.7,112.2 104,112.2 C104.9,112.2 105.7,112.3 106.4,112.3 C107.1,112.4 107.8,112.5 108.5,112.7 C109,112.9 109.6,113.1 110.2,113.3 C110.8,113.6 111.3,113.8 111.7,114 L111.7,119.4 L111,119.4 C110.7,119.2 110.4,118.9 110,118.5 C109.6,118.2 109.1,117.8 108.6,117.5 C108.1,117.2 107.5,116.9 106.9,116.7 C106.3,116.5 105.6,116.4 104.9,116.4 C104.1,116.4 103.3,116.5 102.7,116.8 C102,117.1 101.4,117.5 100.8,118.1 C100.2,118.7 99.8,119.5 99.4,120.4 C99,121.4 98.9,122.5 98.9,123.9 C98.9,125.3 99.1,126.5 99.5,127.4 C99.9,128.3 100.4,129.1 101,129.7 C101.6,130.3 102.2,130.7 103,130.9 C103.7,131.2 104.4,131.3 105.2,131.3 C105.9,131.3 106.7,131.2 107.3,130.9 C108,130.7 108.5,130.4 109,130.1 C109.5,129.8 109.9,129.5 110.3,129.1 C110.7,128.8 111,128.5 111.3,128.2 L111.8,128.2 L111.8,133.5 C111.4,133.7 110.9,133.9 110.4,134.2 C109.9,134.4 109.3,134.7 108.7,134.8 C108,135 107.3,135.2 106.7,135.3 C105.9,135.5 105,135.6 104,135.6 L104,135.6 Z M132.9,135.1 L127.5,135.1 L118.8,119.4 L118.8,135.1 L113.6,135.1 L113.6,112.6 L120.5,112.6 L127.7,125.5 L127.7,112.6 L132.9,112.6 L132.9,135.1 L132.9,135.1 Z M156.1,123.9 C156.1,127.5 155.1,130.4 153.2,132.5 C151.3,134.6 148.6,135.6 145.2,135.6 C141.8,135.6 139.1,134.5 137.2,132.4 C135.3,130.3 134.3,127.4 134.3,123.9 C134.3,120.3 135.3,117.4 137.2,115.3 C139.1,113.2 141.8,112.2 145.2,112.2 C148.6,112.2 151.2,113.2 153.2,115.3 C155.1,117.4 156.1,120.3 156.1,123.9 L156.1,123.9 Z M150.3,123.9 C150.3,122.6 150.2,121.4 149.9,120.5 C149.6,119.6 149.3,118.8 148.8,118.2 C148.3,117.6 147.8,117.1 147.2,116.9 C146.6,116.6 146,116.5 145.3,116.5 C144.6,116.5 144,116.6 143.4,116.9 C142.8,117.1 142.3,117.6 141.8,118.2 C141.3,118.8 141,119.6 140.7,120.5 C140.4,121.5 140.3,122.6 140.3,124 C140.3,125.4 140.4,126.5 140.7,127.4 C141,128.3 141.3,129.1 141.8,129.7 C142.3,130.3 142.8,130.8 143.4,131 C144,131.3 144.7,131.4 145.3,131.4 C146,131.4 146.6,131.3 147.2,131 C147.8,130.7 148.4,130.3 148.8,129.7 C149.3,129 149.7,128.3 149.9,127.4 C150.2,126.4 150.3,125.3 150.3,123.9 L150.3,123.9 Z M172.6,135.1 L157.6,135.1 L157.6,112.6 L163.2,112.6 L163.2,130.8 L172.6,130.8 L172.6,135.1 L172.6,135.1 Z M194.2,123.9 C194.2,127.5 193.2,130.4 191.3,132.5 C189.4,134.6 186.7,135.6 183.3,135.6 C179.9,135.6 177.2,134.5 175.3,132.4 C173.4,130.3 172.4,127.4 172.4,123.9 C172.4,120.3 173.4,117.4 175.3,115.3 C177.2,113.2 179.9,112.2 183.3,112.2 C186.7,112.2 189.3,113.2 191.3,115.3 C193.2,117.4 194.2,120.3 194.2,123.9 L194.2,123.9 Z M188.4,123.9 C188.4,122.6 188.3,121.4 188,120.5 C187.7,119.6 187.4,118.8 186.9,118.2 C186.4,117.6 185.9,117.1 185.3,116.9 C184.7,116.6 184.1,116.5 183.4,116.5 C182.7,116.5 182.1,116.6 181.5,116.9 C180.9,117.1 180.4,117.6 179.9,118.2 C179.4,118.8 179.1,119.6 178.8,120.5 C178.5,121.5 178.4,122.6 178.4,124 C178.4,125.4 178.5,126.5 178.8,127.4 C179.1,128.3 179.4,129.1 179.9,129.7 C180.4,130.3 180.9,130.8 181.5,131 C182.1,131.3 182.8,131.4 183.4,131.4 C184.1,131.4 184.7,131.3 185.3,131 C185.9,130.7 186.5,130.3 186.9,129.7 C187.4,129 187.8,128.3 188,127.4 C188.3,126.4 188.4,125.3 188.4,123.9 L188.4,123.9 Z M188,104.2 L183.5,110.1 L179.9,110.1 L183,104.2 L188,104.2 L188,104.2 Z M215.4,133.9 C214.4,134.3 213.1,134.7 211.6,135.1 C210,135.5 208.5,135.7 206.9,135.7 C203.4,135.7 200.6,134.7 198.5,132.6 C196.4,130.6 195.4,127.7 195.4,123.9 C195.4,120.4 196.5,117.6 198.5,115.4 C200.6,113.3 203.5,112.2 207.1,112.2 C209,112.2 210.5,112.4 211.7,112.7 C212.9,113.1 214.1,113.5 215.4,114.2 L215.4,119.5 L214.9,119.5 C214.6,119.3 214.2,119 213.7,118.6 C213.2,118.2 212.7,117.9 212.2,117.6 C211.6,117.3 211,117 210.2,116.8 C209.5,116.6 208.7,116.5 207.9,116.5 C206.9,116.5 206.1,116.6 205.3,117 C204.5,117.3 203.8,117.8 203.2,118.4 C202.6,119 202.1,119.8 201.8,120.7 C201.5,121.6 201.3,122.7 201.3,123.9 C201.3,126.5 202,128.5 203.3,129.7 C204.6,130.9 206.4,131.6 208.7,131.6 C208.9,131.6 209.1,131.6 209.4,131.6 C209.7,131.6 209.9,131.6 210.1,131.6 L210.1,127 L205.7,127 L205.7,122.8 L215.5,122.8 L215.5,133.9 L215.4,133.9 Z M237.7,135.6 C234.3,135.6 231.7,134.6 229.7,132.5 C227.7,130.5 226.7,127.6 226.7,123.9 C226.7,120.3 227.7,117.5 229.7,115.4 C231.7,113.3 234.4,112.2 237.7,112.2 C238.6,112.2 239.4,112.3 240.1,112.3 C240.8,112.4 241.5,112.5 242.2,112.7 C242.7,112.9 243.3,113.1 243.9,113.3 C244.5,113.6 245,113.8 245.4,114 L245.4,119.4 L244.8,119.4 C244.5,119.2 244.2,118.9 243.8,118.5 C243.4,118.2 242.9,117.8 242.4,117.5 C241.9,117.2 241.3,116.9 240.7,116.7 C240.1,116.5 239.4,116.4 238.7,116.4 C237.9,116.4 237.1,116.5 236.5,116.8 C235.8,117.1 235.2,117.5 234.6,118.1 C234,118.7 233.6,119.5 233.2,120.4 C232.8,121.4 232.7,122.5 232.7,123.9 C232.7,125.3 232.9,126.5 233.3,127.4 C233.7,128.3 234.2,129.1 234.8,129.7 C235.4,130.3 236,130.7 236.8,130.9 C237.5,131.2 238.2,131.3 239,131.3 C239.7,131.3 240.5,131.2 241.1,130.9 C241.8,130.7 242.3,130.4 242.8,130.1 C243.3,129.8 243.7,129.5 244.1,129.1 C244.5,128.8 244.8,128.5 245.1,128.2 L245.6,128.2 L245.6,133.5 C245.2,133.7 244.7,133.9 244.2,134.2 C243.7,134.4 243.1,134.7 242.5,134.8 C241.8,135 241.1,135.2 240.5,135.3 C239.6,135.5 238.8,135.6 237.7,135.6 L237.7,135.6 Z M267.9,123.9 C267.9,127.5 266.9,130.4 265,132.5 C263.1,134.6 260.4,135.6 257,135.6 C253.6,135.6 250.9,134.5 249,132.4 C247.1,130.3 246.1,127.4 246.1,123.9 C246.1,120.3 247.1,117.4 249,115.3 C250.9,113.2 253.6,112.2 257,112.2 C260.4,112.2 263,113.2 265,115.3 C266.9,117.4 267.9,120.3 267.9,123.9 L267.9,123.9 Z M262.1,123.9 C262.1,122.6 262,121.4 261.7,120.5 C261.4,119.6 261.1,118.8 260.6,118.2 C260.1,117.6 259.6,117.1 259,116.9 C258.4,116.6 257.8,116.5 257.1,116.5 C256.4,116.5 255.8,116.6 255.2,116.9 C254.6,117.1 254.1,117.6 253.6,118.2 C253.1,118.8 252.8,119.6 252.5,120.5 C252.2,121.5 252.1,122.6 252.1,124 C252.1,125.4 252.2,126.5 252.5,127.4 C252.8,128.3 253.1,129.1 253.6,129.7 C254.1,130.3 254.6,130.8 255.2,131 C255.8,131.3 256.5,131.4 257.1,131.4 C257.8,131.4 258.4,131.3 259,131 C259.6,130.7 260.2,130.3 260.6,129.7 C261.1,129 261.5,128.3 261.7,127.4 C261.9,126.4 262.1,125.3 262.1,123.9 L262.1,123.9 Z" id="Shape" fill="#005645" fill-rule="nonzero"></path>
            <polygon id="Path" fill="#005645" points="218.5 112.8 224.2 112.8 224.2 135.2 218.5 135.2"></polygon>
            <path d="M55,0.7 L111.5,0.7 C115.5,0.7 118.8,4 118.8,8 L118.8,19.8 C104.9,10.1 89.1,17.8 73.1,33.8 C64.8,42.1 56.4,52.6 48.4,64.1 C48,63.2 47.7,62.2 47.7,61.1 L47.7,8.1 C47.6,4 50.9,0.7 55,0.7 L55,0.7 Z M118.8,23.3 L118.8,61 C118.8,65 115.5,68.3 111.5,68.3 L55,68.3 C53.1,68.3 51.3,67.6 50,66.4 C58.2,54.8 66.6,44 75,35.7 C90.5,20.2 105.8,13 118.8,23.3 L118.8,23.3 Z" id="Shape" fill="#ED6B10"></path>
            <path d="M6.3,68.4 L41.5,68.4 C42.5,68.4 43.5,68.7 44.4,69.1 C37.2,79.9 30.3,91.2 23.8,102.2 L6.4,102.2 C3,102.2 0.3,99.4 0.3,95.9 L0.3,74.5 C0.2,71.2 3,68.4 6.3,68.4 L6.3,68.4 Z M46.4,70.9 C47.1,71.9 47.6,73.2 47.6,74.6 L47.6,96 C47.6,99.4 44.8,102.3 41.5,102.3 L27,102.3 C33.1,91.8 39.7,81.1 46.4,70.9 L46.4,70.9 Z" id="Shape" fill="#ED6B10"></path>
            <line x1="286" y1="78.6" x2="286" y2="167.3" id="Path" stroke="#878787" stroke-width="0.7087"></line>
        </g>
    </g>
</svg>