<?xml version="1.0" encoding="UTF-8"?>
<svg width="649px" height="192px" viewBox="0 0 649 192" version="1.1" xmlns="http://www.w3.org/2000/svg" xmlns:xlink="http://www.w3.org/1999/xlink">
    <!-- Generator: Sketch 61.2 (89653) - https://sketch.com -->
    <title>EQUATORIAL ENERGIA [LOGO]</title>
    <desc>Created with Sketch.</desc>
    <g id="Page-1" stroke="none" stroke-width="1" fill="none" fill-rule="evenodd">
        <g id="EQUATORIAL-ENERGIA-[LOGO]" fill-rule="nonzero">
            <path d="M589.86,140.55 L566.06,140.55 L566.06,99.63 C574.32,100.72 582.27,101.9 589.86,103.17 L589.86,140.55 Z M532.36,141.32 C529.581145,141.778724 526.765833,141.979579 523.95,141.92 C516.87,141.92 511.86,140.64 508.9,138.18 C505.94,135.72 504.47,131.8 504.47,126.68 L504.47,107.24 C504.47,102.02 506.74,97.5 511.47,93.47 C518.583333,94.1366667 525.55,94.8266667 532.37,95.54 C541.97,96.5666667 551.266667,97.6833333 560.26,98.89 L560.26,140.58 L539.17,140.58 L539.17,136.85 C538.09727,138.935509 536.163455,140.445274 533.88,140.98 C533.4,141.08 532.86,141.24 532.34,141.32 L532.36,141.32 Z M532.36,126.88 L532.51,126.88 C533.529056,126.945152 534.529183,126.582787 535.27,125.88 C536.090051,124.927158 536.51251,123.695581 536.45,122.44 L536.45,97.44 C535.046632,97.7670822 533.677236,98.2257795 532.36,98.81 C531.485009,99.1698686 530.674414,99.6697354 529.96,100.29 C528.807754,101.468429 528.198925,103.073855 528.28,104.72 L528.28,122.42 C528.208113,123.647513 528.561255,124.862322 529.28,125.86 C530.142568,126.559808 531.23006,126.922306 532.34,126.88 L532.36,126.88 Z M499.66,140.55 L475.86,140.55 L475.86,90.55 C483.92,91.05 491.86,91.74 499.66,92.33 L499.66,140.55 Z M410.43,122.24 C410.43,129.52 407.67,134.83 402.18,137.98 C397.75,140.63 391.35,141.91 382.89,141.91 C374.43,141.91 367.65,140.54 363.02,137.69 C357.43,134.25 354.57,128.83 354.57,121.35 L354.57,85.77 C362.64,85.86 370.57,86.05 378.38,86.16 L378.38,122.06 C378.334427,123.416311 378.708058,124.7537 379.45,125.89 C380.23652,126.729634 381.363383,127.164176 382.51,127.07 C383.679002,127.155731 384.82678,126.7244 385.65,125.89 C386.367943,124.745975 386.717028,123.408978 386.65,122.06 L386.65,86.36 C394.7,86.56 402.58,86.85 410.44,87.13 L410.43,122.24 Z M438.86,88.33 L438.86,140.55 L415.05,140.55 L415.05,87.34 C423.12,87.63 430.99,87.93 438.86,88.34 M349.65,140.56 L334.6,140.56 C324.27,140.56 317.98,139.19 315.6,136.43 C313.22,133.67 312.15,127.18 312.15,117.15 L312.15,85.68 L324.55,85.57 L335.96,85.68 L335.96,116.95 C335.96,119.79 336.96,121.76 338.82,122.95 C340.817148,123.862396 343.008631,124.267718 345.2,124.13 L349.63,124.13 L349.65,140.56 Z M175.77,122.24 C175.77,128.43 173.69,133.16 169.77,136.41 L176.15,148.31 L156.48,148.31 L153.03,141.81 C151.47,141.91 149.9,141.91 148.12,141.91 C139.57,141.91 132.98,140.54 128.26,137.69 C122.65,134.24 119.86,128.84 119.86,121.36 L119.86,95.24 C127.63,94.35 135.6,93.67 143.66,92.88 L143.66,122.09 C143.587706,123.439516 143.9372,124.77808 144.66,125.92 C145.487872,126.759946 146.644218,127.191746 147.82,127.1 C148.946225,127.175609 150.047074,126.742608 150.82,125.92 C151.57323,124.787956 151.954287,123.449014 151.91,122.09 L151.91,92.15 C159.68,91.57 167.54,90.98 175.71,90.39 L175.77,122.24 Z M269.2,141.31 C266.437755,141.767012 263.639197,141.967865 260.84,141.91 C253.76,141.91 248.74,140.63 245.69,138.17 C242.64,135.71 241.27,131.79 241.27,126.67 L241.27,107.24 C241.27,99.47 246.58,92.97 257.2,87.86 C258.28,87.37 259.37,86.86 260.35,86.48 L269.2,86.28 C278.39,86.06 287.69,85.87 297.12,85.8 L297.12,140.58 L276.12,140.58 L276.12,136.85 C275.028111,138.931858 273.087565,140.438334 270.8,140.98 C270.28,141.08 269.76,141.24 269.2,141.32 L269.2,141.31 Z M269.39,126.87 C270.379936,126.939604 271.351084,126.574511 272.05,125.87 C272.946168,124.957357 273.411614,123.706469 273.33,122.43 L273.33,97.43 C271.915508,97.7547803 270.533229,98.2066147 269.2,98.78 C268.330198,99.1353041 267.530949,99.6433011 266.84,100.28 C265.659422,101.44687 265.015,103.050685 265.06,104.71 L265.06,122.41 C265.011469,123.648636 265.396994,124.865339 266.15,125.85 C266.996973,126.53368 268.062213,126.88876 269.15,126.85 L269.39,126.87 Z M235.76,140.55 L212.06,140.55 L212.06,137.31 C210.357479,138.818936 208.337768,139.926189 206.15,140.55 C203.304613,141.513957 200.313687,141.977483 197.31,141.92 C192.31,141.92 188.06,140.64 184.81,137.99 C181.778661,135.752106 179.99,132.207915 179.99,128.44 L179.99,90.09 C187.76,89.6 195.72,89.09 203.8,88.72 L203.8,122.45 C203.8,125.45 205.18,126.88 207.93,126.88 C209.024052,126.965814 210.106246,126.605082 210.93,125.88 C211.669063,124.922593 212.054173,123.738998 212.02,122.53 L212.02,88.24 C219.79,87.84 227.75,87.54 235.72,87.24 L235.76,140.55 Z M114.38,122.24 C114.38,129.43 111.53,134.65 105.84,137.98 C101.32,140.63 94.84,141.91 86.35,141.91 C77.86,141.91 71.41,140.54 66.79,137.69 C61.39,134.25 58.62,128.83 58.62,121.35 L58.62,103.24 C66.19,101.96 82.43,99.41 82.43,99.41 L82.43,122.03 C82.3629717,123.378978 82.7120572,124.715975 83.43,125.86 C84.2555482,126.697168 85.4076067,127.128733 86.58,127.04 C87.7230089,127.129569 88.8448973,126.695527 89.63,125.86 C90.3571536,124.719976 90.7070192,123.379991 90.63,122.03 L90.63,102.59 L114.41,102.59 L114.38,122.24 Z" id="Shape" fill="#6D6EA8"></path>
            <path d="M487.74,38.16 L475.86,38.16 L475.86,20.75 L499.66,20.75 L499.66,38.16 L487.74,38.16 Z M86.5,84.88 L90.59,84.88 L90.59,62.65 C90.7028759,61.3872195 90.3469043,60.1270799 89.59,59.11 C88.8274165,58.2621878 87.7297421,57.7938468 86.59,57.83 L86.53,57.83 C85.4334878,57.8625467 84.392984,58.3218035 83.63,59.11 C82.7794998,60.0839956 82.3608668,61.3615482 82.47,62.65 L82.47,84.88 L86.5,84.88 Z M147.86,84.44 L151.99,84.03 L151.99,62.65 C152.074445,61.3776982 151.690279,60.1184877 150.91,59.11 C150.133573,58.2519799 149.016215,57.7830557 147.86,57.83 C146.744844,57.8439888 145.682004,58.3051535 144.91,59.11 C144.05229,60.0808133 143.62632,61.3587233 143.73,62.65 L143.73,84.85 L147.86,84.44 Z M269.22,76.97 L273.35,76.86 L273.35,62.65 C273.432664,61.3794889 273.052577,60.1220061 272.28,59.11 C271.499658,58.2515544 270.379154,57.7828471 269.22,57.83 C268.107361,57.842152 267.046944,58.3038299 266.28,59.11 C265.42229,60.0808133 264.99632,61.3587233 265.1,62.65 L265.1,77.09 L269.22,76.97 Z M382.54,77.07 L386.66,77.18 L386.66,62.65 C386.767256,61.3877503 386.411837,60.129568 385.66,59.11 C384.877032,58.2908506 383.793157,57.8274902 382.66,57.8274902 C381.526843,57.8274902 380.442968,58.2908506 379.66,59.11 C378.772766,60.0681256 378.314185,61.3463738 378.39,62.65 L378.39,76.95 L382.54,77.07 Z M442.93,58.24 C441.808361,58.1522198 440.697539,58.511709 439.84,59.24 C439.084043,60.1491693 438.723873,61.3233203 438.84,62.5 L438.84,79.54 L442.91,79.8 L447,80.05 L447,62.65 C447,59.7 445.72,58.22 443,58.22 L442.93,58.24 Z M212.05,79.4 L212.05,43.48 L235.76,43.48 L235.76,78.18 C237.88,78.09 240.01,77.98 242.15,77.9 L242.15,62.47 C242.15,55.28 245.01,50.06 250.91,46.71 C255.27,44.3 261.4,42.95 269.19,42.8 L270.58,42.8 C279.03,42.8 285.33,44.27 289.58,47.13 C294.58,50.38 297.16,55.9 297.16,63.35 L297.16,76.43 C302.133333,76.35 307.133333,76.3 312.16,76.28 L312.16,57.83 L301.57,57.83 L301.57,43.48 L312.18,43.48 L312.18,24 L335.98,24 L335.98,43.48 L348.77,43.48 L348.77,57.83 L335.98,57.83 L335.98,76.24 C342.22,76.24 348.42,76.33 354.57,76.44 L354.57,63.33 C354.57,56.07 357.42,50.66 363.02,47.33 C367.78,44.33 374.23,42.85 382.51,42.81 L382.86,42.81 C390.62,42.81 397.12,44.58 402.33,48.03 C407.74,51.28 410.39,56.1 410.39,62.5 L410.39,78.11 L415.02,78.31 L415.02,43.51 L438.86,43.51 L438.86,46.74 C440.097223,45.8044693 441.469596,45.0626457 442.93,44.54 C443.48,44.35 444.06,44.16 444.67,44 C447.575077,43.1649557 450.587641,42.7639545 453.61,42.81 C458.61,42.81 462.61,44.19 465.9,46.95 C469.019513,49.2102743 470.855616,52.8377868 470.83,56.69 L470.83,81.8 C472.5,81.92 474.18,82.05 475.83,82.2 L475.83,43.48 L499.64,43.48 L499.64,84.34 C507.473333,85.12 515.11,85.95 522.55,86.83 C531.75,82.27 536.43,78.97 536.43,77.01 L536.43,62.65 C536.532683,61.3881914 536.177709,60.1315847 535.43,59.11 C534.647032,58.2908506 533.563157,57.8274902 532.43,57.8274902 C531.296843,57.8274902 530.212968,58.2908506 529.43,59.11 C528.576335,60.0831393 528.150952,61.3592898 528.25,62.65 L528.25,81.83 L505.25,81.83 L505.25,62.47 C505.25,55.28 508.25,50.06 514.01,46.71 C518.73,44.16 525.22,42.78 533.68,42.78 C542.14,42.78 548.44,44.25 552.68,47.11 C557.68,50.36 560.26,55.88 560.26,63.33 L560.26,91.97 C560.65,92.02 561.06,92.11 561.44,92.16 C563,92.4 564.54,92.66 566.07,92.91 L566.07,20.75 L589.86,20.75 L589.86,97.24 C614.46,102.24 634.39,107.85 648.48,114.06 C616.71,105.11 573.33,97.63 521.99,92.13 C510.99,90.96 499.52,89.89 487.77,88.91 C473.31,87.7233333 458.373333,86.68 442.96,85.78 C423.46,84.68 403.26,83.83 382.54,83.27 C363.54,82.75 344.08,82.49 324.3,82.49 C305.6,82.49 287.24,82.72 269.22,83.18 C226,84.28 185.11,86.63 147.86,90.04 C140.6,90.7066667 133.486667,91.4033333 126.52,92.13 C112.58,93.62 99.22,95.27 86.52,97.05 C52.52,101.81 23.18,107.54 0.02,114.05 C14.11,107.84 34.02,102.21 58.65,97.23 L58.65,63.33 C58.65,56.07 61.3,50.66 66.65,47.33 C71.28,44.27 77.87,42.8 86.33,42.8 L86.47,42.8 C94.78,42.8 101.21,44.19 105.8,46.72 C111.51,49.97 114.36,55.19 114.36,62.48 L114.36,88.24 L119.87,87.56 L119.87,63.33 C119.87,56.07 122.62,50.66 128.23,47.33 C132.99,44.33 139.48,42.84 147.8,42.81 L148.1,42.81 C155.86,42.81 162.35,44.58 167.67,48.03 C172.842311,50.9765797 175.9512,56.5510063 175.74,62.5 L175.74,81.93 L179.97,81.6 L179.97,43.48 L203.76,43.48 L203.76,79.9 L212.02,79.4" id="Shape" fill="#2F2E79"></path>
            <path d="M230.71,173.11 L218.99,173.11 L218.99,165.06 L231.4,165.06 L231.4,160.41 L213.32,160.41 L213.32,191.52 L232.1,191.52 L232.1,186.85 L218.99,186.85 L218.99,177.72 L230.71,177.72 L230.71,173.11 Z M251.07,191.52 L251.07,180.4 C251.07,175.27 251.07,171.16 250.78,167.16 L250.92,167.1 C252.574214,170.772074 254.440702,174.344779 256.51,177.8 L264.64,191.52 L270.5,191.52 L270.5,160.41 L265.23,160.41 L265.23,171.24 C265.23,175.99 265.38,180.01 265.75,184.16 L265.65,184.16 C264.120115,180.56622 262.345966,177.081404 260.34,173.73 L252.34,160.39 L245.86,160.39 L245.86,191.5 L251.07,191.52 Z M303.21,173.11 L291.49,173.11 L291.49,165.06 L303.86,165.06 L303.86,160.41 L285.86,160.41 L285.86,191.52 L304.64,191.52 L304.64,186.85 L291.49,186.85 L291.49,177.72 L303.21,177.72 L303.21,173.11 Z M318.36,191.52 L323.98,191.52 L323.98,178.73 L326.86,178.73 C330.08,178.83 331.57,180.12 332.44,184.18 C332.923516,186.680251 333.615945,189.135528 334.51,191.52 L340.38,191.52 C339.72,190.31 338.9,186.72 337.93,182.84 C337.15,179.84 335.81,177.67 333.59,176.84 L333.59,176.7 C336.932188,175.564642 339.19069,172.439646 339.22,168.91 C339.326445,166.532757 338.339091,164.237527 336.54,162.68 C334.47,160.91 331.43,160.19 326.95,160.19 C324.077925,160.175285 321.209122,160.385931 318.37,160.82 L318.36,191.52 Z M323.98,164.75 C325.13226,164.524143 326.306488,164.430204 327.48,164.47 C331.18,164.47 333.58,166.05 333.58,169.47 C333.58,172.57 331.18,174.6 327.35,174.6 L323.98,174.6 L323.98,164.75 Z M378.3,174.35 L367.3,174.35 L367.3,178.83 L372.86,178.83 L372.86,186.58 C371.486202,187.088455 370.022702,187.309682 368.56,187.23 C362.1,187.23 357.75,183.02 357.75,175.96 C357.75,168.71 362.41,164.79 369.06,164.79 C371.485788,164.72079 373.897776,165.177942 376.13,166.13 L377.38,161.52 C374.741437,160.514145 371.933116,160.028547 369.11,160.09 C358.82,160.09 351.81,166.42 351.81,176.24 C351.608423,180.488166 353.176079,184.629964 356.14,187.68 C359.14,190.5 363.07,191.84 368.34,191.84 C371.747933,191.812639 375.12751,191.217834 378.34,190.08 L378.3,174.35 Z M392.86,191.52 L398.53,191.52 L398.53,160.43 L392.86,160.43 L392.86,191.52 Z M429.91,182.69 L432.72,191.52 L438.86,191.52 L428.76,160.41 L421.52,160.41 L411.52,191.52 L417.37,191.52 L420.05,182.69 L429.91,182.69 Z M420.91,178.41 L423.31,170.75 C423.87,168.9 424.31,166.75 424.78,164.93 L424.87,164.93 C425.33,166.74 425.87,168.87 426.44,170.74 L428.89,178.41 L420.91,178.41 Z" id="Shape" fill="#5F6062"></path>
            <path d="M78.46,22.77 C76.048129,23.6281922 73.509906,24.0777044 70.95,24.1 C66.95,24.1 63.95,23.1 61.74,20.97 C59.5196387,18.6590597 58.3385732,15.5420581 58.47,12.34 C58.47,4.9 63.75,0.17 71.47,0.17 C73.5973418,0.111863751 75.7140833,0.48961022 77.69,1.28 L76.75,4.73 C75.0759768,3.99582382 73.2563516,3.653789 71.43,3.73 C66.43,3.73 62.91,6.73 62.91,12.14 C62.91,17.55 66.18,20.63 71.05,20.63 C72.1450865,20.677947 73.2397203,20.5254439 74.28,20.18 L74.28,14.3 L70.15,14.3 L70.15,10.93 L78.42,10.93 L78.46,22.77 Z" id="Path" fill="#5F6062"></path>
            <path d="M92.2,0.76 C94.3373075,0.397772401 96.5022757,0.223771867 98.67,0.24 C102.04,0.24 104.3,0.8 105.9,2.12 C107.241816,3.31727755 107.975857,5.05328337 107.9,6.85 C107.88555,9.51712739 106.158964,11.8730303 103.62,12.69 L103.62,12.79 C105.32,13.42 106.33,15.05 106.89,17.31 C107.375373,19.5239912 107.989754,21.707716 108.73,23.85 L104.35,23.85 C103.649562,22.0616084 103.12378,20.209649 102.78,18.32 C102.09,15.26 101.01,14.32 98.58,14.22 L96.42,14.22 L96.42,23.85 L92.18,23.85 L92.2,0.76 Z M96.44,11.09 L98.98,11.09 C101.86,11.09 103.64,9.56 103.64,7.23 C103.64,4.69 101.86,3.47 99.08,3.47 C98.1950664,3.44706719 97.3101798,3.5174559 96.44,3.68 L96.44,11.09 Z" id="Shape" fill="#5F6062"></path>
            <path d="M125.58,0.41 L125.58,14.08 C125.58,18.67 127.49,20.79 130.38,20.79 C133.47,20.79 135.32,18.67 135.32,14.08 L135.32,0.41 L139.59,0.41 L139.59,13.8 C139.59,21.03 135.87,24.23 130.24,24.23 C124.82,24.23 121.3,21.23 121.3,13.84 L121.3,0.41 L125.58,0.41 Z" id="Path" fill="#5F6062"></path>
            <path d="M153.86,0.73 C156.021525,0.376138236 158.209878,0.212179043 160.4,0.24 C163.53,0.24 165.79,0.9 167.28,2.15 C168.786755,3.44284015 169.63147,5.34528379 169.58,7.33 C169.667482,9.29306973 168.944326,11.205818 167.58,12.62 C165.533826,14.3972598 162.876197,15.3082421 160.17,15.16 C159.468787,15.1785884 158.767709,15.1182084 158.08,14.98 L158.08,23.85 L153.86,23.85 L153.86,0.73 Z M158.1,11.61 C158.782924,11.7802503 159.486856,11.8509803 160.19,11.82 C163.39,11.82 165.34,10.22 165.34,7.51 C165.34,4.8 163.53,3.51 160.57,3.51 C159.741672,3.49595516 158.914068,3.56631829 158.1,3.72 L158.1,11.61 Z" id="Shape" fill="#5F6062"></path>
            <path d="M203.44,11.89 C203.44,19.75 198.67,24.23 192.24,24.23 C185.6,24.23 181.43,19.16 181.43,12.31 C181.43,5.07 185.98,0 192.59,0 C199.41,0 203.44,5.18 203.44,11.89 Z M185.95,12.2 C185.95,17 188.35,20.79 192.45,20.79 C196.55,20.79 198.92,16.93 198.92,12.03 C198.92,7.61 196.73,3.44 192.45,3.44 C188.17,3.44 185.95,7.37 185.95,12.24 L185.95,12.2 Z" id="Shape" fill="#5F6062"></path>
        </g>
    </g>
</svg>