<?xml version="1.0" encoding="UTF-8"?>
<svg width="414px" height="143px" viewBox="0 0 414 143" version="1.1" xmlns="http://www.w3.org/2000/svg" xmlns:xlink="http://www.w3.org/1999/xlink">
    <!-- Generator: Sketch 62 (91390) - https://sketch.com -->
    <title>logo_FITS_institucional_cor</title>
    <desc>Created with Sketch.</desc>
    <g id="Page-1" stroke="none" stroke-width="1" fill="none" fill-rule="evenodd">
        <g id="logo_FITS_institucional_cor">
            <path d="M219.81,134 L219.81,127.24 C222.141634,129.214909 225.09442,130.305386 228.15,130.32 C228.906316,130.329362 229.661221,130.252194 230.4,130.09 C230.966763,129.961948 231.51,129.746003 232.01,129.45 C232.42179,129.205635 232.765635,128.86179 233.01,128.45 C233.220448,128.077879 233.330709,127.657507 233.33,127.23 C233.337243,126.66175 233.158106,126.106777 232.82,125.65 C232.439683,125.141975 231.972482,124.705244 231.44,124.36 C230.778427,123.918925 230.079017,123.537428 229.35,123.22 C228.55,122.85 227.69,122.48 226.76,122.1 C224.727155,121.344113 222.910751,120.10113 221.47,118.48 C220.298196,117.02756 219.681413,115.205568 219.73,113.34 C219.687051,111.923774 220.014511,110.520865 220.68,109.27 C221.303733,108.143791 222.188477,107.183603 223.26,106.47 C224.422147,105.711866 225.708319,105.16355 227.06,104.85 C228.554899,104.502689 230.085309,104.331525 231.62,104.34 C233.021619,104.331249 234.422008,104.424831 235.81,104.62 C236.960499,104.797181 238.089758,105.092061 239.18,105.5 L239.18,111.82 C238.660221,111.45358 238.103926,111.141921 237.52,110.89 C236.920293,110.622358 236.302013,110.39844 235.67,110.22 C235.050812,110.042216 234.418986,109.911839 233.78,109.83 C233.189789,109.752519 232.59527,109.712439 232,109.71 C231.291117,109.702925 230.583583,109.773343 229.89,109.92 C229.323031,110.042337 228.779425,110.255052 228.28,110.55 C227.877305,110.805889 227.535889,111.147305 227.28,111.55 C226.780432,112.348285 226.780432,113.361715 227.28,114.16 C227.585941,114.610264 227.972425,115.000139 228.42,115.31 C228.988635,115.711195 229.590875,116.062502 230.22,116.36 C230.92,116.71 231.72,117.06 232.6,117.43 C233.724655,117.886048 234.814259,118.424165 235.86,119.04 C236.774045,119.566438 237.60899,120.21958 238.34,120.98 C239.023503,121.689932 239.563398,122.525241 239.93,123.44 C240.785428,125.886403 240.63803,128.571912 239.52,130.91 C238.893039,132.040748 237.996487,132.999131 236.91,133.7 C235.73517,134.442178 234.433316,134.960885 233.07,135.23 C231.553806,135.545157 230.008574,135.699345 228.46,135.69 C226.870749,135.699503 225.284015,135.562254 223.72,135.28 C222.36723,135.040235 221.054559,134.612775 219.82,134.01 L219.81,134 Z" id="Path" fill="#1D1D1B" fill-rule="nonzero"></path>
            <polygon id="Path" fill="#1D1D1B" fill-rule="nonzero" points="217.13 110.43 208.49 110.43 208.49 135.16 201.65 135.16 201.65 110.43 193.06 110.43 193.06 104.88 217.13 104.88 217.13 110.43"></polygon>
            <polygon id="Path" fill="#1D1D1B" fill-rule="nonzero" points="188.99 135.16 182.16 135.16 182.16 104.88 188.99 104.88 188.99 135.16"></polygon>
            <polygon id="Path" fill="#1D1D1B" fill-rule="nonzero" points="177.18 110.43 166.5 110.43 166.5 117.87 176.31 117.87 176.31 123.39 166.5 123.39 166.5 135.16 159.67 135.16 159.67 104.88 177.18 104.88 177.18 110.43"></polygon>
            <polygon id="Path" fill="#1D1D1B" fill-rule="nonzero" points="158.93 87.05 240.78 87.05 240.78 88.92 158.93 88.92 158.93 87.05"></polygon>
            <path d="M167.15,13.5 L162.15,13.5 L162.15,17 L166.76,17 L166.76,19.59 L162.15,19.59 L162.15,25.11 L158.95,25.11 L158.95,10.9 L167.17,10.9 L167.17,13.5 L167.15,13.5 Z M175.49,25.35 C173.615664,25.4194377 171.799389,24.6929278 170.49,23.35 C169.181861,21.9502955 168.490168,20.0841648 168.57,18.17 C168.481096,16.1680506 169.181273,14.2111456 170.52,12.72 C171.864838,11.3166459 173.747982,10.5590175 175.69,10.64 C177.54134,10.5679039 179.334046,11.2966461 180.61,12.64 C181.905768,14.0728327 182.581672,15.9603318 182.49,17.89 C182.566217,19.8840647 181.846737,21.8266589 180.49,23.29 C179.172175,24.668772 177.325781,25.4153416 175.42,25.34 L175.49,25.35 Z M175.63,13.41 C174.582931,13.3705567 173.582514,13.8446348 172.95,14.68 C172.245927,15.6469139 171.893129,16.8252587 171.95,18.02 C171.886556,19.2155359 172.239999,20.3960343 172.95,21.36 C173.597916,22.1305771 174.553231,22.5754613 175.56,22.5754613 C176.566769,22.5754613 177.522084,22.1305771 178.17,21.36 C178.880129,20.4075448 179.233972,19.2363226 179.17,18.05 C179.244375,16.8310709 178.913913,15.6217225 178.23,14.61 C177.628106,13.8018593 176.666932,13.3418424 175.66,13.38 L175.63,13.41 Z M178.86,6.41 L175.76,9.61 L173.5,9.61 L176.07,6.41 L178.86,6.41 Z M196.79,25.13 L193.11,25.13 L190.9,21.48 C190.74,21.2 190.58,20.95 190.43,20.73 C190.29171,20.5345921 190.137878,20.3506618 189.97,20.18 C189.828789,20.0324816 189.662982,19.9106641 189.48,19.82 C189.308063,19.7390332 189.120037,19.6980095 188.93,19.7 L188.07,19.7 L188.07,25.13 L184.87,25.13 L184.87,10.9 L189.94,10.9 C193.386667,10.9 195.11,12.1866667 195.11,14.76 C195.120138,15.6722879 194.812555,16.5596814 194.24,17.27 C193.952075,17.608402 193.614987,17.9016691 193.24,18.14 C192.827211,18.3876714 192.383321,18.5793514 191.92,18.71 L191.92,18.71 C192.141798,18.7843724 192.350891,18.8922914 192.54,19.03 C192.744167,19.187137 192.934831,19.3610768 193.11,19.55 C193.297395,19.7542164 193.47429,19.9678253 193.64,20.19 C193.81,20.42 193.96,20.64 194.1,20.86 L196.79,25.06 L196.79,25.13 Z M188.07,13.33 L188.07,17.28 L189.46,17.28 C190.067871,17.3071538 190.661556,17.0912683 191.11,16.68 C191.524149,16.2959797 191.756622,15.754754 191.75,15.19 C191.75,13.94 191,13.33 189.52,13.33 L188.07,13.33 Z M209.7,19 C209.7,23.2733333 207.7,25.4066667 203.7,25.4000156 C199.846667,25.4000156 197.92,23.3166667 197.92,19.15 L197.92,10.95 L201.13,10.95 L201.13,19.19 C201.13,21.49 202.026667,22.64 203.82,22.64 C205.58,22.64 206.47,21.53 206.47,19.31 L206.47,10.9 L209.67,10.9 L209.67,19 L209.7,19 Z M227.22,25.15 L224.35,25.15 L224.35,16.65 C224.35,15.74 224.35,14.72 224.47,13.65 L224.39,13.65 C224.39,13.86 224.29,14.07 224.23,14.28 C224.17,14.49 224.11,14.7 224.05,14.89 C223.99,15.08 223.94,15.24 223.88,15.39 C223.82,15.54 223.78,15.66 223.74,15.75 L221.04,20.93 L218.8,20.93 L216.19,15.73 C216.19,15.67 216.13,15.58 216.09,15.45 C216.031289,15.2962482 215.981211,15.1393371 215.94,14.98 C215.88,14.8 215.83,14.6 215.78,14.38 C215.717466,14.1394112 215.6674,13.8957533 215.63,13.65 L215.54,13.65 C215.59,14.27 215.62,14.84 215.64,15.37 C215.66,15.9 215.64,16.37 215.64,16.68 L215.64,25.19 L212.76,25.19 L212.76,10.9 L216.68,10.9 L219.19,15.83 C219.256667,15.99 219.326667,16.16 219.4,16.34 C219.48,16.51 219.55,16.69 219.62,16.87 C219.69,17.05 219.75,17.22 219.81,17.39 C219.87,17.56 219.9,17.72 219.93,17.86 L219.93,17.86 C219.93,17.72 220.01,17.55 220.06,17.37 C220.11,17.19 220.16,17 220.21,16.82 C220.257526,16.637249 220.314265,16.4570187 220.38,16.28 C220.433743,16.119625 220.497193,15.9626684 220.57,15.81 L223.14,10.9 L227.14,10.9 L227.14,25.1 L227.22,25.15 Z M247.73,24.15 C246.139285,24.9995809 244.352254,25.4135649 242.55,25.35 C240.568955,25.4599708 238.625712,24.7762373 237.15,23.45 C235.776795,22.070054 235.050425,20.1742293 235.15,18.23 C235.076338,16.1902295 235.85535,14.2119006 237.3,12.77 C238.853118,11.3190893 240.927049,10.5580468 243.05,10.66 C244.40916,10.633721 245.762571,10.8434998 247.05,11.28 L247.05,14.28 C245.830132,13.5948386 244.448783,13.2495013 243.05,13.28 C241.836278,13.2330969 240.659333,13.7016954 239.81,14.57 C238.181424,16.5423875 238.127547,19.3771544 239.68,21.41 C240.466767,22.2140603 241.555748,22.6496529 242.68,22.61 C243.306949,22.6374364 243.932125,22.5246998 244.51,22.28 L244.51,19.5 L241.67,19.5 L241.67,17 L247.67,17 L247.67,24.14 L247.73,24.15 Z M258.95,25.15 L250.49,25.15 L250.49,10.9 L253.69,10.9 L253.69,22.51 L259,22.51 L259,25.1 L258.95,25.15 Z M266.36,25.4 C264.485226,25.471971 262.66796,24.7450646 261.36,23.4 C260.051861,22.0002955 259.360168,20.1341648 259.44,18.22 C259.351096,16.2180506 260.051273,14.2611456 261.39,12.77 C262.732596,11.3633338 264.617306,10.6050754 266.56,10.69 C268.41134,10.6179039 270.204046,11.3466461 271.48,12.69 C272.771034,14.1256627 273.446218,16.01115 273.36,17.94 C273.449745,19.9270551 272.748584,21.8687304 271.41,23.34 C270.087611,24.7181608 268.238537,25.4643422 266.33,25.39 L266.36,25.4 Z M266.5,13.46 C265.456057,13.4221507 264.459356,13.8962368 263.83,14.73 C263.125927,15.6969139 262.773129,16.8752587 262.83,18.07 C262.766556,19.2655359 263.119999,20.4460343 263.83,21.41 C264.446939,22.2106184 265.409639,22.6678078 266.42,22.64 C267.437682,22.6813429 268.414263,22.2357546 269.05,21.44 C269.755582,20.4852582 270.10892,19.3157092 270.05,18.13 C270.124375,16.9110709 269.793913,15.7017225 269.11,14.69 C268.503815,13.8816296 267.539692,13.42199 266.53,13.46 L266.5,13.46 Z M275.74,25.15 L275.74,10.9 L280.92,10.9 C282.195947,10.8224833 283.466208,11.125258 284.57,11.77 C285.402825,12.3048952 285.889905,13.2410015 285.85,14.23 C285.853381,14.971523 285.574517,15.6865571 285.07,16.23 C284.532634,16.8119694 283.837836,17.2253743 283.07,17.42 L283.07,17.42 C283.981026,17.5055461 284.835183,17.9008582 285.49,18.54 C286.084751,19.1444887 286.412505,19.9620739 286.4,20.81 C286.476938,22.0372149 285.9553,23.2258046 285,24 C283.902096,24.8132659 282.554159,25.2165855 281.19,25.14 L275.74,25.15 Z M279,13.25 L279,16.62 L280.4,16.62 C280.960647,16.6515197 281.514049,16.4812422 281.96,16.14 C282.34428,15.8120981 282.55481,15.3245543 282.53,14.82 C282.53,13.82 281.75,13.25 280.19,13.25 L279,13.25 Z M279,19 L279,22.75 L280.73,22.75 C281.352742,22.7836078 281.967814,22.5997933 282.47,22.23 C282.892362,21.8869944 283.12628,21.3634626 283.1,20.82 C283.122498,20.3021052 282.891118,19.8057579 282.48,19.49 C281.975554,19.1352756 281.36554,18.9624971 280.75,19 L279,19 Z M301.3,25.1 L297.81,25.1 L296.81,21.94 L291.81,21.94 L290.81,25.1 L287.34,25.1 L292.51,10.9 L296.31,10.9 L301.31,25.1 L301.3,25.1 Z M296,19.49 L294.47,14.71 C294.348314,14.2922133 294.267928,13.8634913 294.23,13.43 L294.15,13.43 C294.119428,13.8513845 294.038863,14.2676395 293.91,14.67 L292.36,19.49 L296,19.49 Z M311.46,25.1 L303,25.1 L303,10.9 L306.2,10.9 L306.2,22.51 L311.46,22.51 L311.46,25.1 L311.46,25.1 Z M318.97,25.1 L318.97,10.9 L323.97,10.9 C329.023333,10.9 331.546667,13.2066667 331.54,17.82 C331.631517,19.8000626 330.879274,21.7260953 329.47,23.12 C327.977141,24.4941142 325.996804,25.2142367 323.97,25.12 L318.97,25.1 Z M322.17,13.5 L322.17,22.5 L323.76,22.5 C324.974742,22.5643705 326.159701,22.110015 327.02,21.25 C327.845023,20.3158693 328.268947,19.0943909 328.2,17.85 C328.265663,16.6709581 327.842419,15.5169867 327.03,14.66 C326.138539,13.8380493 324.950269,13.4154728 323.74,13.49 L322.17,13.5 Z M342.45,25.1 L334,25.1 L334,10.9 L342.19,10.9 L342.19,13.5 L337.19,13.5 L337.19,16.66 L341.84,16.66 L341.84,19.26 L337.19,19.26 L337.19,22.51 L342.51,22.51 L342.51,25.1 L342.45,25.1 Z M162.13,48.88 L158.93,48.88 L158.93,34.67 L162.13,34.67 L162.13,48.88 Z M178.13,48.88 L174.9,48.88 L169.06,40 C168.797688,39.6241781 168.557289,39.2335284 168.34,38.83 L168.34,38.83 C168.39,39.33 168.41,40.09 168.41,41.12 L168.41,48.93 L165.41,48.93 L165.41,34.67 L168.86,34.67 L174.5,43.32 C174.75,43.71 174.99,44.1 175.21,44.48 L175.21,44.48 C175.140766,43.8157175 175.114045,43.1476901 175.13,42.48 L175.13,34.62 L178.13,34.62 L178.13,48.83 L178.13,48.88 Z M187.38,49.13 C185.505445,49.2007021 183.688676,48.4739944 182.38,47.13 C181.097026,45.7374629 180.42064,43.8917938 180.5,42 C180.424081,39.9940148 181.142799,38.039103 182.5,36.56 C183.842596,35.1533338 185.727306,34.3950754 187.67,34.48 C189.52134,34.4079039 191.314046,35.1366461 192.59,36.48 C193.882919,37.9145367 194.558389,39.8008234 194.47,41.73 C194.559745,43.7170551 193.858584,45.6587304 192.52,47.13 C191.195414,48.5049103 189.347862,49.2504774 187.44,49.18 L187.38,49.13 Z M187.52,37.19 C186.478545,37.1532026 185.483675,37.622692 184.85,38.45 C184.147364,39.421422 183.794842,40.6023707 183.85,41.8 C183.789871,42.9951375 184.142987,44.1745456 184.85,45.14 C185.471099,45.934276 186.432075,46.3869369 187.44,46.36 C188.455323,46.4005258 189.430204,45.95942 190.07,45.17 C190.7786,44.2167748 191.132273,43.0461175 191.07,41.86 C191.145892,40.6409147 190.815299,39.4310855 190.13,38.42 C189.523815,37.6116296 188.559692,37.15199 187.55,37.19 L187.52,37.19 Z M208.6,34.67 L203.7,48.88 L200.08,48.88 L195.24,34.67 L198.69,34.67 L201.69,44.56 C201.839593,45.0288628 201.943411,45.5111154 202,46 L202,46 C202.050876,45.5045182 202.151381,45.0153977 202.3,44.54 L205.3,34.69 L208.6,34.67 Z M221.74,48.88 L218.25,48.88 L217.25,45.72 L212.25,45.72 L211.25,48.88 L207.78,48.88 L212.95,34.67 L216.75,34.67 L221.75,48.88 L221.74,48.88 Z M216.51,43.26 L215,38.49 C214.879233,38.0719942 214.798865,37.6433623 214.76,37.21 L214.69,37.21 C214.651116,37.6310646 214.567306,38.0467624 214.44,38.45 L212.89,43.26 L216.51,43.26 Z M233.7,48.38 C232.562042,48.8676336 231.338015,49.1226393 230.1,49.13 L230.1,49.69 C231.34,49.75 231.96,50.29 231.96,51.34 C231.96,52.7 230.9,53.39 228.8,53.39 C228.5,53.39 228.21,53.39 227.93,53.39 L227.93,52 C228.167831,52.0406439 228.408722,52.0607182 228.65,52.06 C229.46,52.06 229.86,51.82 229.86,51.34 C229.86,50.86 229.5,50.68 228.76,50.68 L228.4,50.68 L228.4,49 C226.747031,48.8459422 225.220742,48.0486807 224.15,46.78 C223.0939,45.4315031 222.55161,43.7514653 222.62,42.04 C222.53547,39.9853511 223.298287,37.9861187 224.73,36.51 C226.179349,35.0810225 228.156357,34.317014 230.19,34.4 C231.381358,34.3675517 232.569222,34.5435317 233.7,34.92 L233.7,38 C232.715932,37.4220153 231.591036,37.1278118 230.45,37.15 C229.244631,37.1005797 228.073507,37.5574268 227.22,38.41 C226.366573,39.3340732 225.922965,40.5639126 225.99,41.82 C225.931275,43.0231919 226.347904,44.2012447 227.15,45.1 C227.968835,45.9323815 229.103726,46.376153 230.27,46.32 C231.474718,46.3334617 232.660397,46.0188936 233.7,45.41 L233.7,48.34 L233.7,48.38 Z M248.7,48.88 L245.21,48.88 L244.21,45.72 L239.21,45.72 L238.21,48.88 L234.74,48.88 L239.91,34.67 L243.71,34.67 L248.71,48.88 L248.7,48.88 Z M243.47,43.26 L241.94,38.49 C241.819233,38.0719942 241.738865,37.6433623 241.7,37.21 L241.62,37.21 C241.589428,37.6313845 241.508863,38.0476395 241.38,38.45 L239.83,43.26 L243.47,43.26 Z M245.25,30.26 C245.297649,31.0167034 245.105167,31.7691331 244.7,32.41 C244.362443,32.9026953 243.796928,33.1892229 243.2,33.17 C242.616291,33.1673503 242.042403,33.0195827 241.53,32.74 C241.158957,32.5050759 240.74378,32.3485339 240.31,32.28 C239.79,32.28 239.52,32.63 239.52,33.34 L238.13,33.34 C238.085621,32.591262 238.274266,31.84716 238.67,31.21 C239.013586,30.7072284 239.591499,30.4163834 240.2,30.44 C240.786194,30.4582987 241.357834,30.6270356 241.86,30.93 C242.218179,31.1632236 242.625471,31.3103962 243.05,31.36 C243.56,31.36 243.82,31 243.82,30.26 L245.25,30.26 Z M256.48,49.12 C254.605664,49.1894377 252.789389,48.4629278 251.48,47.12 C250.169907,45.721503 249.477899,43.8545224 249.56,41.94 C249.484081,39.9340148 250.202799,37.979103 251.56,36.5 C252.902596,35.0933338 254.787306,34.3350754 256.73,34.42 C258.58134,34.3479039 260.374046,35.0766461 261.65,36.42 C262.942919,37.8545367 263.618389,39.7408234 263.53,41.67 C263.606217,43.6640647 262.886737,45.6066589 261.53,47.07 C260.209226,48.4444204 258.364876,49.1901639 256.46,49.12 L256.48,49.12 Z M256.61,37.18 C255.568545,37.1432026 254.573675,37.612692 253.94,38.44 C253.237364,39.411422 252.884842,40.5923707 252.94,41.79 C252.879871,42.9851375 253.232987,44.1645456 253.94,45.13 C254.561099,45.924276 255.522075,46.3769369 256.53,46.35 C257.545323,46.3905258 258.520204,45.94942 259.16,45.16 C259.8686,44.2067748 260.222273,43.0361175 260.16,41.85 C260.235892,40.6309147 259.905299,39.4210855 259.22,38.41 C258.613815,37.6016296 257.649692,37.14199 256.64,37.18 L256.61,37.18 Z M280,48.88 L271.48,48.88 L271.48,34.67 L279.68,34.67 L279.68,37.28 L274.68,37.28 L274.68,40.44 L279.33,40.44 L279.33,43 L274.68,43 L274.68,46.25 L280,46.25 L280,48.85 L280,48.88 Z M297.85,37.28 L293.85,37.28 L293.85,48.88 L290.64,48.88 L290.64,37.28 L286.64,37.28 L286.64,34.67 L297.8,34.67 L297.8,37.28 L297.85,37.28 Z M308.29,48.88 L299.77,48.88 L299.77,34.67 L307.96,34.67 L307.96,37.28 L302.96,37.28 L302.96,40.44 L307.6,40.44 L307.6,43 L302.96,43 L302.96,46.25 L308.28,46.25 L308.28,48.85 L308.29,48.88 Z M320.75,48.38 C319.468971,48.9277906 318.082191,49.1839692 316.69,49.13 C314.783612,49.2365929 312.919641,48.5403239 311.55,47.21 C310.25431,45.8252556 309.5759,43.974063 309.67,42.08 C309.58547,40.0253511 310.348287,38.0261187 311.78,36.55 C313.229349,35.1210225 315.206357,34.357014 317.24,34.44 C318.431358,34.4075517 319.619222,34.5835317 320.75,34.96 L320.75,38 C319.765932,37.4220153 318.641036,37.1278118 317.5,37.15 C316.294631,37.1005797 315.123507,37.5574268 314.27,38.41 C313.416573,39.3340732 312.972965,40.5639126 313.04,41.82 C312.981275,43.0231919 313.397904,44.2012447 314.2,45.1 C315.018835,45.9323815 316.153726,46.376153 317.32,46.32 C318.524718,46.3334617 319.710397,46.0188936 320.75,45.41 L320.75,48.34 L320.75,48.38 Z M336,48.88 L332.78,48.88 L326.87,40 C326.613748,39.6222269 326.376778,39.2317275 326.16,38.83 L326.16,38.83 C326.16,39.33 326.24,40.09 326.24,41.12 L326.24,48.93 L323.24,48.93 L323.24,34.67 L326.69,34.67 L332.33,43.32 C332.59,43.71 332.82,44.1 333.04,44.48 L333.04,44.48 C332.970766,43.8157175 332.944045,43.1476901 332.96,42.48 L332.96,34.62 L335.96,34.62 L335.96,48.83 L336,48.88 Z M345.26,49.13 C343.385664,49.1994377 341.569389,48.4729278 340.26,47.13 C338.949907,45.731503 338.257899,43.8645224 338.34,41.95 C338.264081,39.9440148 338.982799,37.989103 340.34,36.51 C341.684838,35.1066459 343.567982,34.3490175 345.51,34.43 C347.36134,34.3579039 349.154046,35.0866461 350.43,36.43 C351.722919,37.8645367 352.398389,39.7508234 352.31,41.68 C352.386217,43.6740647 351.666737,45.6166589 350.31,47.08 C348.989226,48.4544204 347.144876,49.2001639 345.24,49.13 L345.26,49.13 Z M345.4,37.19 C344.355069,37.1499172 343.355744,37.6197487 342.72,38.45 C342.017364,39.421422 341.664842,40.6023707 341.72,41.8 C341.659871,42.9951375 342.012987,44.1745456 342.72,45.14 C343.371681,45.9042762 344.325606,46.3445113 345.33,46.3445113 C346.334394,46.3445113 347.288319,45.9042762 347.94,45.14 C348.6486,44.1867748 349.002273,43.0161175 348.94,41.83 C349.015892,40.6109147 348.685299,39.4010855 348,38.39 C347.396977,37.5832321 346.436571,37.1235824 345.43,37.16 L345.4,37.19 Z M363.1,48.88 L354.64,48.88 L354.64,34.67 L357.84,34.67 L357.84,46.28 L363.1,46.28 L363.1,48.88 L363.1,48.88 Z M370.51,49.13 C368.635445,49.2007021 366.818676,48.4739944 365.51,47.13 C364.195964,45.7339451 363.503317,43.8652406 363.59,41.95 C363.500507,39.9509683 364.200934,37.9969561 365.54,36.51 C366.882596,35.1033338 368.767306,34.3450754 370.71,34.43 C372.56134,34.3579039 374.354046,35.0866461 375.63,36.43 C376.920243,37.865538 377.5922,39.7520487 377.5,41.68 C377.592459,43.6656592 376.894959,45.6071536 375.56,47.08 C374.235414,48.4549103 372.387862,49.2004774 370.48,49.13 L370.51,49.13 Z M370.65,37.19 C369.605756,37.1532834 368.607898,37.6224253 367.97,38.45 C367.267364,39.421422 366.914842,40.6023707 366.97,41.8 C366.909871,42.9951375 367.262987,44.1745456 367.97,45.14 C368.595257,45.9345869 369.559263,46.3869283 370.57,46.36 C371.584703,46.3973581 372.558234,45.9568631 373.2,45.17 C373.904091,44.2145112 374.257265,43.0455059 374.2,41.86 C374.271377,40.6413824 373.941173,39.432979 373.26,38.42 C372.653815,37.6116296 371.689692,37.15199 370.68,37.19 L370.65,37.19 Z M391.55,47.93 C389.962919,48.7796538 388.179077,49.1936983 386.38,49.13 C384.399589,49.2355363 382.457995,48.5523829 380.98,47.23 C379.60522,45.8469759 378.878822,43.9474439 378.98,42 C378.903153,39.9606885 379.686979,37.9829787 381.14,36.55 C382.693118,35.0990893 384.767049,34.3380468 386.89,34.44 C388.249379,34.4104333 389.603357,34.6202999 390.89,35.06 L390.89,38.06 C389.662191,37.400285 388.283325,37.0728043 386.89,37.11 C385.673708,37.0652602 384.494523,37.5333059 383.64,38.4 C382.022343,40.376417 381.968611,43.2035426 383.51,45.24 C384.296767,46.0440603 385.385748,46.4796529 386.51,46.44 C387.132688,46.4664913 387.753693,46.3573036 388.33,46.12 L388.33,43.34 L385.49,43.34 L385.49,40.78 L391.49,40.78 L391.49,47.93 L391.55,47.93 Z M397.55,48.88 L394.35,48.88 L394.35,34.67 L397.55,34.67 L397.55,48.88 Z M413.27,48.88 L409.7,48.88 L408.7,45.72 L403.65,45.72 L402.65,48.88 L399.18,48.88 L404.35,34.67 L408.15,34.67 L413.2,48.88 L413.27,48.88 Z M408,43.26 L406.47,38.49 C406.349233,38.0719942 406.268865,37.6433623 406.23,37.21 L406.16,37.21 C406.121116,37.6310646 406.037306,38.0467624 405.91,38.45 L404.36,43.26 L408,43.26 Z M167.49,72.66 L158.97,72.66 L158.97,58.45 L167.17,58.45 L167.17,61.05 L162.17,61.05 L162.17,64.21 L166.82,64.21 L166.82,66.81 L162.17,66.81 L162.17,70.06 L167.49,70.06 L167.49,72.66 L167.49,72.66 Z M184.21,72.66 L181.33,72.66 L181.33,64.15 C181.33,63.24 181.33,62.22 181.45,61.15 L181.37,61.15 C181.32,61.36 181.27,61.58 181.21,61.79 C181.15,62 181.09,62.2 181.04,62.39 C180.99,62.58 180.92,62.74 180.86,62.89 C180.8,63.04 180.76,63.16 180.72,63.25 L178.02,68.43 L175.79,68.43 L173.18,63.23 C173.138196,63.1387674 173.101473,63.0452911 173.07,62.95 C173.07,62.82 172.97,62.67 172.92,62.49 C172.87,62.31 172.81,62.1 172.76,61.88 C172.697466,61.6394112 172.6474,61.3957533 172.61,61.15 L172.53,61.15 C172.53,61.77 172.6,62.34 172.62,62.87 C172.64,63.4 172.62,63.87 172.62,64.18 L172.62,72.7 L169.74,72.7 L169.74,58.45 L173.67,58.45 L176.17,63.38 C176.24,63.54 176.32,63.71 176.39,63.89 L176.6,64.42 C176.67,64.6 176.73,64.77 176.79,64.94 C176.843404,65.0937053 176.886828,65.2506986 176.92,65.41 L176.92,65.41 C176.92,65.27 177.01,65.1 177.05,64.92 L177.2,64.37 C177.2,64.19 177.31,64.01 177.37,63.83 C177.423743,63.669625 177.487193,63.5126684 177.56,63.36 L180.13,58.45 L184.13,58.45 L184.13,72.66 L184.21,72.66 Z M192.4,72.11 L192.4,68.94 C193.495968,69.8617549 194.878033,70.3742854 196.31,70.39 C196.663045,70.3934004 197.015325,70.3564949 197.36,70.28 C197.62664,70.2176994 197.882698,70.1166235 198.12,69.98 C198.303683,69.8636879 198.457752,69.7061945 198.57,69.52 C198.669544,69.3466151 198.721305,69.149924 198.72,68.95 C198.725164,68.6834114 198.640645,68.4228127 198.48,68.21 C198.298083,67.9725495 198.078511,67.7664899 197.83,67.6 C197.512091,67.3956507 197.177582,67.218361 196.83,67.07 C196.46,66.9 196.05,66.72 195.61,66.54 C194.658532,66.1860856 193.807408,65.606086 193.13,64.85 C192.5831,64.1640762 192.296207,63.3069409 192.32,62.43 C192.298413,61.7691279 192.450102,61.1141073 192.76,60.53 C193.053364,60.00057 193.46803,59.5482072 193.97,59.21 C194.514726,58.8552764 195.117054,58.5981029 195.75,58.45 C196.451634,58.2874051 197.16978,58.2068653 197.89,58.21 C198.558893,58.206306 199.227214,58.2497469 199.89,58.34 C200.430463,58.4216931 200.960311,58.5625386 201.47,58.76 L201.47,61.76 C201.223917,61.5899263 200.962835,61.4426497 200.69,61.32 C200.407831,61.1958817 200.117077,61.0922795 199.82,61.01 C199.530907,60.9308677 199.236946,60.8707392 198.94,60.83 C198.661664,60.7911675 198.381029,60.7711222 198.1,60.77 C197.76393,60.7647658 197.428378,60.798321 197.1,60.87 C196.836521,60.9273438 196.583519,61.0251713 196.35,61.16 C196.162687,61.2779133 195.99974,61.4306755 195.87,61.61 C195.762495,61.7878145 195.70706,61.9922342 195.71,62.2 C195.705079,62.4264791 195.767745,62.6492892 195.89,62.84 C196.038651,63.0488341 196.221166,63.2313494 196.43,63.38 C196.696827,63.5649361 196.97768,63.7287668 197.27,63.87 C197.6,64.04 197.97,64.2 198.39,64.37 C198.917242,64.58703 199.428511,64.840994 199.92,65.13 C200.316026,65.3721917 200.679042,65.6646206 201,66 C201.32306,66.3303894 201.577906,66.7211545 201.75,67.15 C201.926915,67.6333005 202.011711,68.1454699 202,68.66 C202.023998,69.3542261 201.869034,70.0429562 201.55,70.66 C201.258378,71.1911661 200.839102,71.6413721 200.33,71.97 C199.778447,72.3168174 199.168585,72.5607625 198.53,72.69 C197.818978,72.8330233 197.095256,72.9033851 196.37,72.9 C195.625745,72.9047393 194.882626,72.841139 194.15,72.71 C193.51527,72.595268 192.899443,72.3933576 192.32,72.11 L192.4,72.11 Z M216,66.5 C216,70.7666667 214,72.9 210,72.9 C206.14,72.9 204.21,70.8166667 204.21,66.65 L204.21,58.45 L207.42,58.45 L207.42,66.69 C207.42,68.99 208.32,70.14 210.12,70.14 C211.92,70.14 212.8,69.03 212.76,66.81 L212.76,58.45 L216,58.45 L216,66.5 Z M218.44,72.11 L218.44,68.94 C219.535968,69.8617549 220.918033,70.3742854 222.35,70.39 C222.706373,70.3939008 223.062022,70.3569939 223.41,70.28 C223.674054,70.2195269 223.927083,70.118315 224.16,69.98 C224.343683,69.8636879 224.497752,69.7061945 224.61,69.52 C224.709544,69.3466151 224.761305,69.149924 224.76,68.95 C224.765164,68.6834114 224.680645,68.4228127 224.52,68.21 C224.340674,67.9702189 224.120673,67.7637563 223.87,67.6 C223.552432,67.395069 223.217873,67.2177525 222.87,67.07 C222.49,66.9 222.09,66.72 221.65,66.54 C220.695883,66.1912264 219.843592,65.6104314 219.17,64.85 C218.616403,64.1671627 218.325523,63.3087136 218.35,62.43 C218.331483,61.7682343 218.486632,61.1131612 218.8,60.53 C219.090167,59.9982765 219.505467,59.5452218 220.01,59.21 C220.553844,58.8536268 221.156472,58.5963248 221.79,58.45 C222.491432,58.28623 223.209716,58.2056747 223.93,58.21 C224.598916,58.2054969 225.267295,58.2489415 225.93,58.34 C226.473442,58.4229886 227.006466,58.5637873 227.52,58.76 L227.52,61.76 C227.273917,61.5899263 227.012835,61.4426497 226.74,61.32 C226.457831,61.1958817 226.167077,61.0922795 225.87,61.01 C225.577542,60.9308016 225.28025,60.8706751 224.98,60.83 C224.705015,60.7911915 224.427708,60.7711452 224.15,60.77 C223.813885,60.763666 223.478205,60.797234 223.15,60.87 C222.883901,60.9291562 222.627866,61.0268536 222.39,61.16 C222.203444,61.2752956 222.043294,61.4286307 221.92,61.61 C221.802865,61.7839734 221.743394,61.9903722 221.75,62.2 C221.743456,62.4281372 221.810031,62.6523898 221.94,62.84 C222.08199,63.0510335 222.261657,63.234091 222.47,63.38 C222.739037,63.5669666 223.02338,63.7308822 223.32,63.87 C223.64,64.04 224.02,64.2 224.44,64.37 C224.963117,64.5890029 225.470927,64.8429081 225.96,65.13 C226.391376,65.3760228 226.785362,65.6824565 227.13,66.04 C227.45009,66.3707829 227.701584,66.7616179 227.87,67.19 C228.050322,67.6726481 228.138513,68.1848371 228.13,68.7 C228.153998,69.3942261 227.999034,70.0829562 227.68,70.7 C227.384549,71.2315972 226.961951,71.6816815 226.45,72.01 C225.901196,72.3551221 225.294925,72.598985 224.66,72.73 C223.945532,72.872544 223.218543,72.9428977 222.49,72.94 C221.745745,72.9447393 221.002626,72.881139 220.27,72.75 C219.635733,72.6334428 219.02015,72.4316124 218.44,72.15 L218.44,72.11 Z M240.44,61.05 L236.44,61.05 L236.44,72.66 L233.23,72.66 L233.23,61.05 L229.23,61.05 L229.23,58.45 L240.4,58.45 L240.4,61.05 L240.44,61.05 Z M250.88,72.66 L242.35,72.66 L242.35,58.45 L250.55,58.45 L250.55,61.05 L245.55,61.05 L245.55,64.21 L250.19,64.21 L250.19,66.81 L245.55,66.81 L245.55,70.06 L250.87,70.06 L250.87,72.66 L250.88,72.66 Z M265.88,72.66 L262.65,72.66 L256.8,63.73 C256.46,63.21 256.22,62.82 256.08,62.55 L256.08,62.55 C256.13,63.05 256.15,63.82 256.15,64.85 L256.15,72.66 L253.15,72.66 L253.15,58.45 L256.6,58.45 L262.24,67.1 C262.49,67.49 262.73,67.87 262.95,68.26 L262.95,68.26 C262.880982,67.5957019 262.854262,66.9276883 262.87,66.26 L262.87,58.41 L265.87,58.41 L265.87,72.62 L265.88,72.66 Z M279.11,61.05 L275.05,61.05 L275.05,72.66 L271.85,72.66 L271.85,61.05 L267.85,61.05 L267.85,58.45 L279.15,58.45 L279.15,61.05 L279.11,61.05 Z M292.11,72.66 L288.62,72.66 L287.62,69.49 L282.57,69.49 L281.57,72.66 L278.1,72.66 L283.27,58.45 L287.06,58.45 L292.12,72.66 L292.11,72.66 Z M286.88,67 L285.35,62.22 C285.228263,61.8056296 285.14787,61.3802193 285.11,60.95 L285,60.95 C284.968462,61.3679863 284.887909,61.7808178 284.76,62.18 L283.24,67 L286.88,67 Z M293.88,72.62 L293.88,58.45 L299.05,58.45 C300.329242,58.3710852 301.603101,58.6738878 302.71,59.32 C303.539745,59.8577011 304.025839,60.7919138 303.99,61.78 C303.993381,62.521523 303.714517,63.2365571 303.21,63.78 C302.6714,64.3625295 301.977455,64.7788966 301.21,64.98 L301.21,64.98 C302.123207,65.0573927 302.979988,65.4539196 303.63,66.1 C304.230051,66.6969115 304.558987,67.5138301 304.54,68.36 C304.589279,69.5564792 304.070201,70.7058667 303.14,71.46 C302.043427,72.2768212 300.69537,72.6837149 299.33,72.61 L293.88,72.62 Z M297.08,60.77 L297.08,64.13 L298.49,64.13 C299.051305,64.1670332 299.606604,63.9961718 300.05,63.65 C300.43428,63.3220981 300.64481,62.8345543 300.62,62.33 C300.62,61.29 299.84,60.77 298.28,60.77 L297.08,60.77 Z M297.08,66.51 L297.08,70.26 L298.81,70.26 C299.433243,70.2978868 300.049743,70.1136455 300.55,69.74 C300.972362,69.3969944 301.20628,68.8734626 301.18,68.33 C301.204224,67.8117633 300.97249,67.3146559 300.56,67 C300.056253,66.6438098 299.445713,66.4708824 298.83,66.51 L297.08,66.51 Z M310.08,72.62 L306.88,72.62 L306.88,58.45 L310.08,58.45 L310.08,72.66 L310.08,72.62 Z M321.77,72.62 L313.31,72.62 L313.31,58.45 L316.51,58.45 L316.51,70.06 L321.77,70.06 L321.77,72.66 L321.77,72.62 Z M326.88,72.62 L323.68,72.62 L323.68,58.45 L326.88,58.45 L326.88,72.66 L326.88,72.62 Z M330.11,72.62 L330.11,58.45 L335.11,58.45 C340.163333,58.45 342.686667,60.7566667 342.68,65.37 C342.771517,67.3500626 342.019274,69.2760953 340.61,70.67 C339.118921,72.0470382 337.137318,72.7676211 335.11,72.67 L330.11,72.62 Z M333.31,61.01 L333.31,70.01 L334.89,70.01 C336.107954,70.0759765 337.296622,69.6215927 338.16,68.76 C338.983132,67.8247659 339.40678,66.6040859 339.34,65.36 C339.405663,64.1809581 338.982419,63.0269867 338.17,62.17 C337.27425,61.3485069 336.083167,60.926214 334.87,61 L333.31,61.01 Z M357.25,72.62 L353.77,72.62 L352.77,69.45 L347.77,69.45 L346.77,72.62 L343.3,72.62 L348.48,58.41 L352.27,58.41 L357.27,72.62 L357.25,72.62 Z M352,67 L350.48,62.22 C350.348682,61.807994 350.268088,61.381514 350.24,60.95 L350.16,60.95 C350.119898,61.3676127 350.036106,61.7798678 349.91,62.18 L348.4,67 L352,67 Z M359,72.62 L359,58.45 L364,58.45 C369.04,58.45 371.563333,60.7566667 371.57,65.37 C371.661517,67.3500626 370.909274,69.2760953 369.5,70.67 C368.008326,72.0460607 366.027147,72.7664895 364,72.67 L359,72.62 Z M362.21,61.01 L362.21,70.01 L363.79,70.01 C365.007554,70.0734368 366.195225,69.6194342 367.06,68.76 C367.883132,67.8247659 368.30678,66.6040859 368.24,65.36 C368.305663,64.1809581 367.882419,63.0269867 367.07,62.17 C366.17425,61.3485069 364.983167,60.926214 363.77,61 L362.21,61.01 Z M382.49,72.62 L374,72.62 L374,58.45 L382.2,58.45 L382.2,61.05 L377.2,61.05 L377.2,64.21 L381.84,64.21 L381.84,66.81 L377.2,66.81 L377.2,70.06 L382.52,70.06 L382.52,72.66 L382.49,72.62 Z" id="Shape" fill="#1D1D1B" fill-rule="nonzero"></path>
            <path d="M28.86,69.58 C54,43.37 84.08,31.39 96,42.82 C107.92,54.25 97.16,84.77 72,110.98 C46.84,137.19 16.78,149.17 4.87,137.73 C-7.04,126.29 3.72,95.79 28.87,69.58 L28.86,69.58 Z M37.62,67.2 C58.62,44.82 83.81,34.4 93.97,43.92 C104.13,53.44 95.39,79.3 74.44,101.67 C53.49,124.04 28.25,134.48 18.08,125 C7.91,115.52 16.66,89.62 37.62,67.24 L37.62,67.2 Z" id="Shape" fill="#E30613"></path>
            <path d="M109.41,69.58 C84.24,43.37 54.19,31.39 42.28,42.82 C30.37,54.25 41.13,84.77 66.28,110.98 C91.43,137.19 121.5,149.17 133.41,137.73 C145.32,126.29 134.56,95.79 109.41,69.58 L109.41,69.58 Z M100.65,67.2 C79.65,44.82 54.46,34.4 44.3,43.92 C34.14,53.44 42.88,79.3 63.84,101.67 C84.8,124.04 110,134.48 120.19,125 C130.38,115.52 121.61,89.62 100.65,67.24 L100.65,67.2 Z" id="Shape" fill="#009640"></path>
            <path d="M66.29,31.09 C41.13,57.3 30.38,87.81 42.29,99.24 C54.2,110.67 84.29,98.7 109.42,72.49 C134.55,46.28 145.33,15.76 133.42,4.33 C121.51,-7.1 91.42,4.88 66.29,31.09 L66.29,31.09 Z M64.29,39.93 C42.78,61.78 33.39,87.41 43.29,97.18 C53.19,106.95 78.69,97.18 100.2,75.32 C121.71,53.46 131.11,27.84 121.2,18.07 C111.29,8.3 85.79,18.07 64.28,39.93 L64.29,39.93 Z" id="Shape" fill="#FBBA00"></path>
            <path d="M72,31.09 C97.17,57.3 107.92,87.81 96,99.24 C84.08,110.67 54,98.7 28.87,72.49 C3.74,46.28 -7.04,15.76 4.87,4.33 C16.78,-7.1 46.87,4.88 72,31.09 L72,31.09 Z M74,39.93 C95.51,61.78 104.9,87.41 95,97.18 C85.1,106.95 59.59,97.18 38.08,75.32 C16.57,53.46 7.18,27.84 17.08,18.07 C26.98,8.3 52.49,18.07 74,39.93 Z" id="Shape" fill="#0069B4"></path>
        </g>
    </g>
</svg>