<?xml version="1.0" encoding="UTF-8"?>
<svg width="177px" height="139px" viewBox="0 0 177 139" version="1.1" xmlns="http://www.w3.org/2000/svg" xmlns:xlink="http://www.w3.org/1999/xlink">
    <!-- Generator: Sketch 62 (91390) - https://sketch.com -->
    <title>SENAI e FIEP</title>
    <desc>Created with Sketch.</desc>
    <g id="Page-1" stroke="none" stroke-width="1" fill="none" fill-rule="evenodd">
        <g id="SENAI-e-FIEP" fill="#005CA8" fill-rule="nonzero">
            <g id="Group" transform="translate(0.000000, 80.000000)">
                <g transform="translate(43.000000, 0.000000)">
                    <path d="M74,10.3 C73.6,10.1 73.2,9.9 72.7,9.8 C72.2,9.7 71.7,9.6 71.1,9.6 L68.7,9.5 L67.7,15.1 L70.6,15.1 C71.2,15.1 71.7,15.1 72.2,15 C72.7,14.9 73.1,14.7 73.5,14.4 C73.9,14.1 74.2,13.8 74.4,13.4 C74.6,13.1 74.8,12.7 74.8,12.2 C74.9,11.7 74.9,11.3 74.7,11 C74.6,10.8 74.3,10.5 74,10.3 Z" id="Path"></path>
                    <path d="M90.4,5.2 L90.4,0.6 L0,0.6 L0,5.2 L6.7,5.2 L6.7,6 L0,6 L0,10.5 L6.7,10.5 L6.7,11.3 L0,11.3 L0,16 L6.7,16 L6.7,16.8 L0,16.8 L0,21.5 L6.7,21.5 L6.7,22.3 L0,22.3 L0,26.8 L6.7,26.8 L6.7,27.6 L0,27.6 L0,32.2 L90.4,32.2 L90.4,27.6 L83.7,27.6 L83.7,27 L90.4,27 L90.4,22.5 L83.7,22.5 L83.7,21.7 L90.4,21.7 L90.4,17 L83.7,17 L83.7,16 L90.4,16 L90.4,11.3 L83.7,11.3 L83.7,10.5 L90.4,10.5 L90.4,6 L83.7,6 L83.7,5.2 L90.4,5.2 Z M26,15 L25.2,19.4 L16.4,19.4 L15,27.8 L8.6,27.8 L12.5,5.2 L28.5,5.2 L27.7,9.8 L18,9.8 L17.1,15 L26,15 Z M34.1,27.8 L27.7,27.8 L31.6,5.2 L38,5.2 L34.1,27.8 Z M58.3,9.8 L47.5,9.8 L46.7,14.2 L56.8,14.2 L56,18.9 L45.9,18.9 L45.1,23.3 L56,23.3 L55.2,27.7 L38,27.7 L41.9,5.1 L59.1,5.1 L58.3,9.8 Z M81.4,12.4 C81.2,13.6 80.8,14.6 80.4,15.5 C79.9,16.4 79.3,17.1 78.5,17.6 C77.8,18.1 77,18.5 76.2,18.9 C75.4,19.2 74.6,19.5 73.8,19.6 C73.6,19.6 73.5,19.6 73.3,19.7 C73.1,19.7 73,19.7 72.8,19.7 C72.6,19.7 72.5,19.7 72.3,19.7 L71.8,19.7 L66.9,19.6 L65.5,27.7 L59.1,27.7 L63,5.1 L74,5.1 C75.5,5.1 76.8,5.3 77.9,5.6 C79,5.9 79.8,6.4 80.3,7 C80.9,7.6 81.2,8.3 81.4,9.2 C81.7,10.2 81.6,11.2 81.4,12.4 Z" id="Shape"></path>
                </g>
                <g transform="translate(0.000000, 37.000000)">
                    <polygon id="Path" points="1.8 0.5 5.5 0.5 5.3 1.2 2.5 1.2 2.1 3.1 4.8 3.1 4.6 3.8 1.9 3.8 1.3 6.6 0.4 6.6"></polygon>
                    <path d="M5.6,4.7 C5.4,5.6 5.6,6.3 6.5,6.3 C7,6.3 7.5,6 7.7,5.4 L8.5,5.4 C8.4,5.6 8.3,6 7.9,6.3 C7.7,6.5 7.2,6.9 6.3,6.9 C4.9,6.9 4.5,6.1 4.8,4.7 C5,3.8 5.3,3.1 6.1,2.7 C6.6,2.4 7.1,2.4 7.3,2.4 C9.2,2.4 8.8,4.1 8.7,4.8 L5.6,4.8 L5.6,4.7 Z M8,4.2 C8.1,3.8 8.2,2.9 7.2,2.9 C6.7,2.9 6,3.2 5.7,4.2 L8,4.2 Z" id="Shape"></path>
                    <path d="M13.5,0.5 L14.3,0.5 L13.1,6 C13.1,6.1 13,6.5 13,6.7 L12.2,6.7 L12.3,6 C12.2,6.1 12.1,6.3 11.8,6.5 C11.4,6.7 11,6.8 10.7,6.8 C10.1,6.8 8.9,6.5 9.3,4.6 C9.7,2.9 10.7,2.2 11.8,2.2 C12.7,2.2 12.9,2.8 13,2.9 L13.5,0.5 Z M12.7,3.3 C12.6,3.1 12.3,2.9 11.8,2.9 C10.6,2.9 10.3,4.3 10.2,4.6 C10,5.4 10,6.3 11,6.3 C12.3,6.3 12.6,4.9 12.7,4.6 C12.9,3.9 12.8,3.6 12.7,3.3 Z" id="Shape"></path>
                    <path d="M15.1,4.7 C14.9,5.6 15.1,6.3 16,6.3 C16.5,6.3 17,6 17.2,5.4 L18,5.4 C17.9,5.6 17.8,6 17.4,6.3 C17.2,6.5 16.7,6.9 15.8,6.9 C14.4,6.9 14,6.1 14.3,4.7 C14.5,3.8 14.8,3.1 15.6,2.7 C16.1,2.4 16.6,2.4 16.8,2.4 C18.7,2.4 18.3,4.1 18.2,4.8 L15.1,4.8 L15.1,4.7 Z M17.5,4.2 C17.6,3.8 17.7,2.9 16.7,2.9 C16.2,2.9 15.5,3.2 15.2,4.2 L17.5,4.2 Z" id="Shape"></path>
                    <path d="M19.5,3.3 C19.6,3 19.6,2.7 19.6,2.4 L20.4,2.4 L20.2,3.2 C20.5,2.6 21,2.4 21.4,2.3 C21.7,2.3 21.8,2.3 22,2.3 L21.8,3.1 C21.8,3.1 21.7,3.1 21.7,3.1 C21.7,3.1 21.6,3.1 21.5,3.1 C20.5,3.1 20.2,3.7 20,4.4 L19.5,6.7 L18.7,6.7 L19.5,3.3 Z" id="Path"></path>
                    <path d="M24.4,6.8 C24.4,6.6 24.4,6.4 24.5,6.2 C24,6.9 23.4,7 23,7 C22,7 21.6,6.4 21.7,5.7 C21.8,5.4 22,4.8 22.7,4.4 C23.2,4.1 23.9,4.1 24.3,4.1 C24.5,4.1 24.6,4.1 24.9,4.1 C25,3.6 25.1,3.3 24.9,3.1 C24.8,2.9 24.4,2.8 24.2,2.8 C23.4,2.8 23.2,3.4 23.2,3.5 L22.4,3.5 C22.5,3.3 22.6,3 22.9,2.7 C23.3,2.3 23.9,2.2 24.4,2.2 C25,2.2 25.7,2.4 25.8,2.8 C25.9,3.1 25.9,3.3 25.8,3.5 L25.3,5.6 C25.3,5.7 25.2,6.2 25.1,6.7 L24.4,6.7 L24.4,6.8 Z M24.3,4.6 C24,4.6 22.7,4.6 22.5,5.5 C22.4,5.8 22.5,6.3 23.2,6.3 C23.6,6.3 24,6.1 24.2,5.8 C24.4,5.5 24.5,5.3 24.7,4.7 C24.6,4.6 24.5,4.6 24.3,4.6 Z" id="Shape"></path>
                    <path d="M29.9,5.3 C29.7,6.1 29,6.8 28,6.8 L27.6,7.2 C27.7,7.2 27.8,7.2 27.9,7.2 C28.4,7.2 28.5,7.6 28.5,7.8 C28.5,7.9 28.3,8.6 27.3,8.6 C26.9,8.6 26.7,8.5 26.5,8.4 L26.7,8.1 C26.8,8.2 26.9,8.2 27.3,8.2 C27.6,8.2 27.8,8.1 27.8,7.9 C27.9,7.6 27.6,7.6 27.4,7.6 C27.3,7.6 27.2,7.6 27.1,7.7 L27,7.6 L27.6,7 C26.3,6.8 26.1,5.8 26.3,4.8 C26.7,2.9 28,2.4 28.8,2.4 C29.1,2.4 29.7,2.5 30,2.9 C30.2,3.3 30.2,3.6 30.2,3.9 L29.4,3.9 C29.4,3.7 29.5,3 28.7,3 C27.6,3 27.3,4.3 27.2,4.6 C27,5.5 27,6.3 27.9,6.3 C28.6,6.3 28.9,5.8 29,5.4 L29.9,5.4 L29.9,5.3 Z" id="Path"></path>
                    <path d="M32.9,6.8 C32.9,6.6 32.9,6.4 33,6.2 C32.5,6.9 31.9,7 31.5,7 C30.5,7 30.1,6.4 30.2,5.7 C30.3,5.4 30.5,4.8 31.2,4.4 C31.7,4.1 32.4,4.1 32.8,4.1 C33,4.1 33.1,4.1 33.4,4.1 C33.5,3.6 33.6,3.3 33.4,3.1 C33.3,2.9 32.9,2.8 32.7,2.8 C31.9,2.8 31.7,3.4 31.7,3.5 L30.9,3.5 C31,3.3 31.1,3 31.4,2.7 C31.8,2.3 32.4,2.2 32.9,2.2 C33.5,2.2 34.2,2.4 34.3,2.8 C34.4,3.1 34.4,3.3 34.3,3.5 L33.8,5.6 C33.8,5.7 33.7,6.2 33.6,6.7 L32.9,6.7 L32.9,6.8 Z M32.8,4.6 C32.5,4.6 31.2,4.6 31,5.5 C30.9,5.8 31,6.3 31.7,6.3 C32.1,6.3 32.5,6.1 32.7,5.8 C32.9,5.5 33,5.3 33.2,4.7 C33.2,4.6 33,4.6 32.8,4.6 Z M31.8,1.5 C31.9,1.3 32,1 32.1,0.9 C32.3,0.7 32.5,0.7 32.7,0.7 C32.8,0.7 32.9,0.7 33.3,0.8 C33.4,0.8 33.5,0.9 33.6,0.9 C33.8,0.9 33.9,0.8 34,0.6 L34.4,0.6 C34.3,1.3 33.8,1.5 33.5,1.5 C33.3,1.5 33.2,1.5 33,1.4 C32.8,1.4 32.6,1.3 32.6,1.3 C32.5,1.3 32.3,1.4 32.2,1.6 L31.8,1.6 L31.8,1.5 Z" id="Shape"></path>
                    <path d="M37.6,2.3 C39.3,2.3 39.4,3.7 39.3,4.6 C39,5.9 38.1,6.9 36.6,6.9 C35.2,6.9 34.7,5.9 34.9,4.6 C35.2,3.6 35.9,2.3 37.6,2.3 Z M36.7,6.3 C37.3,6.3 38.1,5.9 38.4,4.6 C38.6,3.5 38.3,2.9 37.5,2.9 C37,2.9 36.1,3.2 35.8,4.6 C35.6,5.5 35.8,6.3 36.7,6.3 Z" id="Shape"></path>
                    <path d="M46.2,0.5 L47,0.5 L45.8,6 C45.8,6.1 45.7,6.5 45.7,6.7 L44.9,6.7 L45,6 C44.9,6.1 44.8,6.3 44.5,6.5 C44.1,6.7 43.7,6.8 43.4,6.8 C42.8,6.8 41.6,6.5 42,4.6 C42.4,2.9 43.4,2.2 44.5,2.2 C45.4,2.2 45.6,2.8 45.7,2.9 L46.2,0.5 Z M45.3,3.3 C45.2,3.1 44.9,2.9 44.4,2.9 C43.2,2.9 42.9,4.3 42.8,4.6 C42.6,5.4 42.6,6.3 43.6,6.3 C44.9,6.3 45.2,4.9 45.3,4.6 C45.5,3.9 45.5,3.6 45.3,3.3 Z" id="Shape"></path>
                    <path d="M49.5,6.8 C49.5,6.6 49.5,6.4 49.6,6.2 C49.1,6.9 48.5,7 48.1,7 C47.1,7 46.7,6.4 46.8,5.7 C46.9,5.4 47.1,4.8 47.8,4.4 C48.3,4.1 49,4.1 49.4,4.1 C49.6,4.1 49.7,4.1 50,4.1 C50.1,3.6 50.2,3.3 50,3.1 C49.9,2.9 49.5,2.8 49.3,2.8 C48.5,2.8 48.3,3.4 48.3,3.5 L47.5,3.5 C47.6,3.3 47.7,3 48,2.7 C48.4,2.3 49,2.2 49.5,2.2 C50.1,2.2 50.8,2.4 50.9,2.8 C51,3.1 51,3.3 50.9,3.5 L50.4,5.6 C50.4,5.7 50.3,6.2 50.2,6.7 L49.5,6.7 L49.5,6.8 Z M49.4,4.6 C49.1,4.6 47.8,4.6 47.6,5.5 C47.5,5.8 47.6,6.3 48.3,6.3 C48.7,6.3 49.1,6.1 49.3,5.8 C49.5,5.5 49.6,5.3 49.8,4.7 C49.7,4.6 49.6,4.6 49.4,4.6 Z" id="Shape"></path>
                    <path d="M52.1,5.5 C52,5.8 52.1,6.3 52.9,6.3 C53.2,6.3 53.5,6.2 53.7,6 C53.8,5.9 53.9,5.7 53.9,5.6 C54,5.2 53.7,5.1 53.1,5 C52.2,4.8 51.5,4.6 51.7,3.7 C51.9,2.9 52.7,2.4 53.7,2.4 C54.2,2.4 55,2.6 55.1,3.1 C55.2,3.3 55.1,3.6 55.1,3.7 L54.3,3.7 C54.5,3 53.9,3 53.6,3 C53.5,3 52.7,3 52.6,3.6 C52.5,4 52.9,4.1 53.1,4.2 C54.2,4.5 54.5,4.6 54.7,4.8 C54.9,5 54.9,5.3 54.9,5.6 C54.8,6.1 54.4,6.5 54.1,6.7 C53.7,6.9 53.2,7 52.7,7 C51.8,7 51.1,6.6 51.3,5.6 L52.1,5.6 L52.1,5.5 Z" id="Path"></path>
                    <polygon id="Path" points="58.8 0.5 59.7 0.5 58.4 6.7 57.5 6.7"></polygon>
                    <path d="M60.5,2.9 L60.6,2.4 L61.4,2.4 L61.3,3.1 C61.4,2.9 61.9,2.3 62.9,2.3 C63.3,2.3 64.4,2.4 64.2,3.8 L63.6,6.8 L62.8,6.8 L63.4,4 C63.5,3.7 63.5,3.5 63.3,3.3 C63.1,3.1 62.9,3 62.6,3 C62,3 61.4,3.4 61.2,4.3 L60.7,6.8 L59.9,6.8 L60.5,2.9 Z" id="Path"></path>
                    <path d="M68.9,0.5 L69.7,0.5 L68.5,6 C68.5,6.1 68.4,6.5 68.4,6.7 L67.6,6.7 L67.7,6 C67.6,6.1 67.5,6.3 67.2,6.5 C66.8,6.7 66.4,6.8 66.1,6.8 C65.5,6.8 64.3,6.5 64.7,4.6 C65.1,2.9 66.1,2.2 67.2,2.2 C68.1,2.2 68.3,2.8 68.4,2.9 L68.9,0.5 Z M68,3.3 C67.9,3.1 67.6,2.9 67.1,2.9 C65.9,2.9 65.6,4.3 65.5,4.6 C65.3,5.4 65.3,6.3 66.3,6.3 C67.6,6.3 67.9,4.9 68,4.6 C68.2,3.9 68.2,3.6 68,3.3 Z" id="Shape"></path>
                    <path d="M71.3,2.4 L70.7,5.2 C70.6,5.6 70.6,6.2 71.4,6.2 C71.8,6.2 72.2,6.1 72.5,5.7 C72.7,5.4 72.8,5.1 72.9,4.9 L73.4,2.4 L74.2,2.4 L73.4,5.9 C73.4,6 73.3,6.5 73.3,6.7 L72.5,6.7 L72.6,6 C72.4,6.3 72,6.8 71.1,6.8 C70,6.8 69.7,6.2 69.8,5.3 L70.4,2.4 L71.3,2.4 L71.3,2.4 Z M73.9,0.4 L72.6,1.6 L72,1.6 L73,0.4 L73.9,0.4 Z" id="Shape"></path>
                    <path d="M75.3,5.5 C75.2,5.8 75.3,6.3 76.1,6.3 C76.4,6.3 76.7,6.2 76.9,6 C77,5.9 77.1,5.7 77.1,5.6 C77.2,5.2 76.9,5.1 76.3,5 C75.4,4.8 74.7,4.6 74.9,3.7 C75.1,2.9 75.9,2.4 76.9,2.4 C77.4,2.4 78.2,2.6 78.3,3.1 C78.4,3.3 78.3,3.6 78.3,3.7 L77.5,3.7 C77.7,3 77.1,3 76.8,3 C76.7,3 75.9,3 75.8,3.6 C75.7,4 76.1,4.1 76.3,4.2 C77.4,4.5 77.7,4.6 77.9,4.8 C78.1,5 78.1,5.3 78.1,5.6 C78,6.1 77.6,6.5 77.3,6.7 C76.9,6.9 76.4,7 75.9,7 C75,7 74.3,6.6 74.5,5.6 L75.3,5.6 L75.3,5.5 Z" id="Path"></path>
                    <path d="M78.9,2.4 L79.7,2.4 L79.9,1.5 L80.8,1.2 L80.5,2.4 L81.5,2.4 L81.4,3 L80.4,3 L79.8,5.6 C79.8,5.8 79.7,6.2 80.3,6.2 C80.5,6.2 80.6,6.2 80.7,6.2 L80.6,6.8 C80.4,6.8 80.2,6.9 79.9,6.9 C79.2,6.9 78.8,6.7 79,6 L79.6,3.1 L78.8,3.1 L78.9,2.4 Z" id="Path"></path>
                    <path d="M82,3.3 C82.1,3 82.1,2.7 82.1,2.4 L82.9,2.4 L82.7,3.2 C83,2.6 83.5,2.4 83.9,2.3 C84.2,2.3 84.3,2.3 84.5,2.3 L84.3,3.1 C84.3,3.1 84.2,3.1 84.2,3.1 C84.2,3.1 84.1,3.1 84,3.1 C83,3.1 82.7,3.7 82.5,4.4 L82,6.7 L81.2,6.7 L82,3.3 Z" id="Path"></path>
                    <path d="M85.2,2.4 L86,2.4 L85.1,6.7 L84.3,6.7 L85.2,2.4 Z M85.5,0.5 L86.5,0.5 L86.3,1.4 L85.3,1.4 L85.5,0.5 Z" id="Shape"></path>
                    <path d="M89,6.8 C89,6.6 89,6.4 89.1,6.2 C88.6,6.9 88,7 87.6,7 C86.6,7 86.2,6.4 86.3,5.7 C86.4,5.4 86.6,4.8 87.3,4.4 C87.8,4.1 88.5,4.1 88.9,4.1 C89.1,4.1 89.2,4.1 89.5,4.1 C89.6,3.6 89.7,3.3 89.5,3.1 C89.4,2.9 89,2.8 88.8,2.8 C88,2.8 87.8,3.4 87.8,3.5 L87,3.5 C87.1,3.3 87.2,3 87.5,2.7 C87.9,2.3 88.5,2.2 89,2.2 C89.6,2.2 90.3,2.4 90.4,2.8 C90.5,3.1 90.5,3.3 90.4,3.5 L89.9,5.6 C89.9,5.7 89.8,6.2 89.7,6.7 L89,6.7 L89,6.8 Z M88.9,4.6 C88.6,4.6 87.3,4.6 87.1,5.5 C87,5.8 87.1,6.3 87.8,6.3 C88.2,6.3 88.6,6.1 88.8,5.8 C89,5.5 89.1,5.3 89.2,4.7 C89.2,4.6 89.1,4.6 88.9,4.6 Z" id="Shape"></path>
                    <path d="M91.6,5.5 C91.5,5.8 91.6,6.3 92.4,6.3 C92.7,6.3 93,6.2 93.2,6 C93.3,5.9 93.4,5.7 93.4,5.6 C93.5,5.2 93.2,5.1 92.6,5 C91.7,4.8 91,4.6 91.2,3.7 C91.4,2.9 92.2,2.4 93.2,2.4 C93.7,2.4 94.5,2.6 94.6,3.1 C94.7,3.3 94.6,3.6 94.6,3.7 L93.8,3.7 C94,3 93.4,3 93.1,3 C93,3 92.2,3 92.1,3.6 C92,4 92.4,4.1 92.6,4.2 C93.7,4.5 94,4.6 94.2,4.8 C94.4,5 94.4,5.3 94.4,5.6 C94.3,6.1 93.9,6.5 93.6,6.7 C93.2,6.9 92.7,7 92.3,7 C91.4,7 90.7,6.6 90.9,5.6 L91.6,5.6 L91.6,5.5 Z" id="Path"></path>
                    <path d="M101.3,0.5 L102.1,0.5 L100.9,6 C100.9,6.1 100.8,6.5 100.8,6.7 L100,6.7 L100.1,6 C100,6.1 99.9,6.3 99.6,6.5 C99.2,6.7 98.8,6.8 98.5,6.8 C97.9,6.8 96.7,6.5 97.1,4.6 C97.5,2.9 98.5,2.2 99.6,2.2 C100.5,2.2 100.7,2.8 100.8,2.9 L101.3,0.5 Z M100.4,3.3 C100.3,3.1 100,2.9 99.5,2.9 C98.3,2.9 98,4.3 97.9,4.6 C97.7,5.4 97.7,6.3 98.7,6.3 C100,6.3 100.3,4.9 100.4,4.6 C100.6,3.9 100.6,3.6 100.4,3.3 Z" id="Shape"></path>
                    <path d="M104.8,2.3 C106.5,2.3 106.6,3.7 106.5,4.6 C106.2,5.9 105.3,6.9 103.8,6.9 C102.4,6.9 101.9,5.9 102.1,4.6 C102.3,3.6 103.1,2.3 104.8,2.3 Z M103.9,6.3 C104.5,6.3 105.3,5.9 105.6,4.6 C105.8,3.5 105.5,2.9 104.7,2.9 C104.2,2.9 103.3,3.2 103,4.6 C102.8,5.5 103,6.3 103.9,6.3 Z" id="Shape"></path>
                    <polygon id="Path" points="110.3 0.5 114.2 0.5 114 1.2 111 1.2 110.6 3.1 113.5 3.1 113.3 3.8 110.4 3.8 110 6 113.1 6 112.9 6.8 108.9 6.8"></polygon>
                    <path d="M114.8,5.5 C114.7,5.8 114.8,6.3 115.6,6.3 C115.9,6.3 116.2,6.2 116.4,6 C116.5,5.9 116.6,5.7 116.6,5.6 C116.7,5.2 116.4,5.1 115.8,5 C114.9,4.8 114.2,4.6 114.4,3.7 C114.6,2.9 115.4,2.4 116.4,2.4 C116.9,2.4 117.7,2.6 117.8,3.1 C117.9,3.3 117.8,3.6 117.8,3.7 L117,3.7 C117.2,3 116.6,3 116.3,3 C116.2,3 115.4,3 115.3,3.6 C115.2,4 115.6,4.1 115.8,4.2 C116.9,4.5 117.2,4.6 117.4,4.8 C117.6,5 117.6,5.3 117.6,5.6 C117.5,6.1 117.1,6.5 116.8,6.7 C116.4,6.9 115.9,7 115.5,7 C114.6,7 113.9,6.6 114.1,5.6 L114.8,5.6 L114.8,5.5 Z" id="Path"></path>
                    <path d="M118.3,2.4 L119.1,2.4 L119.3,1.5 L120.2,1.2 L119.9,2.4 L120.9,2.4 L120.8,3 L119.8,3 L119.2,5.6 C119.2,5.8 119.1,6.2 119.7,6.2 C119.9,6.2 120,6.2 120.1,6.2 L120,6.8 C119.8,6.8 119.6,6.9 119.3,6.9 C118.6,6.9 118.2,6.7 118.4,6 L119,3.1 L118.2,3.1 L118.3,2.4 Z" id="Path"></path>
                    <path d="M123.3,6.8 C123.3,6.6 123.3,6.4 123.4,6.2 C122.9,6.9 122.3,7 121.9,7 C120.9,7 120.5,6.4 120.6,5.7 C120.7,5.4 120.9,4.8 121.6,4.4 C122.1,4.1 122.8,4.1 123.2,4.1 C123.4,4.1 123.5,4.1 123.8,4.1 C123.9,3.6 124,3.3 123.8,3.1 C123.7,2.9 123.3,2.8 123.1,2.8 C122.3,2.8 122.1,3.4 122.1,3.5 L121.3,3.5 C121.4,3.3 121.5,3 121.8,2.7 C122.2,2.3 122.8,2.2 123.3,2.2 C123.9,2.2 124.6,2.4 124.7,2.8 C124.8,3.1 124.8,3.3 124.7,3.5 L124.2,5.6 C124.2,5.7 124.1,6.2 124,6.7 L123.3,6.7 L123.3,6.8 Z M123.2,4.6 C122.9,4.6 121.6,4.6 121.4,5.5 C121.3,5.8 121.4,6.3 122.1,6.3 C122.5,6.3 122.9,6.1 123.1,5.8 C123.3,5.5 123.4,5.3 123.5,4.7 C123.5,4.6 123.4,4.6 123.2,4.6 Z" id="Shape"></path>
                    <path d="M129.5,0.5 L130.3,0.5 L129.1,6 C129.1,6.1 129,6.5 129,6.7 L128.2,6.7 L128.3,6 C128.2,6.1 128.1,6.3 127.8,6.5 C127.4,6.7 127,6.8 126.7,6.8 C126.1,6.8 124.9,6.5 125.3,4.6 C125.7,2.9 126.7,2.2 127.8,2.2 C128.7,2.2 128.9,2.8 129,2.9 L129.5,0.5 Z M128.6,3.3 C128.5,3.1 128.2,2.9 127.7,2.9 C126.5,2.9 126.2,4.3 126.1,4.6 C125.9,5.4 125.9,6.3 126.9,6.3 C128.2,6.3 128.5,4.9 128.6,4.6 C128.8,3.9 128.7,3.6 128.6,3.3 Z" id="Shape"></path>
                    <path d="M133,2.3 C134.7,2.3 134.8,3.7 134.7,4.6 C134.4,5.9 133.5,6.9 132,6.9 C130.6,6.9 130.1,5.9 130.3,4.6 C130.5,3.6 131.3,2.3 133,2.3 Z M132.1,6.3 C132.7,6.3 133.5,5.9 133.8,4.6 C134,3.5 133.7,2.9 132.9,2.9 C132.4,2.9 131.5,3.2 131.2,4.6 C130.9,5.5 131.1,6.3 132.1,6.3 Z" id="Shape"></path>
                    <path d="M141.6,0.5 L142.4,0.5 L141.2,6 C141.2,6.1 141.1,6.5 141.1,6.7 L140.3,6.7 L140.4,6 C140.3,6.1 140.2,6.3 139.9,6.5 C139.5,6.7 139.1,6.8 138.8,6.8 C138.2,6.8 137,6.5 137.4,4.6 C137.8,2.9 138.8,2.2 139.9,2.2 C140.8,2.2 141,2.8 141.1,2.9 L141.6,0.5 Z M140.7,3.3 C140.6,3.1 140.3,2.9 139.8,2.9 C138.6,2.9 138.3,4.3 138.2,4.6 C138,5.4 138,6.3 139,6.3 C140.3,6.3 140.6,4.9 140.7,4.6 C140.9,3.9 140.8,3.6 140.7,3.3 Z" id="Shape"></path>
                    <path d="M144.8,6.8 C144.8,6.6 144.8,6.4 144.9,6.2 C144.4,6.9 143.8,7 143.4,7 C142.4,7 142,6.4 142.1,5.7 C142.2,5.4 142.4,4.8 143.1,4.4 C143.6,4.1 144.3,4.1 144.7,4.1 C144.9,4.1 145,4.1 145.3,4.1 C145.4,3.6 145.5,3.3 145.3,3.1 C145.2,2.9 144.8,2.8 144.6,2.8 C143.8,2.8 143.6,3.4 143.6,3.5 L142.8,3.5 C142.9,3.3 143,3 143.3,2.7 C143.7,2.3 144.3,2.2 144.8,2.2 C145.4,2.2 146.1,2.4 146.2,2.8 C146.3,3.1 146.3,3.3 146.2,3.5 L145.7,5.6 C145.7,5.7 145.6,6.2 145.5,6.7 L144.8,6.7 L144.8,6.8 Z M144.7,4.6 C144.4,4.6 143.1,4.6 142.9,5.5 C142.8,5.8 142.9,6.3 143.6,6.3 C144,6.3 144.4,6.1 144.6,5.8 C144.8,5.5 144.9,5.3 145,4.7 C145.1,4.6 144.9,4.6 144.7,4.6 Z" id="Shape"></path>
                    <path d="M150.1,0.5 L152.2,0.5 C153,0.5 153.5,0.5 153.8,1 C154,1.3 154.1,1.7 154,2.2 C153.9,2.7 153.7,3.1 153.2,3.4 C152.8,3.7 152.3,3.9 151.2,3.9 L150.2,3.9 L149.6,6.7 L148.7,6.7 L150.1,0.5 Z M150.4,3.3 L151.4,3.3 C152,3.3 152.9,3.3 153.1,2.2 C153.3,1.2 152.5,1.2 152,1.2 L150.8,1.2 L150.4,3.3 Z" id="Shape"></path>
                    <path d="M156.2,6.8 C156.2,6.6 156.2,6.4 156.3,6.2 C155.8,6.9 155.2,7 154.8,7 C153.8,7 153.4,6.4 153.5,5.7 C153.6,5.4 153.8,4.8 154.5,4.4 C155,4.1 155.7,4.1 156.1,4.1 C156.3,4.1 156.4,4.1 156.7,4.1 C156.8,3.6 156.9,3.3 156.7,3.1 C156.6,2.9 156.2,2.8 156,2.8 C155.2,2.8 155,3.4 155,3.5 L154.2,3.5 C154.3,3.3 154.4,3 154.7,2.7 C155.1,2.3 155.7,2.2 156.2,2.2 C156.8,2.2 157.5,2.4 157.6,2.8 C157.7,3.1 157.7,3.3 157.6,3.5 L157.1,5.6 C157.1,5.7 157,6.2 156.9,6.7 L156.2,6.7 L156.2,6.8 Z M156.1,4.6 C155.8,4.6 154.5,4.6 154.3,5.5 C154.2,5.8 154.3,6.3 155,6.3 C155.4,6.3 155.8,6.1 156,5.8 C156.2,5.5 156.3,5.3 156.4,4.7 C156.4,4.6 156.3,4.6 156.1,4.6 Z" id="Shape"></path>
                    <path d="M158.8,3.3 C158.9,3 158.9,2.7 158.9,2.4 L159.7,2.4 L159.5,3.2 C159.8,2.6 160.3,2.4 160.7,2.3 C161,2.3 161.1,2.3 161.3,2.3 L161.1,3.1 C161.1,3.1 161,3.1 161,3.1 C160.9,3.1 160.9,3.1 160.8,3.1 C159.8,3.1 159.5,3.7 159.3,4.4 L158.8,6.7 L158,6.7 L158.8,3.3 Z" id="Path"></path>
                    <path d="M163.8,6.8 C163.8,6.6 163.8,6.4 163.9,6.2 C163.4,6.9 162.8,7 162.4,7 C161.4,7 161,6.4 161.1,5.7 C161.2,5.4 161.4,4.8 162.1,4.4 C162.6,4.1 163.3,4.1 163.7,4.1 C163.9,4.1 164,4.1 164.3,4.1 C164.4,3.6 164.5,3.3 164.3,3.1 C164.2,2.9 163.8,2.8 163.6,2.8 C162.8,2.8 162.6,3.4 162.6,3.5 L161.8,3.5 C161.9,3.3 162,3 162.3,2.7 C162.7,2.3 163.3,2.2 163.8,2.2 C164.4,2.2 165.1,2.4 165.2,2.8 C165.3,3.1 165.3,3.3 165.2,3.5 L164.7,5.6 C164.7,5.7 164.6,6.2 164.5,6.7 L163.8,6.7 L163.8,6.8 Z M163.7,4.6 C163.4,4.6 162.1,4.6 161.9,5.5 C161.8,5.8 161.9,6.3 162.6,6.3 C163,6.3 163.4,6.1 163.6,5.8 C163.8,5.5 163.9,5.3 164,4.7 C164,4.6 163.9,4.6 163.7,4.6 Z" id="Shape"></path>
                    <path d="M166.6,2.4 L167.4,2.4 L166.5,6.7 L165.7,6.7 L166.6,2.4 Z M168.5,0.4 L167.2,1.6 L166.6,1.6 L167.6,0.4 L168.5,0.4 Z" id="Shape"></path>
                    <path d="M169.3,3.1 C169.5,2.9 169.9,2.4 170.9,2.4 C171.3,2.4 171.9,2.5 172.2,3 C172.4,3.3 172.6,3.7 172.4,4.6 C172.2,5.4 171.9,5.9 171.6,6.2 C171.1,6.7 170.5,6.9 169.9,6.9 C169.7,6.9 169.3,6.9 169,6.6 C168.8,6.4 168.7,6.3 168.7,6.2 L168.5,6.9 L167.7,6.9 L167.9,6.1 L169.1,0.6 L169.9,0.6 L169.3,3.1 Z M170.6,2.9 C169.4,2.9 169,4.4 169,4.6 C168.9,4.9 168.7,6.2 169.9,6.2 C170.9,6.2 171.4,5.2 171.5,4.5 C171.5,4.1 171.7,2.9 170.6,2.9 Z" id="Shape"></path>
                    <path d="M175.4,6.8 C175.4,6.6 175.4,6.4 175.5,6.2 C175,6.9 174.4,7 174,7 C173,7 172.6,6.4 172.7,5.7 C172.8,5.4 173,4.8 173.7,4.4 C174.2,4.1 174.9,4.1 175.3,4.1 C175.5,4.1 175.6,4.1 175.9,4.1 C176,3.6 176.1,3.3 175.9,3.1 C175.8,2.9 175.4,2.8 175.2,2.8 C174.4,2.8 174.2,3.4 174.2,3.5 L173.4,3.5 C173.5,3.3 173.6,3 173.9,2.7 C174.3,2.3 174.9,2.2 175.4,2.2 C176,2.2 176.7,2.4 176.8,2.8 C176.9,3.1 176.9,3.3 176.8,3.5 L176.3,5.6 C176.3,5.7 176.2,6.2 176.1,6.7 L175.4,6.7 L175.4,6.8 Z M175.2,4.6 C174.9,4.6 173.6,4.6 173.4,5.5 C173.3,5.8 173.4,6.3 174.1,6.3 C174.5,6.3 174.9,6.1 175.1,5.8 C175.3,5.5 175.4,5.3 175.5,4.7 C175.6,4.6 175.4,4.6 175.2,4.6 Z" id="Shape"></path>
                </g>
                <g transform="translate(26.000000, 51.000000)">
                    <path d="M3.6,2 C4,2 4.3,2.1 4.6,2.1 C4.9,2.2 5.1,2.3 5.2,2.4 C5.4,2.5 5.5,2.7 5.6,2.9 C5.7,3.1 5.7,3.4 5.7,3.7 C5.7,4 5.7,4.2 5.6,4.5 C5.5,4.7 5.4,4.9 5.2,5 C5,5.1 4.9,5.2 4.7,5.3 C4.5,5.4 4.3,5.4 4.1,5.5 C4.1,5.5 4,5.5 4,5.5 C4,5.5 3.9,5.5 3.9,5.5 C3.9,5.5 3.8,5.5 3.8,5.5 L3.7,5.5 L2.5,5.5 L2.5,7.5 L0.9,7.5 L0.9,2 L3.6,2 Z M2.4,4.4 L3.1,4.4 C3.2,4.4 3.4,4.4 3.5,4.4 C3.6,4.4 3.7,4.3 3.8,4.3 C3.9,4.2 3.9,4.2 4,4.1 C4,4 4.1,3.9 4.1,3.8 C4.1,3.7 4.1,3.6 4,3.5 C4,3.4 3.9,3.3 3.8,3.3 C3.7,3.3 3.6,3.2 3.5,3.2 C3.4,3.2 3.2,3.2 3.1,3.2 L2.5,3.2 L2.5,4.4 L2.4,4.4 Z" id="Shape"></path>
                    <polygon id="Path" points="10.6 2 10.6 3.1 7.9 3.1 7.9 4.2 10.4 4.2 10.4 5.4 7.9 5.4 7.9 6.4 10.6 6.4 10.6 7.5 6.3 7.5 6.3 2"></polygon>
                    <polygon id="Path" points="13 2 13 6.4 15.5 6.4 15.5 7.5 11.5 7.5 11.5 2"></polygon>
                    <path d="M16.1,3.7 C16.2,3.4 16.3,3 16.5,2.7 C16.7,2.4 17,2.2 17.4,2 C17.8,1.8 18.3,1.8 18.9,1.8 L18.9,1.8 L18.9,1.8 L18.9,1.8 L18.9,1.8 L18.9,1.8 L18.9,1.8 L18.9,1.8 L18.9,1.8 C19.2,1.8 19.5,1.9 19.9,2 C20.2,2.1 20.5,2.2 20.8,2.4 C21.1,2.6 21.3,2.9 21.4,3.3 C21.5,3.7 21.6,4.2 21.6,4.7 C21.6,4.8 21.6,4.9 21.6,4.9 C21.6,5 21.6,5.1 21.6,5.1 C21.6,5.1 21.6,5.2 21.6,5.2 C21.6,5.2 21.6,5.3 21.6,5.3 C21.6,5.3 21.6,5.4 21.6,5.4 C21.6,5.4 21.6,5.5 21.6,5.5 C21.5,5.7 21.4,6 21.3,6.2 C21.2,6.4 21,6.6 20.8,6.8 C20.6,7 20.4,7.1 20,7.2 C19.7,7.3 19.3,7.3 18.9,7.3 C18.3,7.3 17.8,7.2 17.4,7.1 C17,7 16.7,6.8 16.5,6.5 C16.3,6.2 16.1,5.9 16,5.6 C15.9,5.3 15.8,5 15.8,4.6 L15.8,4.6 L15.8,4.6 C15.8,4.6 15.8,4.6 15.8,4.6 L15.8,4.6 L15.8,4.6 L15.8,4.6 L15.8,4.6 C16,4.4 16,4.1 16.1,3.7 M17.7,5.4 C17.8,5.6 17.8,5.8 17.9,6 C18,6.2 18.1,6.3 18.3,6.4 C18.5,6.5 18.7,6.5 18.9,6.5 C19.1,6.5 19.3,6.5 19.4,6.4 C19.6,6.3 19.7,6.2 19.8,6.1 C19.9,6 20,5.8 20,5.5 C20.1,5.3 20.1,5 20.1,4.7 C20.1,4.5 20.1,4.2 20,4 C20,3.8 19.9,3.6 19.8,3.4 C19.7,3.2 19.6,3.1 19.4,3 C19.2,2.9 19,2.9 18.8,2.9 C18.6,2.9 18.4,2.9 18.2,3 C18,3.1 17.9,3.2 17.8,3.4 C17.7,3.6 17.6,3.8 17.6,4 C17.5,4.2 17.5,4.4 17.5,4.6 L17.5,4.6 C17.6,5 17.6,5.2 17.7,5.4" id="Shape"></path>
                    <polygon id="Path" points="29 2 29 3.1 26.6 3.1 26.6 4.4 28.8 4.4 28.8 5.5 26.6 5.5 26.6 7.5 25.1 7.5 25.1 2"></polygon>
                    <path d="M31.4,2 L31.4,5.2 C31.4,5.4 31.4,5.6 31.5,5.7 C31.5,5.9 31.6,6 31.7,6.1 C31.8,6.2 31.9,6.3 32,6.4 C32.1,6.5 32.3,6.5 32.5,6.5 C32.7,6.5 32.9,6.5 33.1,6.4 C33.3,6.3 33.4,6.2 33.4,6.1 C33.5,6 33.5,5.8 33.6,5.7 C33.6,5.5 33.7,5.3 33.7,5.1 L33.7,2 L35.3,2 L35.3,5.4 C35.3,5.7 35.2,6 35.1,6.3 C35,6.6 34.8,6.8 34.6,7 C34.4,7.2 34.1,7.4 33.8,7.5 C33.5,7.6 33,7.7 32.6,7.7 C32.2,7.7 31.8,7.6 31.5,7.5 C31.2,7.4 30.9,7.2 30.7,7 C30.5,6.8 30.3,6.5 30.2,6.3 C30.1,6 30,5.7 30,5.4 L30,2 L31.4,2 Z" id="Path"></path>
                    <polygon id="Path" points="40.7 2 40.7 3.1 39 3.1 39 7.5 37.5 7.5 37.5 3.1 35.7 3.1 35.7 2"></polygon>
                    <path d="M42.9,2 L42.9,5.2 C42.9,5.4 42.9,5.6 43,5.7 C43,5.9 43.1,6 43.2,6.1 C43.3,6.2 43.4,6.3 43.5,6.4 C43.6,6.5 43.8,6.5 44,6.5 C44.2,6.5 44.4,6.5 44.6,6.4 C44.8,6.3 44.9,6.2 44.9,6.1 C45,6 45,5.8 45.1,5.7 C45.1,5.5 45.2,5.3 45.2,5.1 L45.2,2 L46.8,2 L46.8,5.4 C46.8,5.7 46.7,6 46.6,6.3 C46.5,6.6 46.3,6.8 46.1,7 C45.9,7.2 45.6,7.4 45.3,7.5 C45,7.6 44.5,7.7 44.1,7.7 C43.7,7.7 43.3,7.6 43,7.5 C42.7,7.4 42.4,7.2 42.2,7 C42,6.8 41.8,6.5 41.7,6.3 C41.6,6 41.5,5.7 41.5,5.4 L41.5,2 L42.9,2 Z" id="Path"></path>
                    <path d="M50,2 C50,2 50.1,2 50,2 L50,2 L50.1,2 L50.1,2 C50.4,2 50.6,2 50.8,2.1 C51,2.2 51.3,2.2 51.5,2.3 C51.7,2.4 51.9,2.5 52,2.7 C52.1,2.9 52.2,3.1 52.2,3.4 C52.2,3.6 52.2,3.8 52.1,4 C52,4.2 51.9,4.3 51.8,4.4 C51.7,4.5 51.5,4.6 51.4,4.7 C51.2,4.8 51.1,4.8 50.9,4.8 C51.2,4.8 51.4,4.9 51.6,5 C51.8,5.1 51.9,5.2 52,5.4 C52.1,5.6 52.1,5.8 52.2,5.9 C52.2,6.1 52.3,6.3 52.3,6.5 L52.3,6.5 L52.3,6.5 L52.3,6.5 C52.3,6.5 52.3,6.5 52.3,6.5 C52.3,6.6 52.3,6.7 52.3,6.7 C52.3,6.8 52.3,6.9 52.3,7 C52.3,7.1 52.3,7.2 52.3,7.2 C52.3,7.3 52.3,7.3 52.4,7.4 L50.7,7.4 C50.7,7.4 50.7,7.3 50.7,7.3 C50.7,7.2 50.7,7.2 50.7,7.1 C50.7,7 50.7,7 50.7,6.9 C50.7,6.8 50.7,6.8 50.7,6.7 L50.7,6.7 L50.7,6.7 C50.7,6.7 50.7,6.7 50.7,6.7 L50.7,6.7 L50.7,6.7 L50.7,6.7 C50.7,6.6 50.7,6.4 50.6,6.3 C50.6,6.2 50.5,6 50.5,5.9 C50.5,5.8 50.4,5.7 50.3,5.6 C50.2,5.5 50.1,5.5 49.9,5.5 L49.2,5.5 L49.2,7.6 L47.6,7.6 L47.6,2 L50,2 Z M49.1,4.3 L49.7,4.3 C49.7,4.3 49.7,4.3 49.7,4.3 L49.7,4.3 L49.7,4.3 L49.7,4.3 C49.8,4.3 49.9,4.3 50,4.3 C50.1,4.3 50.2,4.2 50.3,4.2 C50.4,4.2 50.4,4.1 50.5,4 C50.5,3.9 50.6,3.8 50.6,3.7 C50.6,3.6 50.6,3.5 50.5,3.4 C50.5,3.3 50.4,3.3 50.3,3.2 C50.2,3.2 50.1,3.1 50,3.1 C49.9,3.1 49.8,3.1 49.7,3.1 L49,3.1 L49,4.3 L49.1,4.3 Z" id="Shape"></path>
                    <path d="M53.1,3.7 C53.2,3.4 53.3,3 53.5,2.7 C53.7,2.4 54,2.2 54.4,2 C54.8,1.8 55.3,1.8 55.9,1.8 L55.9,1.8 L55.9,1.8 L55.9,1.8 L55.9,1.8 L55.9,1.8 L55.9,1.8 L55.9,1.8 L55.9,1.8 C56.2,1.8 56.5,1.9 56.9,2 C57.2,2.1 57.5,2.2 57.8,2.4 C58.1,2.6 58.3,2.9 58.4,3.3 C58.5,3.7 58.6,4.2 58.6,4.7 C58.6,4.8 58.6,4.9 58.6,4.9 C58.6,5 58.6,5.1 58.6,5.1 C58.6,5.1 58.6,5.2 58.6,5.2 C58.6,5.2 58.6,5.3 58.6,5.3 C58.6,5.3 58.6,5.4 58.6,5.4 C58.6,5.4 58.6,5.5 58.6,5.5 C58.5,5.7 58.4,6 58.3,6.2 C58.2,6.4 58,6.6 57.8,6.8 C57.6,7 57.4,7.1 57,7.2 C56.7,7.3 56.3,7.3 55.9,7.3 C55.3,7.3 54.8,7.2 54.4,7.1 C54,7 53.7,6.8 53.5,6.5 C53.3,6.2 53.1,5.9 53,5.6 C52.9,5.3 52.8,5 52.8,4.6 L52.8,4.6 L52.8,4.6 C52.8,4.6 52.8,4.6 52.8,4.6 L52.8,4.6 L52.8,4.6 L52.8,4.6 L52.8,4.6 C53,4.4 53,4.1 53.1,3.7 M54.7,5.4 C54.8,5.6 54.8,5.8 54.9,6 C55,6.2 55.1,6.3 55.3,6.4 C55.5,6.5 55.7,6.5 55.9,6.5 C56.1,6.5 56.3,6.5 56.4,6.4 C56.6,6.3 56.7,6.2 56.8,6.1 C56.9,6 57,5.8 57,5.5 C57.1,5.3 57.1,5 57.1,4.7 C57.1,4.5 57.1,4.2 57,4 C57,3.8 56.9,3.6 56.8,3.4 C56.7,3.2 56.6,3.1 56.4,3 C56.2,2.9 56,2.9 55.8,2.9 C55.6,2.9 55.4,2.9 55.2,3 C55,3.1 54.9,3.2 54.8,3.4 C54.7,3.6 54.6,3.8 54.6,4 C54.5,4.2 54.5,4.4 54.5,4.6 L54.5,4.6 C54.6,5 54.6,5.2 54.7,5.4" id="Shape"></path>
                    <path d="M64.5,2 C65.1,2 65.7,2.1 66.1,2.2 C66.5,2.3 66.8,2.6 67.1,2.8 C67.3,3.1 67.5,3.4 67.6,3.7 C67.7,4 67.8,4.4 67.8,4.7 L67.8,4.7 L67.8,4.7 L67.8,4.7 L67.8,4.7 L67.8,4.7 L67.8,4.7 C67.8,4.7 67.8,4.7 67.8,4.7 L67.8,4.7 L67.8,4.7 L67.8,4.7 C67.8,5.1 67.7,5.5 67.6,5.8 C67.5,6.1 67.3,6.4 67,6.6 C66.7,6.8 66.5,7 66.2,7.1 C65.9,7.2 65.6,7.2 65.3,7.2 L62.4,7.2 L62.4,2 L64.5,2 Z M64.5,6.4 C64.8,6.4 65,6.4 65.2,6.3 C65.4,6.2 65.5,6.1 65.7,6 C65.8,5.8 65.9,5.7 66,5.5 C66.1,5.3 66.1,5.2 66.1,5 L66.1,5 C66.1,5 66.1,5 66.1,5 L66.1,5 L66.1,5 L66.1,5 L66.1,5 L66.1,5 L66.1,5 L66.1,5 L66.1,5 C66.1,5 66.1,5 66.1,5 L66.1,5 C66.1,5 66.1,5 66.1,4.9 C66.1,4.9 66.1,4.9 66.1,4.8 C66.1,4.6 66,4.5 65.9,4.3 C65.8,4.1 65.7,4 65.6,3.8 C65.5,3.7 65.3,3.5 65.1,3.5 C64.9,3.4 64.7,3.4 64.6,3.4 L63.8,3.4 L63.8,6.7 L64.5,6.7 L64.5,6.4 Z" id="Shape"></path>
                    <path d="M72,2 L74.2,7.5 L72.5,7.5 L72.1,6.5 L69.9,6.5 L69.5,7.5 L68,7.5 L70.2,2 L72,2 Z M71,3.1 L70.3,5.3 L71.7,5.3 L71,3.1 Z" id="Shape"></path>
                    <rect id="Rectangle" x="77.4" y="2" width="1.6" height="5.5"></rect>
                    <polygon id="Path" points="82 2 83.9 6.1 83.9 2 85.3 2 85.3 7.5 83.1 7.5 81.3 3.4 81.3 7.5 79.9 7.5 79.9 2"></polygon>
                    <path d="M88.7,2 C89.3,2 89.9,2.1 90.3,2.2 C90.7,2.3 91,2.6 91.3,2.8 C91.5,3.1 91.7,3.4 91.8,3.7 C91.9,4 92,4.4 92,4.7 L92,4.7 L92,4.7 L92,4.7 L92,4.7 L92,4.7 L92,4.7 C92,4.7 92,4.7 92,4.7 L92,4.7 L92,4.7 L92,4.7 C92,5.1 91.9,5.5 91.8,5.8 C91.7,6.1 91.5,6.4 91.2,6.6 C90.9,6.8 90.7,7 90.4,7.1 C90.1,7.2 89.8,7.2 89.5,7.2 L86.6,7.2 L86.6,2 L88.7,2 Z M88.7,6.4 C89,6.4 89.2,6.4 89.4,6.3 C89.6,6.2 89.7,6.1 89.9,6 C90,5.8 90.1,5.7 90.2,5.5 C90.3,5.3 90.3,5.2 90.3,5 L90.3,5 C90.3,5 90.3,5 90.3,5 L90.3,5 L90.3,5 L90.3,5 L90.3,5 L90.3,5 L90.3,5 L90.3,5 L90.3,5 C90.3,5 90.3,5 90.3,5 L90.3,5 C90.3,5 90.3,5 90.3,4.9 C90.3,4.9 90.3,4.9 90.3,4.8 C90.3,4.6 90.2,4.5 90.1,4.3 C90,4.1 89.9,4 89.8,3.8 C89.7,3.7 89.5,3.5 89.3,3.5 C89.1,3.4 88.9,3.4 88.8,3.4 L88,3.4 L88,6.7 L88.7,6.7 L88.7,6.4 Z" id="Shape"></path>
                    <path d="M94.3,2 L94.3,5.2 C94.3,5.4 94.3,5.6 94.4,5.7 C94.4,5.9 94.5,6 94.6,6.1 C94.7,6.2 94.8,6.3 94.9,6.4 C95,6.5 95.2,6.5 95.4,6.5 C95.6,6.5 95.8,6.5 96,6.4 C96.2,6.3 96.3,6.2 96.3,6.1 C96.4,6 96.4,5.8 96.5,5.7 C96.5,5.5 96.6,5.3 96.6,5.1 L96.6,2 L98.2,2 L98.2,5.4 C98.2,5.7 98.1,6 98,6.3 C97.9,6.6 97.7,6.8 97.5,7 C97.3,7.2 97,7.4 96.7,7.5 C96.4,7.6 95.9,7.7 95.5,7.7 C95.1,7.7 94.7,7.6 94.4,7.5 C94.1,7.4 93.8,7.2 93.6,7 C93.4,6.8 93.2,6.5 93.1,6.3 C93,6 92.9,5.7 92.9,5.4 L92.9,2 L94.3,2 Z M95.5,0.2 L97.2,0.2 L95.7,1.3 L94.7,1.3 L95.5,0.2 Z" id="Shape"></path>
                    <path d="M100.4,5.7 L100.4,5.7 C100.4,5.8 100.4,5.8 100.4,5.8 C100.4,5.8 100.4,5.8 100.4,5.8 C100.4,5.8 100.4,5.8 100.4,5.8 C100.4,5.8 100.4,5.8 100.4,5.8 C100.4,5.8 100.4,5.8 100.4,5.8 C100.4,5.9 100.4,5.9 100.5,6 C100.5,6.1 100.6,6.1 100.6,6.2 C100.7,6.3 100.7,6.3 100.8,6.3 C100.9,6.3 101,6.3 101.1,6.3 C101.2,6.3 101.4,6.3 101.5,6.3 C101.6,6.3 101.7,6.2 101.8,6.2 C101.9,6.1 101.9,6.1 102,6 C102,5.9 102.1,5.9 102.1,5.8 L102.1,5.8 L102.1,5.8 C102.1,5.8 102.1,5.8 102.1,5.8 L102.1,5.8 L102.1,5.8 L102.1,5.8 C102.1,5.8 102.1,5.8 102.1,5.8 L102.1,5.8 C102.1,5.7 102,5.7 102,5.6 C102,5.5 101.9,5.5 101.8,5.4 C101.7,5.3 101.6,5.3 101.5,5.3 C101.4,5.3 101.3,5.2 101.1,5.2 L101.1,5.2 L101.1,5.2 C101.1,5.2 101.1,5.2 101.1,5.2 C101.1,5.2 101.1,5.2 101.1,5.2 C100.7,5.1 100.3,5 100.1,4.9 C99.8,4.8 99.6,4.7 99.5,4.6 C99.4,4.5 99.2,4.3 99.2,4.2 C99.1,4 99.1,3.8 99.1,3.6 L99.1,3.6 L99.1,3.6 L99.1,3.6 L99.1,3.6 L99.1,3.6 C99.1,3.3 99.1,3.1 99.3,2.9 C99.4,2.7 99.6,2.5 99.8,2.4 C100,2.3 100.3,2.2 100.6,2.1 C100.9,2 101.2,2 101.5,2 C102,2 102.3,2.1 102.6,2.2 C102.9,2.3 103.1,2.4 103.3,2.6 C103.4,2.8 103.6,2.9 103.6,3.1 C103.7,3.3 103.7,3.5 103.7,3.8 L102.1,3.8 C102.1,3.7 102.1,3.6 102.1,3.6 C102.1,3.5 102,3.5 102,3.4 C101.9,3.3 101.9,3.3 101.8,3.3 C101.7,3.3 101.6,3.3 101.5,3.3 C101.4,3.3 101.3,3.3 101.2,3.3 C101.1,3.3 101,3.4 101,3.4 C100.9,3.5 100.9,3.5 100.9,3.6 C100.9,3.7 100.9,3.7 100.9,3.8 L100.9,3.8 L100.9,3.8 L100.9,3.8 L100.9,3.8 C100.9,3.9 100.9,3.9 101,4 C101,4.1 101.1,4.1 101.1,4.1 C101.2,4.2 101.2,4.2 101.3,4.2 C101.4,4.2 101.5,4.3 101.6,4.3 C101.7,4.3 101.7,4.3 101.8,4.3 C101.9,4.3 101.9,4.3 102,4.3 C102.1,4.3 102.1,4.3 102.2,4.3 C102.3,4.3 102.3,4.3 102.4,4.3 C102.6,4.4 102.8,4.4 103,4.5 C103.2,4.6 103.4,4.7 103.6,4.8 C103.8,4.9 103.9,5.1 104,5.2 C104.1,5.4 104.1,5.6 104.1,5.9 C104.1,6.2 104,6.5 103.9,6.8 C103.8,7 103.6,7.2 103.4,7.4 C103.2,7.5 102.9,7.6 102.6,7.7 C102.3,7.8 102,7.8 101.7,7.8 C101.3,7.8 100.9,7.8 100.6,7.7 C100.3,7.6 100,7.5 99.8,7.3 C99.6,7.1 99.4,6.9 99.3,6.7 C99.2,6.5 99.1,6.2 99.1,5.9 L99.1,5.9 L100.4,5.9 L100.4,5.7 Z" id="Path"></path>
                    <polygon id="Path" points="109.1 2 109.1 3.1 107.4 3.1 107.4 7.5 105.9 7.5 105.9 3.1 104.1 3.1 104.1 2"></polygon>
                    <path d="M112.1,2 C112.1,2 112.1,2 112.1,2 L112.1,2 L112.2,2 L112.2,2 C112.5,2 112.7,2 112.9,2.1 C113.1,2.2 113.4,2.2 113.6,2.3 C113.8,2.4 114,2.5 114.1,2.7 C114.2,2.9 114.3,3.1 114.3,3.4 C114.3,3.6 114.3,3.8 114.2,4 C114.1,4.2 114,4.3 113.9,4.4 C113.8,4.5 113.6,4.6 113.5,4.7 C113.3,4.8 113.2,4.8 113,4.8 C113.3,4.8 113.5,4.9 113.7,5 C113.9,5.1 114,5.2 114.1,5.4 C114.2,5.6 114.2,5.8 114.3,5.9 C114.3,6.1 114.4,6.3 114.4,6.5 L114.4,6.5 L114.4,6.5 L114.4,6.5 C114.4,6.5 114.4,6.5 114.4,6.5 C114.4,6.6 114.4,6.7 114.4,6.7 C114.4,6.8 114.4,6.9 114.4,7 C114.4,7.1 114.4,7.2 114.4,7.2 C114.4,7.3 114.4,7.3 114.5,7.4 L112.8,7.4 C112.8,7.4 112.8,7.3 112.8,7.3 C112.8,7.2 112.8,7.2 112.8,7.1 C112.8,7 112.8,7 112.8,6.9 C112.8,6.8 112.8,6.8 112.8,6.7 L112.8,6.7 L112.8,6.7 C112.8,6.7 112.8,6.7 112.8,6.7 L112.8,6.7 L112.8,6.7 L112.8,6.7 C112.8,6.6 112.8,6.4 112.7,6.3 C112.7,6.2 112.6,6 112.6,5.9 C112.6,5.8 112.5,5.7 112.4,5.6 C112.3,5.5 112.2,5.5 112,5.5 L111.3,5.5 L111.3,7.6 L109.7,7.6 L109.7,2 L112.1,2 Z M111.2,4.3 L111.8,4.3 C111.8,4.3 111.8,4.3 111.8,4.3 L111.8,4.3 L111.8,4.3 L111.8,4.3 C111.9,4.3 112,4.3 112.1,4.3 C112.2,4.3 112.3,4.2 112.4,4.2 C112.5,4.2 112.5,4.1 112.6,4 C112.6,3.9 112.7,3.8 112.7,3.7 C112.7,3.6 112.7,3.5 112.6,3.4 C112.6,3.3 112.5,3.3 112.4,3.2 C112.3,3.2 112.2,3.1 112.1,3.1 C112,3.1 111.9,3.1 111.8,3.1 L111.1,3.1 L111.1,4.3 L111.2,4.3 Z" id="Shape"></path>
                    <rect id="Rectangle" x="115.2" y="2" width="1.6" height="5.5"></rect>
                    <path d="M121.3,2 L123.5,7.5 L121.8,7.5 L121.4,6.5 L119.2,6.5 L118.8,7.5 L117.2,7.5 L119.4,2 L121.3,2 Z M120.3,3.1 L119.6,5.3 L121,5.3 L120.3,3.1 Z" id="Shape"></path>
                </g>
            </g>
            <g id="Group" transform="translate(1.000000, 0.000000)">
                <g transform="translate(0.000000, 34.000000)">
                    <path d="M0.8,4.4 C0.8,4.5 0.8,4.6 0.8,4.8 C0.8,4.9 0.8,5.1 0.9,5.2 C1,5.3 1.1,5.4 1.3,5.5 C1.5,5.6 1.7,5.6 2.1,5.6 C2.4,5.6 2.7,5.6 2.9,5.5 C3.1,5.4 3.3,5.3 3.4,5.2 C3.5,5.1 3.6,5 3.7,4.9 C3.8,4.8 3.8,4.7 3.8,4.6 C3.8,4.4 3.8,4.3 3.8,4.2 C3.8,4.1 3.7,4 3.6,3.9 C3.5,3.8 3.4,3.8 3.2,3.7 C3,3.7 2.9,3.6 2.7,3.6 C2.5,3.5 2.3,3.5 2.1,3.5 C1.9,3.5 1.8,3.4 1.7,3.4 C1.6,3.4 1.5,3.3 1.4,3.3 C1.3,3.3 1.2,3.2 1.2,3.2 C1,3 0.9,2.8 0.8,2.6 C0.8,2.4 0.8,2.2 0.8,2 C0.9,1.7 1,1.4 1.2,1.2 C1.4,1 1.6,0.8 1.8,0.7 C2,0.6 2.3,0.5 2.6,0.4 C2.9,0.3 3.2,0.3 3.4,0.3 C3.5,0.3 3.6,0.3 3.8,0.3 C3.9,0.3 4.1,0.3 4.2,0.4 C4.3,0.4 4.5,0.5 4.6,0.6 C4.7,0.7 4.8,0.8 4.9,0.9 C5,1 5,1.1 5,1.2 C5,1.3 5,1.4 5,1.5 C5,1.6 5,1.7 5,1.8 C5,1.9 5,1.9 5,2 L4,2 C4,1.8 4,1.7 4,1.5 C4,1.1 3.9,1 3.8,1 C3.7,0.9 3.6,0.9 3.4,0.9 C3.3,0.9 3.1,0.9 3,0.9 C2.6,0.9 2.2,1 2,1.2 C1.7,1.4 1.6,1.6 1.5,1.9 C1.5,2 1.5,2.1 1.5,2.2 C1.5,2.3 1.6,2.4 1.6,2.4 C1.7,2.5 1.8,2.5 1.9,2.6 C2,2.6 2.2,2.7 2.3,2.7 C2.6,2.8 2.9,2.9 3.1,2.9 C3.4,2.9 3.5,3 3.6,3 C3.7,3 3.8,3.1 3.9,3.1 C4,3.1 4,3.2 4.1,3.2 C4.2,3.3 4.3,3.4 4.4,3.5 C4.5,3.6 4.5,3.7 4.5,3.8 C4.5,3.9 4.5,4 4.5,4.1 C4.5,4.2 4.5,4.3 4.5,4.3 C4.4,4.6 4.3,4.8 4.2,5 C4.1,5.2 3.9,5.4 3.6,5.6 C3.4,5.8 3.1,5.9 2.8,6 C2.5,6.1 2.1,6.1 1.8,6.1 C1.7,6.1 1.5,6.1 1.4,6.1 C1.2,6.1 1.1,6.1 0.9,6 C0.7,6 0.6,5.9 0.4,5.8 C0.3,5.7 0.1,5.6 0.1,5.4 C-1.11022302e-16,5.3 -1.11022302e-16,5.2 -1.11022302e-16,5.1 C-1.11022302e-16,5 -1.11022302e-16,4.9 -1.11022302e-16,4.8 C-1.11022302e-16,4.7 -1.11022302e-16,4.6 -1.11022302e-16,4.5 C-1.11022302e-16,4.4 -1.11022302e-16,4.3 -1.11022302e-16,4.3 L0.8,4.3 L0.8,4.4 Z" id="Path"></path>
                    <path d="M6.2,4.3 C6.1,4.5 6.1,4.7 6.1,4.9 C6.1,5.1 6.1,5.2 6.2,5.4 C6.3,5.5 6.4,5.6 6.5,5.7 C6.6,5.8 6.8,5.8 7,5.8 C7.3,5.8 7.5,5.7 7.7,5.6 C7.9,5.5 8.1,5.2 8.2,4.9 L9,4.9 C9,5 8.9,5.1 8.8,5.3 C8.7,5.5 8.6,5.6 8.4,5.8 C8.3,5.8 8.3,5.9 8.2,6 C8.2,6 8.1,6 7.9,6.1 C7.8,6.2 7.6,6.2 7.5,6.2 C7.3,6.2 7.1,6.3 6.9,6.3 C6.2,6.3 5.8,6.1 5.6,5.7 C5.4,5.3 5.3,4.8 5.5,4.2 C5.6,3.8 5.7,3.4 5.9,3.1 C6.1,2.8 6.4,2.5 6.7,2.3 C6.8,2.2 6.9,2.2 7,2.1 C7.1,2 7.3,2 7.4,2 C7.5,2 7.6,2 7.7,2 C7.8,2 7.9,2 7.9,2 C8.2,2 8.5,2 8.7,2.1 C8.9,2.2 9,2.3 9.1,2.4 C9.2,2.5 9.3,2.7 9.3,2.9 C9.3,3.1 9.3,3.2 9.3,3.4 C9.3,3.6 9.3,3.7 9.2,3.9 C9.2,4.1 9.1,4.2 9.1,4.3 L6.2,4.3 Z M8.5,3.7 C8.5,3.6 8.5,3.5 8.5,3.3 C8.5,3.2 8.5,3 8.5,2.9 C8.5,2.8 8.4,2.7 8.3,2.6 C8.2,2.5 8,2.5 7.8,2.5 C7.7,2.5 7.5,2.5 7.4,2.6 C7.3,2.6 7.1,2.7 7,2.8 C6.9,2.9 6.8,3 6.7,3.2 C6.6,3.4 6.5,3.5 6.5,3.8 L8.5,3.8 L8.5,3.7 Z" id="Shape"></path>
                    <path d="M10.7,2.9 C10.7,2.8 10.8,2.6 10.8,2.5 C10.8,2.4 10.8,2.2 10.9,2.1 L11.7,2.1 L11.5,2.9 C11.6,2.8 11.7,2.6 11.7,2.5 C11.8,2.4 11.9,2.3 12,2.3 C12.1,2.2 12.2,2.2 12.3,2.2 C12.4,2.2 12.5,2.1 12.6,2.1 C12.7,2.1 12.8,2.1 12.9,2.1 C13,2.1 13.1,2.1 13.1,2.1 L13,2.8 C13,2.8 12.9,2.8 12.9,2.8 C12.9,2.8 12.8,2.8 12.8,2.8 L12.7,2.8 C12.5,2.8 12.3,2.8 12.1,2.9 C11.9,3 11.8,3.1 11.7,3.2 C11.6,3.3 11.5,3.4 11.4,3.6 C11.3,3.8 11.3,3.9 11.2,4.1 L10.7,6.3 L10,6.3 L10.7,2.9 Z" id="Path"></path>
                    <polygon id="Path" points="13.4 2 14.2 2 14.9 5.3 16.8 2 17.7 2 15 6.2 14.2 6.2"></polygon>
                    <path d="M18.6,2 L19.4,2 L18.5,6.1 L17.7,6.1 L18.6,2 Z M18.9,0.2 L19.8,0.2 L19.6,1 L18.7,1 L18.9,0.2 Z" id="Shape"></path>
                    <path d="M23.4,4.8 C23.3,5 23.3,5.2 23.2,5.3 C23.1,5.5 23,5.6 22.8,5.8 C22.6,5.9 22.5,6 22.3,6.1 C22.1,6.2 21.9,6.2 21.6,6.2 L21.3,6.6 C21.3,6.6 21.4,6.6 21.4,6.6 C21.5,6.6 21.5,6.6 21.6,6.6 C21.7,6.6 21.8,6.6 21.9,6.7 C22,6.7 22,6.8 22.1,6.8 C22.1,6.9 22.2,6.9 22.2,7 C22.2,7.1 22.2,7.1 22.2,7.2 C22.2,7.2 22.2,7.3 22.2,7.3 C22.2,7.4 22.1,7.5 22,7.6 C21.9,7.7 21.8,7.8 21.7,7.8 C21.5,7.9 21.3,7.9 21.1,7.9 C20.9,7.9 20.8,7.9 20.7,7.9 C20.6,7.9 20.5,7.8 20.4,7.8 L20.6,7.5 C20.6,7.5 20.7,7.6 20.8,7.6 C20.9,7.6 21,7.6 21.1,7.6 C21.2,7.6 21.4,7.6 21.4,7.5 C21.5,7.4 21.5,7.4 21.6,7.3 C21.6,7.2 21.6,7.2 21.6,7.1 C21.6,7.1 21.5,7 21.5,7 C21.5,7 21.4,7 21.4,7 C21.4,7 21.3,7 21.3,7 C21.2,7 21.2,7 21.1,7 C21.1,7 21,7 20.9,7 L20.8,6.9 L21.3,6.3 C21,6.3 20.7,6.2 20.6,6 C20.4,5.9 20.3,5.7 20.2,5.5 C20,5.4 20,5.1 20,4.9 C20,4.7 20,4.4 20.1,4.2 C20.2,3.7 20.3,3.4 20.5,3.1 C20.7,2.8 20.9,2.6 21.1,2.4 C21.3,2.2 21.6,2.1 21.8,2.1 C22,2 22.2,2 22.4,2 C22.5,2 22.6,2 22.7,2 C22.8,2 22.9,2 23,2.1 C23.1,2.1 23.2,2.2 23.3,2.3 C23.4,2.4 23.5,2.5 23.6,2.6 C23.7,2.8 23.8,2.9 23.8,3.1 C23.8,3.3 23.8,3.4 23.8,3.5 L23,3.5 C23,3.5 23,3.4 23,3.3 C23,3.2 23,3.1 23,3 C23,2.9 22.9,2.8 22.8,2.7 C22.7,2.6 22.6,2.6 22.4,2.6 C22.1,2.6 21.9,2.7 21.7,2.8 C21.5,2.9 21.4,3.1 21.3,3.3 C21.2,3.5 21.1,3.6 21.1,3.8 C21.1,4 21,4.1 21,4.2 C21,4.4 20.9,4.6 20.9,4.8 C20.9,5 20.9,5.2 20.9,5.3 C20.9,5.5 21,5.6 21.1,5.7 C21.2,5.8 21.4,5.8 21.6,5.8 C21.8,5.8 21.9,5.8 22,5.7 C22.1,5.6 22.2,5.6 22.3,5.5 C22.4,5.4 22.5,5.3 22.5,5.2 C22.6,5.1 22.6,5 22.6,4.9 L23.4,4.9 L23.4,4.8 Z" id="Path"></path>
                    <path d="M24.2,4.2 C24.3,3.9 24.3,3.7 24.5,3.4 C24.6,3.1 24.8,2.9 25,2.7 C25.2,2.5 25.5,2.3 25.8,2.2 C26.1,2.1 26.4,2 26.9,2 C27.3,2 27.6,2.1 27.9,2.2 C28.1,2.3 28.3,2.5 28.4,2.7 C28.5,2.9 28.6,3.2 28.6,3.4 C28.6,3.7 28.6,3.9 28.5,4.1 C28.4,4.4 28.3,4.7 28.2,5 C28.1,5.3 27.9,5.5 27.7,5.7 C27.5,5.9 27.2,6.1 26.9,6.2 C26.6,6.3 26.3,6.4 25.9,6.4 C25.6,6.4 25.3,6.3 25,6.2 C24.8,6.1 24.6,5.9 24.5,5.7 C24.4,5.5 24.3,5.3 24.3,5 C24.1,4.7 24.2,4.5 24.2,4.2 M25,4.1 C25,4.3 24.9,4.5 24.9,4.7 C24.9,4.9 24.9,5.1 25,5.2 C25.1,5.4 25.2,5.5 25.3,5.6 C25.4,5.7 25.6,5.7 25.8,5.7 C25.9,5.7 26.1,5.7 26.3,5.6 C26.5,5.5 26.6,5.4 26.8,5.3 C26.9,5.2 27.1,5 27.2,4.8 C27.3,4.6 27.4,4.3 27.5,4 C27.6,3.5 27.6,3.1 27.4,2.8 C27.2,2.5 27,2.4 26.6,2.4 C26.5,2.4 26.3,2.4 26.2,2.5 C26,2.5 25.9,2.6 25.7,2.7 C25.5,2.8 25.4,3 25.3,3.2 C25.2,3.5 25.1,3.8 25,4.1" id="Shape"></path>
                    <polygon id="Path" points="32.7 0.2 33.9 0.2 35.8 5.1 36.8 0.2 37.6 0.2 36.3 6.2 35.2 6.2 33.3 1.1 32.2 6.2 31.5 6.2"></polygon>
                    <path d="M40.3,6.2 C40.3,6.1 40.3,6 40.3,5.9 C40.3,5.8 40.3,5.7 40.3,5.6 C40.2,5.8 40,5.9 39.9,6 C39.8,6.1 39.6,6.2 39.5,6.2 C39.4,6.3 39.3,6.3 39.1,6.3 C39,6.3 38.9,6.3 38.8,6.3 C38.6,6.3 38.4,6.3 38.2,6.2 C38,6.1 37.9,6.1 37.8,5.9 C37.7,5.8 37.6,5.7 37.6,5.5 C37.6,5.4 37.6,5.2 37.6,5 C37.6,4.9 37.6,4.8 37.7,4.7 C37.7,4.6 37.8,4.5 37.9,4.4 C38,4.3 38.1,4.2 38.2,4.1 C38.3,4 38.5,3.9 38.6,3.8 C38.7,3.7 38.9,3.7 39,3.7 C39.1,3.7 39.3,3.6 39.4,3.6 C39.5,3.6 39.7,3.6 39.8,3.6 C39.9,3.6 40,3.6 40.1,3.6 C40.2,3.6 40.3,3.6 40.4,3.6 C40.5,3.6 40.6,3.6 40.7,3.6 C40.7,3.5 40.7,3.4 40.8,3.3 C40.8,3.2 40.8,3.1 40.8,3.1 C40.8,3 40.8,3 40.8,2.9 C40.8,2.8 40.8,2.8 40.7,2.8 C40.6,2.7 40.5,2.6 40.4,2.6 C40.3,2.6 40.1,2.5 40,2.5 C39.8,2.5 39.6,2.5 39.5,2.6 C39.4,2.7 39.3,2.7 39.2,2.8 C39.1,2.9 39.1,3 39,3 C39,3.1 39,3.1 38.9,3.2 L38.1,3.2 C38.1,3.1 38.2,3 38.2,2.8 C38.3,2.7 38.4,2.5 38.5,2.4 C38.6,2.3 38.7,2.2 38.8,2.2 C38.9,2.1 39,2.1 39.2,2.1 C39.3,2.1 39.5,2 39.6,2 C39.7,2 39.8,2 40,2 C40.1,2 40.3,2 40.4,2 C40.5,2 40.7,2.1 40.8,2.1 C40.9,2.1 41,2.2 41.1,2.3 C41.2,2.4 41.2,2.5 41.3,2.6 C41.3,2.7 41.4,2.8 41.3,2.9 C41.3,3 41.3,3.1 41.3,3.2 L40.8,5.2 C40.8,5.2 40.8,5.3 40.8,5.3 C40.8,5.4 40.8,5.5 40.8,5.6 C40.8,5.7 40.8,5.8 40.7,5.9 C40.7,6 40.7,6.1 40.7,6.2 L40.3,6.2 L40.3,6.2 Z M40.7,4.2 C40.6,4.2 40.6,4.2 40.5,4.2 C40.4,4.2 40.4,4.2 40.3,4.2 C40.2,4.2 40.1,4.2 39.9,4.2 C39.7,4.2 39.6,4.2 39.4,4.3 C39.2,4.4 39.1,4.4 38.9,4.6 C38.7,4.7 38.7,4.9 38.6,5.1 C38.6,5.2 38.6,5.2 38.6,5.3 C38.6,5.4 38.6,5.5 38.7,5.5 C38.7,5.6 38.8,5.6 38.9,5.7 C39,5.7 39.1,5.8 39.3,5.8 C39.7,5.8 40,5.7 40.3,5.4 C40.4,5.3 40.4,5.3 40.4,5.2 C40.4,5.1 40.5,5.1 40.5,5 C40.5,4.9 40.6,4.8 40.6,4.7 C40.6,4.4 40.6,4.3 40.7,4.2" id="Shape"></path>
                    <path d="M45.4,3.4 C45.4,3.4 45.4,3.3 45.4,3.2 C45.4,3.1 45.4,3 45.4,2.9 C45.4,2.8 45.3,2.7 45.2,2.6 C45.1,2.5 45,2.5 44.8,2.5 C44.5,2.5 44.3,2.6 44.1,2.7 C43.9,2.8 43.8,3 43.7,3.2 C43.6,3.4 43.5,3.5 43.5,3.7 C43.5,3.9 43.4,4 43.4,4.1 C43.4,4.3 43.3,4.5 43.3,4.7 C43.3,4.9 43.3,5.1 43.3,5.2 C43.3,5.4 43.4,5.5 43.5,5.6 C43.6,5.7 43.8,5.7 44,5.7 C44.2,5.7 44.3,5.7 44.4,5.6 C44.5,5.5 44.6,5.5 44.7,5.4 C44.8,5.3 44.9,5.2 44.9,5.1 C45,5 45,4.9 45,4.8 L45.8,4.8 C45.7,5 45.7,5.2 45.5,5.4 C45.4,5.6 45.2,5.7 45.1,5.9 C44.9,6 44.7,6.1 44.5,6.2 C44.3,6.3 44,6.3 43.8,6.3 C43.7,6.3 43.6,6.3 43.5,6.3 C43.4,6.3 43.3,6.3 43.2,6.2 C43.1,6.2 43,6.1 42.9,6 C42.8,5.9 42.7,5.8 42.6,5.7 C42.6,5.6 42.5,5.5 42.5,5.5 C42.5,5.4 42.4,5.3 42.4,5.2 C42.4,5.1 42.4,4.9 42.4,4.8 C42.4,4.6 42.4,4.4 42.5,4.2 C42.6,3.8 42.7,3.4 42.9,3.1 C43.1,2.8 43.3,2.6 43.5,2.4 C43.7,2.2 43.9,2.1 44.2,2 C44.4,1.9 44.7,1.9 44.9,1.9 C45,1.9 45.1,1.9 45.2,1.9 C45.3,1.9 45.4,1.9 45.5,2 C45.6,2 45.7,2.1 45.8,2.2 C45.9,2.3 46,2.4 46.1,2.5 C46.2,2.7 46.3,2.8 46.3,3 C46.3,3.2 46.3,3.3 46.3,3.4 L45.4,3.4 Z" id="Path"></path>
                    <path d="M47.4,2 L48.2,2 L47.3,6.1 L46.5,6.1 L47.4,2 Z M47.7,0.2 L48.6,0.2 L48.4,1 L47.5,1 L47.7,0.2 Z" id="Shape"></path>
                    <path d="M48.9,4.2 C49,3.9 49,3.7 49.2,3.4 C49.3,3.1 49.5,2.9 49.7,2.7 C49.9,2.5 50.2,2.3 50.5,2.2 C50.8,2.1 51.1,2 51.6,2 C52,2 52.3,2.1 52.6,2.2 C52.8,2.3 53,2.5 53.1,2.7 C53.2,2.9 53.3,3.2 53.3,3.4 C53.3,3.7 53.3,3.9 53.2,4.1 C53.1,4.4 53,4.7 52.9,5 C52.8,5.3 52.6,5.5 52.4,5.7 C52.2,5.9 51.9,6.1 51.6,6.2 C51.3,6.3 51,6.4 50.6,6.4 C50.3,6.4 50,6.3 49.7,6.2 C49.5,6.1 49.3,5.9 49.2,5.7 C49.1,5.5 49,5.3 49,5 C48.9,4.7 48.9,4.5 48.9,4.2 M49.8,4.1 C49.8,4.3 49.7,4.5 49.7,4.7 C49.7,4.9 49.7,5.1 49.8,5.2 C49.9,5.4 50,5.5 50.1,5.6 C50.2,5.7 50.4,5.7 50.6,5.7 C50.7,5.7 50.9,5.7 51.1,5.6 C51.3,5.5 51.4,5.4 51.6,5.3 C51.7,5.2 51.9,5 52,4.8 C52.1,4.6 52.2,4.3 52.3,4 C52.4,3.5 52.4,3.1 52.2,2.8 C52,2.5 51.8,2.4 51.4,2.4 C51.3,2.4 51.1,2.4 51,2.5 C50.8,2.5 50.7,2.6 50.5,2.7 C50.3,2.8 50.2,3 50.1,3.2 C49.9,3.5 49.8,3.8 49.8,4.1" id="Shape"></path>
                    <path d="M54.6,2.5 L54.7,2 L55.5,2 L55.4,2.7 C55.4,2.7 55.5,2.6 55.6,2.5 C55.7,2.4 55.8,2.3 55.9,2.3 C56,2.2 56.2,2.1 56.3,2.1 C56.5,2 56.7,2 56.9,2 C57,2 57.1,2 57.3,2 C57.5,2 57.6,2.1 57.8,2.2 C57.9,2.3 58.1,2.4 58.1,2.6 C58.2,2.8 58.2,3 58.1,3.4 L57.5,6.2 L56.7,6.2 L57.3,3.6 C57.3,3.5 57.3,3.3 57.3,3.2 C57.3,3.1 57.3,3 57.2,2.9 C57.1,2.8 57,2.7 56.9,2.7 C56.8,2.7 56.7,2.6 56.5,2.6 C56.4,2.6 56.2,2.6 56.1,2.7 C56,2.7 55.8,2.8 55.7,2.9 C55.6,3 55.5,3.1 55.4,3.3 C55.3,3.5 55.2,3.6 55.2,3.8 L54.7,6.2 L53.9,6.2 L54.6,2.5 Z" id="Path"></path>
                    <path d="M61.4,6.2 C61.4,6.1 61.4,6 61.4,5.9 C61.4,5.8 61.4,5.7 61.4,5.6 C61.3,5.8 61.1,5.9 61,6 C60.9,6.1 60.7,6.2 60.6,6.2 C60.5,6.3 60.4,6.3 60.2,6.3 C60.1,6.3 60,6.3 59.9,6.3 C59.7,6.3 59.5,6.3 59.3,6.2 C59.1,6.1 59,6.1 58.9,5.9 C58.8,5.8 58.7,5.7 58.7,5.5 C58.7,5.4 58.7,5.2 58.7,5 C58.7,4.9 58.7,4.8 58.8,4.7 C58.8,4.6 58.9,4.5 59,4.4 C59.1,4.3 59.2,4.2 59.3,4.1 C59.4,4 59.6,3.9 59.7,3.8 C59.8,3.7 60,3.7 60.1,3.7 C60.2,3.7 60.4,3.6 60.5,3.6 C60.6,3.6 60.8,3.6 60.9,3.6 C61,3.6 61.1,3.6 61.2,3.6 C61.3,3.6 61.4,3.6 61.5,3.6 C61.6,3.6 61.7,3.6 61.8,3.6 C61.8,3.5 61.8,3.4 61.9,3.3 C61.9,3.2 61.9,3.1 61.9,3.1 C61.9,3 61.9,3 61.9,2.9 C61.9,2.8 61.9,2.8 61.8,2.8 C61.7,2.7 61.6,2.6 61.5,2.6 C61.4,2.6 61.2,2.5 61.1,2.5 C60.9,2.5 60.7,2.5 60.6,2.6 C60.5,2.7 60.4,2.7 60.3,2.8 C60.2,2.9 60.2,3 60.1,3 C60.1,3.1 60.1,3.1 60,3.2 L59.2,3.2 C59.2,3.1 59.3,3 59.3,2.8 C59.4,2.7 59.5,2.5 59.6,2.4 C59.7,2.3 59.8,2.2 59.9,2.2 C60,2.1 60.1,2.1 60.3,2.1 C60.4,2.1 60.6,2 60.7,2 C60.8,2 60.9,2 61.1,2 C61.2,2 61.4,2 61.5,2 C61.6,2 61.8,2.1 61.9,2.1 C62,2.1 62.1,2.2 62.2,2.3 C62.3,2.4 62.3,2.5 62.4,2.6 C62.4,2.7 62.5,2.8 62.4,2.9 C62.4,3 62.4,3.1 62.4,3.2 L61.9,5.2 C61.9,5.2 61.9,5.3 61.9,5.3 C61.9,5.4 61.9,5.5 61.9,5.6 C61.9,5.7 61.9,5.8 61.8,5.9 C61.8,6 61.8,6.1 61.8,6.2 L61.4,6.2 L61.4,6.2 Z M61.7,4.2 C61.6,4.2 61.6,4.2 61.5,4.2 C61.4,4.2 61.4,4.2 61.3,4.2 C61.2,4.2 61.1,4.2 60.9,4.2 C60.7,4.2 60.6,4.2 60.4,4.3 C60.2,4.4 60.1,4.4 59.9,4.6 C59.7,4.7 59.7,4.9 59.6,5.1 C59.6,5.2 59.6,5.2 59.6,5.3 C59.6,5.4 59.6,5.5 59.7,5.5 C59.7,5.6 59.8,5.6 59.9,5.7 C60,5.7 60.1,5.8 60.3,5.8 C60.7,5.8 61,5.7 61.3,5.4 C61.4,5.3 61.4,5.3 61.4,5.2 C61.4,5.1 61.5,5.1 61.5,5 C61.5,4.9 61.6,4.8 61.6,4.7 C61.7,4.4 61.7,4.3 61.7,4.2" id="Shape"></path>
                    <polygon id="Path" points="64.7 0.2 65.5 0.2 64.2 6.2 63.5 6.2"></polygon>
                    <path d="M72.2,0.2 L73,0.2 L71.9,5.5 C71.9,5.5 71.9,5.6 71.9,5.6 C71.9,5.7 71.9,5.7 71.9,5.8 C71.9,5.9 71.9,5.9 71.9,6 C71.9,6.1 71.9,6.1 71.9,6.2 L71.1,6.2 L71.2,5.5 C71.2,5.6 71.1,5.6 71,5.7 C70.9,5.8 70.8,5.9 70.7,5.9 C70.5,6 70.3,6.1 70.1,6.1 C69.9,6.1 69.7,6.2 69.6,6.2 C69.5,6.2 69.3,6.2 69.1,6.1 C68.9,6.1 68.7,6 68.6,5.8 C68.4,5.7 68.3,5.4 68.3,5.2 C68.2,4.9 68.2,4.6 68.3,4.1 C68.4,3.7 68.5,3.4 68.7,3.1 C68.9,2.8 69.1,2.6 69.3,2.4 C69.5,2.2 69.7,2.1 70,2 C70.2,1.9 70.5,1.9 70.7,1.9 C70.9,1.9 71.1,1.9 71.2,2 C71.3,2.1 71.5,2.1 71.5,2.2 C71.6,2.3 71.6,2.4 71.7,2.4 C71.7,2.5 71.8,2.5 71.8,2.6 L72.2,0.2 Z M71.4,4.1 C71.5,3.8 71.5,3.6 71.5,3.4 C71.5,3.2 71.4,3.1 71.4,3 C71.3,2.9 71.2,2.8 71.1,2.7 C71,2.6 70.8,2.6 70.6,2.6 C70.4,2.6 70.2,2.6 70.1,2.7 C70,2.8 69.8,2.9 69.7,3 C69.6,3.1 69.5,3.2 69.4,3.4 C69.3,3.5 69.3,3.7 69.2,3.8 C69.2,3.9 69.1,4 69.1,4.1 C69.1,4.2 69.1,4.3 69.1,4.3 C69.1,4.5 69,4.7 69,4.9 C69,5.1 69,5.3 69.1,5.4 C69.1,5.6 69.2,5.7 69.4,5.8 C69.5,5.9 69.7,5.9 69.9,5.9 C70.2,5.9 70.5,5.8 70.6,5.7 C70.8,5.6 71,5.4 71.1,5.2 C71.2,5 71.3,4.8 71.4,4.6 C71.3,4.3 71.4,4.1 71.4,4.1" id="Shape"></path>
                    <path d="M73.9,4.3 C73.8,4.5 73.8,4.7 73.8,4.9 C73.8,5.1 73.8,5.2 73.9,5.4 C74,5.5 74.1,5.6 74.2,5.7 C74.3,5.8 74.5,5.8 74.7,5.8 C75,5.8 75.2,5.7 75.4,5.6 C75.6,5.5 75.8,5.2 75.9,4.9 L76.7,4.9 C76.7,5 76.6,5.1 76.5,5.3 C76.4,5.5 76.3,5.6 76.1,5.8 C76,5.8 76,5.9 75.9,6 C75.8,6.1 75.7,6.1 75.6,6.2 C75.5,6.3 75.3,6.3 75.2,6.3 C75,6.3 74.8,6.4 74.6,6.4 C73.9,6.4 73.5,6.2 73.3,5.8 C73.1,5.4 73,4.9 73.2,4.3 C73.3,3.9 73.4,3.5 73.6,3.2 C73.8,2.9 74.1,2.6 74.4,2.4 C74.5,2.3 74.6,2.3 74.7,2.2 C74.8,2.2 74.9,2.1 75,2.1 C75.1,2.1 75.2,2.1 75.3,2.1 C75.4,2.1 75.5,2.1 75.5,2.1 C75.8,2.1 76.1,2.1 76.3,2.2 C76.5,2.3 76.6,2.4 76.7,2.5 C76.8,2.6 76.9,2.8 76.9,3 C76.9,3.2 76.9,3.3 76.9,3.5 C76.9,3.7 76.9,3.8 76.8,4 C76.8,4.2 76.7,4.3 76.7,4.4 L73.9,4.4 L73.9,4.3 Z M76.2,3.7 C76.2,3.6 76.2,3.5 76.3,3.3 C76.3,3.2 76.3,3 76.3,2.9 C76.3,2.8 76.2,2.7 76.1,2.6 C76,2.5 75.8,2.5 75.6,2.5 C75.5,2.5 75.3,2.5 75.2,2.6 C75.1,2.6 74.9,2.7 74.8,2.8 C74.7,2.9 74.6,3 74.5,3.2 C74.4,3.4 74.3,3.5 74.3,3.8 L76.2,3.8 L76.2,3.7 Z" id="Shape"></path>
                    <path d="M83,0.2 L83.9,0.2 L85,6.1 L84.1,6.1 L83.8,4.6 L81,4.6 L80,6.1 L79.2,6.1 L83,0.2 Z M81.5,4 L83.7,4 L83.3,1 L81.5,4 Z" id="Shape"></path>
                    <path d="M86.6,2.7 C86.6,2.7 86.6,2.6 86.6,2.6 C86.6,2.6 86.6,2.5 86.6,2.5 C86.6,2.5 86.6,2.4 86.6,2.3 C86.6,2.2 86.6,2.2 86.6,2.1 L87.4,2.1 L87.3,2.8 C87.4,2.6 87.6,2.5 87.7,2.4 C87.8,2.3 88,2.2 88.1,2.2 C88.2,2.1 88.4,2.1 88.5,2.1 C88.6,2.1 88.7,2.1 88.8,2.1 C89,2.1 89.2,2.1 89.4,2.2 C89.6,2.3 89.8,2.4 89.9,2.6 C90,2.8 90.1,3 90.1,3.3 C90.1,3.6 90.1,3.9 90,4.3 C89.9,4.7 89.8,5 89.6,5.3 C89.4,5.6 89.3,5.8 89,6 C88.8,6.2 88.6,6.3 88.3,6.4 C88.1,6.5 87.8,6.5 87.6,6.5 C87.3,6.5 87.1,6.4 86.9,6.3 C86.7,6.2 86.6,6 86.5,5.9 L86.1,8 L85.3,8 L86.6,2.7 Z M87,4.2 C87,4.3 87,4.5 86.9,4.7 C86.9,4.9 86.9,5 86.9,5.2 C86.9,5.4 87,5.5 87.2,5.6 C87.3,5.7 87.5,5.8 87.8,5.8 C87.8,5.8 87.9,5.8 88,5.8 C88.1,5.8 88.2,5.8 88.2,5.7 C88.3,5.7 88.4,5.6 88.5,5.6 C88.6,5.5 88.7,5.5 88.8,5.4 C88.9,5.3 89,5.2 89,5.1 C89.1,5 89.1,4.9 89.2,4.7 C89.2,4.6 89.3,4.5 89.3,4.4 C89.3,4.3 89.4,4.2 89.4,4.1 C89.4,3.9 89.5,3.7 89.5,3.5 C89.5,3.3 89.5,3.2 89.4,3 C89.3,2.9 89.3,2.7 89.1,2.7 C89,2.6 88.8,2.6 88.6,2.6 C88.3,2.6 88,2.7 87.8,2.8 C87.6,2.9 87.4,3.1 87.3,3.3 C87.2,3.5 87.1,3.7 87,3.9 C87.1,4 87,4.1 87,4.2" id="Shape"></path>
                    <path d="M91.7,2.9 C91.7,2.8 91.8,2.6 91.8,2.5 C91.8,2.4 91.8,2.2 91.9,2.1 L92.7,2.1 L92.5,2.9 C92.6,2.8 92.7,2.6 92.7,2.5 C92.8,2.4 92.9,2.3 93,2.3 C93.1,2.2 93.2,2.2 93.3,2.2 C93.4,2.2 93.5,2.1 93.6,2.1 C93.7,2.1 93.8,2.1 93.9,2.1 C94,2.1 94.1,2.1 94.1,2.1 L94,2.8 C94,2.8 93.9,2.8 93.9,2.8 C93.9,2.8 93.8,2.8 93.8,2.8 L93.7,2.8 C93.5,2.8 93.3,2.8 93.1,2.9 C92.9,3 92.8,3.1 92.7,3.2 C92.6,3.3 92.5,3.4 92.4,3.6 C92.3,3.8 92.3,3.9 92.2,4.1 L91.7,6.3 L91,6.3 L91.7,2.9 Z" id="Path"></path>
                    <path d="M95,4.3 C94.9,4.5 94.9,4.7 94.9,4.9 C94.9,5.1 94.9,5.2 95,5.4 C95.1,5.5 95.2,5.6 95.3,5.7 C95.4,5.8 95.6,5.8 95.8,5.8 C96.1,5.8 96.3,5.7 96.5,5.6 C96.7,5.5 96.9,5.2 97,4.9 L97.8,4.9 C97.8,5 97.7,5.1 97.6,5.3 C97.5,5.5 97.4,5.6 97.2,5.8 C97.1,5.8 97.1,5.9 97,6 C96.9,6.1 96.8,6.1 96.7,6.2 C96.6,6.3 96.4,6.3 96.3,6.3 C96.1,6.3 95.9,6.4 95.7,6.4 C95,6.4 94.6,6.2 94.4,5.8 C94.2,5.4 94.1,4.9 94.3,4.3 C94.4,3.9 94.5,3.5 94.7,3.2 C94.9,2.9 95.2,2.6 95.5,2.4 C95.6,2.3 95.7,2.3 95.8,2.2 C95.9,2.2 96,2.1 96.1,2.1 C96.2,2.1 96.3,2.1 96.4,2.1 C96.5,2.1 96.6,2.1 96.6,2.1 C96.9,2.1 97.2,2.1 97.4,2.2 C97.6,2.3 97.7,2.4 97.8,2.5 C97.9,2.6 98,2.8 98,3 C98,3.2 98,3.3 98,3.5 C98,3.7 98,3.8 97.9,4 C97.9,4.2 97.8,4.3 97.8,4.4 L95,4.4 L95,4.3 Z M97.3,3.7 C97.3,3.6 97.3,3.5 97.3,3.3 C97.3,3.2 97.3,3 97.3,2.9 C97.3,2.8 97.2,2.7 97.1,2.6 C97,2.5 96.8,2.5 96.6,2.5 C96.5,2.5 96.3,2.5 96.2,2.6 C96.1,2.6 95.9,2.7 95.8,2.8 C95.7,2.9 95.6,3 95.5,3.2 C95.4,3.4 95.3,3.5 95.3,3.8 L97.3,3.8 L97.3,3.7 Z" id="Shape"></path>
                    <path d="M99.5,2.5 L99.6,2 L100.4,2 L100.3,2.7 C100.3,2.7 100.4,2.6 100.5,2.5 C100.6,2.4 100.7,2.3 100.8,2.3 C100.9,2.2 101.1,2.1 101.2,2.1 C101.4,2 101.6,2 101.8,2 C101.9,2 102,2 102.2,2 C102.4,2 102.5,2.1 102.7,2.2 C102.8,2.3 103,2.4 103,2.6 C103.1,2.8 103.1,3 103,3.4 L102.4,6.2 L101.6,6.2 L102.2,3.6 C102.2,3.5 102.2,3.3 102.2,3.2 C102.2,3.1 102.2,3 102.1,2.9 C102,2.8 101.9,2.7 101.8,2.7 C101.7,2.7 101.6,2.6 101.4,2.6 C101.3,2.6 101.1,2.6 101,2.7 C100.9,2.7 100.7,2.8 100.6,2.9 C100.5,3 100.4,3.1 100.3,3.3 C100.2,3.5 100.1,3.6 100.1,3.8 L99.6,6.2 L98.8,6.2 L99.5,2.5 Z" id="Path"></path>
                    <path d="M107.9,0.2 L108.7,0.2 L107.6,5.5 C107.6,5.5 107.6,5.6 107.6,5.6 C107.6,5.7 107.6,5.7 107.6,5.8 C107.6,5.9 107.6,5.9 107.6,6 C107.6,6.1 107.6,6.1 107.6,6.2 L106.8,6.2 L106.9,5.5 C106.9,5.6 106.8,5.6 106.7,5.7 C106.6,5.8 106.5,5.9 106.4,5.9 C106.2,6 106,6.1 105.8,6.1 C105.6,6.1 105.4,6.2 105.3,6.2 C105.2,6.2 105,6.2 104.8,6.1 C104.6,6.1 104.4,6 104.3,5.8 C104.1,5.7 104,5.4 104,5.2 C103.9,4.9 103.9,4.6 104,4.1 C104.1,3.7 104.2,3.4 104.4,3.1 C104.6,2.8 104.8,2.6 105,2.4 C105.2,2.2 105.4,2.1 105.7,2 C105.9,1.9 106.2,1.9 106.4,1.9 C106.6,1.9 106.8,1.9 106.9,2 C107,2.1 107.2,2.1 107.2,2.2 C107.3,2.3 107.3,2.4 107.4,2.4 C107.4,2.5 107.5,2.5 107.5,2.6 L107.9,0.2 Z M107.1,4.1 C107.2,3.8 107.2,3.6 107.2,3.4 C107.2,3.2 107.1,3.1 107.1,3 C107,2.9 106.9,2.8 106.8,2.7 C106.7,2.6 106.5,2.6 106.3,2.6 C106.1,2.6 105.9,2.6 105.8,2.7 C105.7,2.8 105.5,2.9 105.4,3 C105.3,3.1 105.2,3.2 105.1,3.4 C105,3.5 105,3.7 104.9,3.8 C104.9,3.9 104.8,4 104.8,4.1 C104.8,4.2 104.8,4.3 104.8,4.3 C104.8,4.5 104.7,4.7 104.7,4.9 C104.7,5.1 104.7,5.3 104.8,5.4 C104.8,5.6 104.9,5.7 105.1,5.8 C105.2,5.9 105.4,5.9 105.6,5.9 C105.9,5.9 106.2,5.8 106.3,5.7 C106.5,5.6 106.7,5.4 106.8,5.2 C106.9,5 107,4.8 107.1,4.6 C107,4.3 107.1,4.1 107.1,4.1" id="Shape"></path>
                    <path d="M109.6,2 L110.4,2 L109.5,6.1 L108.7,6.1 L109.6,2 Z M109.9,0.2 L110.8,0.2 L110.6,1 L109.7,1 L109.9,0.2 Z" id="Shape"></path>
                    <polygon id="Path" points="110.7 5.4 113.5 2.6 111.4 2.6 111.6 2 114.5 2 114.4 2.7 111.5 5.6 113.8 5.6 113.7 6.2 110.6 6.2"></polygon>
                    <path d="M117.2,6.2 C117.2,6.1 117.2,6 117.2,5.9 C117.2,5.8 117.2,5.7 117.2,5.6 C117.1,5.8 116.9,5.9 116.8,6 C116.7,6.1 116.5,6.2 116.4,6.2 C116.3,6.3 116.2,6.3 116,6.3 C115.9,6.3 115.8,6.3 115.7,6.3 C115.5,6.3 115.3,6.3 115.1,6.2 C114.9,6.1 114.8,6.1 114.7,5.9 C114.6,5.8 114.5,5.7 114.5,5.5 C114.5,5.4 114.5,5.2 114.5,5 C114.5,4.9 114.5,4.8 114.6,4.7 C114.6,4.6 114.7,4.5 114.8,4.4 C114.9,4.3 115,4.2 115.1,4.1 C115.2,4 115.4,3.9 115.5,3.8 C115.6,3.7 115.8,3.7 115.9,3.7 C116,3.7 116.2,3.6 116.3,3.6 C116.4,3.6 116.6,3.6 116.7,3.6 C116.8,3.6 116.9,3.6 117,3.6 C117.1,3.6 117.2,3.6 117.3,3.6 C117.4,3.6 117.5,3.6 117.6,3.6 C117.6,3.5 117.6,3.4 117.7,3.3 C117.7,3.2 117.7,3.1 117.7,3.1 C117.7,3 117.7,3 117.7,2.9 C117.7,2.8 117.7,2.8 117.6,2.8 C117.5,2.7 117.4,2.6 117.3,2.6 C117.2,2.6 117,2.5 116.9,2.5 C116.7,2.5 116.5,2.5 116.4,2.6 C116.3,2.7 116.2,2.7 116.1,2.8 C116,2.9 116,3 115.9,3 C115.9,3.1 115.9,3.1 115.8,3.2 L115,3.2 C115,3.1 115.1,3 115.1,2.8 C115.2,2.7 115.3,2.5 115.4,2.4 C115.5,2.3 115.6,2.2 115.7,2.2 C115.8,2.1 115.9,2.1 116.1,2.1 C116.2,2.1 116.4,2 116.5,2 C116.6,2 116.7,2 116.9,2 C117,2 117.2,2 117.3,2 C117.4,2 117.6,2.1 117.7,2.1 C117.8,2.1 117.9,2.2 118,2.3 C118.1,2.4 118.1,2.5 118.2,2.6 C118.2,2.7 118.3,2.8 118.2,2.9 C118.2,3 118.2,3.1 118.2,3.2 L117.7,5.2 C117.7,5.2 117.7,5.3 117.7,5.3 C117.7,5.4 117.7,5.5 117.7,5.6 C117.7,5.7 117.7,5.8 117.6,5.9 C117.6,6 117.6,6.1 117.6,6.2 L117.2,6.2 L117.2,6.2 Z M117.6,4.2 C117.5,4.2 117.5,4.2 117.4,4.2 C117.3,4.2 117.3,4.2 117.2,4.2 C117.1,4.2 117,4.2 116.8,4.2 C116.6,4.2 116.5,4.2 116.3,4.3 C116.1,4.4 116,4.4 115.8,4.6 C115.6,4.7 115.6,4.9 115.5,5.1 C115.5,5.2 115.5,5.2 115.5,5.3 C115.5,5.4 115.5,5.5 115.6,5.5 C115.6,5.6 115.7,5.6 115.8,5.7 C115.9,5.7 116,5.8 116.2,5.8 C116.6,5.8 116.9,5.7 117.2,5.4 C117.3,5.3 117.3,5.3 117.3,5.2 C117.3,5.1 117.4,5.1 117.4,5 C117.4,4.9 117.5,4.8 117.5,4.7 C117.5,4.4 117.5,4.3 117.6,4.2" id="Shape"></path>
                    <path d="M120,6.5 C120,6.6 120,6.7 120,6.8 C120,6.9 120.1,7 120.1,7.1 C120.2,7.2 120.2,7.2 120.4,7.3 C120.5,7.3 120.7,7.4 120.8,7.4 C121.1,7.4 121.3,7.4 121.5,7.3 C121.7,7.2 121.8,7.1 121.9,6.9 C122,6.7 122.1,6.5 122.2,6.3 C122.3,6.1 122.3,5.8 122.4,5.5 C122.3,5.7 122.1,5.8 122,5.9 C121.9,6 121.7,6.1 121.6,6.1 C121.5,6.1 121.3,6.2 121.2,6.2 C121.1,6.2 121,6.2 120.9,6.2 C120.8,6.2 120.7,6.2 120.6,6.2 C120.5,6.2 120.4,6.2 120.3,6.1 C120.2,6.1 120.1,6 120,5.9 C119.9,5.8 119.8,5.7 119.8,5.6 C119.7,5.4 119.6,5.2 119.6,4.9 C119.6,4.6 119.6,4.4 119.7,4.1 C119.8,3.7 119.9,3.4 120,3.2 C120.2,2.9 120.3,2.7 120.5,2.5 C120.7,2.3 120.9,2.2 121.2,2.1 C121.4,2 121.7,2 121.9,2 C122.1,2 122.3,2 122.4,2.1 C122.5,2.1 122.6,2.2 122.7,2.3 C122.8,2.4 122.9,2.4 122.9,2.5 C122.9,2.6 123,2.6 123,2.7 L123,2 L123.7,2 L123.5,2.7 L122.9,5.3 C122.8,5.5 122.8,5.8 122.8,5.9 C122.8,6.1 122.7,6.2 122.7,6.4 C122.7,6.5 122.6,6.6 122.6,6.7 C122.6,6.8 122.5,6.9 122.4,7 C122.3,7.2 122.1,7.3 122,7.4 C121.8,7.5 121.7,7.6 121.5,7.6 C121.3,7.6 121.2,7.7 121,7.7 C120.8,7.7 120.7,7.7 120.5,7.7 C120.2,7.7 120,7.7 119.8,7.6 C119.6,7.6 119.5,7.5 119.4,7.4 C119.3,7.3 119.2,7.3 119.2,7.2 C119.1,7.1 119.1,7 119.1,6.9 C119.1,6.8 119.1,6.7 119.1,6.6 C119.1,6.5 119.1,6.4 119.1,6.3 L120,6.3 L120,6.5 Z M121.1,5.5 C121.3,5.5 121.5,5.5 121.7,5.4 C121.9,5.3 122,5.2 122.1,5.1 C122.2,5 122.2,5 122.3,4.9 C122.3,4.8 122.4,4.8 122.4,4.7 C122.4,4.6 122.5,4.5 122.5,4.4 C122.5,4.3 122.6,4.1 122.6,3.9 C122.7,3.6 122.7,3.4 122.6,3.3 C122.6,3.1 122.5,3 122.4,2.9 C122.3,2.8 122.2,2.7 122.1,2.6 C122,2.5 121.8,2.5 121.6,2.5 C121.4,2.5 121.1,2.6 121,2.7 C120.8,2.8 120.7,2.9 120.6,3.1 C120.5,3.3 120.4,3.4 120.3,3.6 C120.2,3.8 120.2,3.9 120.2,4.1 C120.2,4.3 120.1,4.4 120.1,4.6 C120.1,4.8 120.1,4.9 120.2,5.1 C120.3,5.2 120.3,5.4 120.5,5.5 C120.6,5.5 120.8,5.5 121.1,5.5" id="Shape"></path>
                    <path d="M125.2,4.3 C125.1,4.5 125.1,4.7 125.1,4.9 C125.1,5.1 125.1,5.2 125.2,5.4 C125.3,5.5 125.4,5.6 125.5,5.7 C125.6,5.8 125.8,5.8 126,5.8 C126.3,5.8 126.5,5.7 126.7,5.6 C126.9,5.5 127.1,5.2 127.2,4.9 L128,4.9 C128,5 127.9,5.1 127.8,5.3 C127.7,5.5 127.6,5.6 127.4,5.8 C127.3,5.8 127.3,5.9 127.2,6 C127.1,6.1 127,6.1 126.9,6.2 C126.8,6.3 126.6,6.3 126.5,6.3 C126.3,6.3 126.1,6.4 125.9,6.4 C125.2,6.4 124.8,6.2 124.6,5.8 C124.4,5.4 124.3,4.9 124.5,4.3 C124.6,3.9 124.7,3.5 124.9,3.2 C125.1,2.9 125.4,2.6 125.7,2.4 C125.8,2.3 125.9,2.3 126,2.2 C126.1,2.2 126.2,2.1 126.3,2.1 C126.4,2.1 126.5,2.1 126.6,2.1 C126.7,2.1 126.8,2.1 126.8,2.1 C127.1,2.1 127.4,2.1 127.6,2.2 C127.8,2.3 127.9,2.4 128,2.5 C128.1,2.6 128.2,2.8 128.2,3 C128.2,3.2 128.2,3.3 128.2,3.5 C128.2,3.7 128.2,3.8 128.1,4 C128.1,4.2 128,4.3 128,4.4 L125.2,4.4 L125.2,4.3 Z M127.5,3.7 C127.5,3.6 127.5,3.5 127.5,3.3 C127.5,3.2 127.5,3 127.5,2.9 C127.5,2.8 127.4,2.7 127.3,2.6 C127.2,2.5 127,2.5 126.8,2.5 C126.7,2.5 126.5,2.5 126.4,2.6 C126.3,2.6 126.1,2.7 126,2.8 C125.9,2.9 125.8,3 125.7,3.2 C125.6,3.4 125.5,3.5 125.5,3.8 L127.5,3.8 L127.5,3.7 Z" id="Shape"></path>
                    <path d="M129.6,2.6 L129.7,2 L130.5,2 L130.4,2.6 C130.5,2.4 130.7,2.3 130.8,2.2 C130.9,2.1 131.1,2 131.2,2 C131.3,2 131.4,1.9 131.6,1.9 C131.7,1.9 131.8,1.9 131.9,1.9 C132.1,1.9 132.3,1.9 132.5,2 C132.6,2.1 132.8,2.1 132.8,2.2 C132.9,2.3 133,2.4 133,2.5 C133,2.6 133.1,2.7 133.1,2.8 C133.1,2.7 133.2,2.7 133.3,2.6 C133.4,2.5 133.5,2.4 133.6,2.3 C133.7,2.2 133.9,2.1 134,2.1 C134.2,2 134.4,2 134.6,2 C134.7,2 134.9,2 135.1,2.1 C135.3,2.1 135.4,2.2 135.5,2.3 C135.6,2.4 135.7,2.6 135.8,2.7 C135.9,2.9 135.9,3.1 135.8,3.4 L135.2,6.2 L134.4,6.2 L135,3.5 C135,3.3 135.1,3.2 135,3.1 C135,3 135,2.9 135,2.9 C135,2.8 134.9,2.7 134.8,2.6 C134.7,2.5 134.5,2.5 134.3,2.5 C134.2,2.5 134.1,2.5 134,2.5 C133.9,2.5 133.8,2.6 133.7,2.6 C133.6,2.6 133.5,2.7 133.5,2.7 C133.4,2.7 133.4,2.8 133.4,2.8 C133.3,2.9 133.3,2.9 133.2,3 C133.2,3.1 133.1,3.2 133.1,3.3 C133.1,3.4 133,3.5 133,3.5 C133,3.6 133,3.6 133,3.7 L132.5,6 L131.7,6 L132.3,3.3 C132.4,3 132.3,2.8 132.2,2.7 C132.1,2.5 131.9,2.4 131.6,2.4 C131.5,2.4 131.3,2.4 131.2,2.5 C131.1,2.5 131,2.6 130.9,2.6 C130.8,2.6 130.7,2.7 130.7,2.7 C130.6,2.7 130.6,2.8 130.6,2.8 C130.5,2.9 130.4,3.1 130.4,3.2 C130.4,3.4 130.3,3.5 130.3,3.6 L129.8,5.9 L129,5.9 L129.6,2.6 Z" id="Path"></path>
                    <polygon id="Path" points="140.2 0.2 141 0.2 139.8 6.2 139 6.2"></polygon>
                    <path d="M142,2.5 L142.1,2 L142.9,2 L142.8,2.7 C142.8,2.7 142.9,2.6 143,2.5 C143.1,2.4 143.2,2.3 143.3,2.3 C143.4,2.2 143.6,2.1 143.7,2.1 C143.9,2 144.1,2 144.3,2 C144.4,2 144.5,2 144.7,2 C144.9,2 145,2.1 145.2,2.2 C145.3,2.3 145.5,2.4 145.5,2.6 C145.6,2.8 145.6,3 145.5,3.4 L144.9,6.2 L144.1,6.2 L144.7,3.6 C144.7,3.5 144.7,3.3 144.7,3.2 C144.7,3.1 144.7,3 144.6,2.9 C144.5,2.8 144.4,2.7 144.3,2.7 C144.2,2.7 144.1,2.6 143.9,2.6 C143.8,2.6 143.6,2.6 143.5,2.7 C143.4,2.7 143.2,2.8 143.1,2.9 C143,3 142.9,3.1 142.8,3.3 C142.7,3.5 142.6,3.6 142.6,3.8 L142.1,6.2 L141.3,6.2 L142,2.5 Z" id="Path"></path>
                    <path d="M150.4,0.2 L151.2,0.2 L150.1,5.5 C150.1,5.5 150.1,5.6 150.1,5.6 C150.1,5.7 150.1,5.7 150.1,5.8 C150.1,5.9 150.1,5.9 150.1,6 C150.1,6.1 150.1,6.1 150.1,6.2 L149.3,6.2 L149.4,5.5 C149.4,5.6 149.3,5.6 149.2,5.7 C149.1,5.8 149,5.9 148.9,5.9 C148.7,6 148.5,6.1 148.3,6.1 C148.1,6.1 147.9,6.2 147.8,6.2 C147.7,6.2 147.5,6.2 147.3,6.1 C147.1,6.1 146.9,6 146.8,5.8 C146.6,5.7 146.5,5.4 146.5,5.2 C146.4,4.9 146.4,4.6 146.5,4.1 C146.6,3.7 146.7,3.4 146.9,3.1 C147.1,2.8 147.3,2.6 147.5,2.4 C147.7,2.2 147.9,2.1 148.2,2 C148.4,1.9 148.7,1.9 148.9,1.9 C149.1,1.9 149.3,1.9 149.4,2 C149.5,2.1 149.7,2.1 149.7,2.2 C149.8,2.3 149.8,2.4 149.9,2.4 C149.9,2.5 150,2.5 150,2.6 L150.4,0.2 Z M149.6,4.1 C149.7,3.8 149.7,3.6 149.7,3.4 C149.7,3.2 149.6,3.1 149.6,3 C149.5,2.9 149.4,2.8 149.3,2.7 C149.2,2.6 149,2.6 148.8,2.6 C148.6,2.6 148.4,2.6 148.3,2.7 C148.2,2.8 148,2.9 147.9,3 C147.8,3.1 147.7,3.2 147.6,3.4 C147.5,3.5 147.5,3.7 147.4,3.8 C147.4,3.9 147.3,4 147.3,4.1 C147.3,4.2 147.3,4.3 147.3,4.3 C147.3,4.5 147.2,4.7 147.2,4.9 C147.2,5.1 147.2,5.3 147.3,5.4 C147.3,5.6 147.4,5.7 147.6,5.8 C147.7,5.9 147.9,5.9 148.1,5.9 C148.4,5.9 148.7,5.8 148.8,5.7 C149,5.6 149.2,5.4 149.3,5.2 C149.4,5 149.5,4.8 149.6,4.6 C149.6,4.3 149.6,4.1 149.6,4.1" id="Shape"></path>
                    <path d="M152.9,2 L152.3,4.7 C152.3,4.8 152.3,4.9 152.3,5 C152.3,5.1 152.3,5.2 152.4,5.3 C152.4,5.4 152.5,5.5 152.6,5.5 C152.7,5.6 152.9,5.6 153,5.6 C153.2,5.6 153.4,5.6 153.6,5.5 C153.8,5.4 154,5.3 154.1,5.1 C154.2,5 154.3,4.8 154.3,4.7 C154.3,4.6 154.4,4.4 154.4,4.3 L154.9,2 L155.7,2 L155,5.4 C155,5.4 155,5.5 155,5.5 C155,5.6 155,5.6 155,5.7 C155,5.8 155,5.9 155,5.9 C155,6 155,6.1 155,6.1 L154.2,6.1 L154.3,5.4 C154.3,5.5 154.2,5.6 154.1,5.6 C154,5.7 153.9,5.8 153.8,5.8 C153.7,5.9 153.5,5.9 153.4,6 C153.2,6.1 153,6.1 152.8,6.1 C152.5,6.1 152.3,6.1 152.2,6 C152,5.9 151.9,5.8 151.8,5.7 C151.7,5.6 151.6,5.4 151.6,5.3 C151.6,5.1 151.6,4.9 151.6,4.7 L152.2,1.9 L152.9,1.9 L152.9,2 Z" id="Path"></path>
                    <path d="M157,5 C157,5.1 157,5.2 157,5.2 C157,5.3 157,5.4 157.1,5.4 C157.2,5.5 157.2,5.5 157.3,5.6 C157.4,5.6 157.6,5.7 157.7,5.7 C157.9,5.7 158,5.7 158.1,5.6 C158.2,5.6 158.3,5.5 158.4,5.4 C158.5,5.3 158.6,5.2 158.6,5 C158.6,4.9 158.6,4.8 158.6,4.8 C158.6,4.7 158.5,4.7 158.5,4.6 C158.4,4.6 158.3,4.5 158.2,4.5 C158.1,4.5 158,4.4 157.8,4.4 C157.6,4.4 157.4,4.3 157.2,4.2 C157,4.1 156.9,4.1 156.7,4 C156.6,3.9 156.5,3.8 156.4,3.7 C156.3,3.6 156.3,3.4 156.4,3.2 C156.4,3 156.5,2.8 156.6,2.7 C156.7,2.5 156.9,2.4 157,2.3 C157.2,2.2 157.4,2.1 157.6,2 C157.8,1.9 158,1.9 158.3,1.9 C158.4,1.9 158.6,1.9 158.7,1.9 C158.8,1.9 159,2 159.1,2 C159.2,2 159.3,2.1 159.4,2.2 C159.5,2.3 159.6,2.4 159.6,2.5 C159.6,2.6 159.6,2.7 159.6,2.8 C159.6,2.9 159.6,3 159.6,3.1 L158.8,3.1 C158.8,2.9 158.8,2.8 158.8,2.7 C158.8,2.6 158.7,2.5 158.6,2.5 C158.5,2.5 158.4,2.4 158.4,2.4 C158.3,2.4 158.2,2.4 158.2,2.4 C158.2,2.4 158.1,2.4 158,2.4 C157.9,2.4 157.8,2.4 157.7,2.5 C157.6,2.5 157.5,2.6 157.4,2.7 C157.3,2.8 157.2,2.9 157.2,3 C157.2,3.1 157.2,3.2 157.2,3.2 C157.2,3.3 157.3,3.3 157.3,3.4 C157.4,3.4 157.4,3.5 157.5,3.5 C157.6,3.5 157.6,3.5 157.7,3.6 C158,3.7 158.2,3.7 158.4,3.8 C158.6,3.8 158.7,3.9 158.8,3.9 C158.9,3.9 159,4 159.1,4 C159.2,4 159.2,4.1 159.3,4.1 C159.4,4.2 159.4,4.3 159.5,4.5 C159.5,4.6 159.5,4.8 159.5,4.9 C159.5,5.1 159.4,5.3 159.2,5.5 C159.1,5.7 158.9,5.8 158.7,5.9 C158.5,6 158.3,6.1 158.1,6.1 C157.9,6.1 157.7,6.2 157.4,6.2 C157.2,6.2 157,6.2 156.8,6.1 C156.6,6.1 156.5,6 156.3,5.9 C156.2,5.8 156.1,5.7 156,5.5 C155.9,5.3 155.9,5.1 156,4.9 L157,4.9 L157,5 Z" id="Path"></path>
                    <path d="M160.7,2 L161.4,2 L161.6,1.1 L162.4,0.9 L162.2,2 L163.1,2 L163,2.6 L162.1,2.6 L161.6,5.1 C161.6,5.1 161.6,5.2 161.6,5.3 C161.6,5.4 161.6,5.4 161.6,5.5 C161.6,5.6 161.7,5.6 161.7,5.6 C161.8,5.6 161.9,5.7 162,5.7 C162.1,5.7 162.2,5.7 162.2,5.7 C162.3,5.7 162.3,5.7 162.4,5.7 L162.3,6.3 C162.2,6.3 162.1,6.3 162,6.3 C161.9,6.3 161.8,6.3 161.6,6.3 C161.2,6.3 161,6.2 160.8,6.1 C160.7,6 160.6,5.7 160.7,5.4 L161.3,2.6 L160.6,2.6 L160.7,2 Z" id="Path"></path>
                    <path d="M163.9,2.9 C163.9,2.8 164,2.6 164,2.5 C164,2.4 164,2.2 164.1,2.1 L164.9,2.1 L164.7,2.9 C164.8,2.8 164.9,2.6 164.9,2.5 C165,2.4 165.1,2.3 165.2,2.3 C165.3,2.2 165.4,2.2 165.5,2.2 C165.6,2.2 165.7,2.1 165.8,2.1 C165.9,2.1 166,2.1 166.1,2.1 C166.2,2.1 166.3,2.1 166.3,2.1 L166.1,2.9 C166.1,2.9 166,2.9 166,2.9 C166,2.9 165.9,2.9 165.9,2.9 L165.8,2.9 C165.6,2.9 165.4,2.9 165.2,3 C165,3.1 164.9,3.2 164.8,3.3 C164.7,3.4 164.6,3.5 164.5,3.7 C164.4,3.9 164.4,4 164.3,4.2 L163.8,6.4 L163,6.4 L163.9,2.9 Z" id="Path"></path>
                    <path d="M167.3,2 L168.1,2 L167.2,6.1 L166.4,6.1 L167.3,2 Z M167.6,0.2 L168.5,0.2 L168.3,1 L167.4,1 L167.6,0.2 Z" id="Shape"></path>
                    <path d="M171.2,6.2 C171.2,6.1 171.2,6 171.2,5.9 C171.2,5.8 171.2,5.7 171.2,5.6 C171.1,5.8 170.9,5.9 170.8,6 C170.7,6.1 170.5,6.2 170.4,6.2 C170.3,6.3 170.2,6.3 170,6.3 C169.9,6.3 169.8,6.3 169.7,6.3 C169.5,6.3 169.3,6.3 169.1,6.2 C168.9,6.1 168.8,6.1 168.7,5.9 C168.6,5.8 168.5,5.7 168.5,5.5 C168.5,5.4 168.5,5.2 168.5,5 C168.5,4.9 168.5,4.8 168.6,4.7 C168.6,4.6 168.7,4.5 168.8,4.4 C168.9,4.3 169,4.2 169.1,4.1 C169.2,4 169.4,3.9 169.5,3.8 C169.6,3.7 169.8,3.7 169.9,3.7 C170,3.7 170.2,3.6 170.3,3.6 C170.4,3.6 170.6,3.6 170.7,3.6 C170.8,3.6 170.9,3.6 171,3.6 C171.1,3.6 171.2,3.6 171.3,3.6 C171.4,3.6 171.5,3.6 171.6,3.6 C171.6,3.5 171.6,3.4 171.7,3.3 C171.7,3.2 171.7,3.1 171.7,3.1 C171.7,3 171.7,3 171.7,2.9 C171.7,2.8 171.7,2.8 171.6,2.8 C171.5,2.7 171.4,2.6 171.3,2.6 C171.2,2.6 171,2.5 170.9,2.5 C170.7,2.5 170.5,2.5 170.4,2.6 C170.3,2.7 170.2,2.7 170.1,2.8 C170,2.9 170,3 169.9,3 C169.9,3.1 169.9,3.1 169.8,3.2 L169,3.2 C169,3.1 169.1,3 169.1,2.8 C169.2,2.7 169.3,2.5 169.4,2.4 C169.5,2.3 169.6,2.2 169.7,2.2 C169.8,2.1 169.9,2.1 170.1,2.1 C170.2,2.1 170.4,2 170.5,2 C170.6,2 170.7,2 170.9,2 C171,2 171.2,2 171.3,2 C171.4,2 171.6,2.1 171.7,2.1 C171.8,2.1 171.9,2.2 172,2.3 C172.1,2.4 172.1,2.5 172.2,2.6 C172.2,2.7 172.3,2.8 172.2,2.9 C172.2,3 172.2,3.1 172.2,3.2 L171.7,5.2 C171.7,5.2 171.7,5.3 171.7,5.3 C171.7,5.4 171.7,5.5 171.7,5.6 C171.7,5.7 171.7,5.8 171.6,5.9 C171.6,6 171.6,6.1 171.6,6.2 L171.2,6.2 L171.2,6.2 Z M171.6,4.2 C171.5,4.2 171.5,4.2 171.4,4.2 C171.3,4.2 171.3,4.2 171.2,4.2 C171.1,4.2 171,4.2 170.8,4.2 C170.6,4.2 170.5,4.2 170.3,4.3 C170.1,4.4 170,4.4 169.8,4.6 C169.6,4.7 169.6,4.9 169.5,5.1 C169.5,5.2 169.5,5.2 169.5,5.3 C169.5,5.4 169.5,5.5 169.6,5.5 C169.6,5.6 169.7,5.6 169.8,5.7 C169.9,5.7 170,5.8 170.2,5.8 C170.6,5.8 170.9,5.7 171.2,5.4 C171.3,5.3 171.3,5.3 171.3,5.2 C171.3,5.1 171.4,5.1 171.4,5 C171.4,4.9 171.5,4.8 171.5,4.7 C171.5,4.4 171.5,4.3 171.6,4.2" id="Shape"></path>
                    <polygon id="Path" points="174.5 0.2 175.3 0.2 174.1 6.2 173.3 6.2"></polygon>
                </g>
                <g transform="translate(31.000000, 0.000000)">
                    <polygon id="Path" points="84.3 8.2 82.4 11.7 79.7 16.8 82.4 16.8 85.2 16.8 84.4 8.2"></polygon>
                    <path d="M0,0 L0,4.2 L6.1,4.2 L6.1,5 L0,5 L0,9.1 L6.1,9.1 L6.1,9.9 L0,9.9 L0,14.1 L6.1,14.1 L6.1,14.9 L0,14.9 L0,19.2 L6.1,19.2 L6.1,20 L0,20 L0,24 L6.1,24 L6.1,24.8 L0,24.8 L0,29 L113.2,29 L113.2,0 L0,0 Z M27.6,10.3 L21.9,10.3 C22.1,9.5 22,8.9 21.5,8.5 C21.1,8.1 20.4,7.8 19.4,7.8 C18.1,7.8 16.8,8.7 16.5,9.7 C16.2,11.2 17.9,11.7 19.3,12.1 C22.6,13 27.5,13.3 26.3,18.9 C25.4,23.2 20.7,25.3 15.9,25.3 C11.1,25.3 7.2,23.9 8.3,18.3 L14,18.3 C13.6,20.2 14.8,21.3 16.8,21.3 C18.1,21.3 19.9,20.6 20.2,19.2 C20.8,16.4 16.4,17 12.4,15 C10.5,14.1 9.9,12.2 10.4,10 C11.7,5.1 16.2,3.8 20.5,3.8 C25,3.8 29,5.3 27.6,10.3 M45.1,16.5 L35.9,16.5 L35,20.8 L45,20.8 L44.2,24.8 L28.4,24.8 L32.8,4.2 L47.9,4.2 L48.5,4.2 L47.9,6.9 L47.6,8.2 L37.6,8.2 L36.7,12.4 L45.9,12.4 L45.1,16.5 Z M59.5,24.8 L55.9,9 L55.8,9 L52.4,24.8 L47.8,24.8 L47.2,24.8 L47.8,22.1 L51.6,4.2 L59.6,4.2 L63.2,19.5 L63.3,19.4 L66.6,4.1 L70.6,4.1 L71.7,4.1 L70.6,9.4 L67.4,24.7 L59.5,24.7 L59.5,24.8 Z M86.3,24.8 L85.8,20.8 L82.5,20.8 L77.4,20.8 L75.2,24.8 L70.6,24.8 L69.5,24.8 L70.6,22.9 L82,4.2 L82.4,4.2 L88.9,4.2 L92.6,24.8 L86.3,24.8 Z M100.6,24.8 L94.9,24.8 L99.3,4.2 L105,4.2 L100.6,24.8 Z M113.2,24.8 L107.1,24.8 L107.1,24 L113.2,24 L113.2,24.8 Z M113.2,19.9 L107.1,19.9 L107.1,19.1 L113.2,19.1 L113.2,19.9 Z M113.2,14.9 L107.1,14.9 L107.1,14.1 L113.2,14.1 L113.2,14.9 Z M113.2,9.9 L107.1,9.9 L107.1,9.1 L113.2,9.1 L113.2,9.9 Z M113.2,5 L107.1,5 L107.1,4.2 L113.2,4.2 L113.2,5 Z" id="Shape"></path>
                </g>
                <g transform="translate(32.000000, 47.000000)">
                    <path d="M3,1.1 C3.3,1.1 3.6,1.1 3.9,1.2 C4.1,1.3 4.3,1.4 4.5,1.5 C4.6,1.6 4.8,1.8 4.8,2 C4.9,2.2 4.9,2.4 4.9,2.7 C4.9,3 4.9,3.2 4.8,3.4 C4.7,3.6 4.6,3.8 4.5,3.9 C4.3,4 4.1,4 4,4.1 C3.8,4.2 3.7,4.2 3.5,4.3 C3.5,4.3 3.4,4.3 3.4,4.3 C3.4,4.3 3.3,4.3 3.3,4.3 C3.3,4.3 3.2,4.3 3.2,4.3 L3,4.3 L1.9,4.3 L1.9,6.1 L0.5,6.1 L0.5,1.1 L3,1.1 Z M1.9,3.3 L2.5,3.3 C2.6,3.3 2.8,3.3 2.9,3.3 C3,3.3 3.1,3.2 3.2,3.2 C3.3,3.1 3.3,3.1 3.4,3 C3.4,2.9 3.5,2.8 3.5,2.7 C3.5,2.6 3.5,2.5 3.4,2.4 C3.4,2.3 3.3,2.3 3.2,2.2 C3.1,2.2 3,2.1 2.9,2.1 C2.8,2.1 2.7,2.1 2.5,2.1 L2,2.1 L2,3.3 L1.9,3.3 Z" id="Shape"></path>
                    <polygon id="Path" points="9.3 1.1 9.3 2.1 6.9 2.1 6.9 3.1 9.1 3.1 9.1 4.1 6.9 4.1 6.9 5.1 9.3 5.1 9.3 6.1 5.5 6.1 5.5 1.1"></polygon>
                    <polygon id="Path" points="11.5 1.1 11.5 5.1 13.7 5.1 13.7 6.1 10.1 6.1 10.1 1.1"></polygon>
                    <path d="M14.3,2.7 C14.4,2.4 14.5,2.1 14.7,1.8 C14.9,1.5 15.1,1.3 15.5,1.2 C15.9,1.1 16.3,1 16.8,1 L16.8,1 L16.8,1 L16.8,1 L16.8,1 L16.8,1 L16.8,1 L16.8,1 L16.8,1 C17.1,1 17.4,1.1 17.7,1.2 C18,1.3 18.2,1.4 18.5,1.6 C18.7,1.8 18.9,2 19.1,2.4 C19.2,2.7 19.3,3.2 19.3,3.7 C19.3,3.8 19.3,3.8 19.3,3.9 C19.3,4 19.3,4 19.3,4.1 C19.3,4.1 19.3,4.2 19.3,4.2 C19.3,4.2 19.3,4.3 19.3,4.3 C19.3,4.3 19.3,4.4 19.3,4.4 C19.3,4.4 19.3,4.5 19.3,4.5 C19.2,4.7 19.2,4.9 19,5.1 C18.9,5.3 18.7,5.5 18.6,5.7 C18.4,5.9 18.2,6 17.9,6.1 C17.6,6.2 17.3,6.2 16.9,6.2 C16.4,6.2 15.9,6.1 15.6,6 C15.2,5.9 15,5.7 14.8,5.4 C14.6,5.2 14.5,4.9 14.4,4.6 C14.3,4.3 14.2,4 14.2,3.7 L14.2,3.7 L14.2,3.7 C14.2,3.7 14.2,3.7 14.2,3.7 L14.2,3.7 L14.2,3.7 L14.2,3.7 L14.2,3.7 C14.2,3.3 14.2,3 14.3,2.7 M15.7,4.2 C15.7,4.4 15.8,4.6 15.9,4.7 C16,4.9 16.1,5 16.3,5.1 C16.5,5.2 16.6,5.2 16.8,5.2 C17,5.2 17.1,5.2 17.3,5.1 C17.4,5 17.5,4.9 17.6,4.8 C17.7,4.7 17.8,4.5 17.8,4.3 C17.8,4.1 17.9,3.9 17.9,3.6 C17.9,3.4 17.9,3.2 17.8,3 C17.8,2.8 17.7,2.6 17.6,2.5 C17.5,2.3 17.4,2.2 17.2,2.1 C17.2,2 17,2 16.8,2 C16.6,2 16.4,2 16.3,2.1 C16.2,2.2 16,2.3 16,2.5 C15.9,2.7 15.9,2.8 15.8,3 C15.8,3.2 15.7,3.4 15.7,3.6 L15.7,3.6 C15.6,3.8 15.7,4 15.7,4.2" id="Shape"></path>
                    <polygon id="Path" points="26 1.1 26 2.1 23.8 2.1 23.8 3.3 25.8 3.3 25.8 4.2 23.8 4.2 23.8 6.1 22.4 6.1 22.4 1.1"></polygon>
                    <path d="M28.1,1.1 L28.1,4 C28.1,4.2 28.1,4.3 28.2,4.5 C28.2,4.6 28.3,4.8 28.4,4.9 C28.5,5 28.6,5.1 28.7,5.1 C28.8,5.2 29,5.2 29.1,5.2 C29.3,5.2 29.5,5.2 29.6,5.1 C29.7,5 29.8,5 29.9,4.8 C30,4.7 30,4.6 30.1,4.4 C30.1,4.2 30.2,4.1 30.2,3.9 L30.2,1 L31.6,1 L31.6,4.1 C31.6,4.4 31.6,4.7 31.5,4.9 C31.4,5.1 31.3,5.4 31.1,5.6 C30.9,5.8 30.7,5.9 30.3,6 C30,6.1 29.6,6.1 29.2,6.1 C28.8,6.1 28.5,6.1 28.2,6 C27.9,5.9 27.7,5.8 27.4,5.6 C27.2,5.4 27,5.2 26.9,4.9 C26.8,4.7 26.7,4.4 26.7,4.1 L26.7,0.9 L28.1,0.9 L28.1,1.1 Z" id="Path"></path>
                    <polygon id="Path" points="36.6 1.1 36.6 2.1 35 2.1 35 6.1 33.6 6.1 33.6 2.1 32.1 2.1 32.1 1.1"></polygon>
                    <path d="M38.5,1.1 L38.5,4 C38.5,4.2 38.5,4.3 38.6,4.5 C38.6,4.6 38.7,4.8 38.8,4.9 C38.9,5 39,5.1 39.1,5.1 C39.2,5.2 39.4,5.2 39.5,5.2 C39.7,5.2 39.9,5.2 40,5.1 C40.1,5 40.2,5 40.3,4.8 C40.4,4.7 40.4,4.6 40.5,4.4 C40.5,4.2 40.6,4.1 40.6,3.9 L40.6,1 L42,1 L42,4.1 C42,4.4 42,4.7 41.9,4.9 C41.8,5.1 41.7,5.4 41.5,5.6 C41.3,5.8 41.1,5.9 40.7,6 C40.4,6.1 40,6.1 39.6,6.1 C39.2,6.1 38.9,6.1 38.6,6 C38.3,5.9 38.1,5.8 37.8,5.6 C37.6,5.4 37.4,5.2 37.3,4.9 C37.2,4.7 37.1,4.4 37.1,4.1 L37.1,0.9 L38.5,0.9 L38.5,1.1 Z" id="Path"></path>
                    <path d="M45,1.1 C45,1.1 45,1.1 45,1.1 L45,1.1 L45,1.1 L45.1,1.1 C45.3,1.1 45.6,1.1 45.8,1.2 C46,1.2 46.2,1.3 46.4,1.4 C46.6,1.5 46.7,1.6 46.8,1.8 C46.9,2 46.9,2.2 46.9,2.4 C46.9,2.6 46.9,2.8 46.8,2.9 C46.7,3 46.7,3.2 46.5,3.3 C46.4,3.4 46.3,3.5 46.1,3.5 C46,3.6 45.8,3.6 45.6,3.6 C45.8,3.6 46,3.7 46.2,3.7 C46.4,3.8 46.5,3.9 46.5,4.1 C46.6,4.3 46.6,4.4 46.6,4.6 C46.6,4.8 46.7,4.9 46.7,5.1 L46.7,5.1 L46.7,5.1 L46.7,5.1 C46.7,5.1 46.7,5.1 46.7,5.1 C46.7,5.2 46.7,5.2 46.7,5.3 C46.7,5.4 46.7,5.5 46.7,5.5 C46.7,5.6 46.7,5.6 46.7,5.7 C46.7,5.8 46.7,5.8 46.8,5.9 L45.3,5.9 C45.3,5.9 45.3,5.8 45.3,5.8 C45.3,5.7 45.3,5.7 45.3,5.6 C45.3,5.5 45.3,5.5 45.3,5.4 C45.3,5.3 45.3,5.3 45.3,5.2 L45.3,5.2 L45.3,5.2 C45.3,5.2 45.3,5.2 45.3,5.2 L45.3,5.2 L45.3,5.2 L45.3,5.2 C45.3,5.1 45.3,4.9 45.3,4.8 C45.3,4.7 45.2,4.6 45.2,4.5 C45.2,4.4 45.1,4.3 45,4.3 C44.9,4.2 44.8,4.2 44.7,4.2 L44,4.2 L44,6.1 L42.6,6.1 L42.6,1.1 L45,1.1 L45,1.1 Z M44.2,3.2 L44.7,3.2 C44.7,3.2 44.7,3.2 44.7,3.2 L44.7,3.2 L44.7,3.2 L44.7,3.2 C44.8,3.2 44.9,3.2 44.9,3.2 C45,3.2 45.1,3.2 45.1,3.1 C45.2,3.1 45.2,3 45.3,2.9 C45.3,2.8 45.4,2.7 45.4,2.6 C45.4,2.5 45.4,2.4 45.3,2.4 C45.3,2.3 45.2,2.3 45.1,2.2 C45,2.2 44.9,2.1 44.9,2.1 C44.8,2.1 44.7,2.1 44.6,2.1 L44,2.1 L44,3.2 L44.2,3.2 Z" id="Shape"></path>
                    <path d="M47.8,2.7 C47.9,2.4 48,2.1 48.2,1.8 C48.4,1.5 48.6,1.3 49,1.2 C49.4,1.1 49.8,1 50.3,1 L50.3,1 L50.3,1 L50.3,1 L50.3,1 L50.3,1 L50.3,1 L50.3,1 L50.3,1 C50.6,1 50.9,1.1 51.2,1.2 C51.5,1.3 51.7,1.4 52,1.6 C52.2,1.8 52.4,2 52.6,2.4 C52.7,2.7 52.8,3.2 52.8,3.7 C52.8,3.8 52.8,3.8 52.8,3.9 C52.8,4 52.8,4 52.8,4.1 C52.8,4.1 52.8,4.2 52.8,4.2 C52.8,4.2 52.8,4.3 52.8,4.3 C52.8,4.3 52.8,4.4 52.8,4.4 C52.8,4.4 52.8,4.5 52.8,4.5 C52.7,4.7 52.7,4.9 52.5,5.1 C52.4,5.3 52.2,5.5 52.1,5.7 C51.9,5.9 51.7,6 51.4,6.1 C51.1,6.2 50.8,6.2 50.4,6.2 C49.9,6.2 49.4,6.1 49.1,6 C48.7,5.9 48.5,5.7 48.3,5.4 C48.1,5.2 48,4.9 47.9,4.6 C47.8,4.3 47.7,4 47.7,3.7 L47.7,3.7 L47.7,3.7 C47.7,3.7 47.7,3.7 47.7,3.7 L47.7,3.7 L47.7,3.7 L47.7,3.7 L47.7,3.7 C47.7,3.3 47.8,3 47.8,2.7 M49.2,4.2 C49.2,4.4 49.3,4.6 49.4,4.7 C49.5,4.9 49.6,5 49.8,5.1 C50,5.2 50.1,5.2 50.3,5.2 C50.5,5.2 50.6,5.2 50.8,5.1 C50.9,5 51,4.9 51.1,4.8 C51.2,4.7 51.3,4.5 51.3,4.3 C51.3,4.1 51.4,3.9 51.4,3.6 C51.4,3.4 51.4,3.2 51.3,3 C51.3,2.8 51.2,2.6 51.1,2.5 C51,2.3 50.9,2.2 50.7,2.1 C50.7,2 50.5,2 50.3,2 C50.1,2 49.9,2 49.8,2.1 C49.7,2.2 49.5,2.3 49.5,2.5 C49.4,2.7 49.4,2.8 49.3,3 C49.3,3.2 49.2,3.4 49.2,3.6 L49.2,3.6 C49.2,3.8 49.2,4 49.2,4.2" id="Shape"></path>
                    <path d="M58.1,1.1 C58.7,1.1 59.1,1.2 59.5,1.3 C59.9,1.4 60.2,1.6 60.4,1.9 C60.6,2.2 60.7,2.4 60.8,2.7 C60.9,3 61,3.3 61,3.6 L61,3.6 L61,3.6 L61,3.6 L61,3.6 L61,3.6 L61,3.6 C61,3.6 61,3.6 61,3.6 L61,3.6 L61,3.6 L61,3.6 C61,4 60.9,4.3 60.8,4.6 C60.7,4.9 60.5,5.1 60.3,5.3 C60.1,5.5 59.8,5.6 59.5,5.7 C59.2,5.8 59,5.8 58.7,5.8 L56,5.8 L56,0.8 L58.1,0.8 L58.1,1.1 Z M58.1,5.1 C58.3,5.1 58.5,5.1 58.7,5 C58.9,4.9 59,4.8 59.1,4.7 C59.2,4.6 59.3,4.4 59.4,4.3 C59.5,4.1 59.5,4 59.5,3.8 L59.5,3.8 C59.5,3.8 59.5,3.8 59.5,3.8 L59.5,3.8 L59.5,3.8 L59.5,3.8 L59.5,3.8 L59.5,3.8 L59.5,3.8 L59.5,3.8 L59.5,3.8 C59.5,3.8 59.5,3.8 59.5,3.8 L59.5,3.8 C59.5,3.8 59.5,3.8 59.5,3.7 C59.5,3.7 59.5,3.7 59.5,3.6 C59.5,3.4 59.4,3.3 59.4,3.1 C59.3,3 59.2,2.8 59.1,2.7 C59,2.6 58.8,2.5 58.7,2.4 C58.5,2.3 58.4,2.3 58.2,2.3 L57.4,2.3 L57.4,5.3 L58.1,5.3 L58.1,5.1 Z" id="Shape"></path>
                    <path d="M61.7,2.7 C61.8,2.4 61.9,2.1 62.1,1.8 C62.3,1.5 62.5,1.3 62.9,1.2 C63.3,1.1 63.7,1 64.2,1 L64.2,1 L64.2,1 L64.2,1 L64.2,1 L64.2,1 L64.2,1 L64.2,1 L64.2,1 C64.5,1 64.8,1.1 65.1,1.2 C65.4,1.3 65.6,1.4 65.9,1.6 C66.1,1.8 66.3,2 66.5,2.4 C66.6,2.7 66.7,3.2 66.7,3.7 C66.7,3.8 66.7,3.8 66.7,3.9 C66.7,4 66.7,4 66.7,4.1 C66.7,4.1 66.7,4.2 66.7,4.2 C66.7,4.2 66.7,4.3 66.7,4.3 C66.7,4.3 66.7,4.4 66.7,4.4 C66.7,4.4 66.7,4.5 66.7,4.5 C66.6,4.7 66.6,4.9 66.4,5.1 C66.3,5.3 66.1,5.5 66,5.7 C65.8,5.9 65.6,6 65.3,6.1 C65,6.2 64.7,6.2 64.3,6.2 C63.8,6.2 63.3,6.1 63,6 C62.6,5.9 62.4,5.7 62.2,5.4 C62,5.2 61.9,4.9 61.8,4.6 C61.7,4.3 61.6,4 61.6,3.7 L61.6,3.7 L61.6,3.7 C61.6,3.7 61.6,3.7 61.6,3.7 L61.6,3.7 L61.6,3.7 L61.6,3.7 L61.6,3.7 C61.6,3.3 61.6,3 61.7,2.7 M63.1,4.2 C63.1,4.4 63.2,4.6 63.3,4.7 C63.4,4.9 63.5,5 63.7,5.1 C63.9,5.2 64,5.2 64.2,5.2 C64.4,5.2 64.5,5.2 64.7,5.1 C64.8,5 64.9,4.9 65,4.8 C65.1,4.7 65.2,4.5 65.2,4.3 C65.2,4.1 65.3,3.9 65.3,3.6 C65.3,3.4 65.3,3.2 65.2,3 C65.2,2.8 65.1,2.6 65,2.5 C64.9,2.3 64.8,2.2 64.6,2.1 C64.5,2 64.4,2 64.2,2 C64,2 63.8,2 63.7,2.1 C63.6,2.2 63.4,2.3 63.4,2.5 C63.3,2.7 63.3,2.8 63.2,3 C63.2,3.2 63.1,3.4 63.1,3.6 L63.1,3.6 C63,3.8 63,4 63.1,4.2" id="Shape"></path>
                    <polygon id="Path" points="73.9 1.1 73.9 2.1 72.3 2.1 72.3 6.1 71 6.1 71 2.1 69.4 2.1 69.4 1.1"></polygon>
                    <path d="M76.6,1.1 C76.6,1.1 76.6,1.1 76.6,1.1 L76.6,1.1 L76.6,1.1 L76.7,1.1 C76.9,1.1 77.2,1.1 77.4,1.2 C77.6,1.2 77.8,1.3 78,1.4 C78.2,1.5 78.3,1.6 78.4,1.8 C78.5,2 78.5,2.2 78.5,2.4 C78.5,2.6 78.5,2.8 78.4,2.9 C78.3,3 78.3,3.2 78.1,3.3 C78,3.4 77.9,3.5 77.7,3.5 C77.6,3.6 77.4,3.6 77.2,3.6 C77.4,3.6 77.6,3.7 77.8,3.7 C78,3.8 78.1,3.9 78.1,4.1 C78.2,4.3 78.2,4.4 78.2,4.6 C78.2,4.8 78.3,4.9 78.3,5.1 L78.3,5.1 L78.3,5.1 L78.3,5.1 C78.3,5.1 78.3,5.1 78.3,5.1 C78.3,5.2 78.3,5.2 78.3,5.3 C78.3,5.4 78.3,5.5 78.3,5.5 C78.3,5.6 78.3,5.6 78.3,5.7 C78.3,5.8 78.3,5.8 78.4,5.9 L76.9,5.9 C76.9,5.9 76.9,5.8 76.9,5.8 C76.9,5.7 76.9,5.7 76.9,5.6 C76.9,5.5 76.9,5.5 76.9,5.4 C76.9,5.3 76.9,5.3 76.9,5.2 L76.9,5.2 L76.9,5.2 C76.9,5.2 76.9,5.2 76.9,5.2 L76.9,5.2 L76.9,5.2 L76.9,5.2 C76.9,5.1 76.9,4.9 76.9,4.8 C76.9,4.7 76.8,4.6 76.8,4.5 C76.8,4.4 76.7,4.3 76.6,4.3 C76.5,4.2 76.4,4.2 76.3,4.2 L75.6,4.2 L75.6,6.1 L74.2,6.1 L74.2,1.1 L76.6,1.1 L76.6,1.1 Z M75.8,3.2 L76.3,3.2 C76.3,3.2 76.3,3.2 76.3,3.2 L76.3,3.2 L76.3,3.2 L76.3,3.2 C76.4,3.2 76.5,3.2 76.5,3.2 C76.6,3.2 76.7,3.2 76.7,3.1 C76.8,3.1 76.8,3 76.9,2.9 C76.9,2.8 77,2.7 77,2.6 C77,2.5 77,2.4 76.9,2.4 C76.9,2.3 76.8,2.3 76.7,2.2 C76.6,2.2 76.5,2.1 76.5,2.1 C76.4,2.1 76.3,2.1 76.2,2.1 L75.6,2.1 L75.6,3.2 L75.8,3.2 Z" id="Shape"></path>
                    <path d="M82.7,1.1 L84.7,6.1 L83.1,6.1 L82.8,5.2 L80.8,5.2 L80.5,6.1 L79,6.1 L81,1.1 L82.7,1.1 Z M81.8,2.1 L81.1,4.1 L82.4,4.1 L81.8,2.1 Z" id="Shape"></path>
                    <path d="M87.4,1.1 C87.4,1.1 87.5,1.1 87.6,1.1 C87.7,1.1 87.7,1.1 87.8,1.1 C87.9,1.1 88,1.1 88.1,1.1 C88.2,1.1 88.3,1.1 88.4,1.2 C88.5,1.2 88.6,1.3 88.7,1.3 C88.8,1.4 88.9,1.4 89,1.5 C89.1,1.6 89.2,1.7 89.2,1.8 C89.3,1.9 89.3,2.1 89.3,2.3 L89.3,2.3 L89.3,2.3 L89.3,2.3 C89.3,2.3 89.3,2.3 89.3,2.3 L89.3,2.3 L89.3,2.3 L89.3,2.3 L89.3,2.3 C89.3,2.4 89.3,2.6 89.2,2.7 C89.1,2.8 89.1,2.9 89,3 C88.9,3.1 88.8,3.2 88.7,3.2 C88.6,3.2 88.4,3.3 88.3,3.3 L88.3,3.3 L88.3,3.3 L88.3,3.3 C88.4,3.3 88.6,3.4 88.7,3.5 C88.8,3.6 89,3.6 89.1,3.7 C89.2,3.8 89.3,3.9 89.4,4 C89.5,4.1 89.5,4.3 89.5,4.5 C89.5,4.7 89.5,5 89.4,5.1 C89.3,5.3 89.2,5.4 89,5.5 C88.8,5.6 88.6,5.7 88.4,5.7 C88.1,5.8 87.8,5.8 87.5,5.8 L85.3,5.8 L85.3,0.8 L87.4,0.8 L87.4,1.1 Z M87.3,3 C87.4,3 87.5,3 87.6,3 C87.7,3 87.7,2.9 87.8,2.9 C87.8,2.9 87.9,2.8 87.9,2.7 C87.9,2.6 87.9,2.6 87.9,2.5 C87.9,2.4 87.9,2.4 87.9,2.3 C87.9,2.2 87.8,2.2 87.8,2.1 C87.7,2 87.7,2 87.6,2 C87.5,2 87.4,2 87.4,2 L86.7,2 L86.7,3 L87.3,3 L87.3,3 Z M87.4,5.1 C87.5,5.1 87.6,5.1 87.7,5.1 C87.8,5.1 87.8,5.1 87.9,5 C87.9,5 88,4.9 88,4.9 C88,4.9 88,4.8 88.1,4.8 L88.1,4.8 C88.1,4.8 88.1,4.8 88.1,4.8 L88.1,4.8 L88.1,4.8 C88.1,4.8 88.1,4.8 88.1,4.8 L88.1,4.8 L88.1,4.8 L88.1,4.8 L88.1,4.8 C88.1,4.8 88.1,4.8 88.1,4.8 L88.1,4.8 C88.1,4.8 88.1,4.8 88.1,4.8 C88.1,4.8 88.1,4.8 88.1,4.7 C88.1,4.7 88.1,4.6 88,4.6 C88,4.6 87.9,4.5 87.9,4.5 C87.9,4.5 87.8,4.4 87.7,4.4 C87.6,4.4 87.6,4.4 87.5,4.4 L86.7,4.4 L86.7,5.4 L87.4,5.4 L87.4,5.1 Z" id="Shape"></path>
                    <path d="M93.5,1.1 L95.5,6.1 L93.9,6.1 L93.6,5.2 L91.6,5.2 L91.3,6.1 L89.8,6.1 L91.8,1.1 L93.5,1.1 Z M92.6,2.1 L91.9,4.1 L93.2,4.1 L92.6,2.1 Z" id="Shape"></path>
                    <polygon id="Path" points="97.4 1.1 97.4 5.1 99.6 5.1 99.6 6.1 96 6.1 96 1.1"></polygon>
                    <polygon id="Path" points="101.7 1.1 101.7 3.1 103.3 3.1 103.3 1.1 104.8 1.1 104.8 6.1 103.3 6.1 103.3 4.1 101.7 4.1 101.7 6.1 100.2 6.1 100.2 1.1"></polygon>
                    <path d="M105.6,2.7 C105.7,2.4 105.8,2.1 106,1.8 C106.2,1.5 106.4,1.3 106.8,1.2 C107.2,1.1 107.6,1 108.1,1 L108.1,1 L108.1,1 L108.1,1 L108.1,1 L108.1,1 L108.1,1 L108.1,1 L108.1,1 C108.4,1 108.7,1.1 109,1.2 C109.3,1.3 109.5,1.4 109.8,1.6 C110,1.8 110.2,2 110.4,2.4 C110.5,2.7 110.6,3.2 110.6,3.7 C110.6,3.8 110.6,3.8 110.6,3.9 C110.6,4 110.6,4 110.6,4.1 C110.6,4.1 110.6,4.2 110.6,4.2 C110.6,4.2 110.6,4.3 110.6,4.3 C110.6,4.3 110.6,4.4 110.6,4.4 C110.6,4.4 110.6,4.5 110.6,4.5 C110.5,4.7 110.5,4.9 110.3,5.1 C110.2,5.3 110,5.5 109.9,5.7 C109.7,5.9 109.5,6 109.2,6.1 C108.9,6.2 108.6,6.2 108.2,6.2 C107.7,6.2 107.2,6.1 106.9,6 C106.5,5.9 106.3,5.7 106.1,5.4 C105.9,5.2 105.8,4.9 105.7,4.6 C105.6,4.3 105.5,4 105.5,3.7 L105.5,3.7 L105.5,3.7 C105.5,3.7 105.5,3.7 105.5,3.7 L105.5,3.7 L105.5,3.7 L105.5,3.7 L105.5,3.7 C105.5,3.3 105.5,3 105.6,2.7 M107,4.2 C107,4.4 107.1,4.6 107.2,4.7 C107.3,4.9 107.4,5 107.6,5.1 C107.8,5.2 107.9,5.2 108.1,5.2 C108.3,5.2 108.4,5.2 108.6,5.1 C108.7,5 108.8,4.9 108.9,4.8 C109,4.7 109.1,4.5 109.1,4.3 C109.1,4.1 109.2,3.9 109.2,3.6 C109.2,3.4 109.2,3.2 109.1,3 C109.1,2.8 109,2.6 108.9,2.5 C108.8,2.3 108.7,2.2 108.5,2.1 C108.4,2 108.2,2 108,2 C107.8,2 107.6,2 107.5,2.1 C107.4,2.2 107.2,2.3 107.2,2.5 C107.1,2.7 107.1,2.8 107,3 C107,3.2 106.9,3.4 106.9,3.6 L106.9,3.6 C106.9,3.8 107,4 107,4.2" id="Shape"></path>
                </g>
            </g>
        </g>
    </g>
</svg>