<?xml version="1.0" encoding="UTF-8"?>
<svg width="178px" height="54px" viewBox="0 0 178 54" version="1.1" xmlns="http://www.w3.org/2000/svg" xmlns:xlink="http://www.w3.org/1999/xlink">
    <!-- Generator: Sketch 61.2 (89653) - https://sketch.com -->
    <title>Logo SENAI Azul PFT curva</title>
    <desc>Created with Sketch.</desc>
    <g id="Page-1" stroke="none" stroke-width="1" fill="none" fill-rule="evenodd">
        <g id="Logo-SENAI-Azul-PFT-curva" fill="#005CA9" fill-rule="nonzero">
            <path d="M0.93,38.88 C0.923996245,38.9999249 0.923996245,39.1200751 0.93,39.24 C0.918907965,39.376182 0.950354393,39.5124498 1.02,39.63 C1.10891624,39.7647308 1.23356401,39.8720664 1.38,39.94 C1.6287569,40.0348131 1.89393923,40.0790101 2.16,40.07 C2.42573428,40.0743545 2.69004202,40.0303033 2.94,39.94 C3.12039618,39.8709917 3.28651047,39.7692891 3.43,39.64 C3.52247959,39.5516835 3.59716198,39.4464492 3.65,39.33 C3.6979157,39.2344911 3.73481927,39.133845 3.76,39.03 C3.79608214,38.8957149 3.79608214,38.7542851 3.76,38.62 C3.72149618,38.498396 3.63963982,38.3951858 3.53,38.33 C3.40521567,38.2525708 3.27070838,38.1920425 3.13,38.15 L2.6,38 L2.03,37.85 L1.61,37.72 L1.3,37.6 C1.21898955,37.5648463 1.14189921,37.5212735 1.07,37.47 C0.883910609,37.3290162 0.753014612,37.1273656 0.7,36.9 C0.659858383,36.6986478 0.659858383,36.4913522 0.7,36.29 C0.762306236,35.9991362 0.888708852,35.7258333 1.07,35.49 C1.24584323,35.2736037 1.45925583,35.0906786 1.7,34.95 C1.95052737,34.806731 2.21977745,34.699031 2.5,34.63 C2.7817169,34.562851 3.07039184,34.5292842 3.36,34.5299888 L3.73,34.5299888 C3.87627644,34.5372279 4.02091153,34.5641368 4.16,34.61 C4.30615958,34.650067 4.44712075,34.7071227 4.58,34.78 C4.7169546,34.862104 4.8359845,34.9709313 4.93,35.1 C4.98656686,35.1880461 5.03350327,35.2819189 5.07,35.38 C5.0786721,35.4731319 5.0786721,35.5668681 5.07,35.66 C5.07521343,35.7432518 5.07521343,35.8267482 5.07,35.91 L5.07,36.13 L4.25,36.13 C4.29261085,35.9762307 4.29261085,35.8137693 4.25,35.66 C4.20240779,35.5461569 4.12243253,35.4487957 4.02,35.38 C3.90563379,35.3144495 3.78023342,35.2703899 3.65,35.25 C3.50704789,35.235216 3.36295211,35.235216 3.22,35.25 C2.86923161,35.2441708 2.5235081,35.3340589 2.22,35.51 C1.9566664,35.6632603 1.77115904,35.9215157 1.71,36.22 C1.68481148,36.3353071 1.68481148,36.4546929 1.71,36.57 C1.73253252,36.6618323 1.7811542,36.7451838 1.85,36.81 C1.94490165,36.8808433 2.04924584,36.9380643 2.16,36.98 C2.28,36.98 2.43,37.07 2.6,37.12 L3.41,37.34 C3.62,37.4 3.78,37.44 3.9,37.49 C4.00083107,37.5190835 4.09810014,37.5593328 4.19,37.61 C4.26767918,37.6494581 4.34135614,37.6963435 4.41,37.75 C4.52049793,37.8335192 4.61244043,37.9390828 4.68,38.06 C4.73218998,38.1633798 4.76602623,38.2750395 4.78,38.39 C4.79478329,38.4961544 4.79478329,38.6038456 4.78,38.71 C4.78808784,38.7897956 4.78808784,38.8702044 4.78,38.95 C4.72922124,39.2138723 4.62730699,39.4652608 4.48,39.69 C4.32384276,39.9228653 4.12743955,40.126041 3.9,40.29 C3.64187483,40.4626958 3.358499,40.5942632 3.06,40.68 C2.73527592,40.7751756 2.39837649,40.8223415 2.06,40.82 C1.92014644,40.8290556 1.77985356,40.8290556 1.64,40.82 C1.47692425,40.8097206 1.31572278,40.7794953 1.16,40.73 C0.994941169,40.6805387 0.83696625,40.6099542 0.69,40.52 C0.544615898,40.4317183 0.424152143,40.3078127 0.34,40.16 C0.280877115,40.0543511 0.240290097,39.9393546 0.22,39.82 C0.210115959,39.710222 0.210115959,39.599778 0.22,39.49 C0.210041597,39.3902479 0.210041597,39.2897521 0.22,39.19 C0.22,39.1 0.22,39.02 0.22,38.94 L0.93,38.88 Z" id="Path"></path>
            <path d="M6.4,38.69 C6.34943822,38.8858765 6.32588691,39.0877448 6.33,39.29 C6.32847743,39.4564167 6.36616092,39.6208537 6.44,39.77 C6.50800679,39.9059796 6.61624729,40.0177117 6.75,40.09 C6.91514587,40.1690637 7.0970306,40.2068133 7.28,40.2 C7.52904321,40.2012961 7.77279661,40.12817 7.98,39.99 C8.20978062,39.8345619 8.3736972,39.5993772 8.44,39.33 L9.25,39.33 C9.25,39.44 9.16,39.57 9.09,39.73 C8.99893895,39.9152214 8.86938507,40.0788684 8.71,40.21 C8.63818581,40.2729536 8.56125324,40.3298168 8.48,40.38 C8.37970281,40.4534936 8.27253807,40.5171226 8.16,40.57 C8.01336644,40.6268692 7.86301575,40.673645 7.71,40.71 C7.52642976,40.752473 7.33840152,40.7726189 7.15,40.77 C6.62902809,40.8294657 6.11548154,40.6088309 5.8,40.19 C5.55626301,39.7032606 5.50623086,39.1421858 5.66,38.62 C5.74167208,38.2301831 5.87625138,37.853361 6.06,37.5 C6.26657539,37.1517134 6.55929318,36.8624393 6.91,36.66 C7.01587783,36.5895096 7.13008097,36.532408 7.25,36.49 L7.58,36.4 C7.67981981,36.3915102 7.78018019,36.3915102 7.88,36.4 L8.11,36.4 C8.36965204,36.3894747 8.62860876,36.4337699 8.87,36.53 C9.04455996,36.5970589 9.19934924,36.7071313 9.32,36.85 C9.42825212,36.9828106 9.500564,37.1412081 9.53,37.31 C9.56689064,37.48079 9.58367139,37.6553098 9.58,37.83 C9.57210423,37.9984658 9.54867145,38.1658428 9.51,38.33 L9.43,38.74 L6.4,38.69 Z M8.73,38.14 C8.73761329,38.0201208 8.73761329,37.8998792 8.73,37.78 C8.7569388,37.6480274 8.7569388,37.5119726 8.73,37.38 C8.68749577,37.2470902 8.60334797,37.131387 8.49,37.05 C8.33154329,36.9424292 8.14076132,36.8929672 7.95,36.91 C7.81450786,36.9110814 7.67984645,36.9312807 7.55,36.97 C7.40132792,37.0135552 7.26222219,37.0848045 7.14,37.18 C7.00622458,37.2897687 6.88842187,37.4176688 6.79,37.56 C6.679971,37.7394961 6.59897368,37.9352396 6.55,38.14 L8.73,38.14 Z" id="Shape"></path>
            <path d="M10.89,37.33 C10.9254056,37.1884311 10.9521222,37.0448299 10.97,36.9 L11.03,36.48 L11.83,36.48 L11.67,37.29 C11.7308266,37.1528693 11.815468,37.0276 11.92,36.92 C12.0080094,36.8232483 12.1089638,36.7391196 12.22,36.67 C12.324255,36.6108081 12.4349859,36.5638313 12.55,36.53 C12.6447892,36.4994795 12.7417255,36.4760811 12.84,36.46 L13.16,36.46 L13.39,36.46 L13.23,37.22 L13.08,37.22 L12.86,37.22 C12.6585944,37.2130913 12.4578805,37.2471106 12.27,37.32 C12.1163883,37.3765025 11.9766072,37.4651442 11.86,37.58 C11.7503271,37.6987545 11.6653479,37.8381205 11.61,37.99 C11.5388402,38.1504275 11.4851964,38.3180642 11.45,38.49 L10.98,40.71 L10.18,40.71 L10.89,37.33 Z" id="Path"></path>
            <polygon id="Path" points="13.64 36.46 14.52 36.46 15.14 39.77 17.14 36.46 18.01 36.46 15.25 40.64 14.46 40.64"></polygon>
            <path d="M18.91,36.46 L19.7,36.46 L18.81,40.64 L18.02,40.64 L18.91,36.46 Z M19.21,34.64 L20.16,34.64 L19.97,35.5 L19.03,35.5 L19.21,34.64 Z" id="Shape"></path>
            <path d="M23.83,39.25 C23.7793214,39.4447792 23.6983324,39.6303788 23.59,39.8 C23.4812344,39.9789733 23.342554,40.1379484 23.18,40.27 C23.0136381,40.4034795 22.8282559,40.5113383 22.63,40.59 C22.4117499,40.6725204 22.1827127,40.7230433 21.95,40.74 L21.61,41.12 L21.75,41.12 L21.94,41.12 C22.0401615,41.1154552 22.139865,41.1360836 22.23,41.18 C22.3021928,41.2132282 22.3642981,41.2649827 22.41,41.33 C22.4435875,41.3890695 22.4672362,41.4532586 22.48,41.52 C22.4852408,41.5832249 22.4852408,41.6467751 22.48,41.71 C22.4847576,41.7598868 22.4847576,41.8101132 22.48,41.86 C22.4425108,41.9548756 22.3844507,42.0402582 22.31,42.11 C22.2085242,42.2127774 22.0901329,42.2973426 21.96,42.36 C21.7658926,42.4356081 21.5580881,42.4696744 21.35,42.46 C21.1949643,42.4685954 21.0395684,42.4517046 20.89,42.41 L20.61,42.3 L20.83,41.99 L21.02,42.07 C21.1362446,42.0840346 21.2537554,42.0840346 21.37,42.07 C21.4929523,42.0748234 21.6146258,42.043536 21.72,41.98 C21.8058862,41.9226483 21.863894,41.832011 21.88,41.73 C21.9067647,41.6764937 21.9067647,41.6135063 21.88,41.56 C21.864053,41.5162869 21.8317976,41.4804476 21.79,41.46 C21.7438704,41.4499871 21.6961296,41.4499871 21.65,41.46 L21.38,41.46 L21.23,41.46 L21.13,41.32 L21.68,40.73 C21.4131906,40.7098821 21.1555183,40.6239914 20.93,40.48 C20.7494219,40.3590853 20.6071678,40.1890743 20.52,39.99 C20.4292271,39.7891128 20.3847974,39.5703822 20.39,39.35 C20.3929864,39.107957 20.4197821,38.8667951 20.47,38.63 C20.5443601,38.2274415 20.689977,37.8413874 20.9,37.49 C21.0609946,37.2198902 21.2713103,36.982437 21.52,36.79 C21.7250264,36.6295341 21.9594113,36.5106432 22.21,36.44 C22.4172966,36.3755547 22.6329248,36.3418628 22.85,36.34 L23.11,36.34 C23.2225734,36.3489015 23.3335072,36.3724329 23.44,36.41 C23.555296,36.4474178 23.6659974,36.4977367 23.77,36.56 C23.8754339,36.6309622 23.9613888,36.7272318 24.02,36.84 C24.1291976,36.9884149 24.1918472,37.1659223 24.2,37.35 C24.2114143,37.4897673 24.2114143,37.6302327 24.2,37.77 L23.41,37.77 C23.41,37.77 23.41,37.65 23.41,37.55 C23.3707196,37.4674096 23.3164699,37.3928162 23.25,37.33 C23.2124779,37.2271364 23.1466053,37.136995 23.06,37.07 C22.9343014,36.9925974 22.7870926,36.9575477 22.64,36.97 C22.3998763,36.953872 22.1619907,37.0248826 21.97,37.17 C21.8023899,37.2956359 21.6599119,37.4516831 21.55,37.63 C21.4501587,37.79568 21.3728129,37.9739115 21.32,38.16 C21.2819661,38.2846283 21.2519053,38.4115517 21.23,38.54 C21.1739289,38.7423518 21.140392,38.9502806 21.13,39.16 C21.1198519,39.3381771 21.1367092,39.5168643 21.18,39.69 C21.2211108,39.8345988 21.3047267,39.9635066 21.42,40.06 C21.563384,40.1595128 21.7356861,40.2087419 21.91,40.2 C22.0615934,40.2037488 22.2120542,40.1729727 22.35,40.11 C22.4706345,40.0640364 22.5798259,39.9923795 22.67,39.9 C22.7574433,39.8111551 22.831547,39.7101045 22.89,39.6 C22.9454726,39.5033421 22.9859345,39.3988155 23.01,39.29 L23.83,39.25 Z" id="Path"></path>
            <path d="M24.62,38.6 C24.678368,38.3301057 24.7690204,38.068221 24.89,37.82 C25.0130328,37.5494902 25.1822261,37.3024679 25.39,37.09 C25.6102428,36.8700725 25.8675077,36.6906641 26.15,36.56 C26.4946797,36.4015114 26.8706951,36.32289 27.25,36.33 C27.5974764,36.3066871 27.9443907,36.3830082 28.25,36.55 C28.4688905,36.6810463 28.6458229,36.8718557 28.76,37.1 C28.8682101,37.3208671 28.9230159,37.5640679 28.92,37.81 C28.9320537,38.0482886 28.9118713,38.2871135 28.86,38.52 C28.7955846,38.8238388 28.6878152,39.1168369 28.54,39.39 C28.4036526,39.656895 28.2207883,39.8973277 28,40.1 C27.778297,40.3053191 27.5206635,40.468035 27.24,40.58 C26.9218208,40.705437 26.5819484,40.7666141 26.24,40.76 C25.9438832,40.7726624 25.6490277,40.714377 25.38,40.59 C25.1577362,40.4903495 24.9673797,40.3311423 24.83,40.13 C24.6958144,39.9225792 24.6134984,39.6859207 24.59,39.44 C24.553834,39.160251 24.5639696,38.8764563 24.62,38.6 Z M25.45,38.55 C25.4013513,38.7528853 25.3811578,38.9615511 25.39,39.17 C25.3887715,39.3524579 25.4262634,39.5331008 25.5,39.7 C25.5660494,39.8476416 25.6737973,39.9727682 25.81,40.06 C25.9730757,40.1569451 26.1603641,40.2055014 26.35,40.2 C26.5107761,40.198228 26.6699429,40.1677493 26.82,40.11 C26.9790433,40.0433566 27.1247215,39.9484964 27.25,39.83 C27.4135681,39.6821767 27.5490786,39.5060131 27.65,39.31 C27.7887632,39.0640871 27.8867027,38.7972865 27.94,38.52 C28.0733297,38.1318919 28.0590906,37.7082789 27.9,37.33 C27.7290979,37.0575759 27.4204805,36.9032673 27.1,36.93 C26.9539855,36.9318462 26.8090609,36.9554386 26.67,37 C26.4951656,37.0510793 26.3320748,37.1360224 26.19,37.25 C26.0163442,37.3869194 25.8675113,37.5526651 25.75,37.74 C25.6044876,37.9908917 25.5030208,38.2648522 25.45,38.55 L25.45,38.55 Z" id="Shape"></path>
            <polygon id="Path" points="33.25 34.63 34.41 34.63 36.32 39.63 37.37 34.63 38.13 34.63 36.86 40.63 35.77 40.63 33.77 35.52 32.69 40.63 31.93 40.63"></polygon>
            <path d="M40.93,40.64 C40.93,40.54 40.93,40.43 40.93,40.33 C40.93,40.23 40.93,40.13 40.98,40.02 C40.8647781,40.1702917 40.7302917,40.3047781 40.58,40.42 C40.4616373,40.5148783 40.3303061,40.5923301 40.19,40.65 C40.07665,40.703805 39.9548612,40.7376352 39.83,40.75 C39.7302153,40.7592792 39.6297847,40.7592792 39.53,40.75 C39.319811,40.7539672 39.1103857,40.7235667 38.91,40.66 C38.7587988,40.6045408 38.6220672,40.5156653 38.51,40.4 C38.4084129,40.2871889 38.3392966,40.1489563 38.31,40 C38.2710305,39.8423728 38.2710305,39.6776272 38.31,39.52 C38.3337778,39.4247799 38.3638437,39.3312413 38.4,39.24 C38.4444361,39.1252968 38.5050499,39.017539 38.58,38.92 C38.6680628,38.8027274 38.7650154,38.692402 38.87,38.59 C39.0022426,38.4730488 39.1503798,38.3754129 39.31,38.3 C39.4385459,38.2380606 39.572423,38.1878567 39.71,38.15 L40.12,38.07 L40.51,38.07 L41.08,38.07 L41.38,38.07 C41.38,37.94 41.38,37.83 41.45,37.73 C41.52,37.63 41.45,37.55 41.45,37.48 L41.45,37.33 C41.4388077,37.2769117 41.4185078,37.2261621 41.39,37.18 C41.3306209,37.0692591 41.2237395,36.9918623 41.1,36.97 C40.9768162,36.9320952 40.8488698,36.9118932 40.72,36.91 C40.5563908,36.9062161 40.3935382,36.9333582 40.24,36.99 C40.1307714,37.040773 40.032319,37.1120661 39.95,37.2 C39.8859607,37.2703184 39.8351454,37.3516229 39.8,37.44 C39.8,37.52 39.74,37.58 39.73,37.62 L38.95,37.62 C38.9865987,37.489848 39.0334107,37.362787 39.09,37.24 C39.1720267,37.0828341 39.2802431,36.9408 39.41,36.82 C39.5120239,36.7353552 39.6226264,36.6616203 39.74,36.6 C39.8611205,36.5418906 39.9886666,36.4982564 40.12,36.47 C40.2442199,36.4328059 40.3713279,36.4060464 40.5,36.39 L40.86,36.39 C41.0064851,36.3796784 41.1535149,36.3796784 41.3,36.39 C41.4398666,36.4134861 41.5771608,36.4503211 41.71,36.5 C41.8248427,36.546864 41.9299646,36.6146846 42.02,36.7 C42.1058567,36.7718344 42.1713699,36.8649321 42.21,36.97 C42.2481528,37.085928 42.2617746,37.2085246 42.25,37.33 L42.25,37.62 L41.79,39.62 C41.7842262,39.663141 41.7842262,39.706859 41.79,39.75 C41.79,39.83 41.79,39.91 41.79,40.01 C41.79,40.11 41.79,40.22 41.73,40.34 L41.73,40.67 L40.93,40.64 Z M41.27,38.64 L41.07,38.64 L40.83,38.64 L40.46,38.64 C40.2829287,38.6415553 40.107294,38.6719536 39.94,38.73 C39.7597199,38.7827516 39.5903693,38.8674269 39.44,38.98 C39.2797358,39.097786 39.172031,39.2737039 39.14,39.47 C39.1246464,39.545898 39.1246464,39.624102 39.14,39.7 C39.1483528,39.7849825 39.1756927,39.8670024 39.22,39.94 C39.2772677,40.0173194 39.3528715,40.079177 39.44,40.12 C39.5725955,40.1766334 39.7158698,40.2039237 39.86,40.2 C40.2448496,40.2120206 40.6137638,40.0460092 40.86,39.75 C40.9164963,39.6848757 40.9667191,39.6145639 41.01,39.54 C41.051146,39.4669722 41.0846564,39.3898984 41.11,39.31 C41.1452291,39.2193283 41.1720095,39.125597 41.19,39.03 C41.25,38.88 41.25,38.75 41.25,38.61 L41.27,38.64 Z" id="Shape"></path>
            <path d="M46,37.8 C46,37.8 46,37.68 46,37.58 C46.0193941,37.4843061 46.0193941,37.3856939 46,37.29 C45.9587457,37.1891757 45.8935287,37.0999315 45.81,37.03 C45.6832848,36.9550824 45.5368803,36.9202242 45.39,36.93 C45.1470989,36.9166625 44.9070017,36.9872794 44.71,37.13 C44.5423899,37.2556359 44.3999119,37.4116831 44.29,37.59 C44.1943177,37.7577919 44.1171963,37.9355066 44.06,38.12 C44.06,38.3 43.99,38.42 43.97,38.5 C43.921889,38.7036299 43.8917731,38.9110952 43.88,39.12 C43.8485415,39.2952662 43.8485415,39.4747338 43.88,39.65 C43.9133083,39.7955114 43.9942563,39.9257322 44.11,40.02 C44.253384,40.1195128 44.4256861,40.1687419 44.6,40.16 C44.7515934,40.1637488 44.9020542,40.1329727 45.04,40.07 C45.1619112,40.0265689 45.2716412,39.9545586 45.36,39.86 C45.4474433,39.7711551 45.521547,39.6701045 45.58,39.56 C45.6354726,39.4633421 45.6759345,39.3588155 45.7,39.25 L46.49,39.25 C46.4423215,39.4568263 46.3576247,39.6533229 46.24,39.83 C46.1196774,40.0094002 45.9710859,40.1681229 45.8,40.3 C45.6185409,40.4407806 45.4160664,40.5521416 45.2,40.63 C44.9721095,40.7109728 44.7318433,40.7515812 44.49,40.75 L44.21,40.75 C44.097566,40.7401508 43.9867501,40.7166444 43.88,40.68 C43.755661,40.6453612 43.637549,40.5913671 43.53,40.52 C43.4091096,40.4475852 43.3064701,40.348367 43.23,40.23 C43.1787075,40.151053 43.1351715,40.0673299 43.1,39.98 C43.0570301,39.8705031 43.0268307,39.7564161 43.01,39.64 C42.9938176,39.4937797 42.9938176,39.3462203 43.01,39.2 C43.0210169,39.0081303 43.0477735,38.8174894 43.09,38.63 C43.1584055,38.2445263 43.2974025,37.8749977 43.5,37.54 C43.6574905,37.2732185 43.8645418,37.0390129 44.11,36.85 C44.3104062,36.6835569 44.5413993,36.5578694 44.79,36.48 C45.0069921,36.411768 45.2325824,36.3747308 45.46,36.37 L45.73,36.37 C45.8391593,36.3799565 45.9466535,36.4034708 46.05,36.44 C46.1660356,36.4754878 46.2769652,36.5259104 46.38,36.59 C46.4885405,36.6603338 46.5778879,36.7565541 46.64,36.87 C46.7421559,37.021296 46.8009471,37.1976697 46.81,37.38 C46.81,37.54 46.81,37.68 46.81,37.8 L46,37.8 Z" id="Path"></path>
            <path d="M48.08,36.46 L48.86,36.46 L47.97,40.64 L47.19,40.64 L48.08,36.46 Z M48.38,34.64 L49.32,34.64 L49.14,35.5 L48.25,35.5 L48.38,34.64 Z" id="Shape"></path>
            <path d="M49.62,38.6 C49.6736315,38.3288016 49.7644913,38.0663178 49.89,37.82 C50.0095717,37.5475525 50.1791686,37.2999409 50.39,37.09 C50.6102428,36.8700725 50.8675077,36.6906641 51.15,36.56 C51.4946797,36.4015114 51.8706951,36.32289 52.25,36.33 C52.5974764,36.3066871 52.9443907,36.3830082 53.25,36.55 C53.4665396,36.6839247 53.6427756,36.8739831 53.76,37.1 C53.8682101,37.3208671 53.9230159,37.5640679 53.92,37.81 C53.922048,38.0480147 53.9019616,38.2857044 53.86,38.52 C53.7955846,38.8238388 53.6878152,39.1168369 53.54,39.39 C53.4036526,39.656895 53.2207883,39.8973277 53,40.1 C52.778297,40.3053191 52.5206635,40.468035 52.24,40.58 C51.9218208,40.705437 51.5819484,40.7666141 51.24,40.76 C50.9407381,40.7716017 50.6428823,40.7134 50.37,40.59 C50.1524765,40.4871364 49.9661377,40.3284034 49.83,40.13 C49.6958144,39.9225792 49.6134984,39.6859207 49.59,39.44 C49.553834,39.160251 49.5639696,38.8764563 49.62,38.6 L49.62,38.6 Z M50.44,38.55 C50.416014,38.7559707 50.416014,38.9640293 50.44,39.17 C50.4387715,39.3524579 50.4762634,39.5331008 50.55,39.7 C50.6160494,39.8476416 50.7237973,39.9727682 50.86,40.06 C51.0230757,40.1569451 51.2103641,40.2055014 51.4,40.2 C51.5607761,40.198228 51.7199429,40.1677493 51.87,40.11 C52.0113023,40.0383605 52.139718,39.9437385 52.25,39.83 C52.4135681,39.6821767 52.5490786,39.5060131 52.65,39.31 C52.7887632,39.0640871 52.8867027,38.7972865 52.94,38.52 C53.0733297,38.1318919 53.0590906,37.7082789 52.9,37.33 C52.7275355,37.0593031 52.4200362,36.9055534 52.1,36.93 C51.9539193,36.931076 51.8088794,36.9546871 51.67,37 C51.4951656,37.0510793 51.3320748,37.1360224 51.19,37.25 C51.0163442,37.3869194 50.8675113,37.5526651 50.75,37.74 C50.6052241,37.9922604 50.5006364,38.265538 50.44,38.55 L50.44,38.55 Z" id="Shape"></path>
            <path d="M55.39,36.94 L55.49,36.46 L56.25,36.46 L56.1,37.13 L56.26,36.94 C56.3481866,36.847308 56.4453263,36.7635669 56.55,36.69 C56.6892946,36.602766 56.8366361,36.5290953 56.99,36.47 C57.1903857,36.4064333 57.399811,36.3760328 57.61,36.38 C57.7397483,36.368559 57.8702517,36.368559 58,36.38 C58.1634281,36.4100497 58.3195798,36.4711525 58.46,36.56 C58.611174,36.6688653 58.7289322,36.8177949 58.8,36.99 C58.883121,37.239937 58.883121,37.510063 58.8,37.76 L58.25,40.64 L57.45,40.64 L58.02,37.98 C58.0341249,37.8503837 58.0341249,37.7196163 58.02,37.59 C58.0200348,37.4740528 57.9813173,37.3614199 57.91,37.27 C57.8306777,37.1719888 57.7273215,37.0961942 57.61,37.05 C57.487856,37.0066288 57.3595809,36.9829991 57.23,36.98 C57.0830989,36.9813952 56.9375736,37.0084697 56.8,37.06 C56.6554622,37.1152831 56.5204889,37.1928927 56.4,37.29 C56.2751587,37.4039589 56.1673852,37.5353079 56.08,37.68 C55.9845214,37.852563 55.9138268,38.0377154 55.87,38.23 L55.36,40.64 L54.58,40.64 L55.39,36.94 Z" id="Path"></path>
            <path d="M62.25,40.64 C62.25,40.54 62.25,40.43 62.25,40.33 C62.25,40.23 62.25,40.13 62.25,40.02 C62.1374883,40.1726449 62.0026449,40.3074883 61.85,40.42 C61.7316373,40.5148783 61.6003061,40.5923301 61.46,40.65 C61.34665,40.703805 61.2248612,40.7376352 61.1,40.75 C61.0002153,40.7592792 60.8997847,40.7592792 60.8,40.75 C60.5930278,40.754913 60.3867345,40.7244763 60.19,40.66 C60.0340509,40.6083279 59.8932345,40.5190297 59.78,40.4 C59.6784129,40.2871889 59.6092966,40.1489563 59.58,40 C59.5410305,39.8423728 59.5410305,39.6776272 59.58,39.52 C59.5952975,39.4237864 59.6221586,39.3297724 59.66,39.24 C59.7044361,39.1252968 59.7650499,39.017539 59.84,38.92 C59.9280628,38.8027274 60.0250154,38.692402 60.13,38.59 C60.263908,38.4752416 60.4117383,38.377808 60.57,38.3 C60.6992264,38.2396662 60.8329661,38.1895138 60.97,38.15 L61.38,38.07 L61.77,38.07 L62.34,38.07 L62.64,38.07 C62.64,37.94 62.64,37.83 62.71,37.73 C62.718094,37.6468632 62.718094,37.5631368 62.71,37.48 C62.7200914,37.4170687 62.7200914,37.3529313 62.71,37.29 C62.7079353,37.2345687 62.6867333,37.1815639 62.65,37.14 C62.5906209,37.0292591 62.4837395,36.9518623 62.36,36.93 C62.0808798,36.8369767 61.7791202,36.8369767 61.5,36.93 C61.3907714,36.980773 61.292319,37.0520661 61.21,37.14 C61.1459607,37.2103184 61.0951454,37.2916229 61.06,37.38 C61.0369177,37.4389282 61.0168911,37.4990081 61,37.56 L60.25,37.56 C60.25,37.44 60.33,37.32 60.39,37.18 C60.4754412,37.0250312 60.5832677,36.8835089 60.71,36.76 C60.9123849,36.5838486 61.1570295,36.4632492 61.42,36.41 C61.5444678,36.3737881 61.671497,36.3470451 61.8,36.33 L62.16,36.33 C62.3098373,36.3201209 62.4601627,36.3201209 62.61,36.33 C62.746327,36.354752 62.8801863,36.3915633 63.01,36.44 C63.126868,36.4887536 63.2349647,36.5563141 63.33,36.64 C63.4162622,36.7094174 63.4791001,36.8036744 63.51,36.91 C63.5280161,37.0259711 63.5280161,37.1440289 63.51,37.26 C63.51,37.36 63.51,37.46 63.51,37.55 L63.05,39.55 C63.0459675,39.5932395 63.0459675,39.6367605 63.05,39.68 C63.05,39.76 63.05,39.84 63.05,39.94 L62.99,40.27 L62.99,40.6 L62.25,40.64 Z M62.6,38.64 L62.39,38.64 L62.15,38.64 L61.78,38.64 C61.6029287,38.6415553 61.427294,38.6719536 61.26,38.73 C61.0797199,38.7827516 60.9103693,38.8674269 60.76,38.98 C60.6034862,39.1011893 60.4967675,39.2754966 60.46,39.47 C60.4495795,39.5463126 60.4495795,39.6236874 60.46,39.7 C60.4728846,39.7839528 60.499936,39.865107 60.54,39.94 C60.5972677,40.0173194 60.6728715,40.079177 60.76,40.12 C60.8925955,40.1766334 61.0358698,40.2039237 61.18,40.2 C61.5648496,40.2120206 61.9337638,40.0460092 62.18,39.75 C62.2364963,39.6848757 62.2867191,39.6145639 62.33,39.54 C62.371146,39.4669722 62.4046564,39.3898984 62.43,39.31 C62.4652291,39.2193283 62.4920095,39.125597 62.51,39.03 L62.6,38.64 Z" id="Shape"></path>
            <polygon id="Path" points="65.6 34.63 66.38 34.63 65.11 40.63 64.32 40.63"></polygon>
            <path d="M73.11,34.63 L73.89,34.63 L72.76,39.97 C72.7575978,40.0099639 72.7575978,40.0500361 72.76,40.09 L72.76,40.26 L72.76,40.46 L72.76,40.64 L71.98,40.64 L72.1,39.97 C72.0501368,40.0452442 71.9932125,40.1155624 71.93,40.18 C71.8462201,40.2744057 71.7484082,40.3553535 71.64,40.42 C71.4538258,40.523697 71.2556953,40.6042924 71.05,40.66 C70.8823226,40.6963394 70.7115329,40.7164324 70.54,40.72 C70.3710455,40.7178813 70.2030406,40.6943606 70.04,40.65 C69.8401265,40.5980982 69.6573729,40.4946528 69.51,40.35 C69.3337284,40.175129 69.2121229,39.9527647 69.16,39.71 C69.0709734,39.3453552 69.0709734,38.9646448 69.16,38.6 C69.2324326,38.2499823 69.3571646,37.9128687 69.53,37.6 C69.6850166,37.3344601 69.8807289,37.0948813 70.11,36.89 C70.3145523,36.7144497 70.5480154,36.5757252 70.8,36.48 C71.0071856,36.3953554 71.2266743,36.3447042 71.45,36.33 C71.6365034,36.3259457 71.8223798,36.3529822 72,36.41 C72.1263083,36.4564109 72.2419504,36.5278369 72.34,36.62 C72.4177392,36.68096 72.4795096,36.7598888 72.52,36.85 C72.5541027,36.9099389 72.5809578,36.9737199 72.6,37.04 L73.11,34.63 Z M72.32,38.49 C72.3847675,38.252435 72.4051085,38.0049521 72.38,37.76 C72.3653552,37.6095144 72.3211792,37.4633938 72.25,37.33 C72.1804562,37.2069372 72.0806354,37.1036743 71.96,37.03 C71.795887,36.9365446 71.6086644,36.8914725 71.42,36.9 C71.2451523,36.9002395 71.0719912,36.9341926 70.91,37 C70.7712066,37.0666386 70.6458016,37.1581503 70.54,37.27 C70.4328584,37.3761324 70.3418875,37.497427 70.27,37.63 C70.1967473,37.7514594 70.1332159,37.8785222 70.08,38.01 C70.0341326,38.1201476 69.9973435,38.2338594 69.97,38.35 C69.97,38.46 69.97,38.53 69.97,38.58 C69.9313235,38.7644269 69.907911,38.9517274 69.9,39.14 C69.8797506,39.3116171 69.8968061,39.4855832 69.95,39.65 C69.9967118,39.8024464 70.0914123,39.9357285 70.22,40.03 C70.3865272,40.1362024 70.5830866,40.1853423 70.78,40.17 C71.048888,40.17971 71.3142443,40.1063878 71.54,39.96 C71.7291215,39.8230575 71.8889258,39.6496528 72.01,39.45 C72.1216272,39.2772958 72.2059517,39.0884091 72.26,38.89 C72.2871244,38.757833 72.307153,38.6243086 72.32,38.49 L72.32,38.49 Z" id="Shape"></path>
            <path d="M74.92,38.69 C74.8665492,38.8855079 74.8396412,39.0873175 74.84,39.29 C74.8465116,39.4565575 74.8873655,39.6199733 74.96,39.77 C75.026861,39.9034959 75.1310907,40.0146743 75.26,40.09 C75.425871,40.1668935 75.607229,40.2045338 75.79,40.2 C76.0421865,40.201472 76.2891886,40.1284151 76.5,39.99 C76.7235451,39.8283371 76.885699,39.5956815 76.96,39.33 L77.74,39.33 C77.6998815,39.4682468 77.6462913,39.6022223 77.58,39.73 C77.4889389,39.9152214 77.3593851,40.0788684 77.2,40.21 C77.1319424,40.273184 77.058309,40.3300825 76.98,40.38 C76.8775091,40.4555632 76.7668066,40.519301 76.65,40.57 C76.5068154,40.6269762 76.3597823,40.6737595 76.21,40.71 C76.0229429,40.7518734 75.8316761,40.7720067 75.64,40.77 C75.1214785,40.8320763 74.6096319,40.6105308 74.3,40.19 C74.0468833,39.7063386 73.9930459,39.1428401 74.15,38.62 C74.2350801,38.2297536 74.3730195,37.8529436 74.56,37.5 C74.7596931,37.149805 75.049805,36.8596931 75.4,36.66 C75.5070153,36.5914915 75.620984,36.5345072 75.74,36.49 L76.08,36.4 C76.1798198,36.3915102 76.2801802,36.3915102 76.38,36.4 L76.6,36.4 C76.8597104,36.3885582 77.1188584,36.4328861 77.36,36.53 C77.5373729,36.5971064 77.6953973,36.7070364 77.82,36.85 C77.9198923,36.9878434 77.9912852,37.1442278 78.03,37.31 C78.055169,37.4824197 78.055169,37.6575803 78.03,37.83 C78.0205217,37.9977615 78.000482,38.164759 77.97,38.33 L77.89,38.74 L74.92,38.69 Z M77.25,38.14 C77.2743361,38.0211907 77.2910369,37.9009445 77.3,37.78 C77.3269388,37.6480274 77.3269388,37.5119726 77.3,37.38 C77.2502585,37.2481793 77.1634329,37.1335696 77.05,37.05 C76.8960908,36.9407456 76.7077864,36.8910048 76.52,36.91 C76.3812255,36.9110642 76.2432601,36.9312542 76.11,36.97 C75.9644805,37.0138161 75.8287007,37.0851005 75.71,37.18 C75.5712304,37.284367 75.4526286,37.4131347 75.36,37.56 C75.2410298,37.7348065 75.1593331,37.9322403 75.12,38.14 L77.25,38.14 Z" id="Shape"></path>
            <path d="M84.12,34.63 L85.01,34.63 L86.17,40.63 L85.25,40.63 L84.94,39.07 L82.16,39.07 L81.16,40.63 L80.31,40.63 L84.12,34.63 Z M82.57,38.4 L84.84,38.4 L84.36,35.4 L82.57,38.4 Z" id="Shape"></path>
            <path d="M87.7,37.14 C87.7045429,37.100129 87.7045429,37.059871 87.7,37.02 L87.7,36.88 C87.7,36.88 87.7,36.78 87.7,36.71 C87.7,36.64 87.7,36.56 87.7,36.46 L88.49,36.46 L88.36,37.15 C88.4767764,36.9942333 88.6187255,36.8590437 88.78,36.75 C88.9193246,36.6628195 89.0666608,36.5891514 89.22,36.53 C89.350281,36.4727064 89.4885366,36.4356134 89.63,36.4199877 L89.94,36.4199877 C90.1557574,36.4191741 90.369654,36.4599163 90.57,36.54 C90.7671906,36.6160138 90.9352298,36.7525457 91.05,36.93 C91.1899295,37.1279252 91.2760732,37.3587902 91.3,37.6 C91.3379586,37.9342955 91.3176578,38.2726415 91.24,38.6 C91.168011,38.9501447 91.0432548,39.2873236 90.87,39.6 C90.7214331,39.8642158 90.5286365,40.1009837 90.3,40.3 C89.8987051,40.6429805 89.3878942,40.8309873 88.86,40.83 C88.5980256,40.8419514 88.3380144,40.7795487 88.11,40.65 C87.9250438,40.5553514 87.7823114,40.3947773 87.71,40.2 L87.27,42.28 L86.49,42.28 L87.7,37.14 Z M88.13,38.68 C88.0979435,38.8285126 88.0745706,38.9787674 88.06,39.13 C88.0345066,39.2990442 88.0345066,39.4709558 88.06,39.64 C88.1008448,39.8008453 88.1919249,39.9444715 88.32,40.05 C88.4994991,40.1793803 88.7196145,40.2397346 88.94,40.22 L89.12,40.22 C89.2048403,40.2120382 89.2886236,40.1952815 89.37,40.17 L89.64,40.05 C89.7371312,39.9858812 89.8275842,39.9121787 89.91,39.83 C90.0035768,39.7245676 90.0872623,39.6107553 90.16,39.49 C90.228499,39.3759527 90.2854477,39.2553554 90.33,39.13 C90.3772889,39.0193725 90.4173726,38.9058021 90.45,38.79 C90.4802819,38.7019461 90.5036854,38.6116751 90.52,38.52 C90.5655028,38.3365126 90.5923062,38.1488887 90.6,37.96 C90.6060955,37.7929774 90.578901,37.626411 90.52,37.47 C90.4721859,37.3261485 90.3770028,37.2027631 90.25,37.12 C90.0872039,37.0232626 89.8989855,36.9779508 89.71,36.99 C89.437813,36.9788688 89.1688483,37.0522228 88.94,37.2 C88.7510062,37.3321634 88.588239,37.4983216 88.46,37.69 C88.3488002,37.8678235 88.261389,38.0594558 88.2,38.26 C88.19,38.44 88.15,38.58 88.13,38.68 L88.13,38.68 Z" id="Shape"></path>
            <path d="M92.83,37.33 C92.83,37.18 92.89,37.04 92.91,36.9 L92.97,36.48 L93.76,36.48 L93.6,37.29 C93.6679171,37.1569238 93.7518753,37.0326656 93.85,36.92 C93.9437126,36.8253953 94.0476893,36.7415431 94.16,36.67 C94.2607667,36.610866 94.3681812,36.5638721 94.48,36.53 C94.5781608,36.4993881 94.678428,36.4759925 94.78,36.46 L95.09,36.46 L95.33,36.46 L95.16,37.22 L95.02,37.22 L94.79,37.22 C94.5885944,37.2130913 94.3878805,37.2471106 94.2,37.32 C94.049398,37.3766505 93.9129127,37.4653659 93.8,37.58 C93.6873711,37.6983612 93.5990387,37.8376547 93.54,37.99 C93.4767555,38.152403 93.4265957,38.3196023 93.39,38.49 L92.91,40.71 L92.12,40.71 L92.83,37.33 Z" id="Path"></path>
            <path d="M96.25,38.69 C96.1994382,38.8858765 96.1758869,39.0877448 96.18,39.29 C96.1784774,39.4564167 96.2161609,39.6208537 96.29,39.77 C96.3580068,39.9059796 96.4662473,40.0177117 96.6,40.09 C96.7618674,40.168237 96.9403162,40.2059858 97.12,40.2 C97.3721865,40.201472 97.6191886,40.1284151 97.83,39.99 C98.0415816,39.8247078 98.1898758,39.5916741 98.25,39.33 L99.03,39.33 C98.9895689,39.4667284 98.9394419,39.6004006 98.88,39.73 C98.7847544,39.915354 98.6519316,40.0788283 98.49,40.21 C98.4219424,40.273184 98.348309,40.3300825 98.27,40.38 C98.1675091,40.4555632 98.0568066,40.519301 97.94,40.57 C97.7973314,40.6284082 97.6501887,40.6752263 97.5,40.71 C97.3163351,40.751909 97.1283745,40.7720476 96.94,40.77 C96.4187224,40.8315579 95.9041743,40.6104929 95.59,40.19 C95.3368833,39.7063386 95.2830459,39.1428401 95.44,38.62 C95.5250801,38.2297536 95.6630195,37.8529436 95.85,37.5 C96.0527197,37.1521258 96.3421258,36.8627197 96.69,36.66 C96.7970153,36.5914915 96.910984,36.5345072 97.03,36.49 L97.37,36.4 C97.4698198,36.3915102 97.5701802,36.3915102 97.67,36.4 L97.89,36.4 C98.1528992,36.3895522 98.4151029,36.4338204 98.66,36.53 C98.8331973,36.5995755 98.9874195,36.7092446 99.11,36.85 C99.2138496,36.9855013 99.2856471,37.142772 99.32,37.31 C99.345169,37.4824197 99.345169,37.6575803 99.32,37.83 C99.3154476,37.9981593 99.2953621,38.1655379 99.26,38.33 L99.18,38.74 L96.25,38.69 Z M98.57,38.14 C98.5825195,38.0203265 98.5825195,37.8996735 98.57,37.78 C98.6007048,37.6484344 98.6007048,37.5115656 98.57,37.38 C98.5274958,37.2470902 98.443348,37.131387 98.33,37.05 C98.1715433,36.9424292 97.9807613,36.8929672 97.79,36.91 C97.6545079,36.9110814 97.5198465,36.9312807 97.39,36.97 C97.2404671,37.0113708 97.1009526,37.0828295 96.98,37.18 C96.8436388,37.2870006 96.7254509,37.4153189 96.63,37.56 C96.519971,37.7394961 96.4389737,37.9352396 96.39,38.14 L98.57,38.14 Z" id="Shape"></path>
            <path d="M100.76,36.94 L100.86,36.46 L101.64,36.46 L101.5,37.13 L101.66,36.94 C101.748187,36.847308 101.845326,36.7635669 101.95,36.69 C102.088185,36.6008055 102.235733,36.5270313 102.39,36.47 C102.590221,36.4057174 102.799766,36.3752996 103.01,36.38 C103.139768,36.3690064 103.270232,36.3690064 103.4,36.38 C103.562911,36.4118459 103.71874,36.4728226 103.86,36.56 C104.009409,36.6706986 104.126741,36.8190891 104.2,36.99 C104.277757,37.2407776 104.277757,37.5092224 104.2,37.76 L103.6,40.6 L102.8,40.6 L103.36,37.94 C103.373816,37.8103671 103.373816,37.6796329 103.36,37.55 C103.360035,37.4340528 103.321317,37.3214199 103.25,37.23 C103.170678,37.1319888 103.067321,37.0561942 102.95,37.01 C102.824637,36.9657433 102.692929,36.9421033 102.56,36.94 C102.416445,36.9423482 102.274367,36.9694107 102.14,37.02 C101.993352,37.0707476 101.857631,37.1487871 101.74,37.25 C101.615159,37.3639589 101.507385,37.4953079 101.42,37.64 C101.324521,37.812563 101.253827,37.9977154 101.21,38.19 L100.7,40.6 L99.92,40.6 L100.76,36.94 Z" id="Path"></path>
            <path d="M109.25,34.63 L110.04,34.63 L108.9,39.97 C108.902402,40.0099639 108.902402,40.0500361 108.9,40.09 L108.9,40.26 L108.9,40.46 C108.895639,40.5199208 108.895639,40.5800792 108.9,40.64 L108.11,40.64 L108.24,39.97 L108.07,40.18 C107.982338,40.2743086 107.881251,40.3551781 107.77,40.42 C107.583826,40.523697 107.385695,40.6042924 107.18,40.66 C107.01251,40.6974529 106.841609,40.7175589 106.67,40.72 C106.501086,40.7173576 106.333146,40.693846 106.17,40.65 C105.970978,40.5960095 105.788725,40.4928473 105.64,40.35 C105.467231,40.1725184 105.346211,39.9512246 105.29,39.71 C105.200973,39.3453552 105.200973,38.9646448 105.29,38.6 C105.365575,38.2494294 105.493688,37.9122905 105.67,37.6 C105.818438,37.3327728 106.011178,37.0926934 106.24,36.89 C106.446108,36.7166285 106.679185,36.5781337 106.93,36.48 C107.16707,36.3933658 107.417597,36.3493543 107.67,36.35 C107.856447,36.3468507 108.042176,36.3738659 108.22,36.43 C108.344023,36.480998 108.458872,36.551934 108.56,36.64 C108.632122,36.706355 108.692923,36.7840444 108.74,36.87 L108.82,37.06 L109.25,34.63 Z M108.46,38.49 C108.522745,38.2520689 108.546386,38.005519 108.53,37.76 C108.510621,37.6104901 108.466698,37.4652041 108.4,37.33 C108.326623,37.2065156 108.223484,37.1033772 108.1,37.03 C107.935887,36.9365446 107.748664,36.8914725 107.56,36.9 C107.385152,36.9002395 107.211991,36.9341926 107.05,37 C106.912775,37.0692321 106.787793,37.1604352 106.68,37.27 C106.572858,37.3761324 106.481887,37.497427 106.41,37.63 C106.336747,37.7514594 106.273216,37.8785222 106.22,38.01 C106.174133,38.1201476 106.137343,38.2338594 106.11,38.35 C106.11,38.46 106.11,38.53 106.11,38.58 C106.071324,38.7644269 106.047911,38.9517274 106.04,39.14 C106.027916,39.3122567 106.048268,39.4852512 106.1,39.65 C106.146712,39.8024464 106.241412,39.9357285 106.37,40.03 C106.532841,40.136127 106.726236,40.1853549 106.92,40.17 C107.189042,40.1810348 107.454793,40.1076037 107.68,39.96 C107.871646,39.8259219 108.031986,39.6519354 108.15,39.45 C108.265131,39.2779166 108.352842,39.0889993 108.41,38.89 C108.421571,38.757 108.424911,38.623412 108.42,38.49 L108.46,38.49 Z" id="Shape"></path>
            <path d="M111.03,36.46 L111.81,36.46 L110.92,40.64 L110.14,40.64 L111.03,36.46 Z M111.33,34.64 L112.25,34.64 L112.07,35.5 L111.13,35.5 L111.33,34.64 Z" id="Shape"></path>
            <polygon id="Path" points="112.14 39.83 114.96 37.05 112.85 37.05 112.97 36.46 115.97 36.46 115.83 37.13 112.9 40.03 115.25 40.03 115.12 40.64 111.99 40.64"></polygon>
            <path d="M118.69,40.64 C118.69,40.54 118.69,40.43 118.69,40.33 C118.69,40.23 118.69,40.13 118.69,40.02 C118.577488,40.1726449 118.442645,40.3074883 118.29,40.42 C118.171637,40.5148783 118.040306,40.5923301 117.9,40.65 C117.78665,40.703805 117.664861,40.7376352 117.54,40.75 C117.440215,40.7592792 117.339785,40.7592792 117.24,40.75 C117.033028,40.754913 116.826734,40.7244763 116.63,40.66 C116.474051,40.6083279 116.333235,40.5190297 116.22,40.4 C116.118413,40.2871889 116.049297,40.1489563 116.02,40 C115.981031,39.8423728 115.981031,39.6776272 116.02,39.52 C116.035297,39.4237864 116.062159,39.3297724 116.1,39.24 C116.144436,39.1252968 116.20505,39.017539 116.28,38.92 C116.368063,38.8027274 116.465015,38.692402 116.57,38.59 C116.703908,38.4752416 116.851738,38.377808 117.01,38.3 C117.138546,38.2380606 117.272423,38.1878567 117.41,38.15 L117.82,38.07 L118.21,38.07 L118.78,38.07 L119.08,38.07 C119.08,37.94 119.08,37.83 119.15,37.73 C119.158094,37.6468632 119.158094,37.5631368 119.15,37.48 C119.160091,37.4170687 119.160091,37.3529313 119.15,37.29 C119.147935,37.2345687 119.126733,37.1815639 119.09,37.14 C119.030621,37.0292591 118.923739,36.9518623 118.8,36.93 C118.52088,36.8369767 118.21912,36.8369767 117.94,36.93 C117.830771,36.980773 117.732319,37.0520661 117.65,37.14 C117.585961,37.2103184 117.535145,37.2916229 117.5,37.38 C117.5,37.46 117.5,37.52 117.43,37.56 L116.65,37.56 C116.65,37.44 116.73,37.32 116.79,37.18 C116.872027,37.0228341 116.980243,36.8808 117.11,36.76 C117.312385,36.5838486 117.55703,36.4632492 117.82,36.41 C117.944468,36.3737881 118.071497,36.3470451 118.2,36.33 L118.56,36.33 C118.709837,36.3201209 118.860163,36.3201209 119.01,36.33 C119.146327,36.354752 119.280186,36.3915633 119.41,36.44 C119.526868,36.4887536 119.634965,36.5563141 119.73,36.64 C119.813277,36.7120976 119.875478,36.805399 119.91,36.91 C119.928016,37.0259711 119.928016,37.1440289 119.91,37.26 C119.91,37.36 119.91,37.46 119.91,37.55 L119.45,39.55 C119.45,39.55 119.45,39.61 119.45,39.68 C119.45,39.75 119.45,39.84 119.45,39.94 L119.39,40.27 L119.39,40.6 L118.69,40.64 Z M119.03,38.64 L118.83,38.64 L118.59,38.64 L118.22,38.64 C118.042929,38.6415553 117.867294,38.6719536 117.7,38.73 C117.51972,38.7827516 117.350369,38.8674269 117.2,38.98 C117.043486,39.1011893 116.936767,39.2754966 116.9,39.47 C116.88958,39.5463126 116.88958,39.6236874 116.9,39.7 C116.912885,39.7839528 116.939936,39.865107 116.98,39.94 C117.037268,40.0173194 117.112872,40.079177 117.2,40.12 C117.332596,40.1766334 117.47587,40.2039237 117.62,40.2 C118.00485,40.2120206 118.373764,40.0460092 118.62,39.75 C118.676496,39.6848757 118.726719,39.6145639 118.77,39.54 C118.811146,39.4669722 118.844656,39.3898984 118.87,39.31 C118.905229,39.2193283 118.93201,39.125597 118.95,39.03 C118.96,38.88 119,38.75 119.03,38.61 L119.03,38.64 Z" id="Shape"></path>
            <path d="M121.46,40.97 C121.440214,41.0757492 121.440214,41.1842508 121.46,41.29 C121.47047,41.383812 121.504908,41.4733506 121.56,41.55 C121.630836,41.627812 121.720311,41.686315 121.82,41.72 C121.965737,41.7643493 122.117735,41.7846157 122.27,41.78 C122.498524,41.7927097 122.726315,41.7443903 122.93,41.64 C123.098338,41.5479778 123.239681,41.4135292 123.34,41.25 C123.454021,41.0594452 123.541495,40.8542172 123.6,40.64 L123.79,39.86 C123.676652,40.0153126 123.538064,40.1505205 123.38,40.26 C123.240556,40.3442248 123.093183,40.4145619 122.94,40.47 C122.811753,40.5177125 122.676732,40.5447167 122.54,40.55 L122.26,40.55 L121.95,40.55 C121.840955,40.5339586 121.733765,40.5071612 121.63,40.47 C121.52435,40.4322029 121.423628,40.3818416 121.33,40.32 C121.229974,40.2500208 121.147769,40.1575408 121.09,40.05 C120.950375,39.8354838 120.87412,39.5859205 120.87,39.33 C120.859338,39.0548237 120.88285,38.7793874 120.94,38.51 C121.001037,38.1833071 121.115935,37.869027 121.28,37.58 C121.421037,37.3308095 121.603672,37.1075887 121.82,36.92 C122.024166,36.754201 122.253796,36.6225017 122.5,36.53 C122.736846,36.4425344 122.987524,36.3984964 123.24,36.4 C123.419324,36.393821 123.598429,36.4174764 123.77,36.47 C123.891032,36.5051478 124.005772,36.559143 124.11,36.63 C124.189366,36.6867007 124.257236,36.7579644 124.31,36.84 C124.34541,36.9061184 124.385513,36.9696143 124.43,37.03 L124.56,36.46 L125.32,36.46 L125.13,37.22 L124.58,39.83 L124.43,40.48 L124.3,40.96 C124.264803,41.0777235 124.217902,41.1916255 124.16,41.3 C124.114861,41.3946104 124.061312,41.4849737 124,41.57 C123.885708,41.7279562 123.74334,41.8635449 123.58,41.97 C123.42418,42.0658561 123.255944,42.1398798 123.08,42.19 C122.916762,42.2386351 122.749387,42.2721102 122.58,42.29 L122.1,42.29 C121.86814,42.2918126 121.636772,42.2683406 121.41,42.22 C121.251841,42.1932257 121.099561,42.1390817 120.96,42.06 C120.86052,41.9987242 120.775284,41.916897 120.71,41.82 C120.662024,41.7325627 120.628268,41.6380474 120.61,41.54 C120.595093,41.4372043 120.595093,41.3327957 120.61,41.23 C120.61,41.13 120.61,41.03 120.61,40.94 L121.46,40.97 Z M122.57,39.97 C122.772554,39.9798539 122.974605,39.9421834 123.16,39.86 C123.315907,39.7893683 123.455503,39.6872249 123.57,39.56 L123.73,39.38 C123.78341,39.311182 123.830279,39.2375292 123.87,39.16 C123.87,39.07 123.95,38.96 124,38.83 C124.05,38.7 124.08,38.55 124.12,38.36 C124.150912,38.1477865 124.150912,37.9322135 124.12,37.72 C124.096362,37.5766255 124.041762,37.4401249 123.96,37.32 C123.874911,37.1992501 123.756886,37.1055238 123.62,37.05 C123.259977,36.8951653 122.847719,36.9211635 122.51,37.12 C122.34171,37.2236977 122.195577,37.359636 122.08,37.52 C121.97367,37.6741412 121.889515,37.8424516 121.83,38.02 C121.770593,38.1691628 121.723763,38.3230323 121.69,38.48 C121.659097,38.6485394 121.639056,38.8188904 121.63,38.99 C121.617325,39.1532155 121.641239,39.3172022 121.7,39.47 C121.747241,39.6168007 121.842299,39.7435442 121.97,39.83 C122.146002,39.9493061 122.35856,40.0024457 122.57,39.98 L122.57,39.97 Z" id="Shape"></path>
            <path d="M126.76,38.69 C126.706549,38.8855079 126.679641,39.0873175 126.68,39.29 C126.688226,39.4552138 126.725461,39.6176912 126.79,39.77 C126.860947,39.9038692 126.96845,40.0148399 127.1,40.09 C127.26552,40.1679497 127.447131,40.2056425 127.63,40.2 C127.882186,40.201472 128.129189,40.1284151 128.34,39.99 C128.563545,39.8283371 128.725699,39.5956815 128.8,39.33 L129.58,39.33 C129.535436,39.466676 129.481989,39.600294 129.42,39.73 C129.328939,39.9152214 129.199385,40.0788684 129.04,40.21 L128.82,40.38 C128.717509,40.4555632 128.606807,40.519301 128.49,40.57 C128.346299,40.6255192 128.199362,40.6722717 128.05,40.71 C127.862943,40.7518734 127.671676,40.7720067 127.48,40.77 C126.961478,40.8320763 126.449632,40.6105308 126.14,40.19 C125.886883,39.7063386 125.833046,39.1428401 125.99,38.62 C126.07508,38.2297536 126.213019,37.8529436 126.4,37.5 C126.599693,37.149805 126.889805,36.8596931 127.24,36.66 C127.347015,36.5914915 127.460984,36.5345072 127.58,36.49 L127.92,36.4 C128.016511,36.3922435 128.113489,36.3922435 128.21,36.4 L128.44,36.4 C128.699652,36.3894747 128.958609,36.4337699 129.2,36.53 C129.377373,36.5971064 129.535397,36.7070364 129.66,36.85 C129.759892,36.9878434 129.831285,37.1442278 129.87,37.31 C129.895169,37.4824197 129.895169,37.6575803 129.87,37.83 C129.860522,37.9977615 129.840482,38.164759 129.81,38.33 C129.81,38.49 129.75,38.63 129.72,38.74 L126.76,38.69 Z M129.08,38.14 C129.087613,38.0201208 129.087613,37.8998792 129.08,37.78 C129.106939,37.6480274 129.106939,37.5119726 129.08,37.38 C129.030259,37.2481793 128.943433,37.1335696 128.83,37.05 C128.675334,36.9423727 128.487641,36.8927935 128.3,36.91 C128.161225,36.9110642 128.02326,36.9312542 127.89,36.97 C127.74448,37.0138161 127.608701,37.0851005 127.49,37.18 C127.35123,37.284367 127.232629,37.4131347 127.14,37.56 C127.02103,37.7348065 126.939333,37.9322403 126.9,38.14 L129.08,38.14 Z" id="Shape"></path>
            <path d="M131.25,37.02 L131.35,36.46 L132.15,36.46 L132.01,37.07 C132.128355,36.9220145 132.266285,36.7908123 132.42,36.68 C132.543338,36.5898021 132.677777,36.5158608 132.82,36.46 L133.18,36.37 L133.49,36.37 C133.679814,36.365392 133.869069,36.3924285 134.05,36.45 C134.179033,36.4922168 134.298119,36.5602658 134.4,36.65 C134.485879,36.7135084 134.551804,36.8002523 134.59,36.9 L134.69,37.15 L134.89,36.94 C134.979896,36.8384683 135.084368,36.7508463 135.2,36.68 C135.341771,36.5909108 135.49262,36.5171622 135.65,36.46 C135.841473,36.3839083 136.044204,36.3399832 136.25,36.33 C136.411777,36.3314437 136.572845,36.3515772 136.73,36.39 C136.895551,36.4259571 137.049944,36.5014381 137.18,36.61 C137.321055,36.7262427 137.422413,36.8835228 137.47,37.06 C137.540838,37.3049819 137.540838,37.5650181 137.47,37.81 L136.88,40.62 L136.08,40.62 L136.65,37.94 C136.681361,37.8055288 136.698125,37.668067 136.7,37.53 C136.693809,37.4546729 136.676975,37.3806032 136.65,37.31 C136.59159,37.2024092 136.505218,37.1125823 136.4,37.05 C136.256092,36.9716931 136.093712,36.9336894 135.93,36.94 C135.81393,36.9233162 135.69607,36.9233162 135.58,36.94 C135.47871,36.9677575 135.381288,37.0080702 135.29,37.06 C135.21486,37.098455 135.144397,37.1454308 135.08,37.2 L134.94,37.33 C134.878654,37.3986382 134.828079,37.4761875 134.79,37.56 C134.747352,37.6405714 134.710589,37.7241228 134.68,37.81 C134.650159,37.8879565 134.626747,37.9682244 134.61,38.05 C134.604589,38.109878 134.604589,38.170122 134.61,38.23 L134.11,40.57 L133.32,40.57 L133.91,37.81 C133.966563,37.5866441 133.934301,37.3500564 133.82,37.15 C133.664886,36.9599698 133.423695,36.861986 133.18,36.89 C133.06053,36.8740475 132.93947,36.8740475 132.82,36.89 C132.716744,36.9253945 132.616434,36.9688621 132.52,37.02 C132.415132,37.1093797 132.324138,37.2138554 132.25,37.33 C132.20418,37.3707733 132.160773,37.4141801 132.12,37.46 C132.012095,37.5782957 131.930319,37.7179954 131.88,37.87 C131.88,38.03 131.79,38.17 131.76,38.31 L131.25,40.64 L130.46,40.64 L131.25,37.02 Z" id="Path"></path>
            <polygon id="Path" points="141.95 34.63 142.78 34.63 141.51 40.63 140.68 40.63"></polygon>
            <path d="M143.8,36.94 L143.9,36.46 L144.68,36.46 L144.54,37.13 L144.7,36.94 C144.788187,36.847308 144.885326,36.7635669 144.99,36.69 C145.128185,36.6008055 145.275733,36.5270313 145.43,36.47 C145.630221,36.4057174 145.839766,36.3752996 146.05,36.38 C146.179768,36.3690064 146.310232,36.3690064 146.44,36.38 C146.603428,36.4100497 146.75958,36.4711525 146.9,36.56 C147.049409,36.6706986 147.166741,36.8190891 147.24,36.99 C147.317757,37.2407776 147.317757,37.5092224 147.24,37.76 L146.64,40.6 L145.84,40.6 L146.4,37.94 C146.413816,37.8103671 146.413816,37.6796329 146.4,37.55 C146.400035,37.4340528 146.361317,37.3214199 146.29,37.23 C146.210678,37.1319888 146.107321,37.0561942 145.99,37.01 C145.867856,36.9666288 145.739581,36.9429991 145.61,36.94 C145.463099,36.9413952 145.317574,36.9684697 145.18,37.02 C145.034371,37.0729615 144.899031,37.1507816 144.78,37.25 C144.655159,37.3639589 144.547385,37.4953079 144.46,37.64 C144.364521,37.812563 144.293827,37.9977154 144.25,38.19 L143.74,40.6 L142.96,40.6 L143.8,36.94 Z" id="Path"></path>
            <path d="M152.25,34.63 L153.03,34.63 L151.9,39.97 C151.892666,40.0096638 151.892666,40.0503362 151.9,40.09 L151.9,40.26 C151.9,40.33 151.9,40.39 151.9,40.46 C151.895639,40.5199208 151.895639,40.5800792 151.9,40.64 L151.11,40.64 L151.24,39.97 C151.190137,40.0452442 151.133212,40.1155624 151.07,40.18 C150.982338,40.2743086 150.881251,40.3551781 150.77,40.42 C150.584665,40.5254359 150.386308,40.6061232 150.18,40.66 C150.01251,40.6974529 149.841609,40.7175589 149.67,40.72 C149.501086,40.7173576 149.333146,40.693846 149.17,40.65 C148.970978,40.5960095 148.788725,40.4928473 148.64,40.35 C148.470702,40.1699775 148.350223,39.949673 148.29,39.71 C148.200973,39.3453552 148.200973,38.9646448 148.29,38.6 C148.365575,38.2494294 148.493688,37.9122905 148.67,37.6 C148.824845,37.3371381 149.016825,37.0980054 149.24,36.89 C149.446108,36.7166285 149.679185,36.5781337 149.93,36.48 C150.16707,36.3933658 150.417597,36.3493543 150.67,36.35 C150.856447,36.3468507 151.042176,36.3738659 151.22,36.43 C151.345205,36.4786534 151.460439,36.5498277 151.56,36.64 C151.632122,36.706355 151.692923,36.7840444 151.74,36.87 L151.82,37.06 L152.25,34.63 Z M151.45,38.49 C151.512745,38.2520689 151.536386,38.005519 151.52,37.76 C151.500621,37.6104901 151.456698,37.4652041 151.39,37.33 C151.31964,37.204202 151.215798,37.1003604 151.09,37.03 C150.930308,36.9346427 150.745692,36.8893595 150.56,36.9 C150.384976,36.898389 150.211455,36.9324127 150.05,37 C149.90821,37.0665583 149.779506,37.1580058 149.67,37.27 C149.569014,37.3813536 149.478623,37.5018745 149.4,37.63 C149.33,37.76 149.26,37.89 149.21,38.01 C149.16,38.13 149.13,38.25 149.1,38.35 C149.09523,38.4265925 149.09523,38.5034075 149.1,38.58 C149.05796,38.7641455 149.031202,38.951449 149.02,39.14 C149.007916,39.3122567 149.028268,39.4852512 149.08,39.65 C149.126712,39.8024464 149.221412,39.9357285 149.35,40.03 C149.512841,40.136127 149.706236,40.1853549 149.9,40.17 C150.169042,40.1810348 150.434793,40.1076037 150.66,39.96 C150.852195,39.8234648 151.015353,39.6501098 151.14,39.45 C151.247958,39.27533 151.332038,39.0869895 151.39,38.89 C151.421674,38.7582615 151.445053,38.6246658 151.46,38.49 L151.45,38.49 Z" id="Shape"></path>
            <path d="M154.78,36.46 L154.25,39.15 C154.244509,39.256596 154.244509,39.363404 154.25,39.47 C154.248585,39.5731155 154.269034,39.6753606 154.31,39.77 C154.361929,39.8620008 154.437999,39.9380712 154.53,39.99 C154.674873,40.0525906 154.832502,40.0800044 154.99,40.07 C155.187626,40.0700394 155.383798,40.0362167 155.57,39.97 C155.762012,39.8898294 155.933067,39.7666693 156.07,39.61 C156.181774,39.4945966 156.264097,39.3539615 156.31,39.2 C156.352288,39.0792629 156.38571,38.9556013 156.41,38.83 L156.92,36.46 L157.73,36.46 L157,39.86 C157,39.86 157,39.92 157,39.98 C157,40.04 157,40.11 157,40.19 C156.976796,40.3405951 156.950123,40.490635 156.92,40.64 L156.1,40.64 L156.24,39.92 C156.19,40 156.12,40.08 156.05,40.17 C155.964837,40.2629626 155.867249,40.3437248 155.76,40.41 C155.627161,40.4948275 155.48216,40.5588976 155.33,40.6 C155.142616,40.6594259 154.946474,40.6864799 154.75,40.68 C154.52573,40.6874129 154.302008,40.6535157 154.09,40.58 C153.93089,40.5197824 153.789774,40.4199683 153.68,40.29 C153.587875,40.1549356 153.526437,40.0013398 153.5,39.84 C153.470554,39.6511409 153.470554,39.4588591 153.5,39.27 L154.1,36.46 L154.78,36.46 Z" id="Path"></path>
            <path d="M158.98,39.4 C158.964777,39.4826382 158.964777,39.5673618 158.98,39.65 C158.98182,39.7393345 159.009619,39.8262052 159.06,39.9 C159.12283,39.9800094 159.205599,40.042086 159.3,40.08 C159.442744,40.1378792 159.596053,40.1651341 159.75,40.16 C159.898777,40.1610843 160.046945,40.1408797 160.19,40.1 C160.324481,40.0652269 160.446033,39.9922959 160.54,39.89 C160.650348,39.7846636 160.726919,39.648923 160.76,39.5 C160.78033,39.4179066 160.78033,39.3320934 160.76,39.25 C160.733652,39.1818314 160.684068,39.1251633 160.62,39.09 C160.539509,39.0401752 160.45181,39.0030718 160.36,38.98 L159.97,38.87 C159.77,38.87 159.57,38.77 159.39,38.72 C159.222279,38.6730718 159.063471,38.5987361 158.92,38.5 C158.79576,38.418672 158.70107,38.2994337 158.65,38.16 C158.598594,37.9870728 158.598594,37.8029272 158.65,37.63 C158.691104,37.4399392 158.76926,37.2598415 158.88,37.1 C158.994712,36.9451767 159.137115,36.8129454 159.3,36.71 C159.476075,36.5955825 159.668172,36.5079592 159.87,36.45 C160.091404,36.3886472 160.320259,36.3583576 160.55,36.36 L160.97,36.36 C161.110855,36.3787496 161.248676,36.415726 161.38,36.47 C161.503058,36.5185517 161.617775,36.5860321 161.72,36.67 C161.818458,36.750894 161.891394,36.8585608 161.93,36.98 C161.944286,37.0861883 161.944286,37.1938117 161.93,37.3 C161.935611,37.3965852 161.935611,37.4934148 161.93,37.59 L161.13,37.59 C161.16473,37.4691116 161.16473,37.3408884 161.13,37.22 C161.096182,37.1342393 161.036839,37.0609342 160.96,37.01 C160.884754,36.9610589 160.799175,36.9302505 160.71,36.92 L160.46,36.92 L160.25,36.92 C160.147371,36.9301237 160.046511,36.9536575 159.95,36.99 C159.837441,37.0324808 159.732691,37.0933031 159.64,37.17 C159.54062,37.2590519 159.473763,37.3786917 159.45,37.51 C159.423333,37.5877778 159.423333,37.6722222 159.45,37.75 C159.471225,37.8151262 159.513422,37.871389 159.57,37.91 L159.74,37.99 L159.91,38.05 C160.19,38.11 160.41,38.17 160.59,38.22 L161.02,38.35 C161.111392,38.3831575 161.198639,38.4267811 161.28,38.48 L161.45,38.62 C161.539505,38.7243267 161.59529,38.8533298 161.61,38.99 C161.629976,39.1259367 161.629976,39.2640633 161.61,39.4 C161.559861,39.6303044 161.457191,39.8459111 161.31,40.03 C161.176198,40.2050189 161.005487,40.3484163 160.81,40.45 C160.613013,40.5661975 160.39589,40.6442261 160.17,40.68 C159.952252,40.7198092 159.731357,40.7398906 159.51,40.74 C159.311407,40.7376573 159.113628,40.7141919 158.92,40.67 C158.747016,40.6240481 158.584196,40.5460302 158.44,40.44 C158.309983,40.3301865 158.215925,40.1838727 158.17,40.02 C158.119848,39.8096142 158.119848,39.5903858 158.17,39.38 L158.98,39.4 Z" id="Path"></path>
            <path d="M162.68,36.44 L163.42,36.44 L163.6,35.57 L164.44,35.32 L164.19,36.44 L165.13,36.44 L165,37.02 L164.07,37.02 L163.53,39.52 C163.533834,39.5799388 163.533834,39.6400612 163.53,39.7 C163.514308,39.758974 163.514308,39.821026 163.53,39.88 C163.557256,39.9427106 163.607289,39.9927444 163.67,40.02 C163.766565,40.0659907 163.873249,40.0866392 163.98,40.08 L164.25,40.08 L164.41,40.08 L164.29,40.69 L164.01,40.69 L163.63,40.69 C163.359158,40.7165759 163.08739,40.6495162 162.86,40.5 C162.72,40.38 162.68,40.14 162.75,39.8 L163.34,37.01 L162.6,37.01 L162.68,36.44 Z" id="Path"></path>
            <path d="M165.95,37.33 C165.985406,37.1884311 166.012122,37.0448299 166.03,36.9 L166.09,36.48 L166.88,36.48 L166.73,37.29 C166.790827,37.1528693 166.875468,37.0276 166.98,36.92 C167.068009,36.8232483 167.168964,36.7391196 167.28,36.67 C167.384255,36.6108081 167.494986,36.5638313 167.61,36.53 C167.704484,36.4984075 167.801508,36.4749881 167.9,36.46 L168.22,36.46 L168.45,36.46 L168.28,37.22 L168.14,37.22 L167.92,37.22 C167.71852,37.2119471 167.517574,37.2460057 167.33,37.32 C167.175217,37.3741076 167.03494,37.4630638 166.92,37.58 C166.810598,37.7008483 166.722664,37.839513 166.66,37.99 C166.596755,38.152403 166.546596,38.3196023 166.51,38.49 L166.03,40.71 L165.25,40.71 L165.95,37.33 Z" id="Path"></path>
            <path d="M169.34,36.46 L170.12,36.46 L169.25,40.64 L168.47,40.64 L169.34,36.46 Z M169.64,34.64 L170.58,34.64 L170.4,35.5 L169.46,35.5 L169.64,34.64 Z" id="Shape"></path>
            <path d="M173.31,40.64 C173.295093,40.5372043 173.295093,40.4327957 173.31,40.33 C173.31,40.23 173.31,40.13 173.31,40.02 C173.197488,40.1726449 173.062645,40.3074883 172.91,40.42 C172.791637,40.5148783 172.660306,40.5923301 172.52,40.65 C172.410434,40.7044651 172.291802,40.7383598 172.17,40.75 C172.066863,40.7590152 171.963137,40.7590152 171.86,40.75 C171.653087,40.7539606 171.446952,40.7235473 171.25,40.66 C171.095822,40.6046487 170.955807,40.5158586 170.84,40.4 C170.738413,40.2871889 170.669297,40.1489563 170.64,40 C170.605311,39.8418802 170.605311,39.6781198 170.64,39.52 C170.688545,39.3038145 170.780393,39.0997077 170.91,38.92 C170.992076,38.7979885 171.089547,38.6870734 171.2,38.59 C171.328494,38.4729704 171.473348,38.3752785 171.63,38.3 C171.759226,38.2396662 171.892966,38.1895138 172.03,38.15 L172.45,38.07 L172.83,38.07 L173.4,38.07 L173.7,38.07 C173.7,37.94 173.75,37.83 173.77,37.73 C173.778094,37.6468632 173.778094,37.5631368 173.77,37.48 C173.780091,37.4170687 173.780091,37.3529313 173.77,37.29 C173.767046,37.2364285 173.74978,37.1846294 173.72,37.14 C173.654291,37.0306368 173.545248,36.9543065 173.42,36.93 C173.300246,36.8920927 173.175597,36.8718794 173.05,36.87 C172.886322,36.8652232 172.723282,36.8923966 172.57,36.95 C172.457926,37.0009373 172.356221,37.0721308 172.27,37.16 C172.205961,37.2303184 172.155145,37.3116229 172.12,37.4 C172.096918,37.4589282 172.076891,37.5190081 172.06,37.58 L171.27,37.58 C171.27,37.46 171.36,37.34 171.42,37.2 C171.497991,37.0429573 171.602913,36.9008052 171.73,36.78 C171.83393,36.6930654 171.948113,36.6191825 172.07,36.56 C172.187652,36.5019337 172.311884,36.4582845 172.44,36.43 C172.564715,36.3947847 172.691672,36.3680568 172.82,36.35 L173.18,36.35 C173.329837,36.3401209 173.480163,36.3401209 173.63,36.35 C173.766623,36.3734384 173.900604,36.4102831 174.03,36.46 C174.146868,36.5087536 174.254965,36.5763141 174.35,36.66 C174.436262,36.7294174 174.4991,36.8236744 174.53,36.93 C174.552904,37.0455426 174.552904,37.1644574 174.53,37.28 C174.535523,37.3765878 174.535523,37.4734122 174.53,37.57 L174.07,39.57 C174.07,39.57 174.07,39.63 174.07,39.7 C174.07,39.77 174.07,39.86 174.02,39.96 C174.013693,40.0699096 174.013693,40.1800904 174.02,40.29 C174.02,40.4 174.02,40.52 174.02,40.62 L173.31,40.64 Z M173.65,38.64 L173.44,38.64 L173.25,38.64 L172.88,38.64 C172.699663,38.6415291 172.520733,38.6719134 172.35,38.73 C172.16972,38.7827516 172.000369,38.8674269 171.85,38.98 C171.695787,39.1016085 171.592399,39.2762978 171.56,39.47 C171.544371,39.5458702 171.544371,39.6241298 171.56,39.7 C171.57205,39.7856287 171.602775,39.867562 171.65,39.94 C171.704793,40.019637 171.78109,40.082062 171.87,40.12 C171.998832,40.1774123 172.139035,40.204769 172.28,40.2 C172.66485,40.2120206 173.033764,40.0460092 173.28,39.75 C173.342762,39.6900565 173.393652,39.6188106 173.43,39.54 C173.475218,39.4690676 173.508966,39.3914473 173.53,39.31 C173.53,39.23 173.59,39.14 173.62,39.03 C173.65,38.92 173.61,38.75 173.65,38.61 L173.65,38.64 Z" id="Shape"></path>
            <polygon id="Path" points="176.68 34.63 177.46 34.63 176.19 40.63 175.41 40.63"></polygon>
            <polygon id="Path" points="116.38 8.34 114.5 11.83 111.71 16.99 114.5 16.99 117.28 16.99 116.47 8.34"></polygon>
            <path d="M31.1,0 L31.1,4.27 L37.25,4.27 L37.25,5.04 L31.1,5.04 L31.1,9.2 L37.25,9.2 L37.25,9.97 L31.1,9.97 L31.1,14.25 L37.25,14.25 L37.25,15.02 L31.1,15.02 L31.1,19.38 L37.25,19.38 L37.25,20.15 L31.1,20.15 L31.1,24.33 L37.25,24.33 L37.25,25.1 L31.1,25.1 L31.1,29.33 L145.59,29.33 L145.59,0 L31.1,0 Z M59.01,10.38 L53.25,10.38 C53.4794469,9.74728213 53.3409854,9.03958982 52.89,8.54 C52.3161824,8.04465963 51.5644343,7.80612418 50.81,7.88 C49.5454066,7.84270803 48.3933361,8.60275452 47.93,9.78 C47.6,11.31 49.34,11.78 50.79,12.2 C54.09,13.1 59.09,13.44 57.9,19.07 C56.96,23.45 52.2,25.53 47.38,25.53 C42.56,25.53 38.56,24.11 39.68,18.46 L45.45,18.46 C45,20.46 46.22,21.46 48.29,21.46 C49.62,21.46 51.47,20.77 51.76,19.38 C52.36,16.56 47.97,17.16 43.86,15.17 C41.94,14.33 41.31,12.33 41.79,10.13 C43.07,5.19 47.68,3.84 52.04,3.84 C56.4,3.84 60.42,5.33 59.01,10.38 Z M76.69,16.64 L67.4,16.64 L66.46,21.06 L76.56,21.06 L75.7,25.06 L59.83,25.06 L64.25,4.27 L80.12,4.27 L79.54,7.01 L79.25,8.33 L69.17,8.33 L68.25,12.61 L77.54,12.61 L76.69,16.64 Z M91.25,25.09 L87.59,9.14 L87.59,9.14 L84.2,25.14 L78.96,25.14 L79.54,22.33 L83.38,4.27 L91.46,4.27 L95.14,19.79 L95.25,19.73 L98.54,4.27 L103.73,4.27 L102.58,9.66 L99.25,25.09 L91.25,25.09 Z M118.33,25.09 L117.81,21.03 L109.36,21.03 L107.14,25.09 L101.37,25.09 L102.52,23.21 L114.02,4.27 L121.02,4.27 L124.81,25.09 L118.33,25.09 Z M132.81,25.09 L127.04,25.09 L131.47,4.27 L137.25,4.27 L132.81,25.09 Z M145.57,25.09 L139.42,25.09 L139.42,24.33 L145.57,24.33 L145.57,25.09 Z M145.57,20.15 L139.42,20.15 L139.42,19.38 L145.57,19.38 L145.57,20.15 Z M145.57,15.02 L139.42,15.02 L139.42,14.25 L145.57,14.25 L145.57,15.02 Z M145.57,9.97 L139.42,9.97 L139.42,9.2 L145.57,9.2 L145.57,9.97 Z M145.57,5.04 L139.42,5.04 L139.42,4.27 L145.57,4.27 L145.57,5.04 Z" id="Shape"></path>
            <path d="M35.41,48.64 C35.706388,48.6455825 36.0013575,48.6824537 36.29,48.75 C36.5120199,48.8035776 36.7178406,48.9099183 36.89,49.06 C37.0418155,49.1929672 37.1585813,49.3612472 37.23,49.55 C37.3053106,49.7755995 37.3424868,50.0121752 37.34,50.25 C37.3432483,50.4878797 37.3060523,50.7245819 37.23,50.95 C37.157917,51.1327236 37.0409899,51.294358 36.89,51.42 C36.7480455,51.5386978 36.5897587,51.6363641 36.42,51.71 C36.2602866,51.7899656 36.0875748,51.8407631 35.91,51.86 L35.8,51.86 L34.36,51.86 L34.36,53.68 L32.93,53.68 L32.93,48.64 L35.41,48.64 Z M34.41,50.89 L35.07,50.89 C35.1890119,50.9117779 35.3109881,50.9117779 35.43,50.89 C35.5254084,50.8617979 35.6139367,50.8141288 35.69,50.75 C35.7571767,50.6940173 35.8088304,50.6217021 35.84,50.54 C35.8810387,50.4595723 35.9016451,50.3702779 35.9,50.28 C35.8994005,50.1824109 35.8753953,50.0863901 35.83,50 C35.7872806,49.9154668 35.7166115,49.8483311 35.63,49.81 C35.5347839,49.7614105 35.4340572,49.7244773 35.33,49.7 C35.2069001,49.6892677 35.0830999,49.6892677 34.96,49.7 L34.41,49.7 L34.41,50.89 Z" id="Shape"></path>
            <polygon id="Path" points="41.8 48.64 41.8 49.64 39.37 49.64 39.37 50.64 41.64 50.64 41.64 51.64 39.37 51.64 39.37 52.64 41.8 52.64 41.8 53.64 37.94 53.64 37.94 48.64"></polygon>
            <polygon id="Path" points="44.06 48.64 44.06 52.64 46.32 52.64 46.32 53.69 42.62 53.69 42.62 48.64"></polygon>
            <path d="M46.91,50.25 C47.0023757,49.9413961 47.1334157,49.645716 47.3,49.37 C47.4883523,49.0824159 47.7658895,48.8646018 48.09,48.75 C48.5300952,48.5972656 48.9943623,48.5261005 49.46,48.54 L49.61,48.54 C49.9060379,48.5525408 50.1988704,48.6063951 50.48,48.7 C50.7664197,48.7941024 51.0363511,48.9324423 51.28,49.11 C51.5453655,49.3055216 51.7443248,49.5777817 51.85,49.89 C51.9929395,50.308116 52.0606531,50.7482544 52.05,51.19 C52.05,51.26 52.05,51.33 52.05,51.4 C52.05,51.47 52.05,51.54 52.05,51.61 L52.05,51.72 C52.05,51.72 52.05,51.8 52.05,51.84 L52.05,51.96 C52.0538891,51.9965635 52.0538891,52.0334365 52.05,52.07 C51.9884853,52.2895199 51.9012119,52.50099 51.79,52.7 C51.6430254,52.9361952 51.460938,53.1486305 51.25,53.33 C51.0557468,53.5223662 50.8143518,53.6603063 50.55,53.73 C50.2254299,53.8258889 49.8884243,53.8730697 49.55,53.87 C49.0990585,53.8832774 48.6491862,53.8190099 48.22,53.68 C47.9011938,53.5818707 47.6213236,53.3859616 47.42,53.12 C47.2368971,52.8767013 47.0919026,52.6069439 46.99,52.32 C46.8856574,52.0404989 46.8216808,51.7475537 46.8,51.45 L46.8,51.45 L46.8,51.45 L46.8,51.36 L46.8,51.36 C46.7900718,50.9868547 46.8270274,50.6139389 46.91,50.25 L46.91,50.25 Z M48.32,51.78 C48.3679887,51.9693142 48.4420289,52.1510491 48.54,52.32 C48.6281531,52.4826474 48.7596968,52.6176528 48.92,52.71 C49.086381,52.797585 49.2719877,52.8422681 49.46,52.84 C49.6218065,52.8386957 49.7816778,52.8046805 49.93,52.74 C50.0703735,52.6663053 50.1879409,52.5556536 50.27,52.42 C50.3784089,52.2673777 50.4533768,52.0935886 50.49,51.91 C50.5409934,51.6734982 50.5644826,51.4318953 50.56,51.19 C50.5631854,50.9811946 50.5396613,50.7728388 50.49,50.57 C50.4522489,50.3805732 50.3847467,50.1983173 50.29,50.03 C50.2077712,49.8748367 50.0828527,49.7464482 49.93,49.66 C49.5977326,49.4874508 49.2022674,49.4874508 48.87,49.66 C48.7220581,49.7552222 48.6041616,49.8904564 48.53,50.05 C48.4459517,50.2220277 48.3821902,50.4032444 48.34,50.59 C48.2905173,50.7869711 48.2570745,50.9876275 48.24,51.19 L48.24,51.19 C48.2417588,51.3892477 48.2686375,51.5874782 48.32,51.78 L48.32,51.78 Z" id="Shape"></path>
            <polygon id="Path" points="58.67 48.64 58.67 49.64 56.52 49.64 56.52 50.8 58.52 50.8 58.52 51.8 56.52 51.8 56.52 53.68 55.08 53.68 55.08 48.64"></polygon>
            <path d="M60.87,48.64 L60.87,51.64 C60.8671164,51.8086224 60.8873033,51.9768472 60.93,52.14 C60.9619175,52.2794417 61.0195706,52.4117046 61.1,52.53 C61.176516,52.6419906 61.2843412,52.7289464 61.41,52.78 C61.5509951,52.8444781 61.7050514,52.8752894 61.86,52.87 C62.0376439,52.8755856 62.2145667,52.8449644 62.38,52.78 C62.5116505,52.7341573 62.6219372,52.6416588 62.69,52.52 C62.7663064,52.3958952 62.8236078,52.2610683 62.86,52.12 C62.8762466,51.9470474 62.8762466,51.7729526 62.86,51.6 L62.86,48.64 L64.35,48.64 L64.35,51.77 C64.3550718,52.0603388 64.3041431,52.3489344 64.2,52.62 C64.1030139,52.8698924 63.956784,53.097739 63.77,53.29 C63.5520943,53.4959727 63.2880824,53.6468366 63,53.73 C62.6291082,53.8332574 62.2448554,53.8804464 61.86,53.87 C61.5212968,53.8775861 61.183598,53.8303082 60.86,53.73 C60.5745347,53.6457478 60.311473,53.4988432 60.09,53.3 C59.8862916,53.1130631 59.7200027,52.889082 59.6,52.64 C59.489672,52.387969 59.4350938,52.1150778 59.44,51.84 L59.44,48.64 L60.87,48.64 Z" id="Path"></path>
            <polygon id="Path" points="69.41 48.64 69.41 49.64 67.82 49.64 67.82 53.64 66.44 53.64 66.44 49.64 64.84 49.64 64.84 48.64"></polygon>
            <path d="M71.4,48.64 L71.4,51.64 C71.3971164,51.8086224 71.4173033,51.9768472 71.46,52.14 C71.4919175,52.2794417 71.5495706,52.4117046 71.63,52.53 C71.706516,52.6419906 71.8143412,52.7289464 71.94,52.78 C72.0809951,52.8444781 72.2350514,52.8752894 72.39,52.87 C72.5676439,52.8755856 72.7445667,52.8449644 72.91,52.78 C73.0416505,52.7341573 73.1519372,52.6416588 73.22,52.52 C73.2970267,52.3974104 73.3512334,52.2618936 73.38,52.12 C73.4214043,51.9498108 73.4415579,51.7751464 73.44,51.6 L73.44,48.64 L74.88,48.64 L74.88,51.77 C74.8850718,52.0603388 74.8341431,52.3489344 74.73,52.62 C74.627449,52.8908041 74.4630863,53.133924 74.25,53.33 C74.03739,53.5378378 73.776105,53.6891081 73.49,53.77 C73.1191082,53.8732574 72.7348554,53.9204464 72.35,53.91 C72.0112968,53.9175861 71.673598,53.8703082 71.35,53.77 C71.0645347,53.6857478 70.801473,53.5388432 70.58,53.34 C70.3762916,53.1530631 70.2100027,52.929082 70.09,52.68 C69.979672,52.427969 69.9250938,52.1550778 69.93,51.88 L69.93,48.68 L71.4,48.64 Z" id="Path"></path>
            <path d="M77.96,48.64 L78.1,48.64 C78.3286005,48.6463119 78.5561763,48.6730856 78.78,48.72 C78.9954864,48.7634656 79.206413,48.8270784 79.41,48.91 C79.5938336,48.9956328 79.7472863,49.1351353 79.85,49.31 C79.9565724,49.5096002 80.0083301,49.7338838 80,49.96 C80.00456,50.1440818 79.9740157,50.3273475 79.91,50.5 C79.8530191,50.6443368 79.7600749,50.7717048 79.64,50.87 C79.5224755,50.966086 79.3909574,51.043648 79.25,51.1 C79.1017674,51.1596897 78.9475483,51.2032734 78.79,51.23 C78.9979147,51.2315333 79.2028774,51.279358 79.39,51.37 C79.5388717,51.4493674 79.6529246,51.5812412 79.71,51.74 C79.7718721,51.8994604 79.8220057,52.0632301 79.86,52.23 C79.901334,52.4079267 79.9313938,52.5882854 79.95,52.77 L79.95,52.77 L79.95,52.77 L79.95,52.77 C79.9549242,52.8432507 79.9549242,52.9167493 79.95,52.99 L79.95,53.23 C79.9443369,53.2998855 79.9443369,53.3701145 79.95,53.44 L80.01,53.64 L78.57,53.64 C78.5642472,53.5935106 78.5642472,53.5464894 78.57,53.5 C78.5634694,53.4435215 78.5634694,53.3864785 78.57,53.33 L78.57,53.15 C78.57,53.09 78.57,53.02 78.57,52.96 L78.57,52.91 L78.57,52.91 L78.57,52.81 C78.57,52.67 78.57,52.54 78.57,52.42 C78.5506307,52.2975897 78.5205143,52.177124 78.48,52.06 C78.4464862,51.9577219 78.3795706,51.869675 78.29,51.81 C78.1886944,51.7554391 78.0750446,51.7278876 77.96,51.73 L77.3,51.73 L77.3,53.67 L75.7,53.67 L75.7,48.64 L77.96,48.64 Z M77.14,50.79 L77.82,50.79 C77.9030052,50.8004577 77.9869948,50.8004577 78.07,50.79 L78.3,50.71 C78.3672858,50.6727309 78.4227309,50.6172858 78.46,50.55 C78.5031006,50.466735 78.5237789,50.3736827 78.52,50.28 C78.5226084,50.1928117 78.5018954,50.1065074 78.46,50.03 C78.4174818,49.939412 78.3425531,49.8680513 78.25,49.83 C78.1719589,49.7847157 78.0877431,49.7510294 78,49.73 C77.900306,49.7189368 77.799694,49.7189368 77.7,49.73 L77.1,49.73 L77.14,50.79 Z" id="Shape"></path>
            <path d="M80.82,50.25 C80.9261371,49.9272848 81.0704959,49.6184241 81.25,49.33 C81.4425528,49.042212 81.7232701,48.8246562 82.05,48.71 C82.4866102,48.5571547 82.9476221,48.4859691 83.41,48.5 L83.56,48.5 C83.8593917,48.5117415 84.1556363,48.5656042 84.44,48.66 C84.7264197,48.7541024 84.9963511,48.8924423 85.24,49.07 C85.5053655,49.2655216 85.7043248,49.5377817 85.81,49.85 C85.9491364,50.2688246 86.0134514,50.7088741 86,51.15 L86,51.36 C86.004939,51.4299129 86.004939,51.5000871 86,51.57 L86,51.68 C86,51.68 86,51.76 86,51.8 C85.9951826,51.839855 85.9951826,51.880145 86,51.92 L86,52.03 C85.9473809,52.2524882 85.8596118,52.4651596 85.74,52.66 C85.616936,52.8701536 85.4692242,53.0648645 85.3,53.24 C85.1057468,53.4323662 84.8643518,53.5703063 84.6,53.64 C84.2752759,53.7351756 83.9383765,53.7823415 83.6,53.78 C83.1489686,53.7948996 82.6988182,53.7305924 82.27,53.59 C81.9472388,53.4943864 81.6634509,53.2981874 81.46,53.03 C81.2838294,52.7823313 81.1393719,52.513573 81.03,52.23 C80.9289388,51.9500337 80.8683283,51.6570834 80.85,51.36 L80.85,51.36 C80.85,51.36 80.85,51.36 80.85,51.36 L80.85,51.36 L80.85,51.27 L80.85,51.27 C80.7958269,50.9327379 80.7857424,50.589863 80.82,50.25 L80.82,50.25 Z M82.25,51.78 C82.3024446,51.9678198 82.3762604,52.1490041 82.47,52.32 C82.5616327,52.4800547 82.692379,52.6142417 82.85,52.71 C83.0173565,52.7949673 83.2023104,52.8394933 83.39,52.8400241 C83.5520564,52.8410629 83.7124132,52.8069444 83.86,52.74 C84.0034611,52.6669515 84.1244222,52.5563585 84.21,52.42 C84.3107168,52.2643342 84.3819041,52.0914509 84.42,51.91 C84.4746234,51.6739359 84.5014721,51.432297 84.5,51.19 C84.5031854,50.9811946 84.4796613,50.7728388 84.43,50.57 C84.3934459,50.37872 84.3222793,50.1957202 84.22,50.03 C84.1444358,49.8734174 84.0221464,49.74414 83.87,49.66 C83.703619,49.572415 83.5180123,49.5277319 83.33,49.53 C83.1483389,49.527617 82.9691677,49.5724098 82.81,49.66 C82.6597386,49.7525118 82.5411602,49.8885281 82.47,50.05 C82.3826739,50.2216595 82.3155585,50.402871 82.27,50.59 C82.2190314,50.7862883 82.1888652,50.9873962 82.18,51.19 L82.18,51.19 C82.1784921,51.3888244 82.2020102,51.5870483 82.25,51.78 L82.25,51.78 Z" id="Shape"></path>
            <path d="M91.25,48.6399869 C91.7369972,48.6389072 92.2217335,48.7062317 92.69,48.84 C93.0354234,48.9394893 93.3423675,49.1417934 93.57,49.42 C93.7572013,49.6731988 93.9055064,49.9529561 94.01,50.25 C94.1196167,50.5718578 94.1737207,50.9100082 94.17,51.25 L94.17,51.25 L94.17,51.25 L94.17,51.25 L94.17,51.25 L94.17,51.35 C94.1619296,51.6933924 94.0907445,52.0323691 93.96,52.35 C93.8404248,52.632629 93.6469946,52.8778708 93.4,53.06 C93.1729399,53.2405864 92.9156103,53.379409 92.64,53.47 C92.373045,53.5625029 92.0925274,53.6098191 91.81,53.61 L89.05,53.61 L89.05,48.6399869 L91.25,48.6399869 Z M91.25,52.71 C91.4541613,52.7238945 91.6589004,52.6931836 91.85,52.62 C92.0054903,52.558311 92.143021,52.4586012 92.25,52.33 C92.3655942,52.2006641 92.4570432,52.0516361 92.52,51.89 C92.5901263,51.7390749 92.6308526,51.5761698 92.64,51.41 L92.64,51.41 L92.64,51.41 L92.64,51.25 L92.64,51.16 C92.64,51.16 92.64,51.16 92.64,51.1 C92.6113253,50.9373101 92.5608719,50.7792227 92.49,50.63 C92.4133343,50.4741476 92.3157683,50.3294809 92.2,50.2 C92.0886636,50.0649706 91.9438396,49.9615249 91.78,49.9 C91.6233916,49.8271843 91.4527083,49.789634 91.28,49.7899974 L90.51,49.7899974 L90.51,52.7899974 L91.25,52.71 Z" id="Shape"></path>
            <path d="M94.82,50.25 C94.9312156,49.9293221 95.0753164,49.6210135 95.25,49.33 C95.4404953,49.0443912 95.7172989,48.827153 96.04,48.71 C96.4800952,48.5572656 96.9443623,48.4861005 97.41,48.5 L97.56,48.5 C97.8593917,48.5117415 98.1556363,48.5656042 98.44,48.66 C98.7264197,48.7541024 98.9963511,48.8924423 99.24,49.07 C99.5053655,49.2655216 99.7043248,49.5377817 99.81,49.85 C99.9491364,50.2688246 100.013451,50.7088741 100,51.15 L100,51.36 C100,51.43 100,51.5 100,51.57 L100,51.68 C100.004916,51.7198489 100.004916,51.7601511 100,51.8 C99.9951826,51.839855 99.9951826,51.880145 100,51.92 L100,52.03 C99.9473809,52.2524882 99.8596118,52.4651596 99.74,52.66 C99.616936,52.8701536 99.4692242,53.0648645 99.3,53.24 C99.1043673,53.4305431 98.8634814,53.5681922 98.6,53.64 C98.2752759,53.7351756 97.9383765,53.7823415 97.6,53.78 C97.1489686,53.7948996 96.6988182,53.7305924 96.27,53.59 C95.9472388,53.4943864 95.6634509,53.2981874 95.46,53.03 C95.2838294,52.7823313 95.1393719,52.513573 95.03,52.23 C94.9304008,51.9491245 94.8665653,51.6568254 94.84,51.36 L94.84,51.33 L94.84,51.33 L94.84,51.24 L94.84,51.24 C94.7916204,50.9121631 94.7849004,50.5795234 94.82,50.25 Z M96.25,51.78 C96.2979887,51.9693142 96.3720289,52.1510491 96.47,52.32 C96.5616327,52.4800547 96.692379,52.6142417 96.85,52.71 C97.016381,52.797585 97.2019877,52.8422681 97.39,52.84 C97.5519291,52.8398367 97.7120303,52.8057726 97.86,52.74 C98.0034611,52.6669515 98.1244222,52.5563585 98.21,52.42 C98.3107168,52.2643342 98.3819041,52.0914509 98.42,51.91 C98.4746234,51.6739359 98.5014721,51.432297 98.5,51.19 C98.4982797,50.9814621 98.4748196,50.7736719 98.43,50.57 C98.3889571,50.3800393 98.3180786,50.1977802 98.22,50.03 C98.1372228,49.8785259 98.0166453,49.7510583 97.87,49.66 C97.703619,49.572415 97.5180123,49.5277319 97.33,49.53 C97.1483389,49.527617 96.9691677,49.5724098 96.81,49.66 C96.6597386,49.7525118 96.5411602,49.8885281 96.47,50.05 C96.3826739,50.2216595 96.3155585,50.402871 96.27,50.59 C96.2190314,50.7862883 96.1888652,50.9873962 96.18,51.19 L96.18,51.19 C96.1784921,51.3888244 96.2020102,51.5870483 96.25,51.78 Z" id="Shape"></path>
            <polygon id="Path" points="107.18 48.64 107.18 49.64 105.59 49.64 105.59 53.64 104.25 53.64 104.25 49.64 102.65 49.64 102.65 48.64"></polygon>
            <path d="M109.89,48.64 L110.02,48.64 C110.248685,48.6451227 110.47637,48.6719091 110.7,48.72 C110.915838,48.7620551 111.1269,48.8257086 111.33,48.91 C111.517321,48.9902994 111.672264,49.1311567 111.77,49.31 C111.876572,49.5096002 111.92833,49.7338838 111.92,49.96 C111.927521,50.1434288 111.90038,50.3266305 111.84,50.5 C111.783019,50.6443368 111.690075,50.7717048 111.57,50.87 C111.449632,50.9619375 111.318703,51.0391522 111.18,51.1 C111.028335,51.1597238 110.870798,51.2032978 110.71,51.23 C110.920988,51.2326489 111.128971,51.2803827 111.32,51.37 C111.466579,51.4522074 111.579784,51.5831001 111.64,51.74 C111.701872,51.8994604 111.752006,52.0632301 111.79,52.23 C111.831334,52.4079267 111.861394,52.5882854 111.88,52.77 L111.88,52.77 L111.88,52.77 L111.88,52.77 L111.88,52.99 C111.875047,53.0699233 111.875047,53.1500767 111.88,53.23 C111.874337,53.2998855 111.874337,53.3701145 111.88,53.44 C111.89886,53.508149 111.922245,53.574964 111.95,53.64 L110.41,53.64 C110.404347,53.5935045 110.404347,53.5464955 110.41,53.5 C110.41,53.45 110.41,53.4 110.41,53.33 L110.41,53.15 C110.41,53.09 110.41,53.02 110.41,52.96 L110.41,52.91 L110.41,52.91 L110.41,52.81 C110.41,52.67 110.41,52.54 110.41,52.42 C110.41,52.3 110.35,52.18 110.31,52.06 C110.279789,51.9588114 110.216382,51.8707452 110.13,51.81 C110.025097,51.7554372 109.908227,51.7279385 109.79,51.73 L109.13,51.73 L109.13,53.67 L107.7,53.67 L107.7,48.64 L109.89,48.64 Z M109.06,50.79 L109.75,50.79 C109.82971,50.7996348 109.91029,50.7996348 109.99,50.79 L110.22,50.71 C110.289578,50.6758533 110.345853,50.6195777 110.38,50.55 C110.423101,50.466735 110.443779,50.3736827 110.44,50.28 C110.442608,50.1928117 110.421895,50.1065074 110.38,50.03 C110.34641,49.9575519 110.290281,49.8979156 110.22,49.86 C110.138423,49.8146995 110.050908,49.7810397 109.96,49.76 C109.860306,49.7489368 109.759694,49.7489368 109.66,49.76 L109.06,49.76 L109.06,50.79 Z" id="Shape"></path>
            <path d="M116.05,48.64 L118.05,53.71 L116.45,53.71 L116.11,52.77 L114.11,52.77 L113.78,53.71 L112.29,53.71 L114.29,48.64 L116.05,48.64 Z M115.12,49.64 L114.46,51.64 L115.73,51.64 L115.12,49.64 Z" id="Shape"></path>
            <path d="M120.86,48.64 L121.25,48.64 L121.52,48.64 L121.8,48.7 C121.924975,48.7371055 122.045653,48.7873879 122.16,48.85 C122.274906,48.9105614 122.382308,48.9843998 122.48,49.07 C122.587845,49.1590781 122.673443,49.2720673 122.73,49.4 C122.791089,49.5464452 122.828229,49.7017613 122.84,49.86 L122.84,49.86 L122.84,49.86 L122.84,49.86 L122.84,49.86 L122.84,49.86 C122.839742,49.994048 122.812537,50.1266759 122.76,50.25 C122.706476,50.374443 122.628227,50.486714 122.53,50.58 C122.427981,50.6769228 122.309448,50.754816 122.18,50.81 C122.036096,50.8664755 121.884279,50.9002125 121.73,50.91 L121.73,50.91 C121.877021,50.9528438 122.020733,51.006318 122.16,51.07 C122.296591,51.1425741 122.427025,51.2261855 122.55,51.32 C122.668614,51.4139775 122.764352,51.5336499 122.83,51.67 C122.893106,51.8289792 122.923709,51.9989941 122.92,52.17 C122.928463,52.3874404 122.883844,52.6036706 122.79,52.8 C122.702709,52.9801373 122.563365,53.1299318 122.39,53.23 C122.187793,53.3426394 121.968049,53.420395 121.74,53.46 C121.439827,53.5150034 121.135165,53.5417869 120.83,53.54 L118.57,53.54 L118.57,48.64 L120.86,48.64 Z M120.74,50.64 C120.836001,50.6560376 120.933999,50.6560376 121.03,50.64 C121.096147,50.6243084 121.157758,50.5935027 121.21,50.55 C121.258661,50.5059905 121.296334,50.451193 121.32,50.39 C121.331208,50.3204486 121.331208,50.2495514 121.32,50.18 C121.334877,50.1175403 121.334877,50.0524597 121.32,49.99 C121.291678,49.9288325 121.250791,49.8743159 121.2,49.83 C121.147302,49.7752249 121.082105,49.7340479 121.01,49.71 C120.923703,49.6986853 120.836297,49.6986853 120.75,49.71 L120.04,49.71 L120.04,50.71 L120.74,50.64 Z M120.8,52.73 C120.892676,52.7456651 120.987324,52.7456651 121.08,52.73 C121.146998,52.7167217 121.209179,52.6856314 121.26,52.64 C121.305606,52.5984468 121.345911,52.5514248 121.38,52.5 C121.409249,52.456533 121.432776,52.4094791 121.45,52.36 L121.45,52.36 L121.45,52.36 L121.45,52.36 L121.45,52.36 L121.45,52.36 L121.45,52.36 L121.45,52.36 L121.45,52.36 C121.45,52.36 121.45,52.36 121.45,52.36 C121.455342,52.3437614 121.455342,52.3262386 121.45,52.31 C121.436785,52.261936 121.412852,52.2174903 121.38,52.18 L121.27,52.06 C121.218948,52.0204195 121.161433,51.9899704 121.1,51.97 C121.030449,51.9587923 120.959551,51.9587923 120.89,51.97 L120.06,51.97 L120.06,52.97 L120.8,52.73 Z" id="Shape"></path>
            <path d="M126.97,48.64 L128.97,53.71 L127.37,53.71 L127.04,52.77 L125.04,52.77 L124.71,53.71 L123.25,53.71 L125.25,48.64 L126.97,48.64 Z M126.04,49.64 L125.37,51.64 L126.64,51.64 L126.04,49.64 Z" id="Shape"></path>
            <polygon id="Path" points="130.95 48.64 130.95 52.64 133.25 52.64 133.25 53.69 129.55 53.69 129.55 48.64"></polygon>
            <polygon id="Path" points="135.25 48.64 135.25 50.64 136.96 50.64 136.96 48.64 138.4 48.64 138.4 53.71 136.95 53.71 136.95 51.71 135.25 51.71 135.25 53.71 133.82 53.71 133.82 48.64"></polygon>
            <path d="M139.25,50.25 C139.342376,49.9413961 139.473416,49.645716 139.64,49.37 C139.828352,49.0824159 140.105889,48.8646018 140.43,48.75 C140.86661,48.5971547 141.327622,48.5259691 141.79,48.54 L141.95,48.54 C142.246038,48.5525408 142.53887,48.6063951 142.82,48.7 C143.10642,48.7941024 143.376351,48.9324423 143.62,49.11 C143.885366,49.3055216 144.084325,49.5777817 144.19,49.89 C144.329136,50.3088246 144.393451,50.7488741 144.38,51.19 L144.38,51.4 C144.384939,51.4699129 144.384939,51.5400871 144.38,51.61 L144.38,51.72 C144.375084,51.7598489 144.375084,51.8001511 144.38,51.84 L144.38,51.96 C144.38,51.96 144.38,52.03 144.38,52.07 C144.319351,52.2914001 144.228497,52.503392 144.11,52.7 C143.990293,52.9123784 143.842271,53.1074982 143.67,53.28 C143.475747,53.4723662 143.234352,53.6103063 142.97,53.68 C142.64543,53.7758889 142.308424,53.8230697 141.97,53.82 C141.519014,53.8340799 141.069005,53.7697929 140.64,53.63 C140.321194,53.5318707 140.041324,53.3359616 139.84,53.07 C139.656897,52.8267013 139.511903,52.5569439 139.41,52.27 C139.305657,51.9904989 139.241681,51.6975537 139.22,51.4 L139.22,51.4 C139.22,51.4 139.22,51.4 139.22,51.4 L139.22,51.4 L139.22,51.31 L139.22,51.31 C139.18781,50.9567309 139.197881,50.600883 139.25,50.25 Z M140.66,51.78 C140.707989,51.9693142 140.782029,52.1510491 140.88,52.32 C140.968153,52.4826474 141.099697,52.6176528 141.26,52.71 C141.423246,52.7963685 141.605317,52.8410274 141.79,52.8400173 C141.955148,52.8397726 142.118501,52.8057407 142.27,52.74 C142.408442,52.6636256 142.525383,52.5535638 142.61,52.42 C142.718409,52.2673777 142.793377,52.0935886 142.83,51.91 C142.880993,51.6734982 142.904483,51.4318953 142.9,51.19 C142.903185,50.9811946 142.879661,50.7728388 142.83,50.57 C142.792249,50.3805732 142.724747,50.1983173 142.63,50.03 C142.547771,49.8748367 142.422853,49.7464482 142.27,49.66 C142.106754,49.5736315 141.924683,49.5289726 141.74,49.53 C141.555168,49.5276927 141.372786,49.572428 141.21,49.66 C141.062058,49.7552222 140.944162,49.8904564 140.87,50.05 C140.787037,50.2235379 140.720093,50.4042881 140.67,50.59 C140.628779,50.7881553 140.598732,50.9884714 140.58,51.19 L140.58,51.19 C140.585018,51.3896734 140.615258,51.5879115 140.67,51.78 L140.66,51.78 Z" id="Shape"></path>
        </g>
    </g>
</svg>