<?xml version="1.0" encoding="UTF-8"?>
<svg width="275px" height="68px" viewBox="0 0 275 68" version="1.1" xmlns="http://www.w3.org/2000/svg" xmlns:xlink="http://www.w3.org/1999/xlink">
    <!-- Generator: Sketch 61.2 (89653) - https://sketch.com -->
    <title>startupi</title>
    <desc>Created with Sketch.</desc>
    <g id="Page-1" stroke="none" stroke-width="1" fill="none" fill-rule="evenodd">
        <g id="startupi">
            <circle id="Oval" fill="#46B754" fill-rule="nonzero" cx="240.63" cy="33.62" r="33.62"></circle>
            <path d="M247.69,52.9 L241.83,52.9 L241.83,55.52 C241.84401,55.6057542 241.815893,55.6930101 241.754451,55.7544513 C241.69301,55.8158925 241.605754,55.8440096 241.52,55.83 L236.63,55.83 C236.43,55.83 236.33,55.73 236.33,55.52 L236.33,24.31 C236.33,24.1 236.43,24 236.63,24 L241.52,24 C241.605754,23.9859904 241.69301,24.0141075 241.754451,24.0755487 C241.815893,24.1369899 241.84401,24.2242458 241.83,24.31 L241.83,36.61 L245.33,36.61 C245.511169,36.6072752 245.685717,36.6780425 245.813837,36.8061627 C245.941957,36.9342829 246.012725,37.1088312 246.01,37.29 L246.01,43.92 L241.83,43.92 L241.83,47.49 L247,47.49 C247.381076,47.49 247.69,47.7989235 247.69,48.18 L247.69,52.9 Z" id="Path" fill="#FFFFFF" fill-rule="nonzero"></path>
            <path d="M241.52,55.88 L236.63,55.88 C236.532643,55.890009 236.436059,55.8549152 236.367836,55.7847429 C236.299613,55.7145706 236.267253,55.6170364 236.28,55.52 L236.28,24.31 C236.267253,24.2129636 236.299613,24.1154294 236.367836,24.0452571 C236.436059,23.9750848 236.532643,23.939991 236.63,23.95 L241.52,23.95 C241.61898,23.9366137 241.718534,23.9702121 241.789161,24.0408389 C241.859788,24.1114657 241.893386,24.2110197 241.88,24.31 L241.88,36.56 L245.33,36.56 C245.733168,36.56 246.06,36.8868321 246.06,37.29 L246.06,43.92 L241.93,43.92 L241.93,47.39 L247.05,47.39 C247.458691,47.39 247.79,47.7213093 247.79,48.13 L247.79,52.85 L241.98,52.85 L241.98,55.42 C242.072872,55.5512324 242.057657,55.7302934 241.943975,55.8439752 C241.830293,55.957657 241.651232,55.9728716 241.52,55.88 L241.52,55.88 Z M236.63,24.05 C236.45,24.05 236.37,24.13 236.37,24.31 L236.37,55.52 C236.37,55.7 236.45,55.78 236.63,55.78 L241.52,55.78 C241.7,55.78 241.78,55.7 241.78,55.52 L241.78,52.9 L247.59,52.9 L247.59,48.23 C247.59,47.8765378 247.303462,47.59 246.95,47.59 L241.78,47.59 L241.78,44.02 L245.92,44.02 L245.92,37.44 C245.914538,37.0904491 245.629594,36.8099573 245.28,36.81 L241.78,36.81 C241.752386,36.81 241.73,36.7876142 241.73,36.76 L241.73,24.46 C241.73,24.28 241.65,24.2 241.47,24.2 L236.63,24.05 Z" id="Shape" fill="#FFFFFF" fill-rule="nonzero"></path>
            <path d="M239.08,11.35 C236.01482,11.35 233.53,13.8348196 233.53,16.9 C233.53,19.9651804 236.01482,22.45 239.08,22.45 C242.14518,22.45 244.63,19.9651804 244.63,16.9 C244.63,13.8348196 242.14518,11.35 239.08,11.35 L239.08,11.35 Z M239.08,20.89 C237.994228,20.89 237.015761,20.2348236 236.602147,19.2309186 C236.188533,18.2270137 236.421512,17.0727457 237.192139,16.3078696 C237.962766,15.5429935 239.118747,15.3186671 240.119526,15.7397891 C241.120304,16.1609112 241.768103,17.1442579 241.76,18.23 C241.743614,19.7000294 240.550111,20.8846262 239.08,20.89 L239.08,20.89 Z" id="Shape" fill="#FFFFFF" fill-rule="nonzero"></path>
            <path d="M196.750019,9.34 C196.750019,10.825646 195.545646,12.03 194.06,12.03 C192.574354,12.03 191.37,10.825646 191.37,9.34 C191.37,7.85435402 192.574354,6.64998125 194.06,6.64998125 C194.774248,6.64732989 195.460012,6.92988227 195.965065,7.4349351 C196.470118,7.93998793 196.75267,8.62575243 196.750019,9.34 Z" id="Path" fill="#171C21"></path>
            <path d="M3.85,40.58 C6.00972678,41.7103123 8.41238374,42.297247 10.85,42.29 C11.71,42.29 12.39,42.29 12.85,42.21 C13.4232509,42.1588901 13.9896314,42.0482951 14.54,41.88 C15.0863068,41.708593 15.5928802,41.4298076 16.03,41.06 C16.4196025,40.7157893 16.7271346,40.2886614 16.93,39.81 C17.3295166,38.891566 17.3295166,37.848434 16.93,36.93 C16.5183694,35.9378757 15.736406,35.1451513 14.75,34.72 L5.82,30.56 C3.73528498,29.6648172 2.1236855,27.9334367 1.38,25.79 C0.665893023,23.8076146 0.788626841,21.6200648 1.72,19.73 L1.89,19.4 C2.98234933,17.328739 4.87640878,15.7961413 7.13,15.16 C8.0556842,14.8581866 9.01120241,14.6570248 9.98,14.56 C10.8561648,14.4567488 11.7377787,14.4066571 12.62,14.4098431 C15.4467515,14.4079216 18.2487154,14.9371061 20.88,15.97 C21.0271544,15.9696242 21.1494894,16.0832209 21.16,16.23 L21.16,21.6 C21.1622301,21.7078148 21.1044521,21.8079634 21.01,21.86 C20.9192013,21.9206674 20.8007987,21.9206674 20.71,21.86 C20.32,21.66 19.93,21.47 19.52,21.3 C17.3714148,20.3657498 15.0529091,19.8857068 12.71,19.89 C12.0422436,19.8863233 11.3747273,19.9163615 10.71,19.98 C10.1039421,20.0524823 9.50512744,20.1762596 8.92,20.35 C8.28386393,20.5278554 7.70713029,20.8732049 7.25,21.35 C6.57228093,22.0291969 6.35340628,23.0414922 6.69,23.94 C7.00395792,24.692191 7.61046318,25.2842557 8.37,25.58 L17.15,29.67 C19.4329188,30.6567714 21.2311202,32.5089188 22.15,34.82 C23.1004649,37.0908813 23.0678827,39.6540129 22.06,41.9 C21.54188,43.1385627 20.7444536,44.2405855 19.73,45.12 C18.7284582,46.0307247 17.5411035,46.7131125 16.25,47.12 C15.3414384,47.3989893 14.4064685,47.5833024 13.46,47.67 C12.6025536,47.7531992 11.7414673,47.7932497 10.88,47.7901829 C8.23828226,47.7917997 5.62082733,47.2859621 3.17,46.3 C2.32322309,46.0104485 1.77186283,45.1936185 1.82,44.3 L1.82,39.89 C1.81761601,39.7741137 1.88446701,39.6679386 1.99,39.62 C2.0846631,39.560136 2.2053369,39.560136 2.3,39.62 C2.79298095,39.9767496 3.31098419,40.2975775 3.85,40.58 L3.85,40.58 Z" id="Path" fill="#171C21" fill-rule="nonzero"></path>
            <path d="M34.62,20.66 L26.62,20.66 C26.5342458,20.6740096 26.4469899,20.6458925 26.3855487,20.5844513 C26.3241075,20.5230101 26.2959904,20.4357542 26.31,20.35 L26.31,15.46 C26.2959904,15.3742458 26.3241075,15.2869899 26.3855487,15.2255487 C26.4469899,15.1641075 26.5342458,15.1359904 26.62,15.15 L48.16,15.15 C48.2448215,15.1402999 48.3294343,15.1698282 48.389803,15.230197 C48.4501718,15.2905657 48.4797001,15.3751785 48.47,15.46 L48.47,18.83 C48.478323,19.3165958 48.2824818,19.7844388 47.93,20.12 C47.5899582,20.4719861 47.1193535,20.667468 46.63,20.66 L40.16,20.66 L40.16,46.75 C40.1740096,46.8357542 40.1458925,46.9230101 40.0844513,46.9844513 C40.0230101,47.0458925 39.9357542,47.0740096 39.85,47.06 L34.95,47.06 C34.8642458,47.0740096 34.7769899,47.0458925 34.7155487,46.9844513 C34.6541075,46.9230101 34.6259904,46.8357542 34.64,46.75 L34.62,20.66 Z" id="Path" fill="#171C21" fill-rule="nonzero"></path>
            <path d="M60.1,15.68 C60.3708995,15.0688953 60.9765425,14.6748905 61.645,14.6748905 C62.3134575,14.6748905 62.9191005,15.0688953 63.19,15.68 L76.77,46.68 C76.8239589,46.7691368 76.8239589,46.8808632 76.77,46.97 C76.7147344,47.0536276 76.6202003,47.1027853 76.52,47.1 L72.37,47.1 C71.4947761,47.1580708 70.683849,46.6390775 70.37,45.82 L68.28,41.04 L54.98,41.04 L52.41,46.92 C52.3691509,47.037239 52.2536169,47.1115109 52.13,47.1 L46.79,47.1 C46.6897997,47.1027853 46.5952656,47.0536276 46.54,46.97 C46.4860411,46.8808632 46.4860411,46.7691368 46.54,46.68 L60.1,15.68 Z M66.1,35.95 L61.68,25.85 L57.25,35.95 L66.1,35.95 Z" id="Shape" fill="#171C21" fill-rule="nonzero"></path>
            <path d="M91.9,15.15 C93.9871683,15.0951574 96.0404703,15.6853071 97.78,16.84 C99.2725879,17.8629179 100.430789,19.3028439 101.11,20.98 C101.631182,22.221195 101.899747,23.5538216 101.9,24.9 C101.901927,26.2431621 101.633249,27.5729478 101.11,28.81 C100.139762,31.2827174 98.1267694,33.2005499 95.61,34.05 L104.83,46.58 C104.895231,46.6730388 104.895231,46.7969612 104.83,46.89 C104.783007,47.001045 104.670202,47.0695341 104.55,47.06 L99.71,47.06 C98.8313762,47.0842235 97.9999959,46.6628905 97.5,45.94 L89.68,35.23 C89.40257,34.8323568 88.9447487,34.5996935 88.46,34.61 L85.69,34.61 L85.69,46.71 C85.6997001,46.7948215 85.6701718,46.8794343 85.609803,46.939803 C85.5494343,47.0001718 85.4648215,47.0297001 85.38,47.02 L80.48,47.02 C80.3942458,47.0340096 80.3069899,47.0058925 80.2455487,46.9444513 C80.1841075,46.8830101 80.1559904,46.7957542 80.17,46.71 L80.17,15.46 C80.1559904,15.3742458 80.1841075,15.2869899 80.2455487,15.2255487 C80.3069899,15.1641075 80.3942458,15.1359904 80.48,15.15 L91.9,15.15 Z M85.69,20.6599593 L85.69,29.13 L91.9,29.13 C93.98,29.13 95.3533333,28.32 96.02,26.7 C96.2618543,26.1309393 96.3843806,25.5183077 96.38,24.9 C96.3864004,24.2815012 96.2637923,23.6684603 96.02,23.1 C95.3533333,21.4666667 93.98,20.6533333 91.9,20.6599593 L85.69,20.6599593 Z" id="Shape" fill="#171C21" fill-rule="nonzero"></path>
            <path d="M115,20.66 L107,20.66 C106.914246,20.6740096 106.82699,20.6458925 106.765549,20.5844513 C106.704107,20.5230101 106.67599,20.4357542 106.69,20.35 L106.69,15.46 C106.67599,15.3742458 106.704107,15.2869899 106.765549,15.2255487 C106.82699,15.1641075 106.914246,15.1359904 107,15.15 L128.56,15.15 C128.644822,15.1402999 128.729434,15.1698282 128.789803,15.230197 C128.850172,15.2905657 128.8797,15.3751785 128.87,15.46 L128.87,18.83 C128.878323,19.3165958 128.682482,19.7844388 128.33,20.12 C127.989958,20.4719861 127.519354,20.667468 127.03,20.66 L120.54,20.66 L120.54,46.75 C120.5497,46.8348215 120.520172,46.9194343 120.459803,46.979803 C120.399434,47.0401718 120.314822,47.0697001 120.23,47.06 L115.33,47.06 C115.244246,47.0740096 115.15699,47.0458925 115.095549,46.9844513 C115.034107,46.9230101 115.00599,46.8357542 115.02,46.75 L115,20.66 Z" id="Path" fill="#171C21" fill-rule="nonzero"></path>
            <path d="M139.3,38.65 C139.264625,39.6137303 139.710641,40.5319978 140.49,41.1 C143.528878,42.7002187 147.161122,42.7002187 150.2,41.1 C150.985958,40.5365919 151.436694,39.6163399 151.4,38.65 L151.4,15.46 C151.3903,15.3751785 151.419828,15.2905657 151.480197,15.230197 C151.540566,15.1698282 151.625178,15.1402999 151.71,15.15 L156.61,15.15 C156.695754,15.1359904 156.78301,15.1641075 156.844451,15.2255487 C156.905893,15.2869899 156.93401,15.3742458 156.92,15.46 L156.92,38.65 C157.00601,41.3938974 155.691226,43.9933276 153.43,45.55 C148.464999,48.5642149 142.235001,48.5642149 137.27,45.55 C135.008774,43.9933276 133.69399,41.3938974 133.78,38.65 L133.78,15.46 C133.76599,15.3742458 133.794107,15.2869899 133.855549,15.2255487 C133.91699,15.1641075 134.004246,15.1359904 134.09,15.15 L137.45,15.15 C137.940229,15.1430088 138.412545,15.3340983 138.76,15.68 C139.112524,16.0238036 139.307848,16.4976462 139.3,16.99 L139.3,38.65 Z" id="Path" fill="#171C21" fill-rule="nonzero"></path>
            <path d="M176.16,15.15 C178.243865,15.0965735 180.29356,15.6866903 182.03,16.84 C183.522588,17.8629179 184.680789,19.3028439 185.36,20.98 C185.881182,22.221195 186.149747,23.5538216 186.15001,24.9 C186.151927,26.2431621 185.883249,27.5729478 185.36,28.81 C184.680922,30.4899194 183.5229,31.9330998 182.03,32.96 C180.29356,34.1133097 178.243865,34.7034265 176.16,34.65 L169.94,34.65 L169.94,46.75 C169.9497,46.8348215 169.920172,46.9194343 169.859803,46.979803 C169.799434,47.0401718 169.714822,47.0697001 169.63,47.06 L164.73,47.06 C164.644246,47.0740096 164.55699,47.0458925 164.495549,46.9844513 C164.434107,46.9230101 164.40599,46.8357542 164.42,46.75 L164.42,15.46 C164.40599,15.3742458 164.434107,15.2869899 164.495549,15.2255487 C164.55699,15.1641075 164.644246,15.1359904 164.73,15.15 L176.16,15.15 Z M169.94,20.6599593 L169.94,29.13 L176.16,29.13 C178.226667,29.13 179.596667,28.32 180.27,26.7 C180.511854,26.1309393 180.634381,25.5183077 180.63,24.9 C180.6364,24.2815012 180.513792,23.6684603 180.27,23.1 C179.603333,21.4666667 178.233333,20.6533333 176.16,20.6599593 L169.94,20.6599593 Z" id="Shape" fill="#171C21" fill-rule="nonzero"></path>
            <path d="M196.82,46.75 C196.83401,46.8357542 196.805893,46.9230101 196.744451,46.9844513 C196.68301,47.0458925 196.595754,47.0740096 196.51,47.06 L191.61,47.06 C191.525178,47.0697001 191.440566,47.0401718 191.380197,46.979803 C191.319828,46.9194343 191.2903,46.8348215 191.3,46.75 L191.3,15.46 C191.2903,15.3751785 191.319828,15.2905657 191.380197,15.230197 C191.440566,15.1698282 191.525178,15.1402999 191.61,15.15 L196.51,15.15 C196.595754,15.1359904 196.68301,15.1641075 196.744451,15.2255487 C196.805893,15.2869899 196.83401,15.3742458 196.82,15.46 L196.82,46.75 Z" id="Path" fill="#171C21" fill-rule="nonzero"></path>
            <path d="M2.64,50.74 C2.73974718,50.8408989 2.79393474,50.978174 2.79,51.12 C2.79235875,51.2585929 2.73820357,51.3921756 2.64,51.49 C2.53887247,51.59059 2.40262174,51.6479587 2.26,51.65 C2.12017025,51.6485858 1.98680301,51.5909135 1.89,51.49 C1.78605524,51.3953321 1.72778233,51.260576 1.73,51.12 C1.72485266,50.9759668 1.78337684,50.8369719 1.89,50.74 C1.98680301,50.6390865 2.12017025,50.5814142 2.26,50.58 C2.40262174,50.5820413 2.53887247,50.63941 2.64,50.74 L2.64,50.74 Z M1.9,52.85 C1.9,52.85 1.9,52.85 1.9,52.85 L2.56,52.85 L2.56,58.32 C2.56,58.32 2.56,58.32 2.56,58.32 L1.9,58.32 L1.9,52.85 Z" id="Shape" fill="#171C21" fill-rule="nonzero"></path>
            <path d="M4.24,54.48 C4.22483452,53.9414452 4.48005686,53.4310005 4.92,53.12 C5.41904355,52.7876554 6.01102628,52.6230212 6.61,52.65 C7.2092935,52.6201764 7.80215128,52.785054 8.3,53.12 C8.74658211,53.4262594 9.00659412,53.9387468 8.99,54.48 L8.99,58.32 L8.58,58.32 C8.50443829,58.3264288 8.43028348,58.2967668 8.38,58.24 C8.32252784,58.1852646 8.29,58.1093663 8.29,58.03 L8.29,54.45 C8.3018298,54.145559 8.15883294,53.8558022 7.91,53.68 C7.12403681,53.2400811 6.16596319,53.2400811 5.38,53.68 C5.13116706,53.8558022 4.9881702,54.145559 5,54.45 L5,58.32 L4.31,58.32 L4.24,54.48 Z" id="Path" fill="#171C21" fill-rule="nonzero"></path>
            <path d="M10.6,52.29 C10.5802403,51.8278419 10.7542178,51.3783999 11.08,51.05 C11.4279478,50.7305944 11.8880348,50.5616562 12.36,50.58 C12.5770989,50.5815719 12.7927695,50.6152704 13,50.68 L13,50.68 L13,51.4 C13,51.4 13,51.4 13,51.4 L13,51.4 C12.8135196,51.2978371 12.602366,51.2493757 12.39,51.26 C12.1081005,51.2337585 11.8282888,51.3282404 11.62,51.52 C11.437774,51.7098413 11.3434665,51.9673735 11.36,52.23 L11.36,52.75 L13.02,52.75 L13.02,53.15 C13.02,53.2293663 12.9874722,53.3052646 12.93,53.36 C12.8766052,53.4183979 12.7987159,53.44807 12.72,53.44 L11.32,53.44 L11.32,58.22 L10.64,58.22 C10.64,58.22 10.64,58.22 10.64,58.22 L10.6,52.29 Z" id="Path" fill="#171C21" fill-rule="nonzero"></path>
            <path d="M18.47,53.51 C19.0303634,54.0515361 19.3416571,54.8008128 19.33,55.58 C19.339671,56.3617339 19.0289063,57.1133509 18.47,57.66 C17.9274386,58.2177008 17.1779226,58.525473 16.4,58.51 C15.6203721,58.5153447 14.8709828,58.2086881 14.3187513,57.6583349 C13.7665198,57.1079817 13.4573117,56.3596416 13.46,55.58 C13.4483429,54.8008128 13.7596366,54.0515361 14.32,53.51 C14.8666491,52.9510937 15.6182661,52.640329 16.4,52.65 C17.1791872,52.6383429 17.9284639,52.9496366 18.47,53.51 Z M16.4,53.38 C15.3390718,53.3706133 14.4197904,54.1132297 14.2059278,55.1524215 C13.9920651,56.1916132 14.5434055,57.2368794 15.5218258,57.6471846 C16.5002461,58.0574899 17.6322338,57.7181356 18.2235695,56.837239 C18.8149052,55.9563424 18.7002839,54.7801538 17.95,54.03 C17.544276,53.6100255 16.9839229,53.3750387 16.4,53.38 L16.4,53.38 Z" id="Shape" fill="#171C21" fill-rule="nonzero"></path>
            <path d="M20.45,54.36 C20.4264686,53.8952784 20.6051507,53.4431034 20.94,53.12 C21.2831087,52.7992535 21.7407479,52.629891 22.21,52.65 C22.4275263,52.645849 22.6441083,52.67969 22.85,52.75 L22.85,53.46 L22.85,53.46 C22.6645274,53.3543587 22.4533137,53.3024209 22.24,53.31 C21.959413,53.2941618 21.6835514,53.3873099 21.47,53.57 C21.291267,53.7660154 21.1977395,54.0250147 21.21,54.29 L21.21,58.29 L20.52,58.29 L20.52,54.29 L20.45,54.36 Z" id="Path" fill="#171C21" fill-rule="nonzero"></path>
            <path d="M23.9,54.48 C23.8769257,53.9585701 24.1034284,53.4572936 24.51,53.13 C25.444008,52.4892624 26.675992,52.4892624 27.61,53.13 C27.7038096,53.205571 27.7908097,53.289225 27.87,53.38 C27.9421323,53.2894552 28.0224735,53.2057664 28.11,53.13 C29.0479946,52.4903435 30.2820054,52.4903435 31.22,53.13 C31.6265716,53.4572936 31.8530743,53.9585701 31.83,54.48 L31.83,58.32 L31.42,58.32 C31.3444383,58.3264288 31.2702835,58.2967668 31.22,58.24 C31.1625278,58.1852646 31.13,58.1093663 31.13,58.03 L31.13,54.45 C31.1492261,54.1503589 31.0226026,53.8598696 30.79,53.67 C30.4744753,53.440756 30.089373,53.3276984 29.7,53.35 C29.3075396,53.3278369 28.9193282,53.4407711 28.6,53.67 C28.3673974,53.8598696 28.2407739,54.1503589 28.26,54.45 L28.26,58.29 C28.26,58.29 28.26,58.29 28.26,58.29 L27.6,58.29 L27.6,54.45 C27.6168354,54.1486059 27.4863408,53.8577894 27.25,53.67 C26.9352242,53.4392367 26.5495641,53.3260154 26.16,53.35 C25.770627,53.3276984 25.3855247,53.440756 25.07,53.67 C24.8373974,53.8598696 24.7107739,54.1503589 24.73,54.45 L24.73,58.32 L24.04,58.32 L23.9,54.48 Z" id="Path" fill="#171C21" fill-rule="nonzero"></path>
            <path d="M38.72,58.32 L38.62,58.32 C38.460855,58.357349 38.2933341,58.3245732 38.16,58.23 C38.0515115,58.1170186 37.9906414,57.9666338 37.99,57.81 L37.99,57.63 C37.4713408,58.2478805 36.6961082,58.5911978 35.89,58.56 C35.1120774,58.575473 34.3625614,58.2677008 33.82,57.71 C33.2610937,57.1633509 32.950329,56.4117339 32.96,55.63 C32.965487,54.0140839 34.2740839,52.705487 35.89,52.7 C36.6983921,52.6681559 37.4752287,53.0158828 37.99,53.64 L37.99,53.46 C37.986198,53.3025242 38.0477334,53.1504957 38.16,53.04 C38.2718537,52.9225061 38.4278014,52.8572257 38.59,52.86 L38.69,52.86 C38.69,52.86 38.69,52.86 38.69,52.86 L38.72,58.32 Z M35.89,53.38 C34.6749736,53.38 33.69,54.3649736 33.69,55.58 C33.69,56.7950264 34.6749736,57.78 35.89,57.78 C37.1050264,57.78 38.09,56.7950264 38.09,55.58 C38.09,54.3649736 37.1050264,53.38 35.89,53.38 Z" id="Shape" fill="#171C21" fill-rule="nonzero"></path>
            <path d="M40.33,51.31 L40.43,51.31 C40.7574591,51.3154584 41.0200455,51.5824954 41.02,51.91 L41.02,52.85 L42.71,52.85 L42.71,53.23 C42.71,53.3093663 42.6774722,53.3852646 42.62,53.44 C42.5666052,53.4983979 42.4887159,53.52807 42.41,53.52 L41.01,53.52 L41.01,56.79 C40.9934665,57.0526265 41.087774,57.3101587 41.27,57.5 C41.4782888,57.6917596 41.7581005,57.7862415 42.04,57.76 C42.252366,57.7706243 42.4635196,57.7221629 42.65,57.62 L42.65,57.62 L42.65,57.62 L42.65,58.34 C42.65,58.34 42.65,58.34 42.65,58.34 C42.4422605,58.4013429 42.2266007,58.4316701 42.01,58.43 C41.541995,58.4539409 41.0841177,58.2880956 40.74,57.97 C40.4051507,57.6468966 40.2264686,57.1947216 40.25,56.73 L40.33,51.31 Z" id="Path" fill="#171C21" fill-rule="nonzero"></path>
            <path d="M44.78,50.74 C44.8797472,50.8408989 44.9339347,50.978174 44.93,51.12 C44.9323588,51.2585929 44.8782036,51.3921756 44.78,51.49 C44.6788725,51.59059 44.5426217,51.6479587 44.4,51.65 C44.1116664,51.6396926 43.8803074,51.4083336 43.8699997,51.12 C43.8698579,50.9769298 43.9275634,50.8398792 44.03,50.74 C44.126803,50.6390865 44.2601702,50.5814142 44.4,50.58 C44.5426217,50.5820413 44.6788725,50.63941 44.78,50.74 Z M44.04,52.85 C44.04,52.85 44.04,52.85 44.04,52.85 L44.69,52.85 C44.69,52.85 44.69,52.85 44.69,52.85 L44.69,58.32 C44.69,58.32 44.69,58.32 44.69,58.32 L44.04,58.32 C44.04,58.32 44.04,58.32 44.04,58.32 L44.04,52.85 Z" id="Shape" fill="#171C21" fill-rule="nonzero"></path>
            <path d="M51,53.51 C51.5603634,54.0515361 51.8716571,54.8008128 51.86,55.58 C51.869671,56.3617339 51.5589063,57.1133509 51,57.66 C50.4574386,58.2177008 49.7079226,58.525473 48.93,58.51 C48.1504587,58.5181068 47.4004823,58.2120152 46.8492335,57.6607665 C46.2979848,57.1095177 45.9918932,56.3595413 46,55.58 C45.984527,54.8020774 46.2922992,54.0525614 46.85,53.51 C47.3966491,52.9510937 48.1482661,52.640329 48.93,52.65 C49.7091872,52.6383429 50.4584639,52.9496366 51,53.51 Z M48.93,53.38 C47.7149736,53.38 46.73,54.3649736 46.73,55.58 C46.73,56.7950264 47.7149736,57.78 48.93,57.78 C49.513123,57.7911622 50.0746233,57.5593169 50.48,57.14 C50.8946563,56.7287834 51.1278992,56.1689854 51.1278992,55.585 C51.1278992,55.0010146 50.8946563,54.4412166 50.48,54.03 C50.0756498,53.6080211 49.5143896,53.372654 48.93,53.38 Z" id="Shape" fill="#171C21" fill-rule="nonzero"></path>
            <path d="M52.98,54.48 C52.9634059,53.9387468 53.2234179,53.4262594 53.67,53.12 C54.7093146,52.4925714 56.0106854,52.4925714 57.05,53.12 C57.4965821,53.4262594 57.7565941,53.9387468 57.74,54.48 L57.74,58.32 C57.74,58.32 57.74,58.32 57.74,58.32 L57.34,58.32 C57.2619003,58.3238257 57.1857588,58.2948194 57.13,58.24 C57.078823,58.1819731 57.0504026,58.1073695 57.05,58.03 L57.05,54.45 C57.0634441,54.1428261 56.9155903,53.8509097 56.66,53.68 C56.2867445,53.4366216 55.8446368,53.3208315 55.4,53.35 C54.9556399,53.3236781 54.5144097,53.4392384 54.14,53.68 C53.8882099,53.8532596 53.7443532,54.1447586 53.76,54.45 L53.76,58.29 L53.76,58.29 L53.08,58.29 C53.08,58.29 53.08,58.29 53.08,58.29 L52.98,54.48 Z" id="Path" fill="#171C21" fill-rule="nonzero"></path>
            <path d="M63.95,56.23 C64.1198755,56.4033276 64.213477,56.6373314 64.21,56.88 C64.2123767,57.1224636 64.1189373,57.356062 63.95,57.53 C63.5874174,57.8897223 63.0025826,57.8897223 62.64,57.53 C62.4710627,57.356062 62.3776233,57.1224636 62.38,56.88 C62.3772946,56.6351815 62.4733539,56.3996007 62.6464773,56.2264773 C62.8196007,56.0533539 63.0551815,55.9572946 63.3,55.96 C63.544562,55.956863 63.779637,56.0545096 63.95,56.23 L63.95,56.23 Z" id="Path" fill="#171C21" fill-rule="nonzero"></path>
            <path d="M73.47,53.51 C73.7143824,53.743227 73.8936284,54.0362252 73.99,54.36 C74.1106523,54.6582605 74.1106523,54.9917395 73.99,55.29 C73.8070546,55.6350763 73.4399486,55.8420616 73.05,55.82 L69.24,55.82 C69.3361214,56.6606475 69.9037825,57.372624 70.7019057,57.6535634 C71.5000289,57.9345028 72.3885007,57.735085 72.99,57.14 C73.1072554,57.0180628 73.211176,56.8839716 73.3,56.74 C73.3,56.74 73.3,56.74 73.3,56.74 L74.07,56.74 C74.07,56.74 74.07,56.74 74.07,56.74 C73.9221257,57.0710946 73.7154504,57.3726374 73.46,57.63 C72.6208031,58.4677277 71.3594184,58.7170596 70.2646069,58.261618 C69.1697954,57.8061764 68.457425,56.7357625 68.46,55.55 C68.4446957,54.7701181 68.7565708,54.0194419 69.32,53.48 C69.8680273,52.9291761 70.6129923,52.6194902 71.39,52.6194902 C72.1670077,52.6194902 72.9119727,52.9291761 73.46,53.48 L73.47,53.51 Z M71.4,53.38 C70.8126157,53.3722797 70.2481201,53.6074862 69.84,54.03 C69.5339795,54.3320351 69.3250639,54.7185289 69.24,55.14 L72.99,55.14 C73.150565,55.1599923 73.3007886,55.0569818 73.34,54.9 C73.368879,54.737596 73.3368334,54.5702463 73.25,54.43 C73.1732064,54.2833313 73.0755203,54.1485919 72.96,54.03 C72.5518799,53.6074862 71.9873843,53.3722797 71.4,53.38 L71.4,53.38 Z" id="Shape" fill="#171C21" fill-rule="nonzero"></path>
            <path d="M80,53.59 L80,50.78 L80.66,50.78 C80.66,50.78 80.66,50.78 80.66,50.78 L80.66,58.32 C80.66,58.32 80.66,58.32 80.66,58.32 L80.56,58.32 C80.4026994,58.3227363 80.2510355,58.2614548 80.1397903,58.1502097 C80.0285452,58.0389645 79.9672637,57.8873006 79.97,57.73 L79.97,57.55 C79.4494918,58.1654165 78.6755263,58.5081726 77.87,58.48 C77.0903721,58.4853447 76.3409828,58.1786881 75.7887513,57.6283349 C75.2365198,57.0779817 74.9273117,56.3296416 74.93,55.55 C74.9183429,54.7708128 75.2296366,54.0215361 75.79,53.48 C76.3366491,52.9210937 77.0882661,52.610329 77.87,52.62 C78.6936177,52.5874239 79.4838953,52.9473156 80,53.59 Z M77.9,53.38 C76.8390718,53.3706133 75.9197904,54.1132297 75.7059278,55.1524215 C75.4920651,56.1916132 76.0434055,57.2368794 77.0218258,57.6471846 C78.0002461,58.0574899 79.1322338,57.7181356 79.7235695,56.837239 C80.3149052,55.9563424 80.2002839,54.7801538 79.45,54.03 C79.044276,53.6100255 78.4839229,53.3750387 77.9,53.38 Z" id="Shape" fill="#171C21" fill-rule="nonzero"></path>
            <path d="M87.09,56.69 C87.1065941,57.2312532 86.8465821,57.7437406 86.4,58.05 C85.3570642,58.6642858 84.0629358,58.6642858 83.02,58.05 C82.5757597,57.7427087 82.3192888,57.229767 82.34,56.69 L82.34,52.85 C82.34,52.85 82.34,52.85 82.34,52.85 L82.74,52.85 C82.8193663,52.85 82.8952646,52.8825278 82.95,52.94 C83.0069445,52.9909312 83.0396467,53.0636027 83.04,53.14 L83.04,56.73 C83.0262893,57.0348385 83.1697074,57.3254489 83.42,57.5 C84.2093514,57.9267308 85.1606486,57.9267308 85.95,57.5 C86.1974096,57.3229853 86.3400016,57.0340489 86.33,56.73 L86.33,52.89 L87.01,52.89 C87.01,52.89 87.01,52.89 87.01,52.89 L87.09,56.69 Z" id="Path" fill="#171C21" fill-rule="nonzero"></path>
            <path d="M92.43,52.95 L92.43,52.95 L92.43,53.71 C92.43,53.71 92.43,53.71 92.43,53.71 C92.43,53.71 92.43,53.71 92.43,53.71 C92.0640187,53.4531933 91.6270818,53.316869 91.18,53.32 C90.2293712,53.3135875 89.3821554,53.9185036 89.0795739,54.8197143 C88.7769924,55.720925 89.0874991,56.7145464 89.8493854,57.2831109 C90.6112716,57.8516754 91.6521735,57.8665548 92.43,57.32 L92.43,57.32 L92.43,57.76 C92.4420563,57.982794 92.2958109,58.1833592 92.08,58.24 C91.7588913,58.3526039 91.4202121,58.4067926 91.08,58.4 C90.3021007,58.4026686 89.5552922,58.0948301 89.005231,57.544769 C88.4551699,56.9947078 88.1473314,56.2478993 88.15,55.47 C88.1346957,54.6901181 88.4465708,53.9394419 89.01,53.4 C89.8906076,52.5134282 91.2389211,52.2880384 92.36,52.84 L92.43,52.95 Z" id="Path" fill="#171C21" fill-rule="nonzero"></path>
            <path d="M99.01,58.32 L98.91,58.32 C98.7518471,58.3276496 98.5983058,58.2655019 98.49,58.15 C98.3750557,58.0405292 98.31,57.8887326 98.31,57.73 L98.31,57.55 C97.7922799,58.1691284 97.016401,58.5127319 96.21,58.48 C95.4320774,58.495473 94.6825614,58.1877008 94.14,57.63 C93.5810937,57.0833509 93.270329,56.3317339 93.28,55.55 C93.285487,53.9340839 94.5940839,52.625487 96.21,52.62 C97.0186943,52.5865868 97.7961977,52.9346121 98.31,53.56 L98.31,53.38 C98.3203878,53.0530286 98.5830286,52.7903878 98.91,52.78 L99.01,52.78 C99.01,52.78 99.01,52.78 99.01,52.78 L99.01,58.32 Z M96.16,53.38 C95.5751382,53.3702151 95.0129415,53.605975 94.61,54.03 C94.1953437,54.4412166 93.9621008,55.0010146 93.9621008,55.585 C93.9621008,56.1689854 94.1953437,56.7287834 94.61,57.14 C95.0139701,57.5613819 95.576417,57.793618 96.16,57.78 C97.3750264,57.78 98.36,56.7950264 98.36,55.58 C98.36,54.3649736 97.3750264,53.38 96.16,53.38 L96.16,53.38 Z" id="Shape" fill="#171C21" fill-rule="nonzero"></path>
            <path d="M100.62,51.31 L100.72,51.31 C101.047459,51.3154584 101.310045,51.5824954 101.31,51.91 L101.31,52.85 L103,52.85 L103,53.23 C103,53.3093663 102.967472,53.3852646 102.91,53.44 C102.859717,53.4967668 102.785562,53.5264288 102.71,53.52 L101.3,53.52 L101.3,56.79 C101.283466,57.0526265 101.377774,57.3101587 101.56,57.5 C101.768289,57.6917596 102.0481,57.7862415 102.33,57.76 C102.542366,57.7706243 102.75352,57.7221629 102.94,57.62 L102.94,57.62 L102.94,57.62 L102.94,58.34 C102.94,58.34 102.94,58.34 102.94,58.34 C102.732261,58.4013429 102.516601,58.4316701 102.3,58.43 C101.831995,58.4539409 101.374118,58.2880956 101.03,57.97 C100.695151,57.6468966 100.516469,57.1947216 100.54,56.73 L100.62,51.31 Z" id="Path" fill="#171C21" fill-rule="nonzero"></path>
            <path d="M105.07,50.74 C105.172437,50.8398792 105.230142,50.9769298 105.23,51.12 C105.219693,51.4083336 104.988334,51.6396926 104.7,51.6500003 C104.55693,51.6501421 104.419879,51.5924366 104.32,51.49 C104.219086,51.393197 104.161414,51.2598298 104.16,51.12 C104.165335,50.824004 104.404004,50.5853346 104.7,50.58 C104.83983,50.5814142 104.973197,50.6390865 105.07,50.74 L105.07,50.74 Z M104.33,52.85 C104.33,52.85 104.33,52.85 104.33,52.85 L104.98,52.85 C104.98,52.85 104.98,52.85 104.98,52.85 L104.98,58.32 C104.98,58.32 104.98,58.32 104.98,58.32 L104.33,58.32 C104.33,58.32 104.33,58.32 104.33,58.32 L104.33,52.85 Z" id="Shape" fill="#171C21" fill-rule="nonzero"></path>
            <path d="M111.29,53.51 C111.850363,54.0515361 112.161657,54.8008128 112.15,55.58 C112.159671,56.3617339 111.848906,57.1133509 111.29,57.66 C110.450803,58.4977277 109.189418,58.7470596 108.094607,58.291618 C106.999795,57.8361764 106.287425,56.7657625 106.29,55.58 C106.274696,54.8001181 106.586571,54.0494419 107.15,53.51 C107.698027,52.9591761 108.442992,52.6494902 109.22,52.6494902 C109.997008,52.6494902 110.741973,52.9591761 111.29,53.51 L111.29,53.51 Z M109.22,53.38 C108.22613,53.3839574 107.358339,54.0537719 107.10275,55.0142241 C106.847162,55.9746764 107.267257,56.9872138 108.127706,57.4846293 C108.988154,57.9820448 110.075242,57.8407926 110.78,57.14 C111.402717,56.5071568 111.586264,55.563096 111.246025,54.7430322 C110.905786,53.9229684 110.107823,53.3861296 109.22,53.38 L109.22,53.38 Z" id="Shape" fill="#171C21" fill-rule="nonzero"></path>
            <path d="M113.28,54.48 C113.259289,53.940233 113.51576,53.4272913 113.96,53.12 C114.999315,52.4925714 116.300685,52.4925714 117.34,53.12 C117.786582,53.4262594 118.046594,53.9387468 118.03,54.48 L118.03,58.32 C118.03,58.32 118.03,58.32 118.03,58.32 L117.63,58.32 C117.5519,58.3238257 117.475759,58.2948194 117.42,58.24 C117.368823,58.1819731 117.340403,58.1073695 117.34,58.03 L117.34,54.45 C117.353444,54.1428261 117.20559,53.8509097 116.95,53.68 C116.576745,53.4366216 116.134637,53.3208315 115.69,53.35 C115.24564,53.3236781 114.80441,53.4392384 114.43,53.68 C114.17821,53.8532596 114.034353,54.1447586 114.05,54.45 L114.05,58.32 L113.36,58.32 L113.28,54.48 Z" id="Path" fill="#171C21" fill-rule="nonzero"></path>
            <path d="M124.24,56.23 C124.413863,56.4006997 124.508177,56.6364846 124.5,56.88 C124.506954,57.1232997 124.412829,57.3586137 124.24,57.53 C124.069637,57.7054904 123.834562,57.803137 123.59,57.8 C123.345208,57.804339 123.109674,57.7065018 122.94,57.53 C122.76451,57.359637 122.666863,57.124562 122.67,56.88 C122.67,56.6360008 122.766928,56.4019952 122.939462,56.2294618 C123.111995,56.0569283 123.346001,55.96 123.59,55.96 C123.834562,55.956863 124.069637,56.0545096 124.24,56.23 L124.24,56.23 Z" id="Path" fill="#171C21" fill-rule="nonzero"></path>
            <path d="M129.16,54.48 C129.139321,53.9568304 129.369685,53.4552315 129.78,53.13 C130.714008,52.4892624 131.945992,52.4892624 132.88,53.13 C132.97055,53.2057898 133.05421,53.2894499 133.13,53.38 C133.203045,53.2869766 133.286977,53.2030446 133.38,53.13 C134.314008,52.4892624 135.545992,52.4892624 136.48,53.13 C136.890315,53.4552315 137.120679,53.9568304 137.1,54.48 L137.1,58.32 C137.1,58.32 137.1,58.32 137.1,58.32 L136.7,58.32 C136.621382,58.3260753 136.544036,58.2974788 136.488279,58.2417214 C136.432521,58.185964 136.403925,58.1086184 136.41,58.03 L136.41,54.45 C136.426835,54.1486059 136.296341,53.8577894 136.06,53.67 C135.745224,53.4392367 135.359564,53.3260154 134.97,53.35 C134.580627,53.3276984 134.195525,53.440756 133.88,53.67 C133.643659,53.8577894 133.513165,54.1486059 133.53,54.45 L133.53,58.29 L132.87,58.29 C132.87,58.29 132.87,58.29 132.87,58.29 L132.87,54.45 C132.889226,54.1503589 132.762603,53.8598696 132.53,53.67 C132.214475,53.440756 131.829373,53.3276984 131.44,53.35 C131.050436,53.3260154 130.664776,53.4392367 130.35,53.67 C130.113659,53.8577894 129.983165,54.1486059 130,54.45 L130,58.29 L129.16,58.29 C129.16,58.29 129.16,58.29 129.16,58.29 L129.16,54.48 Z" id="Path" fill="#171C21" fill-rule="nonzero"></path>
            <path d="M143.97,58.32 C143.97,58.32 143.97,58.32 143.97,58.32 L143.87,58.32 C143.712699,58.3227363 143.561035,58.2614548 143.44979,58.1502097 C143.338545,58.0389645 143.277264,57.8873006 143.28,57.73 L143.28,57.55 C142.759492,58.1654165 141.985526,58.5081726 141.18,58.48 C140.400372,58.4853447 139.650983,58.1786881 139.098751,57.6283349 C138.54652,57.0779817 138.237312,56.3296416 138.24,55.55 C138.228343,54.7708128 138.539637,54.0215361 139.1,53.48 C139.646649,52.9210937 140.398266,52.610329 141.18,52.62 C141.988091,52.5897101 142.76427,52.9371425 143.28,53.56 L143.28,53.38 C143.27235,53.2218471 143.334498,53.0683058 143.45,52.96 C143.559471,52.8450557 143.711267,52.78 143.87,52.78 L143.97,52.78 L143.97,58.32 Z M141.16,53.38 C140.110142,53.3746179 139.202771,54.1118068 138.993059,55.1405207 C138.783347,56.1692345 139.329737,57.2027852 140.297923,57.6087987 C141.266109,58.0148123 142.386271,57.6801384 142.973042,56.8095461 C143.559813,55.9389537 143.449669,54.7750647 142.71,54.03 C142.304276,53.6100255 141.743923,53.3750387 141.16,53.38 Z" id="Shape" fill="#171C21" fill-rule="nonzero"></path>
            <path d="M145.58,51.31 C145.58,51.31 145.58,51.31 145.58,51.31 L145.68,51.31 C146.006971,51.3203878 146.269612,51.5830286 146.28,51.91 L146.28,52.85 L147.96,52.85 L147.96,53.25 C147.959597,53.3273695 147.931177,53.4019731 147.88,53.46 C147.824241,53.5148194 147.7481,53.5438257 147.67,53.54 L146.27,53.54 L146.27,56.81 C146.249553,57.0713226 146.340333,57.3291401 146.52,57.52 C146.728289,57.7117596 147.008103,57.8062415 147.29,57.78 C147.505538,57.7904104 147.719849,57.7420174 147.91,57.64 L147.91,57.64 L147.91,58.36 L147.91,58.36 C147.698836,58.4213235 147.479882,58.4516401 147.26,58.45 C146.792335,58.4716822 146.335303,58.3061431 145.99,57.99 C145.662102,57.6629763 145.487749,57.2125651 145.51,56.75 L145.58,51.31 Z" id="Path" fill="#171C21" fill-rule="nonzero"></path>
            <path d="M153.02,52.95 L153.02,52.95 L153.02,53.71 C153.02,53.71 153.02,53.71 153.02,53.71 C152.65462,53.4519739 152.217281,53.3155242 151.77,53.32 C151.185138,53.3102151 150.622941,53.545975 150.22,53.97 C149.805344,54.3812166 149.572101,54.9410146 149.572101,55.525 C149.572101,56.1089854 149.805344,56.6687834 150.22,57.08 C150.62397,57.5013819 151.186417,57.733618 151.77,57.72 C152.21628,57.7280819 152.653726,57.5950983 153.02,57.34 L153.02,57.34 L153.02,57.78 C153.037137,58.0010251 152.89419,58.2028316 152.68,58.26 C152.358631,58.3715733 152.020138,58.4257322 151.68,58.42 C150.902077,58.435473 150.152561,58.1277008 149.61,57.57 C149.051094,57.0233509 148.740329,56.2717339 148.75,55.49 C148.755487,53.8740839 150.064084,52.565487 151.68,52.56 C152.151689,52.5793819 152.61158,52.713231 153.02,52.95 L153.02,52.95 Z" id="Path" fill="#171C21" fill-rule="nonzero"></path>
            <path d="M154.45,50.78 L155.16,50.78 C155.16,50.78 155.16,50.78 155.16,50.78 L155.16,53.16 C155.710225,52.7732991 156.380534,52.5959686 157.05,52.66 C157.567618,52.6700609 158.071243,52.8298315 158.5,53.12 C158.939943,53.4310005 159.195165,53.9414452 159.18,54.48 L159.18,58.32 L158.78,58.32 C158.701284,58.32807 158.623395,58.2983979 158.57,58.24 C158.512528,58.1852646 158.48,58.1093663 158.48,58.03 L158.48,54.45 C158.49183,54.145559 158.348833,53.8558022 158.1,53.68 C157.314037,53.2400811 156.355963,53.2400811 155.57,53.68 C155.321167,53.8558022 155.17817,54.145559 155.19,54.45 L155.19,58.29 C155.19,58.29 155.19,58.29 155.19,58.29 L154.53,58.29 L154.45,50.78 Z" id="Path" fill="#171C21" fill-rule="nonzero"></path>
            <path d="M160.71,54.48 C160.689321,53.9568304 160.919685,53.4552315 161.33,53.13 C162.264008,52.4892624 163.495992,52.4892624 164.43,53.13 C164.523023,53.2030446 164.606955,53.2869766 164.68,53.38 C164.75579,53.2894499 164.83945,53.2057898 164.93,53.13 C165.864008,52.4892624 167.095992,52.4892624 168.03,53.13 C168.440315,53.4552315 168.670679,53.9568304 168.65,54.48 L168.65,58.32 C168.65,58.32 168.65,58.32 168.65,58.32 L168.25,58.32 C168.1719,58.3238257 168.095759,58.2948194 168.04,58.24 C167.988823,58.1819731 167.960403,58.1073695 167.96,58.03 L167.96,54.45 C167.976835,54.1486059 167.846341,53.8577894 167.61,53.67 C167.295224,53.4392367 166.909564,53.3260154 166.52,53.35 C166.130627,53.3276984 165.745525,53.440756 165.43,53.67 C165.197397,53.8598696 165.070774,54.1503589 165.09,54.45 L165.09,58.29 C165.09,58.29 165.09,58.29 165.09,58.29 L164.43,58.29 L164.43,54.45 C164.446835,54.1486059 164.316341,53.8577894 164.08,53.67 C163.417194,53.2391628 162.562806,53.2391628 161.9,53.67 C161.663659,53.8577894 161.533165,54.1486059 161.55,54.45 L161.55,58.29 L160.87,58.29 C160.87,58.29 160.87,58.29 160.87,58.29 L160.71,54.48 Z" id="Path" fill="#171C21" fill-rule="nonzero"></path>
            <path d="M175.54,58.32 C175.54,58.32 175.54,58.32 175.54,58.32 L175.44,58.32 C175.282524,58.323802 175.130496,58.2622666 175.02,58.15 C174.911511,58.0370186 174.850641,57.8866338 174.85,57.73 L174.85,57.55 C174.329492,58.1654165 173.555526,58.5081726 172.75,58.48 C171.970459,58.4881068 171.220482,58.1820152 170.669234,57.6307665 C170.117985,57.0795177 169.811893,56.3295413 169.82,55.55 C169.804527,54.7720774 170.112299,54.0225614 170.67,53.48 C171.216649,52.9210937 171.968266,52.610329 172.75,52.62 C173.558091,52.5897101 174.33427,52.9371425 174.85,53.56 L174.85,53.38 C174.849955,53.0524954 175.112541,52.7854584 175.44,52.78 L175.54,52.78 C175.54,52.78 175.54,52.78 175.54,52.78 L175.54,58.32 Z M172.71,53.38 C171.649072,53.3706133 170.72979,54.1132297 170.515928,55.1524215 C170.302065,56.1916132 170.853405,57.2368794 171.831826,57.6471846 C172.810246,58.0574899 173.942234,57.7181356 174.533569,56.837239 C175.124905,55.9563424 175.010284,54.7801538 174.26,54.03 C173.854276,53.6100255 173.293923,53.3750387 172.71,53.38 Z" id="Shape" fill="#171C21" fill-rule="nonzero"></path>
            <path d="M177.98,55.82 L177.98,58.32 C177.98,58.32 177.98,58.32 177.98,58.32 L177.32,58.32 L177.32,50.78 L177.98,50.78 C177.98,50.78 177.98,50.78 177.98,50.78 L177.98,55.14 L178.98,55.14 C179.051404,55.142575 179.119218,55.108668 179.16,55.05 L180.8,52.83 L180.8,52.83 L181.62,52.83 L181.62,52.83 C181.62,52.83 181.62,52.83 181.62,52.83 L179.62,55.5 L181.62,58.26 C181.62,58.26 181.62,58.26 181.62,58.26 L181.01,58.26 C180.872162,58.2658282 180.740635,58.2019434 180.66,58.09 L178.98,55.82 C178.942427,55.7629304 178.87832,55.7289912 178.81,55.73 L177.98,55.82 Z" id="Path" fill="#171C21" fill-rule="nonzero"></path>
            <path d="M183.34,50.74 C183.446623,50.8369719 183.505147,50.9759668 183.5,51.12 C183.502218,51.260576 183.443945,51.3953321 183.34,51.49 C183.243197,51.5909135 183.10983,51.6485858 182.97,51.65 C182.827378,51.6479587 182.691128,51.59059 182.59,51.49 C182.491796,51.3921756 182.437641,51.2585929 182.44,51.12 C182.436065,50.978174 182.490253,50.8408989 182.59,50.74 C182.691128,50.63941 182.827378,50.5820413 182.97,50.58 C183.10983,50.5814142 183.243197,50.6390865 183.34,50.74 Z M182.6,52.85 C182.6,52.85 182.6,52.85 182.6,52.85 L183.26,52.85 C183.26,52.85 183.26,52.85 183.26,52.85 L183.26,58.32 L182.6,58.32 C182.6,58.32 182.6,58.32 182.6,58.32 L182.6,52.85 Z" id="Shape" fill="#171C21" fill-rule="nonzero"></path>
            <path d="M184.94,54.48 C184.923406,53.9387468 185.183418,53.4262594 185.63,53.12 C186.669315,52.4925714 187.970685,52.4925714 189.01,53.12 C189.456582,53.4262594 189.716594,53.9387468 189.7,54.48 L189.7,58.32 C189.7,58.32 189.7,58.32 189.7,58.32 L189.3,58.32 C189.2219,58.3238257 189.145759,58.2948194 189.09,58.24 C189.038823,58.1819731 189.010403,58.1073695 189.01,58.03 L189.01,54.45 C189.023444,54.1428261 188.87559,53.8509097 188.62,53.68 C187.837642,53.2399107 186.882358,53.2399107 186.1,53.68 C185.84441,53.8509097 185.696556,54.1428261 185.71,54.45 L185.71,58.29 L185.03,58.29 C185.03,58.29 185.03,58.29 185.03,58.29 L184.94,54.48 Z" id="Path" fill="#171C21" fill-rule="nonzero"></path>
            <path d="M195.86,57.58 C195.339492,58.1954165 194.565526,58.5381726 193.76,58.51 C192.980372,58.5153447 192.230983,58.2086881 191.678751,57.6583349 C191.12652,57.1079817 190.817312,56.3596416 190.82,55.58 C190.808343,54.8008128 191.119637,54.0515361 191.68,53.51 C192.226649,52.9510937 192.978266,52.640329 193.76,52.65 C194.568091,52.6197101 195.34427,52.9671425 195.86,53.59 L195.86,53.41 C195.85235,53.2518471 195.914498,53.0983058 196.03,52.99 C196.139471,52.8750557 196.291267,52.81 196.45,52.81 L196.55,52.81 C196.55,52.81 196.55,52.81 196.55,52.81 L196.55,57.96 C196.591868,58.659557 196.34624,59.345871 195.87,59.86 C195.530922,60.2210569 195.079924,60.4571259 194.59,60.53 C194.276705,60.5953245 193.953764,60.4747079 193.76,60.22 L193.66,60.07 L193.66,60.07 C194.230031,60.0486907 194.779069,59.8493585 195.23,59.5 C195.632551,59.1172551 195.841821,58.5738881 195.8,58.02 L195.86,57.58 Z M195.31,57.14 C196.060053,56.3969263 196.179744,55.2270949 195.595712,54.3475242 C195.01168,53.4679535 193.887065,53.1243378 192.91117,53.5272877 C191.935276,53.9302376 191.380704,54.9671952 191.587365,56.0025839 C191.794025,57.0379725 192.704192,57.7825724 193.76,57.78 C194.342442,57.7875805 194.902579,57.5562985 195.31,57.14 L195.31,57.14 Z" id="Shape" fill="#171C21" fill-rule="nonzero"></path>
        </g>
    </g>
</svg>