<?xml version="1.0" encoding="UTF-8"?>
<svg width="604px" height="121px" viewBox="0 0 604 121" version="1.1" xmlns="http://www.w3.org/2000/svg" xmlns:xlink="http://www.w3.org/1999/xlink">
    <!-- Generator: Sketch 62 (91390) - https://sketch.com -->
    <title>0ist_automação</title>
    <desc>Created with Sketch.</desc>
    <g id="Page-1" stroke="none" stroke-width="1" fill="none" fill-rule="evenodd">
        <g id="0ist_automação" fill-rule="nonzero">
            <polygon id="Path" fill="#36A9E1" points="245.48 119.86 581.34 119.78 587.65 83.6 287.24 83.08 279.96 83.88 272.42 86.78 265.79 95.09 260.54 106 255.97 111.46 251.63 113.36"></polygon>
            <polygon id="Path" fill="#0062AE" points="18.7 26.52 29.13 26.52 21.08 65.28 10.65 65.28"></polygon>
            <polygon id="Path" fill="#0062AE" points="36.86 26.52 49.8 26.52 57.74 53.39 57.85 53.39 63.29 26.52 73.07 26.52 64.85 65.28 51.97 65.28 43.86 38.46 43.75 38.46 38.36 65.28 28.58 65.28"></polygon>
            <path d="M103.45,35.29 C100.770466,34.0602015 97.847696,33.4517185 94.9,33.51 C90.8,33.51 87.46,34.12 87.46,37.23 C87.46,42.74 102.51,40.68 102.51,52.45 C102.51,63.17 92.57,65.95 83.57,65.95 C79.495736,65.8521741 75.4557609,65.1788449 71.57,63.95 L74.02,56.08 C76.07,57.41 80.18,58.3 83.57,58.3 C86.8,58.3 91.84,57.68 91.84,53.68 C91.84,47.46 76.79,49.79 76.79,38.86 C76.79,28.86 85.57,25.86 94.06,25.86 C98.85,25.86 103.34,26.36 105.96,27.58 L103.45,35.29 Z" id="Path" fill="#0062AE"></path>
            <polygon id="Path" fill="#0062AE" points="119.06 34.18 109.4 34.18 111.07 26.52 140.89 26.52 139.22 34.18 129.57 34.18 122.95 65.28 112.46 65.28"></polygon>
            <polygon id="Path" fill="#0062AE" points="145.23 26.52 155.67 26.52 147.62 65.28 137.18 65.28"></polygon>
            <polygon id="Path" fill="#0062AE" points="168.44 34.18 158.78 34.18 160.45 26.52 190.27 26.52 188.6 34.18 178.95 34.18 172.33 65.28 161.84 65.28"></polygon>
            <path d="M223.98,44.55 C221.42,56.89 218.43,65.94 204.32,65.94 C195.6,65.94 188.77,62.83 188.77,53.72 C188.775127,51.2529491 189.056887,48.7942531 189.61,46.39 L193.99,26.55 L204.48,26.55 L199.79,48.45 C199.434021,49.8348416 199.189902,51.2460501 199.06,52.67 C199.06,55.84 200.89,58.28 204.56,58.28 C211.22,58.28 212.28,50.28 213.62,44.07 L217.48,26.55 L227.79,26.55 L223.98,44.55 Z" id="Path" fill="#0062AE"></path>
            <polygon id="Path" fill="#0062AE" points="239.43 34.18 229.77 34.18 231.43 26.52 261.26 26.52 259.58 34.18 249.93 34.18 243.32 65.28 232.82 65.28"></polygon>
            <path d="M281.31,33.55 C273.31,33.55 269.97,42.83 269.97,49.39 C269.97,54.27 271.8,58.32 277.19,58.32 C285.19,58.32 288.53,49.05 288.53,42.55 C288.53,37.66 286.7,33.55 281.31,33.55 M276.53,65.99 C263.92,65.99 259.31,58.15 259.31,50.22 C259.31,35.5 267.04,25.89 281.97,25.89 C294.58,25.89 299.18,33.72 299.18,41.72 C299.18,56.34 291.47,65.95 276.53,65.95 L276.53,65.99 Z" id="Shape" fill="#0062AE"></path>
            <path d="M9.65,97.49 L13.79,97.49 C15.7226566,97.6656674 17.6462311,97.0688199 19.14,95.83 C21.14,94.11 22.06,90.62 22.06,87.9 C22.1964062,86.08808 21.6586533,84.2896348 20.55,82.85 C19.45,81.48 17.83,81.02 15.6,81.02 L12.41,81.02 L9.65,97.49 Z M10.2,79.09 L15.86,79.09 C17.94,79.09 21.15,79.15 23.33,82.98 C24.1457024,84.5581549 24.5579688,86.3137227 24.53,88.09 C24.6129676,91.3504487 23.4344176,94.5171302 21.24,96.93 C19.17,99.16 16.81,99.5 14.33,99.5 L6.79,99.5 L10.2,79.09 Z" id="Shape" fill="#0062AE"></path>
            <polygon id="Path" fill="#0062AE" points="30.07 79.09 42.77 79.09 42.43 81.11 32.21 81.11 31.07 87.84 39.83 87.84 39.5 89.86 30.74 89.86 29.49 97.33 40.53 97.33 40.17 99.5 26.64 99.5"></polygon>
            <polygon id="Path" fill="#0062AE" points="61.87 81.17 58.78 99.5 56.3 99.5 59.36 81.17 53.46 81.17 53.79 79.09 68.11 79.09 67.77 81.17"></polygon>
            <polygon id="Path" fill="#0062AE" points="71 79.09 83.7 79.09 83.36 81.11 73.13 81.11 72 87.84 80.76 87.84 80.42 89.86 71.67 89.86 70.41 97.33 81.46 97.33 81.09 99.5 67.57 99.5"></polygon>
            <path d="M99.21,85.95 C98.99,84.5 98.5,80.65 94.4,80.65 C88.75,80.65 87.63,89.19 87.63,91.42 C87.63,95.87 89.87,97.79 92.51,97.79 C95.87,97.79 97.34,94.51 98.01,92.98 L100.1,93.78 C98.69,97.52 96.24,99.84 92.44,99.84 C86.63,99.84 85.01,94.61 85.01,91 C85.01,85.85 88.01,78.6 94.4,78.6 C97.8,78.6 101.05,80.74 101.4,85.36 L99.21,85.95 Z" id="Path" fill="#0062AE"></path>
            <polygon id="Path" fill="#0062AE" points="115.25 99.5 107.24 82.06 104.33 99.5 102.3 99.5 105.73 79.09 108.52 79.09 115.92 95.37 118.65 79.09 120.64 79.09 117.23 99.5"></polygon>
            <path d="M132.15,80.74 C126.63,80.74 125.34,88.18 125.34,91.27 C125.34,96.14 128.01,97.85 130.46,97.85 C136.22,97.85 137.34,89.77 137.34,86.99 C137.34,82.36 134.51,80.74 132.15,80.74 M130.46,99.9 C125.46,99.9 122.71,95.83 122.71,90.75 C122.71,85.67 125.62,78.69 132.24,78.69 C136.73,78.69 139.95,81.99 139.95,87.5 C139.95,92.74 137.22,99.9 130.46,99.9 L130.46,99.9 Z" id="Shape" fill="#0062AE"></path>
            <polygon id="Path" fill="#0062AE" points="142 99.5 145.41 79.09 147.91 79.09 144.85 97.33 154.98 97.33 154.62 99.5"></polygon>
            <path d="M167.37,80.74 C161.87,80.74 160.58,88.18 160.58,91.27 C160.58,96.14 163.24,97.85 165.69,97.85 C171.45,97.85 172.57,89.77 172.57,86.99 C172.57,82.36 169.73,80.74 167.37,80.74 M165.69,99.9 C160.69,99.9 157.95,95.83 157.95,90.75 C157.95,85.67 160.86,78.69 167.47,78.69 C171.97,78.69 175.17,81.99 175.17,87.5 C175.17,92.74 172.46,99.9 165.69,99.9 L165.69,99.9 Z" id="Shape" fill="#0062AE"></path>
            <path d="M194.16,89.31 L192.41,99.75 L191.03,99.75 L190.73,97.28 C189.574983,99.1162062 187.504149,100.168912 185.34,100.02 C180.6,100.02 177.6,96.1 177.6,90.84 C177.6,85.58 180.66,78.6 187.12,78.6 C192.66,78.6 194.12,82.97 194.65,84.39 L192.44,85.15 C191.58,82.33 189.9,80.59 187.12,80.59 C182.19,80.59 180.2,86.59 180.2,91.09 C180.2,96.3 183.11,98.03 185.56,98.03 C187.627259,98.0090449 189.495181,96.792361 190.35,94.91 C190.88728,93.7726914 191.225517,92.551657 191.35,91.3 L186.03,91.3 L186.37,89.3 L194.16,89.31 Z" id="Path" fill="#0062AE"></path>
            <polygon id="Path" fill="#0062AE" points="200.56 79.09 197.17 99.5 199.63 99.5 203.07 79.09"></polygon>
            <path d="M214.99,91.48 L213.41,82.09 L208.79,91.48 L214.99,91.48 Z M207.87,93.55 L204.93,99.55 L202.6,99.55 L212.6,79.14 L215.44,79.14 L218.98,99.55 L216.35,99.55 L215.3,93.55 L207.87,93.55 Z" id="Shape" fill="#0062AE"></path>
            <path d="M367.79,15.71 C363.33494,13.6456388 358.469279,12.6198494 353.56,12.71 C346.73,12.71 341.18,13.71 341.18,18.9 C341.18,28.05 366.18,24.63 366.18,44.21 C366.18,62.04 349.64,66.66 334.68,66.66 C327.889635,66.4989282 321.156222,65.3778149 314.68,63.33 L318.79,50.26 C322.21,52.48 329.05,53.95 334.69,53.95 C340.04,53.95 348.45,52.95 348.45,46.28 C348.45,35.94 323.45,39.82 323.45,21.62 C323.45,4.99 338.04,-5.68434189e-14 352.17,-5.68434189e-14 C360.11,-5.68434189e-14 367.6,0.84 371.94,2.87 L367.79,15.71 Z" id="Path" fill="#36A9E1"></path>
            <polygon id="Path" fill="#36A9E1" points="385.64 1.11 431 1.11 428.5 13.31 400.14 13.31 397.18 26.61 424.06 26.61 421.39 38.8 394.59 38.8 391.46 53.4 420.93 53.4 418.43 65.59 371.78 65.59"></polygon>
            <polygon id="Path" fill="#36A9E1" points="441.81 1.11 463.33 1.11 476.55 45.82 476.73 45.82 485.77 1.11 502.04 1.11 488.37 65.59 466.93 65.59 453.44 20.97 453.26 20.97 444.3 65.59 428.04 65.59"></polygon>
            <path d="M541.85,14.41 L541.67,14.41 L528,39.63 L544.62,39.63 L541.85,14.41 Z M533.27,1.11 L554.88,1.11 L565.41,65.55 L548.05,65.55 L546.28,51.79 L521.28,51.79 L513.59,65.55 L494.92,65.55 L533.27,1.11 Z" id="Shape" fill="#36A9E1"></path>
            <polygon id="Path" fill="#36A9E1" points="586.12 1.11 603.48 1.11 590.09 65.59 572.72 65.59"></polygon>
            <path d="M588.99,78.89 L262.08,78.89 C255.59,78.89 247.18,83.53 243.71,89.02 L234.98,102.84 C230.98,109.19 221.63,114.34 214.12,114.34 L1.18,114.34 L0,120.34 L243,120.04 C249.91,120.04 258.51,114.73 262.19,108.21 L270.19,93.98 C273.37,88.33 281.12,83.55 287.09,83.55 L588.01,83.55 L588.99,78.89 Z" id="Path" fill="#0062AE"></path>
            <path d="M581.33,119.79 L247.04,119.86 L243.86,119.86 L246.92,119.01 C249.969162,118.131054 252.825582,116.685882 255.34,114.75 C257.792474,112.938582 259.856547,110.65348 261.41,108.03 L269.41,93.81 C271.27907,90.7322701 273.875017,88.16036 276.97,86.32 C279.869934,84.4181028 283.226053,83.3270189 286.69,83.16 L529.4,83.16 L587.6,83.26 L588.11,83.26 L588.02,83.77 L581.79,119.43 L581.73,119.79 L581.33,119.79 Z M249.63,119 L580.97,118.93 L587.09,84.12 L529.4,84.02 L286.72,84.02 C283.417973,84.1766114 280.217694,85.2123003 277.45,87.02 C274.482166,88.7873864 271.990162,91.2519311 270.19,94.2 L262.19,108.43 C260.578745,111.160791 258.436566,113.540989 255.89,115.43 C253.966439,116.885617 251.862224,118.085624 249.63,119 L249.63,119 Z" id="Shape" fill="#20A6DF"></path>
            <path d="M558.72,102.13 C558.253931,103.679835 558.4761,105.355205 559.33,106.73 C560.170201,107.8609 561.523561,108.492468 562.93,108.41 C564.534281,108.41593 566.080002,107.80766 567.25,106.71 C568.61056,105.428872 569.510407,103.734629 569.81,101.89 C570.085553,100.761736 570.102645,99.5857963 569.86,98.45 C569.657424,97.5338098 569.132128,96.7210211 568.38,96.16 C567.581667,95.6094406 566.629469,95.3258816 565.66,95.35 C564.109812,95.3627055 562.613087,95.9182274 561.43,96.92 C559.941947,98.2838291 558.982369,100.128627 558.72,102.13 M556.52,102.13 C556.935351,99.7018096 558.153759,97.4833209 559.98,95.83 C561.631809,94.3584138 563.767755,93.5467545 565.98,93.55 C567.332306,93.51162 568.664393,93.8847441 569.8,94.62 C570.846812,95.3301046 571.600163,96.3961663 571.92,97.62 C572.272376,99.0418261 572.272376,100.528174 571.92,101.95 C571.606194,103.534914 570.958499,105.03484 570.02,106.35 C569.145718,107.602318 567.969352,108.61358 566.6,109.29 C565.320231,109.941053 563.90584,110.283521 562.47,110.29 C561.103307,110.334194 559.757052,109.949549 558.62,109.19 C557.584533,108.472536 556.839705,107.408497 556.52,106.19 C556.178413,104.844678 556.178413,103.435322 556.52,102.09 L556.52,102.13 Z M546.14,92.85 C546.255888,92.144154 546.608558,91.4987678 547.14,91.02 C547.616167,90.5798892 548.2416,90.3368636 548.89,90.34 C549.510294,90.3876673 550.108642,90.5905554 550.63,90.93 C550.929704,91.1235482 551.273964,91.2371541 551.63,91.26 C551.840188,91.270654 552.046855,91.2029527 552.21,91.07 C552.416006,90.8537256 552.563931,90.5888364 552.64,90.3 L554.07,90.3 C553.945236,91.0200056 553.59508,91.6818018 553.07,92.19 C552.617454,92.5978361 552.029198,92.8224432 551.42,92.82 C550.805423,92.7671801 550.215619,92.5533329 549.71,92.2 C549.413582,91.988375 549.070596,91.8511803 548.71,91.8 C548.46243,91.796465 548.224108,91.8939604 548.05,92.07 C547.82832,92.2742866 547.686535,92.5507669 547.65,92.85 L546.14,92.85 Z M544.79,103.33 L550.27,103.33 L549.51,98.85 C549.28,97.49 549.12,96.37 549.06,95.5 C548.623748,96.5614488 548.119364,97.5935992 547.55,98.59 L544.79,103.33 Z M538.79,109.96 L548.35,93.8 L550.65,93.8 L553.79,109.96 L551.39,109.96 L550.52,105.07 L543.79,105.07 L541,109.96 L538.79,109.96 Z M529,111.66 L530,109.71 L531.48,109.71 L530.87,110.89 C531.358378,110.911132 531.820064,111.118712 532.16,111.47 C532.393084,111.747043 532.488626,112.114512 532.42,112.47 C532.259293,113.082238 531.864171,113.606673 531.32,113.93 C530.562299,114.388234 529.684199,114.607759 528.8,114.56 C528.276981,114.568354 527.754422,114.524808 527.24,114.43 L527.63,113.14 C528.09,113.14 528.44,113.19 528.63,113.19 C529.153144,113.225154 529.676546,113.125295 530.15,112.9 C530.363261,112.788923 530.519498,112.592718 530.58,112.36 C530.610624,112.241331 530.592626,112.115348 530.53,112.01 C530.421471,111.878529 530.274663,111.784152 530.11,111.74 C529.715833,111.656451 529.311769,111.629514 528.91,111.66 L529,111.66 Z M537,104.3 L539,104.84 C538.301517,106.444645 537.177681,107.827828 535.75,108.84 C534.407377,109.756518 532.815517,110.238265 531.19,110.22 C529.777653,110.303175 528.375809,109.931686 527.19,109.16 C526.213022,108.398009 525.553755,107.30042 525.34,106.08 C525.035686,104.649337 525.035686,103.170663 525.34,101.74 C525.644808,100.155768 526.285895,98.6553504 527.22,97.34 C528.073703,96.1196854 529.222828,95.135704 530.56,94.48 C531.836753,93.8304615 533.247543,93.4880367 534.68,93.48 C536.061685,93.4030385 537.422806,93.8413052 538.5,94.71 C539.464316,95.6125762 540.032329,96.8600466 540.08,98.18 L537.88,98.68 C537.839786,97.7176784 537.448469,96.8034187 536.78,96.11 C536.067872,95.5326735 535.165015,95.2436164 534.25,95.3 C533.086678,95.2791411 531.941656,95.5914198 530.95,96.2 C529.997252,96.7824086 529.219794,97.6116975 528.7,98.6 C528.162667,99.5694901 527.774955,100.614628 527.55,101.7 C527.266816,102.87889 527.215868,104.101638 527.4,105.3 C527.527973,106.227478 528.034923,107.060324 528.8,107.6 C529.560456,108.114588 530.46202,108.380166 531.38,108.36 C532.545166,108.38045 533.686715,108.030282 534.64,107.36 C535.655291,106.569023 536.427974,105.508749 536.87,104.3 L537,104.3 Z M513.5,103.3 L518.98,103.3 L518.22,98.82 C517.99,97.46 517.84,96.34 517.77,95.47 C517.33785,96.533287 516.833334,97.565706 516.26,98.56 L513.5,103.3 Z M507.5,109.93 L517.06,93.77 L519.36,93.77 L522.63,109.93 L520.19,109.93 L519.32,105.04 L512.39,105.04 L509.6,109.93 L507.5,109.93 Z M490.4,109.93 L493.75,93.77 L496.79,93.77 L498.24,105.22 C498.38,106.28 498.47,107.08 498.52,107.61 C498.82,107.02 499.29,106.16 499.92,105.02 L506.12,93.77 L508.99,93.77 L505.65,109.93 L503.59,109.93 L506.4,96.4 L498.9,109.93 L496.97,109.93 L495.14,96.18 L492.29,109.93 L490.4,109.93 Z M476.08,102.1 C475.616897,103.651253 475.84272,105.326712 476.7,106.7 C477.535832,107.83074 478.88631,108.462719 480.29,108.38 C481.897161,108.385442 483.445832,107.777418 484.62,106.68 C485.976975,105.396139 486.876135,103.703189 487.18,101.86 C487.434334,100.727436 487.434334,99.5525636 487.18,98.42 C486.980837,97.5049321 486.459051,96.6920829 485.71,96.13 C484.911667,95.5794406 483.959469,95.2958816 482.99,95.32 C481.439188,95.3293028 479.94134,95.8852418 478.76,96.89 C477.218071,98.2429528 476.207825,100.100387 475.91,102.13 L476.08,102.1 Z M473.88,102.1 C474.298044,99.6704982 475.520066,97.4518414 477.35,95.8 C479.014648,94.3168703 481.170542,93.5044015 483.4,93.52 C484.749235,93.481123 486.078277,93.8543709 487.21,94.59 C488.256719,95.3022823 489.012646,96.3669681 489.34,97.59 C489.687602,99.0124049 489.687602,100.497595 489.34,101.92 C489.026194,103.504914 488.378499,105.00484 487.44,106.32 C486.565718,107.572318 485.389352,108.58358 484.02,109.26 C482.739845,109.910007 481.325705,110.252414 479.89,110.26 C478.520174,110.304279 477.170708,109.919716 476.03,109.16 C475.000734,108.436327 474.257662,107.374796 473.93,106.16 C473.53081,104.8407 473.455347,103.444643 473.71,102.09 L473.88,102.1 Z M463.63,109.97 L466.63,95.72 L461.09,95.72 L461.48,93.81 L474.29,93.81 L473.9,95.72 L468.55,95.72 L465.55,109.97 L463.63,109.97 Z M457.16,93.81 L459.3,93.81 L457.37,103.15 C457.125522,104.502758 456.669964,105.80869 456.02,107.02 C455.420703,108.007825 454.563247,108.813419 453.54,109.35 C452.306692,109.990207 450.928664,110.300264 449.54,110.25 C448.307895,110.315918 447.080988,110.046344 445.99,109.47 C445.153485,108.982322 444.57246,108.152808 444.4,107.2 C444.202834,105.848823 444.277632,104.471869 444.62,103.15 L446.55,93.81 L448.69,93.81 L446.76,103.14 C446.492006,104.150077 446.407333,105.200031 446.51,106.24 C446.604213,106.874069 446.969096,107.43599 447.51,107.78 C448.182841,108.169324 448.953511,108.356784 449.73,108.32 C451.016714,108.409459 452.292218,108.029295 453.32,107.25 C454.343473,106.102081 454.98931,104.667274 455.17,103.14 L457.16,93.81 Z M432.41,103.34 L437.89,103.34 L437.13,98.86 C436.9,97.5 436.75,96.38 436.68,95.51 C436.24785,96.573287 435.743334,97.605706 435.17,98.6 L432.41,103.34 Z M426.41,109.97 L435.79,93.8 L438.09,93.8 L441.36,109.96 L438.89,109.96 L438.02,105.07 L431.26,105.07 L428.48,109.96 L426.41,109.97 Z" id="Shape" fill="#FFFFFF"></path>
        </g>
    </g>
</svg>