<?xml version="1.0" encoding="UTF-8"?>
<svg width="619px" height="124px" viewBox="0 0 619 124" version="1.1" xmlns="http://www.w3.org/2000/svg" xmlns:xlink="http://www.w3.org/1999/xlink">
    <!-- Generator: Sketch 61.2 (89653) - https://sketch.com -->
    <title>IST_energia (3)</title>
    <desc>Created with Sketch.</desc>
    <g id="Page-1" stroke="none" stroke-width="1" fill="none" fill-rule="evenodd">
        <g id="IST_energia-(3)" fill-rule="nonzero">
            <polygon id="Path" fill="#E2001A" points="215.82 122.87 596.15 122.78 602.57 86.27 271 85.69 262.57 86.58 253.86 89.81 246.19 99.06 240.12 111.21 234.84 117.28 229.82 119.4"></polygon>
            <polygon id="Path" fill="#8F161A" points="19.67 27.74 30.36 27.74 22.11 67.42 11.42 67.42"></polygon>
            <polygon id="Path" fill="#8F161A" points="38.26 27.74 51.51 27.74 59.64 55.26 59.76 55.26 65.33 27.74 75.34 27.74 66.92 67.42 53.73 67.42 45.43 39.96 45.32 39.96 39.8 67.42 29.79 67.42"></polygon>
            <path d="M106.45,36.72 C103.70556,35.4576069 100.710165,34.8352758 97.69,34.9 C93.48,34.9 90.07,35.53 90.07,38.71 C90.07,44.34 105.48,42.24 105.48,54.29 C105.48,65.29 95.3,68.11 86.09,68.11 C81.923146,68.0223365 77.7893276,67.3490761 73.81,66.11 L76.31,58 C78.41,59.36 82.62,60.27 86.09,60.27 C89.39,60.27 94.56,59.65 94.56,55.55 C94.56,49.18 79.15,51.55 79.15,40.37 C79.15,30.14 88.15,27.06 96.84,27.06 C101.73,27.06 106.33,27.58 109,28.83 L106.45,36.72 Z" id="Path" fill="#8F161A"></path>
            <polygon id="Path" fill="#8F161A" points="122.43 35.58 112.54 35.58 114.24 27.74 144.78 27.74 143.07 35.58 133.18 35.58 126.41 67.42 115.66 67.42"></polygon>
            <polygon id="Path" fill="#8F161A" points="149.22 27.74 159.9 27.74 151.66 67.42 140.97 67.42"></polygon>
            <polygon id="Path" fill="#8F161A" points="172.99 35.58 163.09 35.58 164.8 27.74 195.33 27.74 193.63 35.58 183.73 35.58 176.97 67.42 166.22 67.42"></polygon>
            <path d="M229.85,46.22 C227.23,58.84 224.17,68.11 209.72,68.11 C200.79,68.11 193.8,64.92 193.8,55.6 C193.812594,53.0733927 194.097575,50.5555079 194.65,48.09 L199.15,27.74 L209.89,27.74 L205.12,50.2 C204.755799,51.6173808 204.508305,53.0622112 204.38,54.52 C204.38,57.76 206.25,60.26 210,60.26 C216.83,60.26 217.91,52.07 219.27,45.71 L223.2,27.71 L233.72,27.71 L229.85,46.22 Z" id="Path" fill="#8F161A"></path>
            <polygon id="Path" fill="#8F161A" points="245.66 35.58 235.77 35.58 237.48 27.74 268.01 27.74 266.3 35.58 256.41 35.58 249.64 67.42 238.89 67.42"></polygon>
            <path d="M288.54,34.9 C280.35,34.9 276.94,44.4 276.94,51.11 C276.94,56.11 278.82,60.26 284.33,60.26 C292.52,60.26 295.93,50.76 295.93,44.11 C295.93,39.11 294.06,34.9 288.54,34.9 M283.65,68.11 C270.74,68.11 266.02,60.11 266.02,51.96 C266.02,36.89 273.93,27.05 289.22,27.05 C302.13,27.05 306.85,35.05 306.85,43.26 C306.85,58.26 298.95,68.11 283.65,68.11" id="Shape" fill="#8F161A"></path>
            <path d="M10.41,100.4 L14.6,100.4 C16.5829008,100.582556 18.557257,99.971189 20.09,98.7 C22.09,96.95 23.09,93.38 23.09,90.59 C23.2308506,88.7373959 22.6863797,86.8975824 21.56,85.42 C20.43,84.01 18.77,83.54 16.48,83.54 L13.2,83.54 L10.41,100.4 Z M11,81.56 L16.8,81.56 C18.93,81.56 22.22,81.63 24.44,85.56 C25.2741337,87.1787557 25.6933387,88.9792755 25.66,90.8 C25.7458252,94.1347465 24.5464401,97.3748766 22.31,99.85 C20.18,102.14 17.77,102.49 15.23,102.49 L7.49,102.49 L11,81.56 Z" id="Shape" fill="#8F161A"></path>
            <polygon id="Path" fill="#8F161A" points="31.31 81.56 44.31 81.56 43.97 83.63 33.5 83.63 32.34 90.53 41.3 90.53 40.96 92.59 32 92.59 30.71 100.24 42.02 100.24 41.65 102.47 27.8 102.47"></polygon>
            <polygon id="Path" fill="#8F161A" points="63.87 83.69 60.7 102.46 58.17 102.46 61.3 83.69 55.25 83.69 55.6 81.56 70.26 81.56 69.92 83.69"></polygon>
            <polygon id="Path" fill="#8F161A" points="73.21 81.56 86.21 81.56 85.87 83.63 75.4 83.63 74.24 90.53 83.2 90.53 82.86 92.59 73.9 92.59 72.61 100.24 83.92 100.24 83.55 102.47 69.7 102.47"></polygon>
            <path d="M102.1,88.58 C101.88,87.11 101.38,83.16 97.18,83.16 C91.39,83.16 90.26,91.9 90.26,94.16 C90.26,98.71 92.54,100.68 95.26,100.68 C98.7,100.68 100.26,97.33 100.9,95.76 L103.03,96.58 C101.59,100.4 99.03,102.78 95.19,102.78 C89.19,102.78 87.58,97.42 87.58,93.72 C87.58,88.46 90.65,81.03 97.2,81.03 C100.68,81.03 104,83.23 104.38,87.96 L102.1,88.58 Z" id="Path" fill="#8F161A"></path>
            <polygon id="Path" fill="#8F161A" points="118.52 102.46 110.31 84.6 107.34 102.46 105.27 102.46 108.78 81.56 111.63 81.56 119.21 98.23 122 81.56 124.04 81.56 120.56 102.46"></polygon>
            <path d="M135.82,83.25 C130.18,83.25 128.87,90.87 128.87,94.03 C128.87,99.03 131.59,100.77 134.1,100.77 C139.99,100.77 141.15,92.5 141.15,89.65 C141.15,84.92 138.23,83.25 135.82,83.25 M134.1,102.87 C128.96,102.87 126.17,98.7 126.17,93.5 C126.17,88.3 129.17,81.16 135.91,81.16 C140.52,81.16 143.81,84.54 143.81,90.16 C143.81,95.52 141.02,102.85 134.1,102.85" id="Shape" fill="#8F161A"></path>
            <polygon id="Path" fill="#8F161A" points="145.91 102.46 149.39 81.56 151.96 81.56 148.83 100.24 159.2 100.24 158.82 102.46"></polygon>
            <path d="M171.89,83.25 C166.25,83.25 164.94,90.87 164.94,94.03 C164.94,99.03 167.66,100.77 170.17,100.77 C176.06,100.77 177.22,92.5 177.22,89.65 C177.22,84.92 174.31,83.25 171.89,83.25 M170.17,102.87 C165.03,102.87 162.24,98.7 162.24,93.5 C162.24,88.3 165.24,81.16 171.99,81.16 C176.59,81.16 179.88,84.54 179.88,90.16 C179.88,95.52 177.09,102.85 170.17,102.85" id="Shape" fill="#8F161A"></path>
            <path d="M199.31,92 L197.53,102.69 L196.12,102.69 L195.8,100.15 C194.627364,102.037938 192.507198,103.123033 190.29,102.97 C185.43,102.97 182.36,98.97 182.36,93.57 C182.36,88.17 185.49,81.03 192.1,81.03 C197.78,81.03 199.31,85.51 199.82,86.95 L197.56,87.74 C196.68,84.86 194.96,83.07 192.1,83.07 C187.1,83.07 185.02,89.27 185.02,93.82 C185.02,99.14 188.02,100.93 190.51,100.93 C192.630379,100.903042 194.545643,99.6573421 195.43,97.73 C195.98291,96.5663049 196.341006,95.3197249 196.49,94.04 L191,94.04 L191.34,92.04 L199.31,92 Z" id="Path" fill="#8F161A"></path>
            <polygon id="Path" fill="#8F161A" points="204.92 102.46 202.39 102.46 205.87 81.56 208.43 81.56"></polygon>
            <path d="M220.66,94.25 L219,84.64 L214.3,94.25 L220.66,94.25 Z M213.35,96.35 L210.35,102.46 L208,102.46 L218.21,81.56 L221.12,81.56 L224.76,102.46 L222,102.46 L221,96.35 L213.35,96.35 Z" id="Shape" fill="#8F161A"></path>
            <path d="M377.1,16.67 C372.532657,14.5811561 367.551032,13.5554268 362.53,13.67 C355.53,13.67 349.86,14.67 349.86,20.01 C349.86,29.37 375.49,25.88 375.49,45.93 C375.49,64.18 358.56,68.93 343.24,68.93 C336.303369,68.7613792 329.425369,67.6133626 322.81,65.52 L327,52 C330.5,54.27 337.5,55.79 343.27,55.79 C348.75,55.79 357.36,54.79 357.36,47.94 C357.36,37.34 331.73,41.32 331.73,22.68 C331.73,5.68 346.67,0.55 361.14,0.55 C369.28,0.55 376.94,1.4 381.38,3.49 L377.1,16.67 Z" id="Path" fill="#E2001A"></path>
            <polygon id="Path" fill="#E2001A" points="395.36 1.73 441.79 1.73 439.24 14.21 410.2 14.21 407.18 27.83 434.7 27.83 431.96 40.31 404.53 40.31 401.31 55.26 431.48 55.26 428.93 67.74 381.17 67.74"></polygon>
            <polygon id="Path" fill="#E2001A" points="452.87 1.73 474.9 1.73 488.43 47.5 488.62 47.5 497.88 1.73 514.53 1.73 500.53 67.74 478.59 67.74 464.78 22.06 464.59 22.06 455.42 67.74 438.77 67.74"></polygon>
            <path d="M555.3,15.35 L555.12,15.35 L541.12,41.17 L558.12,41.17 L555.3,15.35 Z M546.51,1.73 L568.64,1.73 L579.42,67.73 L561.64,67.73 L559.84,53.64 L534.21,53.64 L526.36,67.73 L507.26,67.73 L546.51,1.73 Z" id="Shape" fill="#E2001A"></path>
            <polygon id="Path" fill="#E2001A" points="600.62 1.73 618.4 1.73 604.68 67.74 586.9 67.74"></polygon>
            <path d="M603.57,81.36 L268.85,81.36 C262.21,81.36 253.6,86.11 250.05,91.73 L241.11,105.89 C237.02,112.39 227.44,117.66 219.76,117.66 L1.76,117.66 L0.55,123.83 L249.35,123.52 C256.42,123.52 265.23,118.09 269.01,111.4 L277.23,96.84 C280.49,91.06 288.42,86.17 294.53,86.17 L602.53,86.17 L603.57,81.36 Z" id="Path" fill="#8F161A"></path>
            <polygon id="Path" fill="#FFFFFF" points="503.55 97.71 511.84 97.71 511.4 99.63 505.4 99.63 504.4 104.1 510.07 104.1 509.7 106.02 503.96 106.02 502.85 111.02 509.26 111.02 508.84 112.95 500.2 112.95"></polygon>
            <polygon id="Path" fill="#FFFFFF" points="515.58 97.71 518.47 97.71 522.78 110.51 522.78 110.51 525.5 97.71 527.57 97.71 524.29 113 521.47 113 517.16 100.31 517.16 100.31 514.51 113 512.41 113"></polygon>
            <polygon id="Path" fill="#FFFFFF" points="531.59 97.71 539.88 97.71 539.45 99.63 533.45 99.63 532.45 104.1 538.12 104.1 537.75 106.02 532 106.02 530.89 111.02 537.3 111.02 536.88 112.95 528.26 112.95"></polygon>
            <path d="M543.71,97.71 L546.71,97.71 C548.85,97.71 552.42,97.71 552.42,101.43 C552.355981,103.5308 550.782701,105.27748 548.7,105.56 C549.86,106.28 550.19,108.56 550.49,109.76 L551.32,112.98 L549,112.98 L548.09,108.98 C547.52,106.52 547.09,106.2 546.01,106.2 L544.01,106.2 L542.64,113 L540.45,113 L543.71,97.71 Z M544.5,104.27 L546.23,104.27 C547.78,104.27 550.1,103.77 550.1,101.73 C550.1,100.14 549.2,99.63 547.52,99.63 L545.52,99.63 L544.5,104.27 Z" id="Shape" fill="#FFFFFF"></path>
            <path d="M567.75,100.2 C566.494977,99.6293263 565.128465,99.3457751 563.75,99.37 C559.11,99.37 556.86,102.78 556.86,106.37 C556.86,109.72 559.09,111.32 562.06,111.32 C562.672548,111.327713 563.283744,111.260549 563.88,111.12 L564.88,106.42 L561.68,106.42 L562.12,104.62 L567.44,104.62 L565.67,112.78 C564.359979,113.09342 563.016969,113.247866 561.67,113.24 C557.6,113.24 554.5,111.1 554.5,106.24 C554.46617,103.828972 555.433343,101.511799 557.171208,99.8402641 C558.909073,98.1687297 561.262112,97.2924168 563.67,97.42 C565.274263,97.3841847 566.868315,97.6839209 568.35,98.3 L567.75,100.2 Z" id="Path" fill="#FFFFFF"></path>
            <polygon id="Path" fill="#FFFFFF" points="572.89 97.71 575.1 97.71 571.82 113 569.61 113"></polygon>
            <path d="M584.13,97.71 L586.3,97.71 L589.67,113 L587.42,113 L586.61,109.15 L579.1,109.15 L576.65,113 L574.22,113 L584.13,97.71 Z M584.83,100.07 L580.22,107.33 L586.28,107.33 L584.83,100.07 Z" id="Shape" fill="#FFFFFF"></path>
        </g>
    </g>
</svg>