<?xml version="1.0" encoding="UTF-8"?>
<svg width="168px" height="99px" viewBox="0 0 168 99" version="1.1" xmlns="http://www.w3.org/2000/svg" xmlns:xlink="http://www.w3.org/1999/xlink">
    <!-- Generator: Sketch 61.2 (89653) - https://sketch.com -->
    <title>labrintos_coppe_ver</title>
    <desc>Created with Sketch.</desc>
    <g id="Page-1" stroke="none" stroke-width="1" fill="none" fill-rule="evenodd">
        <g id="labrintos_coppe_ver">
            <rect id="Rectangle" fill="#231F20" fill-rule="nonzero" x="37.05" y="26.52" width="4.12" height="12.48"></rect>
            <rect id="Rectangle" fill="#231F20" fill-rule="nonzero" x="20.58" y="63.96" width="4.12" height="16.64"></rect>
            <rect id="Rectangle" fill="#231F20" fill-rule="nonzero" x="16.47" y="26.52" width="8.23" height="4.16"></rect>
            <path d="M0,9.89 L0,88.89 L49.4,88.89 L49.4,9.89 L0,9.89 Z M12.32,30.69 L12.32,22.36 L24.67,22.36 L24.67,18.2 L12.32,18.2 L12.32,14.04 L28.82,14.04 L28.82,34.84 L12.32,34.84 L12.32,30.69 Z M4.09,39.01 L4.09,14.01 L8.21,14.01 L8.21,39.01 L28.82,39.01 L28.82,43.17 L4.12,43.17 L4.09,39.01 Z M20.59,47.36 L20.59,55.68 L16.47,55.68 L16.47,47.36 L20.59,47.36 Z M12.32,76.45 L8.21,76.45 L8.21,80.61 L12.32,80.61 L12.32,84.77 L4.12,84.77 L4.12,68.13 L8.24,68.13 L8.24,72.29 L12.32,72.29 L12.32,76.45 Z M12.32,51.45 L8.21,51.45 L8.21,63.93 L4.12,63.93 L4.12,47.36 L12.32,47.36 L12.32,51.45 Z M28.79,63.93 L28.79,84.73 L16.47,84.73 L16.47,59.73 L28.82,59.73 L28.79,63.93 Z M45.26,63.93 L37.02,63.93 L37.02,72.25 L45.32,72.25 L45.32,84.73 L32.94,84.73 L32.94,80.57 L41.17,80.57 L41.17,76.41 L32.94,76.41 L32.94,59.81 L45.32,59.81 L45.26,63.93 Z M45.26,55.61 L41.14,55.61 L41.14,51.45 L28.82,51.45 L28.82,55.61 L24.7,55.61 L24.7,47.36 L45.32,47.36 L45.26,55.61 Z M45.26,26.49 L45.26,43.13 L32.94,43.13 L32.94,14.05 L37.05,14.05 L37.05,22.36 L45.32,22.36 L45.26,26.49 Z" id="Shape" fill="#231F20" fill-rule="nonzero"></path>
            <path d="M139.04,60.79 C139.05183,61.698367 138.954466,62.6048648 138.75,63.49 C138.590237,64.1903364 138.264411,64.8419876 137.8,65.39 C137.405737,65.8600405 136.900499,66.2243617 136.33,66.45 C135.692684,66.6955974 135.012671,66.8111996 134.33,66.79 C133.646968,66.8038205 132.967746,66.6849565 132.33,66.44 C131.776212,66.2094143 131.285823,65.8493384 130.9,65.39 C130.425433,64.8493287 130.083085,64.2057149 129.9,63.51 C129.691559,62.6187576 129.594153,61.7051555 129.61,60.79 L129.61,52.3 L131.32,52.3 L131.32,60.89 C131.30617,61.4994009 131.349695,62.1087516 131.45,62.71 C131.533495,63.1350381 131.685474,63.5436925 131.9,63.92 C132.134867,64.3214003 132.48264,64.6448293 132.9,64.85 C133.360629,65.073531 133.868171,65.1832697 134.38,65.17 C134.893872,65.1823472 135.403694,65.0762769 135.87,64.86 C136.288064,64.6511707 136.635735,64.3243605 136.87,63.92 C137.089673,63.5318087 137.241836,63.1091346 137.32,62.67 C137.421021,62.0990261 137.467896,61.519788 137.46,60.94 L137.46,52.3 L139.07,52.3 L139.07,60.79 L139.04,60.79 Z M149.89,53.98 L143.74,53.98 L143.74,57.98 L149.02,57.98 L149.02,59.66 L143.74,59.66 L143.74,66.49 L142.13,66.49 L142.13,52.3 L149.89,52.3 L149.89,53.98 Z M161.79,66.49 L159.69,66.49 L155.62,60.85 L153.32,60.85 L153.32,66.49 L151.7,66.49 L151.7,52.3 L155.11,52.3 C155.724351,52.2903589 156.337937,52.3473586 156.94,52.47 C157.416086,52.5732083 157.865566,52.7741125 158.26,53.06 C158.687209,53.3838106 159.030202,53.8056921 159.26,54.29 C159.528539,54.8756067 159.655298,55.5162543 159.63,56.16 C159.661402,57.0622758 159.432269,57.9545034 158.97,58.73 C158.530442,59.4180968 157.897228,59.9608519 157.15,60.29 L161.72,66.49 L161.79,66.49 Z M158.01,56.3 C158.018221,55.9277629 157.95368,55.557502 157.82,55.21 C157.698903,54.8951299 157.490821,54.6211553 157.22,54.42 C156.976334,54.228991 156.692568,54.0956551 156.39,54.03 C156.015008,53.9527998 155.632835,53.9159234 155.25,53.92 L153.32,53.92 L153.32,59.28 L154.95,59.28 C155.40196,59.2897695 155.853047,59.2359084 156.29,59.12 C156.674342,59.0265454 157.022343,58.821225 157.29,58.53 C157.536465,58.2696146 157.724041,57.9592626 157.84,57.62 C157.962367,57.1909789 158.019672,56.746026 158.01,56.3 L158.01,56.3 Z M167.82,62.81 C167.877245,63.8609739 167.517947,64.892159 166.82,65.68 C166.126949,66.3681774 165.175329,66.7313911 164.2,66.68 C163.865274,66.6752705 163.531221,66.6485462 163.2,66.6 C162.829916,66.5583512 162.462612,66.4949077 162.1,66.41 L162.1,64.64 L162.19,64.64 C162.461345,64.7484214 162.738427,64.8418948 163.02,64.92 C163.345421,65.0118998 163.681853,65.0590003 164.02,65.06 C164.429354,65.0743199 164.837417,65.0063094 165.22,64.86 C165.494341,64.7439299 165.725233,64.5445235 165.88,64.29 C166.034965,64.0020006 166.1302,63.6856835 166.16,63.36 C166.202613,62.934694 166.222641,62.5074273 166.22,62.08 L166.22,53.8 L163.65,53.8 L163.65,52.29 L167.84,52.29 L167.84,62.8 L167.82,62.81 Z" id="Shape" fill="#6D6E71"></path>
            <path d="M97.38,50.08 C96.2186665,50.0918996 95.06433,49.898946 93.97,49.51 C92.9610434,49.1503348 92.0453428,48.5694799 91.29,47.81 C90.5133263,47.0047068 89.9167975,46.0434434 89.54,44.99 C89.1155578,43.7308971 88.9092591,42.408556 88.93,41.08 C88.9147067,39.8122763 89.1141933,38.5511154 89.52,37.35 C89.8803992,36.2800951 90.4631699,35.2985865 91.23,34.47 C91.9750674,33.6813218 92.8874287,33.0696639 93.9,32.68 C95.0138129,32.2550503 96.1979737,32.0446836 97.39,32.06 C98.0220267,32.0559041 98.6535665,32.0960018 99.28,32.18 C100.277859,32.3067336 101.251629,32.5796588 102.17,32.99 C102.58,33.17 102.93,33.34 103.24,33.5 L103.24,37.71 L102.75,37.71 C102.54,37.52 102.28,37.3 101.96,37.04 C101.618778,36.7655961 101.261475,36.5118111 100.89,36.28 C100.472787,36.027938 100.030387,35.8201439 99.57,35.66 C99.0833691,35.4815873 98.5682646,35.3934773 98.05,35.4 C97.4635091,35.3983492 96.8813013,35.4998971 96.33,35.7 C95.7626137,35.9191015 95.250473,36.2605286 94.83,36.7 C94.3540329,37.2034772 93.9924521,37.8038377 93.77,38.46 C93.481219,39.3162305 93.3458092,40.2167061 93.37,41.12 C93.341647,42.0455999 93.4875123,42.968283 93.8,43.84 C94.0461952,44.487317 94.4241811,45.0764301 94.91,45.57 C95.3393897,45.9818613 95.8552515,46.2927449 96.42,46.48 C96.9525301,46.6555942 97.5092766,46.7466981 98.07,46.75 C98.5925978,46.7493746 99.111995,46.6684296 99.61,46.51 C100.104873,46.3556215 100.576006,46.1335157 101.01,45.85 C101.359966,45.6303101 101.694117,45.38638 102.01,45.12 C102.32,44.87 102.57,44.65 102.77,44.46 L103.22,44.46 L103.22,48.61 L102.03,49.16 C101.642611,49.3306333 101.245212,49.4775707 100.84,49.6 C100.3,49.76 99.84,49.88 99.32,49.97 C98.6579844,50.0677108 97.9890941,50.1111887 97.32,50.1 L97.38,50.08 Z M121.7,41.08 C121.825173,43.4877282 121.011418,45.8501261 119.43,47.67 C115.88227,50.921394 110.43773,50.921394 106.89,47.67 C103.877669,43.7855759 103.877669,38.3544241 106.89,34.47 C110.438103,31.2294436 115.871897,31.2294436 119.42,34.47 C121.013686,36.2912486 121.831958,38.6635218 121.7,41.08 L121.7,41.08 Z M116.04,45.48 C116.464101,44.9216499 116.776478,44.28671 116.96,43.61 C117.173198,42.7805702 117.274099,41.926276 117.26,41.07 C117.280139,40.1713295 117.165534,39.2747122 116.92,38.41 C116.729046,37.7706124 116.42415,37.1709826 116.02,36.64 C115.669428,36.206866 115.220237,35.8639729 114.71,35.64 C114.22309,35.4330142 113.699073,35.3275303 113.17,35.3299393 C112.645108,35.3270858 112.124925,35.4290825 111.64,35.63 C111.126539,35.8532805 110.673943,36.196156 110.32,36.63 C109.902532,37.1651347 109.59343,37.7765459 109.41,38.43 C109.168618,39.295557 109.054091,40.1915562 109.07,41.09 C109.050503,41.9813926 109.161683,42.8708341 109.4,43.73 C109.586867,44.3740718 109.892073,44.9777003 110.3,45.51 C110.645238,45.9444226 111.091556,46.2877445 111.6,46.51 C112.600432,46.9499627 113.739568,46.9499627 114.74,46.51 C115.242159,46.2772458 115.686226,45.9356556 116.04,45.51 L116.04,45.48 Z M137.84,37.88 C137.838841,38.6564983 137.707,39.4272639 137.45,40.16 C137.2199,40.8564133 136.841155,41.4944801 136.34,42.03 C135.712518,42.684542 134.96133,43.2079941 134.13,43.57 C133.175795,43.946537 132.15546,44.1267961 131.13,44.1 L128.47,44.1 L128.47,49.75 L124.2,49.75 L124.2,32.36 L131.2,32.36 C132.098662,32.3438246 132.995767,32.4412629 133.87,32.65 C134.555655,32.8213507 135.205645,33.1124919 135.79,33.51 C136.44111,33.9530662 136.967855,34.5555525 137.32,35.26 C137.687049,36.0693395 137.864882,36.9516666 137.84,37.84 L137.84,37.88 Z M133.43,37.98 C133.440904,37.5302284 133.307759,37.0887463 133.05,36.72 C132.833263,36.3944385 132.527918,36.1376713 132.17,35.98 C131.75922,35.7981873 131.318622,35.6931217 130.87,35.67 C130.45,35.67 129.87,35.67 129.18,35.67 L128.45,35.67 L128.45,40.87 L129.67,40.87 C130.273015,40.878367 130.87553,40.8315047 131.47,40.73 C131.90528,40.6489421 132.311954,40.4559443 132.65,40.17 C132.916258,39.9238304 133.121661,39.6191489 133.25,39.28 C133.379324,38.8694213 133.440138,38.440345 133.43,38.01 L133.43,37.98 Z M153.75,37.88 C153.748841,38.6564983 153.617,39.4272639 153.36,40.16 C153.126206,40.8547247 152.747903,41.492046 152.25,42.03 C151.624459,42.686808 150.872784,43.2105999 150.04,43.57 C149.085795,43.946537 148.06546,44.1267961 147.04,44.1 L144.32,44.1 L144.32,49.75 L140.05,49.75 L140.05,32.36 L147.05,32.36 C147.948662,32.3438246 148.845767,32.4412629 149.72,32.65 C150.405655,32.8213507 151.055645,33.1124919 151.64,33.51 C152.290789,33.9505942 152.814841,34.5539439 153.16,35.26 C153.535311,36.0669461 153.716806,36.9504486 153.69,37.84 L153.75,37.88 Z M149.34,37.98 C149.350904,37.5302284 149.217759,37.0887463 148.96,36.72 C148.743263,36.3944385 148.437918,36.1376713 148.08,35.98 C147.66922,35.7981873 147.228622,35.6931217 146.78,35.67 C146.36,35.67 145.78,35.67 145.09,35.67 L144.32,35.67 L144.32,40.87 L145.54,40.87 C146.139728,40.8792963 146.73901,40.8324251 147.33,40.73 C147.768952,40.6510462 148.179378,40.4579049 148.52,40.17 C148.789479,39.9266087 148.995445,39.6210925 149.12,39.28 C149.249324,38.8694213 149.310138,38.440345 149.3,38.01 L149.34,37.98 Z M167.97,49.75 L155.97,49.75 L155.97,32.36 L167.97,32.36 L167.97,35.72 L160.25,35.72 L160.25,38.72 L167.42,38.72 L167.42,42.08 L160.25,42.08 L160.25,46.36 L167.97,46.36 L167.97,49.72 L167.97,49.75 Z" id="Shape" fill="#231F20"></path>
            <rect id="Rectangle" fill="#939598" fill-rule="nonzero" x="68.89" y="0" width="1" height="98.81"></rect>
        </g>
    </g>
</svg>