<?xml version="1.0" encoding="UTF-8"?>
<svg width="558px" height="164px" viewBox="0 0 558 164" version="1.1" xmlns="http://www.w3.org/2000/svg" xmlns:xlink="http://www.w3.org/1999/xlink">
    <!-- Generator: Sketch 61.2 (89653) - https://sketch.com -->
    <title>LOGO ACATE ENERGIA</title>
    <desc>Created with Sketch.</desc>
    <g id="Page-1" stroke="none" stroke-width="1" fill="none" fill-rule="evenodd">
        <g id="LOGO-ACATE-ENERGIA" fill-rule="nonzero">
            <path d="M557.26,51.62 C552.61,57.62 545.12,60.01 538.82,60.01 C524.42,60.01 510.04,47.26 500.44,60.01 L492.53,51.62 C497.18,45.62 504.68,43.22 510.98,43.22 C525.36,43.22 539.46,56.11 549.36,43.22 L557.26,51.62 Z" id="Path" fill="#F9B22D"></path>
            <polygon id="Path" fill="#F9B22D" points="280.1 137.57 280.1 145.22 290.77 145.22 290.77 150.56 280.1 150.56 280.1 158.21 293.62 158.21 293.62 163.54 274.41 163.54 274.41 132.23 293.62 132.23 293.62 137.57"></polygon>
            <polygon id="Path" fill="#F9B22D" points="322.49 132.23 322.49 163.54 317.5 163.54 306.83 143.89 306.83 163.54 301.14 163.54 301.14 132.23 306.13 132.23 316.8 151.89 316.8 132.23"></polygon>
            <polygon id="Path" fill="#F9B22D" points="336.41 137.57 336.41 145.22 347.08 145.22 347.08 150.56 336.41 150.56 336.41 158.21 349.93 158.21 349.93 163.54 330.72 163.54 330.72 132.23 349.93 132.23 349.93 137.57"></polygon>
            <path d="M372.38,150.96 L378.79,163.54 L372.38,163.54 L367,151.8 L363.85,151.8 L363.85,163.54 L358.15,163.54 L358.15,132.23 L366.61,132.23 C375.05,132.23 378.79,136.41 378.79,142.01 C378.840859,146.085672 376.248361,149.725684 372.38,151.01 M363.85,146.51 L367.63,146.51 C370.7,146.51 373.1,144.96 373.1,142.06 C373.1,138.82 370.7,137.62 367.63,137.62 L363.85,137.62 L363.85,146.51 Z" id="Shape" fill="#F9B22D"></path>
            <path d="M407.65,163.54 L403.47,163.54 L402.85,159.72 C401.500748,162.364041 398.746975,163.992156 395.78,163.9 C388.53,163.9 383.46,156.74 383.46,147.9 C383.46,139.06 388.8,131.89996 396.85,131.89996 C401.096949,131.888803 404.992864,134.255697 406.94,138.03 L403.16,141.15 C401.74,138.75 399.92,137.23 397.25,137.23 C392.44,137.23 389.02,141.99 389.15,147.91 C389.28,153.83 391.74,158.58 396.15,158.58 C399.4,158.58 401.4,156 401.67,152.53 L395.53,152.53 L395.53,147.19 L407.62,147.19 L407.65,163.54 Z" id="Path" fill="#F9B22D"></path>
            <polygon id="Path" fill="#F9B22D" points="427.27 137.57 427.27 158.21 434.39 158.21 434.39 163.54 414.46 163.54 414.46 158.21 421.58 158.21 421.58 137.57 414.46 137.57 414.46 132.23 434.39 132.23 434.39 137.57"></polygon>
            <path d="M456.98,157.14 L448.17,157.14 L446.35,163.54 L440.12,163.54 L450.12,132.23 L455.12,132.23 L465.12,163.54 L458.89,163.54 L456.98,157.14 Z M455.56,152.14 L452.56,141.55 L449.56,152.14 L455.56,152.14 Z" id="Shape" fill="#F9B22D"></path>
            <path d="M66.09,16.38 L88.65,98.94 C88.91,100.48 88.27,100.94 86.98,100.94 L70.53,100.94 C69.38,100.94 69.25,100.43 68.86,98.94 L61.56,72.27 L27.24,72.27 L19.81,98.94 C19.42,100.48 19.29,100.94 18.01,100.94 L1.72,100.94 C0.32,100.94 -0.2,100.43 0.06,98.94 L23.01,16.38 C26.86,2.38 29.42,0.99 44.29,0.99 C59.8,0.99 62.29,2.4 66.09,16.38 M41.09,21.64 L31.74,55.64 L57.12,55.64 L47.89,21.64 C46.99,18.56 46.89,17.92 44.3,17.92 C42.12,17.92 41.87,18.56 41.09,21.64" id="Shape" fill="#343434"></path>
            <path d="M271.66,16.38 L294.22,98.94 C294.48,100.48 293.84,100.94 292.55,100.94 L276.15,100.94 C274.99,100.94 274.86,100.43 274.48,98.94 L267.17,72.27 L232.81,72.27 L225.38,98.94 C224.99,100.48 224.86,100.94 223.58,100.94 L207.3,100.94 C205.89,100.94 205.38,100.43 205.63,98.94 L228.58,16.38 C232.43,2.38 234.99,0.99 249.87,0.99 C265.38,0.99 267.81,2.4 271.66,16.38 M246.66,21.63 L237.3,55.63 L262.68,55.63 L253.45,21.63 C252.56,18.56 252.45,17.92 249.87,17.92 C247.68,17.92 247.43,18.56 246.66,21.63" id="Shape" fill="#343434"></path>
            <path d="M462.81,1.02 C463.343151,0.945105117 463.880441,1.12567105 464.260151,1.50734937 C464.639862,1.88902768 464.817649,2.42724367 464.74,2.96 L464.74,16.79 C464.81415,17.3211627 464.634806,17.8563444 464.255575,18.2355752 C463.876344,18.614806 463.341163,18.7941501 462.81,18.72 L416.42,18.72 L416.42,43.14 L458.8,43.14 C459.346722,43.0587088 459.900622,43.2316851 460.303921,43.6096565 C460.70722,43.9876279 460.915709,44.5291612 460.87,45.08 L460.87,58.26 C460.915709,58.8108388 460.70722,59.3523721 460.303921,59.7303435 C459.900622,60.1083149 459.346722,60.2812912 458.8,60.2 L416.42,60.2 L416.42,83.32 L462.81,83.32 C463.343151,83.2451051 463.880441,83.4256711 464.260151,83.8073494 C464.639862,84.1890277 464.817649,84.7272437 464.74,85.26 L464.74,99.08 C464.817649,99.6127563 464.639862,100.150972 464.260151,100.532651 C463.880441,100.914329 463.343151,101.094895 462.81,101.02 L398.08,101.02 C396.78,101.02 396.14,100.38 396.14,98.95 L396.14,2.95 C396.061588,2.41525621 396.24059,1.87491909 396.622755,1.4927546 C397.004919,1.11059011 397.545256,0.931587847 398.08,1.01 L462.81,1.02 Z" id="Path" fill="#343434"></path>
            <path d="M375.44,1.02 C375.986722,0.938708754 376.540622,1.11168509 376.943921,1.48965648 C377.34722,1.86762786 377.555709,2.4091612 377.51,2.96 L377.51,16.79 C377.552471,17.3391678 377.342566,17.8777917 376.939701,18.2534097 C376.536836,18.6290277 375.984855,18.8007613 375.44,18.72 L348.44,18.72 L348.44,98.95 C348.44,100.37 347.8,101.02 346.5,101.02 L330.09,101.02 C328.8,101.02 328.15,100.37 328.15,98.95 L328.15,18.72 L301.15,18.72 C300.617244,18.7976492 300.079028,18.6198623 299.697349,18.2401514 C299.315671,17.8604405 299.135105,17.3231505 299.21,16.79 L299.21,2.96 C299.131588,2.42525621 299.31059,1.88491909 299.692755,1.5027546 C300.074919,1.12059011 300.615256,0.941587847 301.15,1.02 L375.44,1.02 Z" id="Path" fill="#343434"></path>
            <path d="M130.38,78.49 C127.593333,71.2566667 126.2,62.7433333 126.2,52.95 L126.2,49.05 C126.2,39.2633333 127.593333,30.75 130.38,23.51 C133.166667,16.27 137.103333,10.7166667 142.19,6.85 C143.444512,5.95270767 144.753715,5.13445564 146.11,4.4 C141.74,2.17 137.35,1.21 131.27,0.999243891 C129.578554,0.984181077 127.893942,1.21665761 126.27,1.69 C119.85,3.6 114.48,8.44 111,14.05 C104.69,24.21 102.24,37.25 102.24,49.05 L102.24,52.95 C102.24,64.76 104.69,77.79 111,87.95 C114.48,93.56 119.85,98.4 126.27,100.31 C127.893942,100.783342 129.578554,101.015819 131.27,101.000756 C137.35,100.79 141.74,99.83 146.11,97.61 C144.753491,96.8722425 143.444286,96.0506496 142.19,95.15 C137.083333,91.3033333 133.146667,85.75 130.38,78.49 Z" id="Path" fill="#343434"></path>
            <path d="M131.26,101 L159.79,101 C165.570861,101.17726 171.269161,99.5940111 176.13,96.46 C181.05,93.46 183.54,89.24 186.26,83.88 C188.435831,79.4592121 189.877999,74.7139021 190.53,69.83 C190.667976,68.688761 190.308286,67.5433246 189.542668,66.6858324 C188.77705,65.8283402 187.679519,65.3416896 186.53,65.3498953 L170.33,65.3498953 C167.72843,65.3713739 165.538126,67.3017388 165.19,69.88 C164.517688,74.7485514 163.062221,79.4762848 160.88,83.88 C158.17,89.24 153.02,93.43 148.1,96.46 C143,99.46 138.22,100.76 131.17,101" id="Path" fill="#F9B22D"></path>
            <path d="M131.26,1 L159.79,1 C165.570861,0.82274028 171.269161,2.40598894 176.13,5.54 C181.05,8.54 183.54,12.76 186.26,18.13 C188.438659,22.5496702 189.880971,27.2954529 190.53,32.18 C190.667976,33.321239 190.308286,34.4666754 189.542668,35.3241676 C188.77705,36.1816598 187.679519,36.6683104 186.53,36.6601047 L170.33,36.6601047 C167.725109,36.6379304 165.533585,34.7022262 165.19,32.12 C164.520277,27.2508756 163.064684,22.5227328 160.88,18.12 C158.17,12.75 153.02,8.56 148.1,5.53 C143,2.53 138.22,1.23 131.17,0.99" id="Path" fill="#F9B22D"></path>
        </g>
    </g>
</svg>