<?xml version="1.0" encoding="UTF-8"?>
<svg width="74px" height="74px" viewBox="0 0 74 74" version="1.1" xmlns="http://www.w3.org/2000/svg" xmlns:xlink="http://www.w3.org/1999/xlink">
    <!-- Generator: Sketch 62 (91390) - https://sketch.com -->
    <title>Ícone Corporações</title>
    <desc>Created with Sketch.</desc>
    <defs>
        <linearGradient x1="117.8%" y1="-171.9%" x2="100%" y2="194.7%" id="linearGradient-1">
            <stop stop-color="#773DBD" offset="0%"></stop>
            <stop stop-color="#0071CE" stop-opacity="0.647" offset="100%"></stop>
        </linearGradient>
        <linearGradient x1="117.800193%" y1="-171.9%" x2="100.000143%" y2="194.7%" id="linearGradient-2">
            <stop stop-color="#773DBD" offset="0%"></stop>
            <stop stop-color="#0071CE" stop-opacity="0.647" offset="100%"></stop>
        </linearGradient>
        <linearGradient x1="117.8%" y1="-171.89857%" x2="100%" y2="194.699067%" id="linearGradient-3">
            <stop stop-color="#773DBD" offset="0%"></stop>
            <stop stop-color="#0071CE" stop-opacity="0.647" offset="100%"></stop>
        </linearGradient>
    </defs>
    <g id="Page-1" stroke="none" stroke-width="1" fill="none" fill-rule="evenodd" opacity="0.901">
        <g id="Ícone-Corporações" fill-rule="nonzero">
            <g id="Ícone_Corporações">
                <path d="M36.137,37.866 C39.7152529,37.866 42.616,34.9652529 42.616,31.387 C42.616,27.8087471 39.7152529,24.908 36.137,24.908 C32.5587471,24.908 29.658,27.8087471 29.658,31.387 C29.6585521,34.9650242 32.5589758,37.8654479 36.137,37.866 Z M36.137,26.712 C38.7189312,26.712 40.812,28.8050688 40.812,31.387 C40.812,33.9689312 38.7189312,36.062 36.137,36.062 C33.5550688,36.062 31.462,33.9689312 31.462,31.387 C31.4625503,28.8046492 33.5546506,26.7107589 36.137,26.708 L36.137,26.712 Z" id="Caminho_81" fill="url(#linearGradient-1)"></path>
                <path d="M52.792,31.49 C54.8952037,31.49 56.7913124,30.2230607 57.5961736,28.2799538 C58.4010348,26.336847 57.9561448,24.1002343 56.4689553,22.6130447 C54.9817657,21.1258552 52.745153,20.6809652 50.8020462,21.4858264 C48.8589393,22.2906876 47.592,24.1867963 47.592,26.29 C47.592,29.1618807 49.9201193,31.49 52.792,31.49 Z M52.792,22.877 C54.6697681,22.877 56.192,24.3992319 56.192,26.277 C56.192,28.1547681 54.6697681,29.677 52.792,29.677 C50.9142319,29.677 49.3919976,28.1547681 49.3919976,26.277 C49.3909357,25.3751218 49.7488712,24.5099053 50.3867834,23.8723683 C51.0246956,23.2348313 51.8901226,22.877405 52.792,22.879 L52.792,22.877 Z" id="Caminho_82" fill="url(#linearGradient-1)"></path>
                <path d="M19.465,31.49 C21.5682037,31.49 23.4643124,30.2230607 24.2691736,28.2799538 C25.0740348,26.336847 24.6291448,24.1002343 23.1419553,22.6130447 C21.6547657,21.1258552 19.418153,20.6809652 17.4750462,21.4858264 C15.5319393,22.2906876 14.265,24.1867963 14.265,26.29 C14.265,29.1618807 16.5931193,31.49 19.465,31.49 L19.465,31.49 Z M19.465,22.877 C21.3427681,22.877 22.865,24.3992319 22.865,26.277 C22.865,28.1547681 21.3427681,29.677 19.465,29.677 C17.5872319,29.677 16.0649976,28.1547681 16.0649976,26.277 C16.0639357,25.3751218 16.4218712,24.5099053 17.0597834,23.8723683 C17.6976956,23.2348313 18.5631226,22.877405 19.465,22.879 L19.465,22.877 Z" id="Caminho_83" fill="url(#linearGradient-1)"></path>
                <path d="M62.729,10.763 C55.8380765,3.87150969 46.4916383,-0.000136908101 36.746,-0.000136908101 C27.0003617,-0.000136908101 17.6539235,3.87150969 10.763,10.763 C0.257430647,21.2699353 -2.88505594,37.0704103 2.80070202,50.7975671 C8.48645997,64.5247238 21.8809155,73.475634 36.739,73.477 C57.0271693,73.4720315 73.4725838,57.0261694 73.4771058,36.738 C73.5004299,26.9930406 69.631233,17.6422414 62.729,10.763 Z M61.451,61.451 C52.6455992,70.3803969 39.7299875,73.9057282 27.6090679,70.688195 C15.4881484,67.4706617 6.02133826,58.0038516 2.80380503,45.8829321 C-0.413728211,33.7620125 3.11160313,20.8464008 12.041,12.041 C20.8464008,3.11160313 33.7620125,-0.413728211 45.8829321,2.80380503 C58.0038516,6.02133826 67.4706617,15.4881484 70.688195,27.6090679 C73.9057282,39.7299875 70.3803969,52.6455992 61.451,61.451 Z" id="Caminho_84" fill="url(#linearGradient-2)"></path>
                <path d="M59.572,34.078 L59.557,34.063 C55.3121261,31.8503928 50.2529625,31.8559958 46.013,34.078 C43.9658575,35.1475386 42.6849116,37.2683099 42.691,39.578 L42.691,39.984 C38.4693644,38.4056712 33.8196356,38.4056712 29.598,39.984 L29.598,39.593 C29.6020913,37.2797816 28.3146025,35.1577594 26.261,34.093 L26.246,34.078 C22.0011261,31.8653928 16.9419625,31.8709958 12.702,34.093 C10.6548575,35.1625386 9.37391162,37.2833099 9.37997839,39.593 L9.37997839,44.448 L24.051,44.448 C23.5313654,45.5100457 23.2637592,46.6776575 23.269,47.86 L23.269,53.888 L48.989,53.888 L48.989,47.875 C48.9925244,46.6928485 48.7250063,45.5256213 48.207,44.463 L62.9071539,44.463 L62.9071539,39.62 C62.9233544,37.2932177 61.6355402,35.1531677 59.572,34.078 L59.572,34.078 Z M11.154,42.62 L11.154,39.568 C11.152271,37.9276984 12.0614862,36.4220997 13.514,35.66 C17.2303983,33.7080752 21.6676824,33.7024702 25.389,35.645 L25.404,35.66 C26.862808,36.4175094 27.7784911,37.9242418 27.779,39.568 L27.779,40.741 C27.674,40.801 27.569,40.846 27.463,40.906 L27.448,40.906 C27.358,40.951 27.268,41.011 27.177,41.056 L27.087,41.101 C27.027,41.146 26.952,41.176 26.887,41.221 C26.8537649,41.2356611 26.823316,41.2559603 26.797,41.281 C26.7211837,41.322311 26.6506671,41.37268 26.587,41.431 C26.572,41.446 26.557,41.446 26.542,41.461 C26.452,41.521 26.362,41.596 26.271,41.661 C26.2627157,41.661 26.256,41.6677157 26.256,41.676 C26.1670384,41.7414563 26.0815867,41.8115534 26,41.886 L25.99,41.886 C25.7261196,42.1073423 25.4797209,42.3487262 25.253,42.608 L11.153,42.608 L11.154,42.62 Z M47.186,52.06 L25.0859664,52.06 L25.0859664,47.836 C25.081511,46.5059222 25.5265817,45.2133494 26.349,44.168 L26.409,44.093 C26.469,44.018 26.544,43.928 26.609,43.853 L26.609,43.853 C26.6728383,43.7898905 26.7329404,43.7231104 26.789,43.653 L26.864,43.578 L27.014,43.428 C27.074,43.383 27.134,43.323 27.194,43.278 C27.239,43.248 27.269,43.203 27.314,43.173 L27.555,42.973 C27.585,42.958 27.615,42.928 27.645,42.913 C27.72,42.868 27.795,42.808 27.87,42.763 C27.9,42.748 27.93,42.718 27.96,42.703 C28.065,42.643 28.17,42.583 28.291,42.523 C28.426,42.448 28.547,42.388 28.682,42.323 C28.802,42.263 28.923,42.203 29.058,42.143 L29.238,42.053 C33.6105503,40.1030264 38.6051822,40.1001188 42.98,42.045 L43.19,42.15 C43.325,42.21 43.446,42.27 43.566,42.33 C43.686,42.39 43.822,42.45 43.942,42.51 L43.972,42.525 C44.077,42.585 44.197,42.645 44.303,42.705 C44.333,42.72 44.363,42.75 44.393,42.765 C44.4713739,42.8097441 44.5465539,42.8598641 44.618,42.915 C44.6503797,42.9434788 44.685559,42.9686069 44.723,42.99 L44.948,43.17 C44.993,43.215 45.053,43.26 45.098,43.305 C45.143,43.35 45.203,43.395 45.248,43.44 C45.308,43.485 45.353,43.545 45.413,43.59 L45.488,43.665 C45.6212768,43.8032892 45.7468019,43.9488448 45.864,44.101 L45.924,44.176 C46.7406709,45.2302342 47.1848352,46.5254497 47.187,47.859 L47.186,52.06 Z M61.106,42.62 L46.99,42.62 C46.6059597,42.1892568 46.171891,41.8058799 45.697,41.478 C45.682,41.478 45.682,41.463 45.667,41.463 C45.5955409,41.4078823 45.5203622,41.3577631 45.442,41.313 C45.4151032,41.3014155 45.389879,41.2862809 45.367,41.268 C45.307,41.223 45.232,41.193 45.167,41.148 C45.1400977,41.1364262 45.1148721,41.1212908 45.092,41.103 C45.002,41.058 44.912,40.998 44.821,40.953 L44.791,40.938 C44.701,40.893 44.591,40.833 44.4909981,40.788 L44.4909981,39.601 C44.4894963,37.960761 45.3986465,36.4552699 46.851,35.693 C50.5673983,33.7410752 55.0046824,33.7354702 58.726,35.678 L58.741,35.693 C60.199808,36.4505094 61.1154911,37.9572418 61.116,39.601 L61.116,42.62 L61.106,42.62 Z" id="Caminho_85" fill="url(#linearGradient-3)"></path>
            </g>
        </g>
    </g>
</svg>