<?xml version="1.0" encoding="UTF-8"?>
<svg width="75px" height="74px" viewBox="0 0 75 74" version="1.1" xmlns="http://www.w3.org/2000/svg" xmlns:xlink="http://www.w3.org/1999/xlink">
    <!-- Generator: Sketch 62 (91390) - https://sketch.com -->
    <title>Ícone Médias empresas</title>
    <desc>Created with Sketch.</desc>
    <defs>
        <linearGradient x1="117.8%" y1="-171.9%" x2="100%" y2="194.7%" id="linearGradient-1">
            <stop stop-color="#773DBD" offset="0%"></stop>
            <stop stop-color="#0071CE" stop-opacity="0.647" offset="100%"></stop>
        </linearGradient>
        <linearGradient x1="117.8%" y1="-171.9%" x2="100%" y2="194.7%" id="linearGradient-2">
            <stop stop-color="#773DBD" offset="0%"></stop>
            <stop stop-color="#0071CE" stop-opacity="0.647" offset="100%"></stop>
        </linearGradient>
        <linearGradient x1="117.8%" y1="-171.901117%" x2="100%" y2="194.700728%" id="linearGradient-3">
            <stop stop-color="#773DBD" offset="0%"></stop>
            <stop stop-color="#0071CE" stop-opacity="0.647" offset="100%"></stop>
        </linearGradient>
        <linearGradient x1="117.8%" y1="-171.899768%" x2="100%" y2="194.699849%" id="linearGradient-4">
            <stop stop-color="#773DBD" offset="0%"></stop>
            <stop stop-color="#0071CE" stop-opacity="0.647" offset="100%"></stop>
        </linearGradient>
        <linearGradient x1="117.8%" y1="-171.9%" x2="100%" y2="194.7%" id="linearGradient-5">
            <stop stop-color="#773DBD" offset="0%"></stop>
            <stop stop-color="#0071CE" stop-opacity="0.647" offset="100%"></stop>
        </linearGradient>
    </defs>
    <g id="Page-1" stroke="none" stroke-width="1" fill="none" fill-rule="evenodd" opacity="0.901">
        <g id="Ícone-Médias-empresas" fill-rule="nonzero">
            <g id="Ícone_Médias_empresas">
                <path d="M60.116,71.5 L60.116,6.738 L63.1,6.738 C63.8625446,6.73363001 64.47963,6.11654465 64.484,5.354 L64.484,1.384 C64.47963,0.621455351 63.8625446,0.00436999081 63.1,0 L11.763,0 C11.0004554,0.00436999081 10.38337,0.621455351 10.379,1.384 L10.379,5.354 C10.38337,6.11654465 11.0004554,6.73363001 11.763,6.738 L14.745,6.738 L14.745,71.5 L0,71.5 L0,73.477 L74.894,73.477 L74.894,71.5 L60.116,71.5 Z M12.356,1.977 L62.5,1.977 L62.5,4.761 L12.356,4.761 L12.356,1.977 Z M34.07,71.5 L34.07,60.264 C34.07,58.407771 35.574771,56.903 37.431,56.903 C39.287229,56.903 40.792,58.407771 40.792,60.264 L40.792,71.5 L34.07,71.5 Z M42.77,71.5 L42.77,60.264 C42.77,57.315904 40.380096,54.926 37.432,54.926 C34.483904,54.926 32.094,57.315904 32.094,60.264 L32.094,71.5 L16.705,71.5 L16.705,6.738 L58.139,6.738 L58.139,71.5 L42.77,71.5 Z" id="Caminho_90" fill="url(#linearGradient-1)"></path>
                <path d="M37.43,35.585 C34.938585,35.5888546 32.9198546,37.607585 32.916,40.099 L32.916,43.658 L41.961,43.658 L41.961,40.116 C41.9511338,37.6176959 39.9283041,35.5948662 37.43,35.585 L37.43,35.585 Z M39.967,41.685 L34.876,41.685 L34.876,40.12 C34.876,38.7188536 36.0118536,37.583 37.413,37.583 C38.8141464,37.583 39.95,38.7188536 39.95,40.12 L39.95,41.685 L39.967,41.685 Z" id="Caminho_91" fill="url(#linearGradient-2)"></path>
                <path d="M26.293,35.5849794 C23.97523,35.5894022 22.0974022,37.46723 22.093,39.785 L22.093,43.657 L30.479,43.657 L30.479,39.785 C30.4862113,38.6713241 30.0479546,37.600971 29.2617661,36.8121531 C28.4755776,36.0233352 27.4066938,35.5815072 26.293,35.5849794 L26.293,35.5849794 Z M28.517,41.685 L24.085,41.685 L24.085,39.785 C24.085,38.5567187 25.0807187,37.561 26.309,37.561 C27.5372813,37.561 28.533,38.5567187 28.533,39.785 L28.533,41.685 L28.517,41.685 Z" id="Caminho_92" fill="url(#linearGradient-3)"></path>
                <path d="M48.566,35.585 C46.24823,35.5894022 44.3704022,37.46723 44.366,39.785 L44.366,43.657 L52.7520044,43.657 L52.7520044,39.785 C52.7553168,37.4694965 50.8815017,35.5894144 48.566,35.585 Z M50.774,41.685 L46.342,41.685 L46.342,39.785 C46.342,38.9904413 46.7658919,38.2562387 47.4539999,37.8589593 C48.142108,37.4616799 48.989892,37.4616799 49.6780001,37.8589593 C50.3661081,38.2562387 50.79,38.9904413 50.79,39.785 L50.79,41.685 L50.774,41.685 Z" id="Caminho_93" fill="url(#linearGradient-4)"></path>
                <path d="M37.43,25.569 C34.938585,25.5728546 32.9198546,27.591585 32.916,30.083 L32.916,33.625 L41.961,33.625 L41.961,30.083 C41.9434689,27.590657 39.9223913,25.5771623 37.43,25.569 Z M39.967,31.648 L34.876,31.648 L34.876,30.083 C34.876,28.6818536 36.0118536,27.546 37.413,27.546 C38.8141464,27.546 39.95,28.6818536 39.95,30.083 L39.95,31.648 L39.967,31.648 Z" id="Caminho_94" fill="url(#linearGradient-5)"></path>
                <path d="M26.293,25.5689794 C23.97523,25.5734022 22.0974022,27.45123 22.093,29.769 L22.093,33.641 L30.479,33.641 L30.479,29.769 C30.4862113,28.6553241 30.0479546,27.584971 29.2617661,26.7961531 C28.4755776,26.0073352 27.4066938,25.5655072 26.293,25.5689794 Z M28.517,31.648 L24.085,31.648 L24.085,29.753 C24.085,28.5247187 25.0807187,27.529 26.309,27.529 C27.5372813,27.529 28.533,28.5247187 28.533,29.753 L28.533,31.648 L28.517,31.648 Z" id="Caminho_95" fill="url(#linearGradient-3)"></path>
                <path d="M48.566,25.569 C46.24823,25.5734022 44.3704022,27.45123 44.366,29.769 L44.366,33.641 L52.7520044,33.641 L52.7520044,29.769 C52.7553168,27.4534965 50.8815017,25.5734144 48.566,25.569 Z M50.774,31.648 L46.342,31.648 L46.342,29.753 C46.342,28.5247188 47.3377188,27.5290003 48.566,27.5290003 C49.7942812,27.5290003 50.79,28.5247188 50.79,29.753 L50.79,31.648 L50.774,31.648 Z" id="Caminho_96" fill="url(#linearGradient-4)"></path>
                <path d="M37.43,15.552 C34.938585,15.5558546 32.9198546,17.574585 32.916,20.066 L32.916,23.608 L41.961,23.608 L41.961,20.066 C41.9434689,17.573657 39.9223913,15.5601623 37.43,15.552 Z M39.967,21.631 L34.876,21.631 L34.876,20.066 C34.876,18.6648536 36.0118536,17.529 37.413,17.529 C38.8141464,17.529 39.95,18.6648536 39.95,20.066 L39.95,21.631 L39.967,21.631 Z" id="Caminho_97" fill="url(#linearGradient-5)"></path>
                <path d="M26.293,15.5519794 C23.97523,15.5564022 22.0974022,17.43423 22.093,19.752 L22.093,23.624 L30.479,23.624 L30.479,19.752 C30.4862113,18.6383241 30.0479546,17.567971 29.2617661,16.7791531 C28.4755776,15.9903352 27.4066938,15.5485072 26.293,15.5519794 Z M28.517,21.631 L24.085,21.631 L24.085,19.737 C24.085,18.5087187 25.0807187,17.513 26.309,17.513 C27.5372813,17.513 28.533,18.5087187 28.533,19.737 L28.533,21.632 L28.517,21.631 Z" id="Caminho_98" fill="url(#linearGradient-3)"></path>
                <path d="M48.566,15.552 C46.24823,15.5564022 44.3704022,17.43423 44.366,19.752 L44.366,23.624 L52.7520044,23.624 L52.7520044,19.752 C52.7553168,17.4364965 50.8815017,15.5564144 48.566,15.552 L48.566,15.552 Z M50.774,21.631 L46.342,21.631 L46.342,19.737 C46.342,18.9424413 46.7658919,18.2082387 47.4539999,17.8109593 C48.142108,17.4136799 48.989892,17.4136799 49.6780001,17.8109593 C50.3661081,18.2082387 50.79,18.9424413 50.79,19.737 L50.79,21.632 L50.774,21.631 Z" id="Caminho_99" fill="url(#linearGradient-4)"></path>
            </g>
        </g>
    </g>
</svg>