<?xml version="1.0" encoding="UTF-8"?>
<svg width="76px" height="74px" viewBox="0 0 76 74" version="1.1" xmlns="http://www.w3.org/2000/svg" xmlns:xlink="http://www.w3.org/1999/xlink">
    <!-- Generator: Sketch 62 (91390) - https://sketch.com -->
    <title>Ícone Pesquisadores</title>
    <desc>Created with Sketch.</desc>
    <defs>
        <linearGradient x1="117.8%" y1="-171.9%" x2="100%" y2="194.7%" id="linearGradient-1">
            <stop stop-color="#773DBD" offset="0%"></stop>
            <stop stop-color="#0071CE" stop-opacity="0.647" offset="100%"></stop>
        </linearGradient>
        <linearGradient x1="117.800236%" y1="-171.9%" x2="100.000174%" y2="194.7%" id="linearGradient-2">
            <stop stop-color="#773DBD" offset="0%"></stop>
            <stop stop-color="#0071CE" stop-opacity="0.647" offset="100%"></stop>
        </linearGradient>
        <linearGradient x1="117.8%" y1="-171.9%" x2="100%" y2="194.7%" id="linearGradient-3">
            <stop stop-color="#773DBD" offset="0%"></stop>
            <stop stop-color="#0071CE" stop-opacity="0.647" offset="100%"></stop>
        </linearGradient>
    </defs>
    <g id="Page-1" stroke="none" stroke-width="1" fill="none" fill-rule="evenodd" opacity="0.901">
        <g id="Ícone-Pesquisadores" fill-rule="nonzero">
            <g id="Ícone_Pesquisadores">
                <path d="M49.585,0 C35.4465104,0 23.985,11.4615104 23.985,25.6 C23.985,39.7384896 35.4465104,51.2 49.585,51.2 C63.7234896,51.2 75.185,39.7384896 75.185,25.6 C75.1723193,11.4667663 63.7182337,0.0126807456 49.585,0 Z M49.585,49.371 C39.9655334,49.3689765 31.294593,43.5722053 27.6158122,34.6839707 C23.9370314,25.7957361 25.9749693,15.5666319 32.7792476,8.76693044 C39.5835258,1.96722899 49.813999,-0.06382567 58.6997563,3.62093482 C67.5855136,7.30569531 73.3764491,15.9805342 73.3720026,25.6 C73.345565,38.7236399 62.7086548,49.3533954 49.585,49.371 L49.585,49.371 Z" id="Caminho_86" fill="url(#linearGradient-1)"></path>
                <path d="M25.9,41.507 L25.358,40.633 L24.558,41.281 C24.4101788,41.4037467 24.2692949,41.5346153 24.136,41.673 L1.627,64.181 C0.579735246,65.2145763 -0.00677836449,66.6266069 -5.81068734e-05,68.098 C-0.000630538791,70.3471841 1.35365898,72.3752851 3.43137989,73.2366243 C5.50910079,74.0979635 7.9010931,73.6229197 9.492,72.033 L32,49.522 L32.06,49.462 L32.783,48.709 L31.954,48.091 C29.5383325,46.2983303 27.4841191,44.06428 25.9,41.507 L25.9,41.507 Z M8.2,70.75 C6.7397591,72.2102407 4.37224097,72.2102407 2.91200015,70.7499998 C1.45175933,69.289759 1.45175927,66.9222409 2.912,65.462 L24.969,43.39 C26.3815254,45.4672242 28.0922044,47.3251489 30.046,48.904 L8.2,70.75 Z" id="Caminho_87" fill="url(#linearGradient-2)"></path>
                <path d="M64.001,13.936 L64.031,13.921 L63.308,13.121 C62.0226682,11.7114981 60.5290134,10.5071988 58.879,9.55 L58.789,9.505 L58.774,9.49 C56.0650471,7.93785122 53.0067287,7.09800924 49.885,7.049 L49.252,7.049 C46.1353028,7.10005834 43.0823365,7.9398477 40.378,9.49 C40.363,9.49 40.363,9.505 40.348,9.505 C40.318,9.52 40.303,9.535 40.273,9.55 C38.6179701,10.5067988 37.1189795,11.7110497 35.828,13.121 L35.105,13.921 L35.135,13.936 C29.4644643,20.9376623 29.6552436,31.0042218 35.587,37.786 L35.542,37.816 L36.356,38.645 C39.7060709,42.0618777 44.2580671,44.0353901 49.042,44.145 L50.067,44.145 C54.8479151,44.0216837 59.3949876,42.0503059 62.753,38.645 L63.567,37.816 L63.522,37.786 C66.4743798,34.4120986 68.1018142,30.0812753 68.102,25.598 C68.1303743,21.3524436 66.6804619,17.2293324 64.001,13.936 L64.001,13.936 Z M41.131,11.136 C41.146,11.136 41.146,11.121 41.161,11.121 L41.161,11.121 C42.7338233,10.2106138 44.4430624,9.55960372 46.223,9.193 C44.3771484,10.8787091 42.8734034,12.9043002 41.794,15.159 C40.4694219,14.739803 39.1879311,14.1949936 37.967,13.532 C38.9268539,12.615152 39.9880285,11.8106321 41.13,11.134 L41.131,11.136 Z M57.99,11.121 C58.005,11.121 58.005,11.136 58.02,11.136 C59.1649714,11.8093976 60.2269093,12.6149131 61.184,13.536 C59.9617954,14.1963519 58.6805594,14.741053 57.357,15.163 C56.2775751,12.9083131 54.7738329,10.8827259 52.928,9.197 C54.7098995,9.55684603 56.4202075,10.2082632 57.99,11.125 L57.99,11.121 Z M48.679,9.539 L48.679,16.304 C46.9594663,16.2457858 45.2493977,16.0237816 43.572,15.641 C44.7560726,13.2235426 46.508428,11.1290884 48.679,9.537 L48.679,9.539 Z M48.679,18.112 L48.679,24.681 L41.279,24.681 C41.3702821,22.1559927 41.8900147,19.6648606 42.816,17.314 C44.7362303,17.7881644 46.7018386,18.0546933 48.679,18.109 L48.679,18.112 Z M48.679,26.504 L48.679,33.916 C46.8164107,33.9708886 44.9640752,34.2131094 43.15,34.639 C42.0182774,32.0695819 41.3843985,29.3087477 41.282,26.503 L48.679,26.504 Z M48.679,35.724 L48.679,41.645 C46.7387909,40.2289123 45.134144,38.403029 43.979,36.297 C45.5266539,35.9731695 47.0989242,35.7808173 48.679,35.722 L48.679,35.724 Z M50.487,41.645 L50.487,35.722 C52.0668735,35.7819872 53.6389904,35.9736517 55.187,36.295 C54.0222424,38.3945771 52.4188764,40.2186148 50.486,41.643 L50.487,41.645 Z M50.487,33.916 L50.487,26.501 L57.887,26.501 C57.7919179,29.3077074 57.1577249,32.0699097 56.019,34.637 C54.203441,34.21182 52.3498508,33.9696104 50.486,33.914 L50.487,33.916 Z M50.487,24.696 L50.487,18.125 C52.4636724,18.0689205 54.428606,17.8007159 56.348,17.325 C57.2739853,19.6758606 57.7937179,22.1669927 57.885,24.692 L50.487,24.696 Z M50.487,16.304 L50.487,9.537 C52.6564715,11.1286036 54.4086515,13.2214757 55.594,15.637 C53.9163414,16.0205238 52.2059336,16.2431983 50.486,16.302 L50.487,16.304 Z M41.071,16.816 C40.0984562,19.3289714 39.5535884,21.9870611 39.459,24.68 L32.845,24.68 C33.0348655,21.0838188 34.3885449,17.6467996 36.702,14.887 C38.083672,15.6861077 39.548319,16.3322558 41.07,16.814 L41.071,16.816 Z M39.471,26.503 C39.5685617,29.4694616 40.2172698,32.3918695 41.384,35.121 C39.9350004,35.5675347 38.5324946,36.1529167 37.196,36.869 C34.5915241,34.0216666 33.0576765,30.3576127 32.857,26.504 L39.471,26.503 Z M42.171,36.763 C43.2134883,38.7328366 44.5899086,40.5068217 46.239,42.006 C43.3891119,41.4270281 40.7401586,40.1128936 38.555,38.194 C39.7148382,37.6094478 40.9246639,37.1298682 42.17,36.761 L42.171,36.763 Z M52.913,42.006 C54.5620765,40.506808 55.9384947,38.7328256 56.981,36.763 C58.2275199,37.1285276 59.4379157,37.607531 60.597,38.194 C58.4133564,40.115334 55.7632148,41.4291973 52.912,42.004 L52.913,42.006 Z M57.764,35.121 C58.9307302,32.3918695 59.5794383,29.4694616 59.677,26.503 L66.291,26.503 C66.0834471,30.3550411 64.5505306,34.0168709 61.952,36.868 C60.6194857,36.142585 59.2157309,35.5564864 57.763,35.119 L57.764,35.121 Z M59.677,24.695 C59.5824304,22.0020589 59.0375619,19.3439661 58.065,16.831 C59.5846193,16.342546 61.0489321,15.696358 62.434,14.903 C64.7416216,17.6662644 66.0945051,21.1012626 66.291,24.696 L59.677,24.695 Z" id="Caminho_88" fill="url(#linearGradient-3)"></path>
            </g>
        </g>
    </g>
</svg>