<?xml version="1.0" encoding="UTF-8"?>
<svg width="38px" height="48px" viewBox="0 0 38 48" version="1.1" xmlns="http://www.w3.org/2000/svg" xmlns:xlink="http://www.w3.org/1999/xlink">
    <!-- Generator: Sketch 62 (91390) - https://sketch.com -->
    <title>regulamentos</title>
    <desc>Created with Sketch.</desc>
    <g id="Page-1" stroke="none" stroke-width="1" fill="none" fill-rule="evenodd">
        <g id="regulamentos" fill="#0071CE" fill-rule="nonzero">
            <path d="M13,47.5000405 L33.5,47.5000405 C34.6950237,47.5050779 35.842569,47.0326029 36.6875859,46.1875859 C37.5326029,45.342569 38.0050779,44.1950237 38.0000405,43 L38.0000405,11.3 C38.0050779,10.1049763 37.5326029,8.95743102 36.6875859,8.11241406 C35.842569,7.2673971 34.6950237,6.79492212 33.5,6.8 L29.5,6.8 L29.5,4.5 C29.5050779,3.30497634 29.0326029,2.15743102 28.1875859,1.31241406 C27.342569,0.467397101 26.1950237,-0.00507788379 25,-4.05111599e-05 L4.5,-4.05111599e-05 C3.30497634,-0.00507788379 2.15743102,0.467397101 1.31241406,1.31241406 C0.467397101,2.15743102 -0.00507788379,3.30497634 -4.05111599e-05,4.5 L-4.05111599e-05,36.1 C-0.00507788379,37.2950237 0.467397101,38.442569 1.31241406,39.2875859 C2.15743102,40.1326029 3.30497634,40.6050779 4.5,40.6 L8.5,40.6 L8.5,42.9 C8.47308876,44.1107051 8.93528752,45.2811569 9.78213563,46.1468238 C10.6289837,47.0124908 11.7889959,47.5000405 13,47.5000405 L13,47.5000405 Z M35,11.3 L35,43 C34.9799785,43.8199908 34.3199908,44.4799785 33.5,44.5 L13,44.5 C12.1800092,44.4799785 11.5200215,43.8199908 11.5,43 L11.5,11.3 C11.5200215,10.4800092 12.1800092,9.8200215 13,9.8 L33.5,9.8 C34.3199908,9.8200215 34.9799785,10.4800092 35,11.3 L35,11.3 Z M4.5,37.6 C3.68000921,37.5799785 3.0200215,36.9199908 3,36.1 L3,4.5 C3.0200215,3.68000921 3.68000921,3.0200215 4.5,3 L25,3 C25.8199908,3.0200215 26.4799785,3.68000921 26.5,4.5 L26.5,6.8 L13,6.8 C11.8049763,6.79492212 10.657431,7.2673971 9.81241406,8.11241406 C8.9673971,8.95743102 8.49492212,10.1049763 8.5,11.3 L8.5,37.6 L4.5,37.6 Z" id="Caminho_151"></path>
            <path d="M15.1,18.7 C15.1200215,19.5199908 15.7800092,20.1799785 16.6,20.2 L29.9,20.2 C30.7284271,20.2 31.4,19.5284271 31.4,18.7 C31.4,17.8715729 30.7284271,17.2 29.9,17.2 L16.6,17.2 C15.7800092,17.2200215 15.1200215,17.8800092 15.1,18.7 Z" id="Caminho_152"></path>
            <path d="M29.9,25.7 L16.6,25.7 C15.7715729,25.7 15.1,26.3715729 15.1,27.2 C15.1,28.0284271 15.7715729,28.7 16.6,28.7 L29.9,28.7 C30.7284271,28.7 31.4,28.0284271 31.4,27.2 C31.4,26.3715729 30.7284271,25.7 29.9,25.7 L29.9,25.7 Z" id="Caminho_153"></path>
            <path d="M29.9,34.1 L16.6,34.1 C15.7715729,34.1 15.1,34.7715729 15.1,35.6 C15.1,36.4284271 15.7715729,37.1 16.6,37.1 L29.9,37.1 C30.7284271,37.1 31.4,36.4284271 31.4,35.6 C31.4,34.7715729 30.7284271,34.1 29.9,34.1 Z" id="Caminho_154"></path>
        </g>
    </g>
</svg>