<?xml version="1.0" encoding="UTF-8"?>
<svg width="58px" height="48px" viewBox="0 0 58 48" version="1.1" xmlns="http://www.w3.org/2000/svg" xmlns:xlink="http://www.w3.org/1999/xlink">
    <!-- Generator: Sketch 62 (91390) - https://sketch.com -->
    <title>encerramento</title>
    <desc>Created with Sketch.</desc>
    <g id="Page-1" stroke="none" stroke-width="1" fill="none" fill-rule="evenodd">
        <g id="encerramento" transform="translate(0.000000, -1.000000)" fill="#3BD4AE" fill-rule="nonzero">
            <path d="M29.4,22.25 C28.1297451,22.25 27.1,23.2797451 27.1,24.55 C27.1,25.8202549 28.1297451,26.85 29.4,26.85 C30.6702549,26.85 31.7,25.8202549 31.7,24.55 L31.7,24.55 C31.7288094,23.9316195 31.4957539,23.3297168 31.0580186,22.8919814 C30.6202832,22.4542461 30.0183805,22.2211906 29.4,22.25 L29.4,22.25 Z" id="Caminho_145"></path>
            <path d="M10.5,29.45 C9.22974508,29.45 8.2,30.4797451 8.2,31.75 C8.2,33.0202549 9.22974508,34.05 10.5,34.05 C11.7702549,34.05 12.8,33.0202549 12.8,31.75 L12.8,31.75 C12.8101079,31.1369593 12.5710344,30.546054 12.1374902,30.1125098 C11.703946,29.6789656 11.1130407,29.4398921 10.5,29.45 Z" id="Caminho_146"></path>
            <circle id="Elipse_1" cx="20" cy="31.75" r="2.3"></circle>
            <path d="M20,22.25 C18.7297451,22.25 17.7,23.2797451 17.7,24.55 C17.7,25.8202549 18.7297451,26.85 20,26.85 C21.2702549,26.85 22.3,25.8202549 22.3,24.55 L22.3,24.55 C22.285944,23.285613 21.264387,22.264056 20,22.25 Z" id="Caminho_147"></path>
            <circle id="Elipse_2" cx="29.4" cy="31.75" r="2.3"></circle>
            <circle id="Elipse_3" cx="38.9" cy="31.75" r="2.3"></circle>
            <path d="M10.5,36.55 C9.22974508,36.55 8.2,37.5797451 8.2,38.85 C8.2,40.1202549 9.22974508,41.15 10.5,41.15 C11.7702549,41.15 12.8,40.1202549 12.8,38.85 L12.8,38.85 C12.785944,37.585613 11.764387,36.564056 10.5,36.55 L10.5,36.55 Z" id="Caminho_148"></path>
            <circle id="Elipse_4" cx="20" cy="38.95" r="2.3"></circle>
            <circle id="Elipse_5" cx="29.4" cy="38.95" r="2.3"></circle>
            <path d="M51,16.75 L47.3,14.25 C47.3303412,13.4285464 46.9568519,12.6442188 46.3,12.15 L46.2,12.15 L46.2,9.55 C46.2,8.72157288 45.5284271,8.05 44.7,8.05 C43.8715729,8.05 43.2,8.72157288 43.2,9.55 L43.2,12.15 C42.0747949,12.9996948 41.8111934,14.5813032 42.6,15.75 L43.2,16.35 C43.6389037,16.6626144 44.1613084,16.8367493 44.7,16.85 C44.9705499,16.8662306 45.2417699,16.8323281 45.5,16.75 L49.3,19.25 C49.5174118,19.4503842 49.8044371,19.5580187 50.1,19.55 C50.6072404,19.5915126 51.0864573,19.3119694 51.3,18.85 C51.549318,18.5356704 51.6584037,18.1326455 51.6016652,17.7354764 C51.5449268,17.3383073 51.3273575,16.9819474 51,16.75 Z" id="Caminho_149"></path>
            <path d="M52.6,3.65 C49.7969673,1.53180293 46.2620816,0.62504792 42.7855445,1.13243441 C39.3090074,1.6398209 36.1807231,3.51903858 34.1,6.35 L34.1,6.35 C34,6.45 33.9,6.65 33.8,6.75 L15.5,6.75 L15.5,3.95 C15.5,3.12157288 14.8284271,2.45 14,2.45 C13.1715729,2.45 12.5,3.12157288 12.5,3.95 L12.5,6.75 L4.5,6.75 C3.30497634,6.74492212 2.15743102,7.2173971 1.31241406,8.06241406 C0.467397101,8.90743102 -0.00507788379,10.0549763 -4.05111599e-05,11.25 L-4.05111599e-05,44.35 C-0.00507788379,45.5450237 0.467397101,46.692569 1.31241406,47.5375859 C2.15743102,48.3826029 3.30497634,48.8550779 4.5,48.8500405 L44.8,48.8500405 C45.9950237,48.8550779 47.142569,48.3826029 47.9875859,47.5375859 C48.8326029,46.692569 49.3050779,45.5450237 49.3,44.35 L49.3,26.75 C51.7196422,25.8601417 53.8356013,24.2991883 55.4,22.25 L55.4,22.25 C59.7218814,16.3303936 58.4730942,8.03487891 52.6,3.65 Z M4.4,9.75 L12.4,9.75 L12.4,12.25 C12.4,13.0784271 13.0715729,13.75 13.9,13.75 C14.7284271,13.75 15.4,13.0784271 15.4,12.25 L15.4,9.75 L32.2,9.75 C31.5866258,11.4119675 31.3145408,13.1805197 31.4,14.95 L2.9,14.95 L2.9,11.25 C2.95422564,10.4451026 3.59510265,9.80422564 4.4,9.75 Z M44.8,45.85 L4.4,45.85 C3.58000921,45.8299785 2.9200215,45.1699908 2.9,44.35 L2.9,17.95 L32,17.95 C33.6015696,23.6358805 38.792872,27.5600146 44.7,27.55 C45.2352836,27.566557 45.7709436,27.5330783 46.3,27.45 L46.3,44.35 C46.2799785,45.1699908 45.6199908,45.8299785 44.8,45.85 Z M52.9,20.45 L52.9,20.45 C49.5034488,25.0063492 43.0563492,25.9465512 38.5,22.55 C33.9436508,19.1534488 33.0034488,12.7063492 36.4,8.15 C38.0114015,5.92862803 40.4755235,4.47914445 43.2,4.15 C43.6954426,4.06697206 44.1979204,4.03347354 44.7,4.05 C47.4226238,4.04986915 50.0323042,5.13822521 51.948076,7.07277909 C53.8638478,9.00733296 54.9266924,11.6275071 54.9,14.35 C54.9438754,16.551228 54.2386815,18.7020693 52.9,20.45 L52.9,20.45 Z" id="Caminho_150"></path>
        </g>
    </g>
</svg>