<?xml version="1.0" encoding="UTF-8"?>
<svg width="39px" height="39px" viewBox="0 0 39 39" version="1.1" xmlns="http://www.w3.org/2000/svg" xmlns:xlink="http://www.w3.org/1999/xlink">
    <!-- Generator: Sketch 62 (91390) - https://sketch.com -->
    <title>faq</title>
    <desc>Created with Sketch.</desc>
    <g id="Page-1" stroke="none" stroke-width="1" fill="none" fill-rule="evenodd">
        <g id="faq" fill="#773DBD" fill-rule="nonzero">
            <path d="M39.0000131,6.5 C39.0034603,4.77503434 38.3197521,3.11972263 37.1000147,1.89998526 C35.8802774,0.680247887 34.2249657,-0.00346032271 32.5,-1.30710778e-05 L6.5,-1.30710778e-05 C4.77503434,-0.00346032271 3.11972263,0.680247887 1.89998526,1.89998526 C0.680247887,3.11972263 -0.00346032271,4.77503434 -1.30710778e-05,6.5 L-1.30710778e-05,22.8 C-0.00346032271,24.5249657 0.680247887,26.1802774 1.89998526,27.4000147 C3.11972263,28.6197521 4.77503434,29.3034603 6.5,29.3 L9.8,29.3 L9.8,37.2 C9.83407573,37.7920925 10.1754924,38.3231851 10.7,38.6 C10.888924,38.6815215 11.0948488,38.7158423 11.3,38.7 C11.6666865,38.6733255 12.0160722,38.5335712 12.3,38.3 L21.7,29.4 L32.5,29.4 C34.2249657,29.4034603 35.8802774,28.7197521 37.1000147,27.5000147 C38.3197521,26.2802774 39.0034603,24.6249657 39.0000131,22.9 L39.0000131,6.5 Z M36,22.8 C35.9767959,24.7233032 34.4233032,26.2767959 32.5,26.3 L21.2,26.3 C20.8333135,26.3266745 20.4839278,26.4664288 20.2,26.7 L13,33.6 L13,27.8 C12.9799785,26.9800092 12.3199908,26.3200215 11.5,26.3 L6.5,26.3 C4.57669682,26.2767959 3.0232041,24.7233032 3,22.8 L3,6.5 C3.0232041,4.57669682 4.57669682,3.0232041 6.5,3 L32.5,3 C34.4233032,3.0232041 35.9767959,4.57669682 36,6.5 L36,22.8 Z"></path>
        </g>
    </g>
</svg>